<svg width="285" height="65" viewBox="0 0 285 65" fill="none" xmlns="http://www.w3.org/2000/svg">
<path fill-rule="evenodd" clip-rule="evenodd" d="M48.0919 20.8147C48.14 20.8627 47.8674 21.2312 47.4664 21.6478C47.0654 22.0804 46.5041 22.7693 46.2314 23.2179C45.9588 23.6504 45.5417 24.5797 45.3172 25.2686C45.0927 25.9415 44.82 27.063 44.7398 27.7359C44.6436 28.4248 44.6275 29.338 44.6757 29.7866C44.7238 30.2192 44.9804 31.7732 45.237 33.2312C45.4936 34.6891 45.7663 36.6277 45.8625 37.5569C45.9588 38.4861 46.0229 39.9921 46.0229 40.9214C46.0229 41.8506 45.9427 43.3246 45.8786 44.2057C45.7663 45.3272 45.5578 46.3366 45.1408 47.5702C44.82 48.5475 44.1785 50.0535 43.7294 50.9347C43.2643 51.8158 42.5265 53.0014 42.0613 53.5782C41.6123 54.1549 40.8264 54.988 40.2971 55.4366C39.7838 55.8852 38.9338 56.5421 38.4045 56.8946C37.8752 57.247 37.0091 57.7597 36.4799 58.0321C35.9506 58.2884 34.876 58.721 34.0901 58.9613C33.3042 59.2177 32.6466 59.474 32.6145 59.5381C32.5825 59.6182 32.5825 59.7624 32.6306 59.8585C32.6626 59.9707 33.0476 60.1629 33.4646 60.2751C33.8976 60.4032 34.8118 60.4833 35.5175 60.4833C36.2232 60.4673 37.4101 60.3231 38.1639 60.1629C38.9178 60.0027 39.5433 59.8745 39.5753 59.8745C39.5914 59.8906 39.415 60.1469 39.1744 60.4513C38.9338 60.7557 38.2922 61.3004 37.763 61.6689C37.2337 62.0534 36.3516 62.5821 35.8062 62.8545C35.2449 63.1269 34.1222 63.5274 33.3202 63.7517C32.5023 63.976 31.2673 64.2003 30.5776 64.2644C29.8719 64.3445 29.2304 64.4887 29.1341 64.6008C29.0058 64.729 28.5567 64.8091 27.8991 64.8091C27.2416 64.8091 26.7925 64.729 26.6642 64.6008C26.5679 64.4887 25.9103 64.3445 25.1405 64.2804C24.4187 64.2323 22.9111 63.992 21.8044 63.7677C20.6978 63.5434 19.3345 63.207 18.7571 63.0467C18.1797 62.8865 17.8268 62.7103 17.9551 62.6622C18.0834 62.6302 19.6713 62.1015 21.4837 61.5247C23.6008 60.8358 25.5094 60.0988 26.8566 59.442C28.5728 58.5928 29.2945 58.1122 30.9465 56.7344C32.0532 55.8212 33.7052 54.2831 34.6194 53.3218C35.5496 52.3606 36.7204 50.9186 37.2337 50.1336C37.7469 49.3486 38.3724 48.147 38.6291 47.4901C38.8857 46.8332 39.2866 45.6316 39.5272 44.8466C39.7518 44.0615 40.0565 42.7158 40.1848 41.8826C40.3131 41.0335 40.4895 38.374 40.5697 35.8747C40.6499 33.1671 40.8103 30.828 40.9547 29.9788C41.099 29.2098 41.3556 28.1364 41.5481 27.5756C41.7406 27.0309 42.0934 26.1818 42.334 25.7012C42.5746 25.2205 43.0718 24.4195 43.4407 23.9388C43.8096 23.4582 44.419 22.8173 44.7879 22.5129C45.1568 22.2245 46.0389 21.6958 46.7286 21.3594C47.4343 21.0229 48.0438 20.7666 48.0919 20.8147ZM49.5033 0.00303726C49.5354 0.0350798 49.3269 0.515718 49.0542 1.07646C48.7655 1.62119 48.3325 2.39021 48.0598 2.79074C47.7872 3.19127 47.1777 3.97631 46.6805 4.53706C46.1833 5.0978 45.2049 6.02704 44.4992 6.58778C43.7935 7.14853 42.6387 7.96561 41.933 8.38216C41.2273 8.81474 39.8961 9.53569 38.9659 10.0003C38.0356 10.4649 36.961 11.0577 36.5601 11.3301C36.1591 11.6024 35.4855 12.1151 35.0524 12.4676C34.6194 12.8361 34.1061 13.4128 33.8976 13.7653C33.6891 14.1178 33.4165 14.8387 33.2721 15.3674C33.0636 16.1685 33.0636 16.4569 33.224 17.1298C33.3523 17.6745 33.5929 18.1071 33.9778 18.4916C34.3467 18.8601 34.8439 19.1485 35.3572 19.2766C35.8704 19.4208 36.528 19.4689 37.2016 19.4048C37.9233 19.3407 38.5809 19.1485 39.3668 18.7639C40.1367 18.3794 40.8905 17.8027 41.7726 16.9535C42.4944 16.2486 43.6331 14.9028 44.3388 13.9255C45.0285 12.9642 45.6701 12.0991 45.7502 12.003C45.8465 11.9229 45.4616 12.7079 44.9162 13.7653C44.3549 14.8227 43.5048 16.2967 43.0237 17.0497C42.5265 17.8027 41.6764 18.9882 41.1311 19.6932C40.5858 20.3981 39.5433 21.5356 38.8215 22.2245C38.1158 22.8974 36.7686 24.0189 35.8544 24.7078C34.9401 25.3807 33.1919 26.5022 31.9569 27.1751C30.738 27.864 29.102 28.6971 28.3001 29.0496C27.5142 29.4021 26.0387 29.9148 25.0603 30.1711C24.0659 30.4435 22.7667 30.7318 22.1733 30.828C21.5638 30.9081 19.5269 31.1324 17.6344 31.3246C15.7418 31.5009 12.919 31.8533 11.3793 32.1257C9.00552 32.5102 8.38001 32.6864 7.28937 33.2151C6.58367 33.5516 5.57323 34.1444 5.04395 34.5449C4.51467 34.9454 3.79293 35.6183 3.44008 36.0509C3.08723 36.4835 2.55795 37.2365 2.26925 37.7171C1.98055 38.1978 1.57959 39.143 1.37108 39.7999C1.14654 40.4568 0.90596 41.386 0.809728 41.8506C0.713495 42.2992 0.633302 43.4207 0.601224 45.9681L0.360643 45.0869C0.232333 44.5902 0.0879847 43.0682 0.0398685 41.6423C-0.0403251 39.5596 -0.00824767 38.8386 0.216295 37.7972C0.376682 37.0923 0.77765 35.9388 1.1305 35.2338C1.46732 34.5289 2.10886 33.4875 2.54191 32.9107C2.95892 32.334 4.06559 31.2285 4.9798 30.4595C6.16666 29.4501 7.11295 28.8253 8.2517 28.2485C9.13383 27.816 10.4009 27.3193 11.0585 27.1591C11.7161 26.9989 13.4964 26.6304 14.988 26.358C16.4956 26.0696 18.5165 25.6371 19.4788 25.3807C20.4572 25.1404 21.6761 24.7719 22.2054 24.5637C22.7988 24.3394 23.4725 23.9228 23.9536 23.4742C24.3706 23.0737 24.8999 22.4168 25.0924 22.0163C25.3009 21.6157 25.9103 20.1738 26.4557 18.812C27.001 17.4502 27.6746 15.8961 27.9312 15.3674C28.2039 14.8387 28.7011 14.0217 29.0379 13.5731C29.3747 13.1084 30.1927 12.3394 30.8342 11.8748C31.4597 11.3942 32.3098 10.8334 32.7108 10.6091C33.1117 10.3688 34.4109 9.85612 35.5977 9.43957C36.7846 9.02301 38.6611 8.25399 39.7678 7.72529C40.8745 7.19659 42.4623 6.31542 43.2963 5.7707C44.1303 5.20995 45.4295 4.21663 46.1833 3.55976C46.9371 2.90289 47.9796 1.81344 48.4929 1.14055C49.0222 0.483675 49.4712 -0.0450266 49.5033 0.00303726ZM23.3923 12.8841C23.4243 12.8841 23.4083 13.5891 23.3602 14.4542C23.296 15.4315 23.1517 16.3608 22.9271 16.9696C22.7507 17.4983 22.3658 18.3314 22.0771 18.812C21.7884 19.2927 21.227 20.0296 20.81 20.4462C20.377 20.8788 19.5911 21.4555 19.0458 21.7599C18.4844 22.0643 17.6825 22.4328 17.2334 22.577C16.8003 22.7212 15.3569 22.9455 14.0256 23.0737C12.7105 23.2018 10.9783 23.4422 10.1763 23.6184C9.39045 23.7946 8.26774 24.1631 7.69034 24.4195C7.11295 24.6918 6.63179 24.8841 6.59971 24.8681C6.58367 24.836 6.80821 24.3073 7.11295 23.6985C7.4658 22.9615 7.93092 22.3367 8.42812 21.8881C8.86117 21.5036 9.79142 20.9108 10.4971 20.5744C11.2028 20.2379 12.3255 19.8374 12.9831 19.6932C13.6407 19.533 14.8436 19.2286 15.6295 19.0203C16.4315 18.812 17.5381 18.3794 18.1155 18.0911C18.6929 17.7867 19.7354 17.0016 20.4411 16.3608C21.1468 15.7039 22.0931 14.6625 22.5262 14.0377C22.9753 13.4128 23.3602 12.9002 23.3923 12.8841ZM38.0998 27.0309C38.1319 27.0469 37.6667 27.5596 37.0733 28.1845C36.4799 28.8093 35.8062 29.6744 35.5657 30.107C35.3251 30.5396 35.0203 31.3246 34.892 31.8694C34.6675 32.6544 34.6515 33.4234 34.7316 36.3553C34.8279 39.5275 34.7958 40.0722 34.4911 41.9628C34.2986 43.1003 33.9297 44.6703 33.657 45.4394C33.4004 46.2084 32.9353 47.3619 32.6145 48.0028C32.2938 48.6436 31.4437 50.0215 30.722 51.0949C30.0163 52.1523 28.9898 53.45 28.4605 53.9787C27.9312 54.5074 27.0651 55.2444 26.5359 55.5969C26.0066 55.9493 24.9159 56.5742 24.13 56.9747C23.3281 57.3752 22.0931 57.8879 21.3553 58.1122C20.6336 58.3525 19.4147 58.6409 18.6288 58.7851C17.8589 58.9133 16.4956 59.0254 15.5814 59.0254C14.6832 59.0254 13.3841 58.9453 12.6944 58.8492C12.0208 58.7531 11.3793 58.6089 11.2991 58.5448C11.2028 58.4647 11.4755 58.3525 11.9406 58.2884C12.3737 58.2404 13.5284 57.936 14.5068 57.6316C15.4691 57.3111 16.7683 56.8145 17.3938 56.494C18.0032 56.1896 18.8373 55.709 19.2382 55.4206C19.6392 55.1162 20.5053 54.3152 21.1629 53.6262C21.9007 52.8572 22.5422 51.9921 22.8309 51.3993C23.0875 50.8706 23.4243 49.9093 23.5847 49.2524C23.8574 48.195 23.8574 48.0188 23.6649 47.8105C23.4564 47.5862 23.3121 47.6663 22.4139 48.5315C21.8525 49.0602 21.0025 49.701 20.5213 49.9734C19.6873 50.422 19.543 50.454 17.7787 50.454C15.9663 50.454 15.8861 50.438 14.8115 49.8773C13.9936 49.4607 13.5766 49.1403 13.2077 48.5956C12.8548 48.0829 12.6944 47.6183 12.6142 46.9293C12.5501 46.3846 12.3897 45.8719 12.2614 45.7598C12.0689 45.5996 11.8925 45.5996 11.4113 45.7438C11.0906 45.8559 10.433 46.3045 9.9518 46.7531C9.48668 47.2017 8.89325 47.8586 8.65267 48.211C8.39605 48.5475 7.97904 49.4928 7.72242 50.2938C7.44976 51.0789 7.14503 52.3445 7.06483 53.0975C6.9686 53.8345 6.87237 54.6997 6.84029 55.0201C6.80821 55.5328 6.72802 55.4206 5.81381 53.5782C5.25246 52.4727 4.70714 51.0949 4.56279 50.5341C4.43448 49.9574 4.27409 48.8359 4.22598 48.0508C4.16182 47.2177 4.1939 46.0962 4.30617 45.4073C4.41844 44.7184 4.72318 43.7091 5.01188 43.0842C5.30057 42.4594 5.84589 41.5302 6.19874 41.0015C6.55159 40.4568 7.12899 39.7038 7.48184 39.3192C7.83469 38.9187 8.63663 38.2298 9.26214 37.7972C9.90369 37.3486 10.449 37.0282 10.4811 37.0763C10.5132 37.1083 10.433 37.5729 10.3047 38.1176C10.0801 38.9988 10.0801 39.143 10.3367 39.9601C10.5292 40.5529 10.8179 41.0335 11.283 41.4821C11.6519 41.8506 12.2774 42.2511 12.7425 42.4114C13.1756 42.5555 13.8011 42.6837 14.1058 42.6677C14.4106 42.6677 14.9559 42.5876 15.2927 42.4754C15.6295 42.3633 16.1748 42.0589 16.4956 41.7865C16.8164 41.5142 17.2013 41.0015 17.3777 40.665C17.5542 40.2805 17.7146 39.4474 17.7787 38.5983C17.8589 37.5729 18.0032 36.9161 18.2759 36.3553C18.5004 35.9067 18.8854 35.3299 19.158 35.0576C19.4147 34.8012 20.0722 34.3687 20.6015 34.1123C21.3553 33.7599 21.8686 33.6477 24.2904 33.5035L23.2319 34.609C22.5582 35.2979 22.0931 35.9388 21.9648 36.3553C21.7884 36.868 21.8044 37.1243 21.9809 37.7812C22.1252 38.3099 22.446 38.8386 22.9271 39.3513C23.5206 39.9921 23.8413 40.2004 24.6914 40.4568C25.2688 40.617 26.0547 40.7612 26.4557 40.7612C26.8566 40.7612 27.4982 40.649 27.8991 40.5208C28.3803 40.3606 28.9096 39.9761 29.5191 39.3513C30.0323 38.8546 30.6257 38.0375 30.8503 37.5569C31.1229 36.9641 31.3635 35.9868 31.556 34.6731C31.7805 33.1991 31.989 32.382 32.3419 31.629C32.6145 31.0523 33.1438 30.2031 33.4967 29.7385C33.8655 29.2739 34.5713 28.6331 35.0685 28.3126C35.5817 27.9762 36.4638 27.5596 37.0252 27.3514C37.6026 27.1591 38.0837 26.9989 38.0998 27.0309Z" fill="url(#paint0_linear_2020_6)"/>
<path fill-rule="evenodd" clip-rule="evenodd" d="M70.2427 18.9727L70.1625 19.3411C70.1143 19.5334 69.4568 22.7216 68.7029 26.4225C67.9491 30.1235 67.3076 33.2957 67.2594 33.4719C67.2113 33.6481 67.2755 33.9205 67.4198 34.0807C67.6604 34.3371 68.2057 34.3531 74.525 34.3531C78.3101 34.3531 81.4858 34.289 81.5981 34.2249C81.7264 34.1608 82.3358 31.5013 83.1538 27.3838C83.9076 23.6829 84.5813 20.2704 84.8379 18.9727H88.6872C92.2638 18.9727 92.5365 18.9887 92.4884 19.261C92.4563 19.4052 90.676 27.8484 84.5973 56.4624H80.9405C78.9356 56.4624 77.2997 56.4144 77.2997 56.3503C77.2997 56.2702 77.9412 52.9858 78.7432 49.0125C79.5451 45.0553 80.1867 41.6428 80.1867 41.4505C80.1867 41.2422 80.0744 41.05 79.9461 41.0019C79.8178 40.9538 76.6421 40.9218 72.9051 40.9218C67.5481 40.9218 66.0565 40.9699 65.8801 41.1301C65.7678 41.2422 65.4631 42.2676 65.2225 43.4051C64.9659 44.5586 64.2442 47.9391 62.4478 56.3823L55.0059 56.4624L55.07 56.11C55.1181 55.9017 56.7701 47.5546 58.775 37.5573C60.7638 27.5601 62.4318 19.2771 62.4639 19.1809C62.512 19.0207 63.4422 18.9727 70.2427 18.9727ZM133.179 18.9727H140.973L140.749 19.982C140.621 20.5267 138.888 28.8418 136.884 38.4385C134.895 48.0513 133.227 56.0299 133.179 56.1901C133.114 56.4464 132.81 56.4624 125.737 56.4624L125.801 56.0299C125.833 55.7735 127.517 47.3463 129.522 37.285L133.179 18.9727ZM150.116 18.9727C152.233 18.9727 153.965 18.9887 153.965 19.0047C153.949 19.0207 152.201 27.4479 146.17 56.3823L138.728 56.4624L138.792 56.0939C138.84 55.9017 140.492 47.5546 142.497 37.5413C144.486 27.544 146.154 19.2771 146.186 19.1649C146.234 19.0047 147.164 18.9727 150.116 18.9727ZM112.056 28.265C118.054 28.265 121.198 28.3131 121.759 28.4412C122.224 28.5374 122.898 28.7617 123.251 28.9379C123.604 29.1141 124.021 29.3705 124.197 29.5147C124.357 29.6588 124.646 30.0754 124.822 30.4279C125.111 30.9405 125.159 31.3251 125.159 32.5106C125.143 33.2957 124.983 34.8177 124.806 35.8751C124.614 36.9325 124.181 39.2396 123.828 41.0019C123.475 42.7642 123.106 44.5746 122.85 45.8884H104.566L105.945 39.3998L111.27 39.3197C115.777 39.2396 116.627 39.1915 116.755 38.9992C116.835 38.8551 116.947 38.3264 117.012 37.7977C117.06 37.2529 117.076 36.6121 117.012 36.3557C116.963 36.0834 116.755 35.6989 116.563 35.5066C116.354 35.3144 115.905 35.042 115.552 34.9298C115.039 34.7536 113.98 34.7216 110.5 34.7696C107.934 34.8177 105.784 34.9138 105.367 35.026C104.87 35.1541 104.421 35.4425 103.908 35.9392C103.427 36.4198 103.058 36.9966 102.817 37.6374C102.625 38.1661 102.112 40.5693 101.679 43.0046C101.262 45.4238 100.861 47.7629 100.796 48.2115C100.716 48.8523 100.748 49.0766 100.989 49.381C101.246 49.7175 101.47 49.7816 103.122 49.9258C104.132 50.0059 108.479 50.0539 112.793 50.0219C117.958 49.9898 120.588 50.0219 120.556 50.134C120.524 50.2141 120.171 51.6721 119.081 56.4624L95.0225 56.3823L94.1564 55.9017C93.4988 55.5172 93.2101 55.2288 92.8893 54.62C92.5204 53.9151 92.4723 53.6267 92.4884 52.377C92.4884 51.2715 92.7931 49.4291 93.7234 44.6868C94.397 41.2422 95.1668 37.3491 95.4395 36.0353C95.7924 34.273 96.065 33.3598 96.4339 32.6708C96.7066 32.1261 97.3 31.3411 97.7491 30.8925C98.2302 30.4118 99.0963 29.8191 99.9143 29.3865C100.668 29.002 101.711 28.6014 102.24 28.4893C102.946 28.3291 105.528 28.281 112.056 28.265ZM188.657 28.249L200.621 28.297C211.752 28.3291 212.635 28.3611 213.228 28.6335C213.581 28.7777 214.046 29.0661 214.238 29.2743C214.447 29.4666 214.768 29.9152 214.96 30.2677C215.217 30.7803 215.281 31.1809 215.281 32.3504C215.265 33.2316 215.104 34.5614 214.864 35.795C214.639 36.8844 213.645 41.8671 212.667 46.8497C211.688 51.8163 210.854 56.0138 210.822 56.174C210.742 56.4464 210.036 56.4464 185.786 56.3823L184.679 55.8216C183.925 55.4371 183.428 55.0686 183.187 54.7001C182.979 54.3797 182.738 53.8349 182.642 53.4985C182.546 53.114 182.514 52.2809 182.578 51.4958C182.626 50.7428 182.786 49.4451 182.931 48.612C183.075 47.7629 183.396 46.2569 183.653 45.2475C183.909 44.2222 184.358 42.9084 184.647 42.2996C184.952 41.6267 185.417 40.9699 185.802 40.6174C186.155 40.313 186.844 39.8804 187.325 39.6561C187.807 39.4318 188.753 39.1755 189.41 39.0473C190.26 38.9031 192.442 38.839 196.82 38.839C200.253 38.839 203.043 38.8871 203.043 38.9512C203.059 39.0153 202.739 40.5373 201.68 45.568H197.221C194.479 45.568 192.618 45.6321 192.329 45.7282C192.089 45.8243 191.656 46.1287 191.367 46.4171C191.078 46.6895 190.774 47.1701 190.677 47.4905C190.581 47.7949 190.533 48.2595 190.597 48.5319C190.645 48.7882 190.854 49.1567 191.046 49.349C191.255 49.5412 191.608 49.7816 191.848 49.8777C192.137 49.9738 193.997 50.0539 196.82 50.0539C200.397 50.0539 201.536 49.9898 202.193 49.8136C202.723 49.6534 203.3 49.333 203.717 48.9485C204.102 48.612 204.567 47.9712 204.759 47.5386C204.952 47.122 205.257 46.0486 205.433 45.1674C205.61 44.2863 206.043 41.819 206.395 39.7202C206.989 36.2436 207.021 35.827 206.812 35.5066C206.684 35.3144 206.299 35.074 205.962 34.9939C205.61 34.8978 201.792 34.8337 187.165 34.8337L187.245 34.4652C187.277 34.273 187.614 32.783 187.983 31.1809L188.657 28.249ZM281.713 28.3291L282.74 28.8097C283.301 29.0821 283.975 29.5307 284.215 29.8191C284.472 30.1074 284.745 30.6041 284.841 30.9405C284.921 31.261 285.001 31.9018 285.001 32.3344C285.001 32.783 284.825 34.2249 284.6 35.5387C284.392 36.8684 283.879 39.6081 283.478 41.6267C283.077 43.6614 282.708 45.4398 282.676 45.6C282.595 45.8564 282.034 45.8724 273.534 45.8724C265.578 45.8724 264.472 45.8403 264.472 45.6321C264.472 45.5039 264.728 44.1581 265.049 42.6361C265.354 41.1141 265.642 39.7362 265.691 39.592C265.755 39.3357 266.14 39.3037 270.919 39.3037C273.774 39.3037 276.18 39.2556 276.292 39.1915C276.404 39.1274 276.565 38.823 276.661 38.5026C276.741 38.1982 276.822 37.5253 276.822 37.0286C276.822 36.2436 276.757 36.0193 276.372 35.5867C276.1 35.2823 275.635 34.9939 275.282 34.8978C274.881 34.7857 273.101 34.7376 270.246 34.7857C267.038 34.8337 265.642 34.9138 265.113 35.074C264.712 35.2022 264.119 35.5387 263.766 35.827C263.429 36.1154 262.98 36.7082 262.772 37.1408C262.563 37.5894 262.226 38.8551 262.002 39.9445C261.793 41.05 261.344 43.5333 261.039 45.4718C260.51 48.6921 260.478 49.0286 260.703 49.365C260.831 49.5733 261.2 49.7655 261.537 49.8457C261.873 49.9097 266.236 49.9578 271.24 49.9578C276.26 49.9578 280.35 49.9578 280.35 49.9578C280.35 49.9578 280.029 51.3837 279.628 53.13C279.227 54.8603 278.907 56.3343 278.907 56.3663C278.907 56.4144 273.469 56.4304 254.768 56.3663L253.918 55.8857C253.325 55.5492 252.972 55.1968 252.683 54.6841C252.346 54.0753 252.298 53.7548 252.282 52.4892C252.282 51.2876 252.507 49.8296 253.485 44.7989C254.159 41.3864 254.913 37.5093 255.185 36.1795C255.554 34.321 255.795 33.536 256.26 32.6548C256.581 32.046 257.174 31.2129 257.575 30.8124C257.976 30.4279 258.922 29.787 259.66 29.3865C260.414 29.002 261.456 28.6014 261.986 28.4733C262.723 28.3131 265.145 28.281 281.713 28.3291ZM172.441 28.4252C178.953 28.4252 182.353 28.4733 182.353 28.5694C182.353 28.6655 182.129 30.0434 181.856 31.6615C181.584 33.2636 181.327 34.6254 181.279 34.6575C181.247 34.7055 177.798 34.7696 173.644 34.8017C167.213 34.8337 165.946 34.8818 165.272 35.1061C164.727 35.2823 164.246 35.5867 163.781 36.0994C163.299 36.5961 162.995 37.1248 162.786 37.7816C162.626 38.3103 162.369 39.3197 162.225 40.0246C162.096 40.7295 161.695 43.0046 161.359 45.0713C160.91 47.7148 160.765 48.9485 160.878 49.2048C160.958 49.3971 161.214 49.6534 161.455 49.7655C161.792 49.9097 163.893 49.9578 169.875 49.9578C175.104 49.9578 177.863 50.0219 177.847 50.118C177.847 50.2141 177.542 51.6561 176.467 56.3663L155.168 56.4624L154.286 56.0138C153.596 55.6454 153.307 55.389 152.97 54.7642C152.569 54.0592 152.521 53.8029 152.521 52.4411C152.521 51.608 152.602 50.6307 152.682 50.2782C152.762 49.9258 153.516 46.0807 154.366 41.7068C155.713 34.7857 155.97 33.6642 156.419 32.815C156.691 32.2863 157.317 31.4532 157.814 30.9726C158.343 30.4279 159.193 29.8191 159.979 29.4185C160.685 29.05 161.551 28.6815 161.904 28.6014C162.273 28.5053 166.78 28.4412 172.441 28.4252ZM252.122 28.4092L252.01 28.8578C251.961 29.0981 251.641 30.492 250.759 34.5774L230.069 34.7376L229.267 35.1061C228.818 35.3144 228.288 35.6348 228.096 35.827C227.887 36.0193 227.615 36.3878 227.486 36.6281C227.358 36.8684 227.294 37.2689 227.342 37.5093C227.374 37.7496 227.663 38.1822 227.984 38.4705C228.288 38.7589 228.786 39.0153 229.058 39.0633C229.347 39.1114 232.907 39.1755 236.965 39.1915C243.22 39.2396 244.471 39.2876 245.145 39.5119C245.578 39.6561 246.252 39.9926 246.621 40.2649C247.118 40.6174 247.455 41.05 247.823 41.835C248.337 42.8604 248.353 42.9885 248.353 44.831C248.337 46.0807 248.24 47.2342 248.048 48.1154C247.888 48.8684 247.551 50.0539 247.31 50.7589C247.07 51.4638 246.637 52.5372 246.332 53.146C246.027 53.7709 245.498 54.5078 245.145 54.8283C244.792 55.1327 244.038 55.6133 242.418 56.3663L229.299 56.4144C222.097 56.4304 216.195 56.3984 216.195 56.3343C216.195 56.2702 216.484 54.8443 216.837 53.1621C217.19 51.4958 217.478 50.102 217.478 50.086C217.478 50.0539 222.113 50.0379 227.775 50.0379C236.5 50.0379 238.216 50.0059 238.922 49.7976C239.387 49.6694 240.029 49.349 240.333 49.0766C240.67 48.7882 240.943 48.3877 240.991 48.0833C241.071 47.7148 241.007 47.3624 240.782 46.9138C240.606 46.5613 240.221 46.1287 239.916 45.9525C239.403 45.6481 239.002 45.6321 223.493 45.4718L222.611 45.0232C222.129 44.7669 221.456 44.3023 221.119 43.9819C220.782 43.6614 220.317 43.0366 220.092 42.588C219.836 42.0914 219.643 41.4185 219.611 40.8257C219.563 40.2489 219.659 39.0954 219.868 37.9418C220.044 36.8844 220.365 35.3464 220.574 34.4973C220.798 33.6642 221.183 32.5427 221.456 32.014C221.728 31.4853 222.129 30.8124 222.37 30.492C222.611 30.1875 223.092 29.7229 223.461 29.4666C223.83 29.1942 224.455 28.8578 224.856 28.7136C225.514 28.4573 226.668 28.4252 252.122 28.4092Z" fill="white"/>
<defs>
<linearGradient id="paint0_linear_2020_6" x1="34.5528" y1="2.49372e-07" x2="19.5" y2="65" gradientUnits="userSpaceOnUse">
<stop offset="0.115385" stop-color="#EEC100"/>
<stop offset="0.877758" stop-color="#E22426"/>
</linearGradient>
</defs>
</svg>
