<svg width="239" height="46" viewBox="0 0 239 46" fill="none" xmlns="http://www.w3.org/2000/svg">
<path fill-rule="evenodd" clip-rule="evenodd" d="M140.153 0L140.257 8.70479H147.692V16.1483H140.257L140.319 20.8626C140.36 24.6257 140.422 25.6388 140.67 26.011C140.835 26.2798 141.269 26.5899 141.599 26.7347C141.992 26.8794 142.88 26.9208 144.078 26.8587C145.11 26.7967 146.287 26.5899 146.721 26.4039C147.134 26.2178 147.527 26.1351 147.589 26.2384C147.651 26.3211 147.692 27.9753 147.692 33.4132L146.928 33.806C146.267 34.1369 145.565 34.2196 142.735 34.3023C140.67 34.3436 138.894 34.3023 138.233 34.1575C137.654 34.0335 136.663 33.7026 136.085 33.4132C135.486 33.1237 134.598 32.5034 134.123 32.0072C133.648 31.5316 133.028 30.6632 132.739 30.1049C132.47 29.526 132.14 28.4715 132.016 27.7271C131.892 26.9621 131.768 22.558 131.706 8.66344L140.153 0ZM6.32019 0.206765L19.1252 13.0675L31.9303 0.248118L35.7511 4.01124C37.8577 6.09956 40.7699 8.95291 44.8386 12.9641L51.0965 6.69918C54.5456 3.26688 57.4164 0.454882 57.499 0.454882C57.5816 0.454882 59.0893 2.17103 60.8448 4.28003C63.4058 7.31947 64.0254 8.18788 63.9428 8.56006C63.8809 8.82885 62.7243 14.6183 61.3612 21.4415C59.9981 28.2647 58.8828 33.8681 58.8828 33.8887C58.8828 33.9301 46.7593 33.9508 4.97773 33.9508L4.77119 32.8549C4.66793 32.2553 3.55265 26.6106 2.2928 20.3043C1.0536 13.9773 0.0209402 8.62209 0.000286966 8.37397C-0.0203663 8.0845 1.07426 6.59579 3.13958 4.07326L6.32019 0.206765ZM52.7281 25.1633C56.549 29.7328 57.7262 30.9734 57.8295 30.8906C57.9121 30.8079 58.986 25.7629 60.2046 19.684C61.4438 13.5844 62.3938 8.51871 62.3319 8.41532C62.2906 8.29126 61.134 6.88526 59.7709 5.29318L57.3131 2.37779L52.7281 25.1633ZM1.54928 8.62209L6.11366 31.3662C9.60406 27.2102 10.7606 25.8249 10.9465 25.6181C11.2563 25.2666 11.1117 24.4189 9.02577 14.0393C7.80723 7.87774 6.73325 2.77065 6.65064 2.70862C6.56803 2.62591 5.39079 3.92853 4.02768 5.60332L1.54928 8.62209ZM7.27024 32.2966H56.7348C56.0739 31.573 54.876 30.167 53.6575 28.7196L51.4683 26.0937H12.4749L7.27024 32.2966ZM76.4587 0.248118H84.9266V9.96606L86.1658 9.34576C86.8473 8.99426 88.0246 8.58073 88.7887 8.39465C89.8007 8.14653 90.8127 8.0845 92.3617 8.14653C93.8694 8.20856 94.9434 8.39465 95.8728 8.70479C96.6163 8.97359 97.8142 9.57321 98.5577 10.0488C99.3012 10.545 100.293 11.4341 100.788 12.0544C101.284 12.6747 101.924 13.5431 102.193 13.998C102.461 14.4529 102.916 15.5074 103.225 16.3758C103.659 17.6164 103.783 18.4434 103.866 20.5111C103.969 22.5374 103.907 23.4471 103.618 24.7497C103.411 25.6595 102.874 27.1482 102.399 28.058C101.842 29.1952 101.139 30.1256 100.21 31.0561C99.4665 31.8004 98.3099 32.7102 97.6283 33.0617C96.9468 33.4132 95.8315 33.8681 95.1499 34.0335C94.4064 34.2402 93.0433 34.3643 91.7421 34.3643C90.3377 34.3643 89.1605 34.2402 88.4376 34.0335C87.818 33.8474 86.7854 33.4339 86.1658 33.103C85.5462 32.7722 84.8233 32.338 84.0798 31.7797L84.1004 33.744H76.4587V0.248118ZM87.6528 16.0449C87.3017 16.2104 86.6614 16.6652 86.2484 17.0374C85.8353 17.4096 85.3603 17.9679 85.2157 18.278C85.0092 18.6709 84.9266 19.6426 84.9266 21.3795C84.9266 23.902 84.9266 23.9227 85.5875 24.9565C86.0418 25.6388 86.5788 26.1351 87.1984 26.4452C87.7147 26.714 88.6441 26.9828 89.2637 27.0448C89.966 27.1275 90.8334 27.0655 91.5356 26.9001C92.3824 26.6933 92.9194 26.3832 93.6629 25.6802C94.2618 25.1219 94.7988 24.3776 95.0054 23.8193C95.2119 23.2404 95.3565 22.2892 95.3565 21.3381C95.3565 19.9941 95.2738 19.622 94.7369 18.6709C94.3858 18.0506 93.7042 17.1821 93.1879 16.7479C92.6509 16.2724 91.8248 15.7968 91.2258 15.6314C90.6475 15.466 90.1518 15.3419 90.0899 15.3626C90.0279 15.3626 89.6149 15.4453 89.1605 15.5487C88.7061 15.6314 88.0246 15.8589 87.6528 16.0449V16.0449ZM149.571 0.248118H158.039L158.142 20.2836L165.412 8.82885L174.562 8.72547V0.248118H178.589C180.799 0.248118 182.658 0.310147 182.699 0.392853C182.74 0.475559 181.026 2.39847 174.975 8.72547H183.03V33.744H166.197L158.142 21.5035L158.039 33.744H149.571V0.248118ZM167.189 20.4077C166.941 20.7799 167.271 21.3588 170.741 26.6106L174.541 32.4C174.562 14.3701 174.52 9.139 174.479 9.139C174.438 9.139 172.848 11.5788 170.927 14.5562C169.027 17.5543 167.333 20.1802 167.189 20.4077ZM224.439 8.02247C225.224 8.0845 226.298 8.22924 226.815 8.35329C227.331 8.47735 228.343 8.89088 229.086 9.26306C229.83 9.65591 230.635 10.1315 231.379 10.6897L231.358 8.51871H239V21.2761C239 31.7177 238.938 34.3229 238.69 35.5015C238.525 36.2872 238.029 37.6312 237.616 38.4996C237.1 39.5334 236.439 40.4432 235.592 41.2909C234.807 42.0559 233.733 42.821 232.783 43.2965C231.937 43.7307 230.553 44.2476 229.706 44.4751C228.859 44.6819 227.31 44.93 226.298 45.0127C225.224 45.0954 223.531 45.054 222.271 44.93C221.073 44.8059 219.255 44.4751 218.243 44.2063C217.211 43.9168 215.848 43.4619 214.01 42.6349V38.8511C213.989 36.7834 214.051 35.0259 214.113 34.9846C214.175 34.9226 215.022 35.2741 216.013 35.7496C217.025 36.2252 218.574 36.8248 219.483 37.0522C220.391 37.3004 221.92 37.5485 222.89 37.6105C223.964 37.6932 225.162 37.6312 225.988 37.4658C226.732 37.321 227.661 37.0522 228.054 36.8455C228.446 36.6387 229.066 36.1631 229.417 35.791C229.809 35.3361 230.14 34.6744 230.284 33.9921C230.429 33.3925 230.532 32.7515 230.512 32.5448C230.512 32.338 230.367 32.4827 230.16 32.9169C229.975 33.3098 229.52 33.7647 229.19 33.9301C228.777 34.1162 227.579 34.2609 225.679 34.3229C223.985 34.3643 222.188 34.3229 221.341 34.1782C220.536 34.0541 219.235 33.6199 218.45 33.2478C217.645 32.8549 216.509 32.1519 215.889 31.6557C215.269 31.1388 214.34 30.0843 213.803 29.2986C213.287 28.4922 212.626 27.2929 212.378 26.6106C212.109 25.9283 211.758 24.6257 211.593 23.7159C211.387 22.6132 211.325 21.476 211.407 20.3043C211.49 19.3325 211.676 17.9885 211.862 17.3062C212.027 16.6239 212.522 15.3626 212.936 14.5149C213.452 13.4397 214.133 12.5093 215.145 11.4961C216.054 10.5657 217.046 9.77997 217.83 9.38712C218.512 9.05629 219.441 8.66344 219.896 8.51871C220.35 8.35329 221.238 8.16721 221.858 8.0845C222.477 8.00179 223.634 7.98112 224.439 8.02247V8.02247ZM222.415 16.2724C222.002 16.5619 221.383 17.1408 221.073 17.5543C220.763 17.9885 220.371 18.7949 220.226 19.3739C220.04 20.0148 219.978 20.9453 220.04 21.855C220.082 22.6407 220.309 23.6125 220.495 24.0261C220.701 24.4189 221.156 25.0599 221.527 25.4321C221.878 25.8042 222.539 26.3211 222.994 26.5486C223.448 26.776 224.233 27.0035 224.749 27.0655C225.307 27.1275 226.154 27.0448 226.856 26.8381C227.806 26.5693 228.322 26.2591 229.293 25.308L230.532 24.1294C230.532 18.7949 230.532 18.7329 229.954 17.9265C229.623 17.4716 229.128 16.8927 228.859 16.6446C228.591 16.3964 228.033 16.0449 227.641 15.9002C227.248 15.7348 226.505 15.5487 225.988 15.4867C225.472 15.4246 224.646 15.466 224.13 15.5694C223.613 15.6728 222.849 15.9829 222.415 16.2724V16.2724ZM118.488 8.16721C120.492 8.22923 121.276 8.35329 122.557 8.7875C123.445 9.09765 124.663 9.65591 125.242 10.0281C125.841 10.4209 126.605 11.0412 126.956 11.3927C127.286 11.7649 127.658 12.2405 127.782 12.4266C127.885 12.6333 128.298 13.3777 128.65 14.06C129.021 14.763 129.476 15.9622 129.662 16.7273C129.909 17.7818 129.971 18.8156 129.889 20.8212C129.847 22.2892 129.744 23.6746 129.662 23.8606C129.538 24.1915 128.959 24.2328 121.586 24.2328C117.208 24.2328 113.635 24.2949 113.635 24.3776C113.614 24.4603 113.944 24.8945 114.357 25.308C114.75 25.7422 115.431 26.2591 115.845 26.4866C116.278 26.6933 117.125 26.9621 117.703 27.1069C118.302 27.2309 119.624 27.3343 120.657 27.3343C121.669 27.3343 123.238 27.1896 124.106 27.0035C124.994 26.8174 126.316 26.4452 127.059 26.1764C127.803 25.8869 128.422 25.6595 128.443 25.6802C128.484 25.6802 128.505 27.2516 128.505 32.7102L125.717 34.2609H120.347C115.865 34.2609 114.75 34.1989 113.635 33.8887C112.891 33.682 111.59 33.1857 110.743 32.7722C109.772 32.276 108.76 31.573 108.038 30.8493C107.377 30.1876 106.633 29.1331 106.241 28.3681C105.89 27.6238 105.435 26.4659 105.27 25.7836C105.084 25.1012 104.878 23.5505 104.816 22.3719C104.733 20.7799 104.774 19.746 105.022 18.5468C105.208 17.637 105.559 16.4171 105.786 15.8589C106.034 15.2799 106.633 14.2668 107.108 13.5844C107.583 12.9021 108.533 11.889 109.215 11.3307C109.876 10.7724 111.177 9.96606 112.086 9.51118C112.994 9.07697 114.254 8.58074 114.874 8.41532C115.679 8.18788 116.712 8.12585 118.488 8.16721V8.16721ZM114.915 15.9209C114.564 16.169 114.068 16.7479 113.841 17.2028C113.614 17.6577 113.428 18.0712 113.428 18.1333C113.428 18.1746 115.328 18.2366 117.662 18.2366H121.896C121.71 17.3476 121.442 16.7479 121.152 16.3137C120.884 15.9002 120.326 15.404 119.934 15.2386C119.541 15.0525 118.715 14.9284 118.116 14.9284C117.538 14.9284 116.712 15.0525 116.32 15.1972C115.927 15.3419 115.287 15.6521 114.915 15.9209ZM199.965 8.10518C200.936 8.10518 202.258 8.22924 202.898 8.41532C203.559 8.58074 204.592 8.97359 205.17 9.26306C205.769 9.57321 206.719 10.2555 207.277 10.7724C207.814 11.2894 208.495 12.0957 208.764 12.5506C209.032 13.0055 209.445 13.9359 209.714 14.6183C210.168 15.8175 210.168 16.0863 210.292 33.9508H201.824L201.762 25.8249C201.721 18.8363 201.68 17.637 201.39 17.0994C201.205 16.7479 200.709 16.3137 200.296 16.107C199.883 15.9002 199.077 15.7555 198.458 15.7555C197.879 15.7555 197.012 15.8795 196.558 16.0036C196.124 16.1483 195.298 16.6652 193.769 18.0299V33.9508H185.301V8.72547H192.943V9.55253C192.943 10.0074 193.026 10.3796 193.15 10.3796C193.253 10.3796 193.398 10.2762 193.46 10.1728C193.521 10.0488 194.12 9.67659 194.802 9.34576C195.484 8.99426 196.537 8.58074 197.115 8.41532C197.714 8.27059 198.995 8.12585 199.965 8.10518V8.10518Z" fill="#FFE322"/>
</svg>
