<svg width="232" height="166" viewBox="0 0 232 166" fill="none" xmlns="http://www.w3.org/2000/svg">
<path fill-rule="evenodd" clip-rule="evenodd" d="M67.1565 0H115.787L112.506 7.06301C109.843 12.6594 109.303 14.1646 109.689 14.512C109.959 14.7435 113.934 17.9084 118.489 21.4978C123.043 25.1258 130.106 30.6836 134.12 33.887C138.134 37.0904 141.492 39.6764 141.53 39.6378C141.608 39.5992 139.562 35.1221 137.053 29.7187C134.545 24.3153 130.608 15.8628 128.331 10.9998C126.053 6.09812 123.969 1.65961 123.12 0H164.418V96.8751L159.207 96.6822L155.077 87.8052C152.8 82.9035 148.902 74.5668 146.432 69.2792C143.962 63.953 141.839 59.4759 141.685 59.3215C141.569 59.1286 137.825 59.3601 133.348 59.7847C128.871 60.2478 124.51 60.5952 123.583 60.5952C122.696 60.5952 121.885 60.711 121.769 60.8654C121.692 61.0584 123.352 64.9179 125.475 69.4722C127.597 74.0265 129.296 77.8089 129.296 77.8475C129.296 77.9247 123.236 77.9633 115.787 77.9633C108.338 77.9633 102.279 77.8861 102.279 77.7703C102.279 77.6545 103.9 74.1423 105.907 69.9354C108.917 63.6829 109.419 62.2934 108.917 62.2162C108.57 62.139 104.363 62.4478 99.5768 62.8723C94.791 63.3355 90.1595 63.7986 89.2332 63.8758C87.6508 64.0688 87.5736 64.1074 86.2999 66.8477C85.6052 68.3915 83.8684 72.0967 82.479 75.0686C81.1281 78.0405 78.8896 82.8263 77.5001 85.6824C76.1493 88.5385 74.4511 92.2437 72.3669 96.8365L67.1565 96.8751V0ZM74.7984 7.41037C74.837 7.79633 74.7212 8.10509 74.4896 8.10509C74.2581 8.10509 74.2195 7.68054 74.4125 7.06301C74.6054 6.2525 74.5668 6.05952 74.1037 6.2139C73.7563 6.36829 73.5248 6.90863 73.5248 7.75773C73.5248 8.79981 73.7177 9.10858 74.5668 9.45594C75.3002 9.72611 75.8791 9.72611 76.5738 9.34015C77.3071 9.03139 77.5773 8.56824 77.5773 7.79633C77.5773 7.21739 77.3843 6.52267 77.1142 6.2525C76.844 5.98233 76.4194 5.78935 76.1879 5.78935C75.9949 5.78935 75.5703 5.98233 75.2616 6.2525C74.9528 6.52267 74.7598 7.02441 74.7984 7.41037V7.41037ZM156.621 7.02441C156.66 6.71565 156.274 6.59986 155.463 6.63846C154.267 6.75424 154.19 6.83143 154.113 8.37526L153.997 10.0349C157.972 10.0349 158.242 9.95768 158.242 9.26296C158.242 8.83841 158.011 8.49105 157.779 8.49105C157.393 8.52964 157.393 8.41386 157.779 7.91211C158.011 7.60335 158.204 7.06301 158.126 6.71565C158.011 6.2139 157.895 6.2139 157.277 6.83143C156.853 7.1788 156.583 7.29458 156.621 7.02441ZM73.2546 13.7015C73.2546 14.126 73.5634 14.7435 73.9107 15.0523C74.2195 15.3611 74.644 15.4769 74.7984 15.3225C74.9528 15.1681 74.837 14.6664 74.6054 14.2804C74.2195 13.6629 74.2195 13.5085 74.6054 13.5085C74.837 13.5085 75.223 13.8944 75.4545 14.3576C75.6861 14.8593 76.2265 15.2839 76.7282 15.3225C77.5001 15.4383 77.5773 15.2839 77.5773 13.7015C77.5773 12.7366 77.4229 11.9647 77.1913 11.9647C76.9598 11.9647 76.8054 12.5436 76.8054 13.1997C76.7668 14.3962 76.7668 14.4348 76.2265 13.7015C75.9177 13.2769 75.4931 12.698 75.2616 12.4278C75.0686 12.1962 74.7212 11.9647 74.5668 11.9647C74.4125 11.9647 74.0265 12.1576 73.7177 12.4278C73.409 12.698 73.216 13.2383 73.2546 13.6629V13.7015ZM153.997 16.2488H158.242C158.242 13.5471 158.088 12.7752 157.856 12.7752C157.663 12.7752 157.47 13.1997 157.47 13.7401C157.47 14.2804 157.316 14.705 157.084 14.705C156.891 14.705 156.698 14.3576 156.698 13.933C156.698 13.5085 156.428 13.1611 156.119 13.1611C155.772 13.1611 155.541 13.5471 155.502 14.0102C155.463 14.8593 155.463 14.8593 155.232 13.9716C155.077 13.4699 154.769 12.9681 154.537 12.891C154.228 12.7752 154.074 13.3541 154.035 14.4734L153.997 16.2488ZM87.9981 41.336C84.4087 49.0937 81.4755 55.462 81.5141 55.5392C81.5913 55.6164 84.3315 55.3848 87.6122 55.076C90.8928 54.7673 95.7559 54.3041 98.419 54.0725L103.243 53.648C107.721 44.0377 109.226 41.2588 109.419 41.2974C109.65 41.336 110.924 43.7675 112.313 46.7394C113.703 49.6726 114.899 52.1814 115.015 52.2971C115.131 52.4129 117.022 52.3357 119.261 52.1428C121.499 51.9498 125.938 51.4866 129.103 51.1779C132.306 50.8691 134.93 50.5603 135.008 50.5217C135.046 50.4445 134.352 48.8621 133.464 46.9709L131.804 43.5745C112.082 27.9433 104.787 22.1539 102.857 20.6101C100.966 19.0663 99.3067 17.7926 99.1909 17.7926C99.0751 17.7926 97.9944 19.9154 96.798 22.5399C95.6015 25.1258 91.6261 33.5782 87.9981 41.336V41.336ZM73.409 20.3013C73.4862 21.1504 73.8335 21.575 74.5668 21.8452C75.3388 22.1153 75.8791 22.1153 76.6124 21.768C77.3457 21.382 77.5773 20.9575 77.5773 20.1083C77.5773 19.3364 77.32 18.8218 76.8054 18.5645C76.3808 18.3715 75.7247 18.1786 75.3388 18.1786C74.9914 18.1786 74.3739 18.4101 73.9879 18.6803C73.5248 18.9891 73.3318 19.5294 73.409 20.3013ZM156.119 20.1083C157.741 20.1083 158.242 19.9926 158.242 19.5294C158.242 19.1049 157.741 18.9505 156.119 18.9505C154.498 18.9505 153.997 19.1049 153.997 19.5294C153.997 19.9926 154.498 20.1083 156.119 20.1083ZM155.463 25.3574L156.891 25.7819C154.46 26.438 154.19 26.7468 154.113 27.5573C153.997 28.5994 154.074 28.5994 156.119 28.5994C157.972 28.5994 158.242 28.5222 158.242 27.8275C158.242 27.2871 157.972 27.0556 157.393 27.0556L156.505 27.017C157.856 26.438 158.242 26.0135 158.242 25.7047C158.242 25.396 157.779 24.9714 157.2 24.7784L156.119 24.4311C157.856 24.3539 158.242 24.1609 158.242 23.7749C158.242 23.3504 157.741 23.196 156.119 23.196C154.19 23.196 153.997 23.2732 153.997 24.0837C153.997 24.7398 154.305 25.0486 155.463 25.3574V25.3574ZM73.3318 26.6696C73.3318 27.0942 73.6791 27.6345 74.1037 27.8275C74.7598 28.1362 74.8756 28.0976 74.8756 27.4415C74.8756 27.017 74.6826 26.631 74.4125 26.5538C74.0265 26.4766 74.0265 26.3994 74.4125 26.1679C74.6826 26.0135 75.0686 26.2451 75.3388 26.7854C75.5703 27.2485 75.9563 27.7503 76.1879 27.9433C76.4194 28.0977 76.844 28.2134 77.1142 28.2134C77.4229 28.2134 77.5773 27.6345 77.5773 26.4766C77.5773 25.5117 77.4229 24.7398 77.1913 24.7398C76.9984 24.7398 76.8054 25.1644 76.8054 25.7047C76.8054 26.2451 76.6896 26.6696 76.5352 26.6696C76.3808 26.6696 76.0721 26.2837 75.8405 25.8205C75.6475 25.3188 75.1072 24.8942 74.644 24.817C74.1809 24.7398 73.7177 24.9714 73.6019 25.3188C73.4476 25.6275 73.3318 26.2451 73.3318 26.6696V26.6696ZM153.997 34.7747H158.242C158.242 32.073 158.088 31.3011 157.856 31.3011C157.663 31.3011 157.47 31.7256 157.47 32.266C157.47 32.8063 157.316 33.2309 157.084 33.2309C156.891 33.2309 156.66 32.8449 156.621 32.3818C156.544 31.88 156.351 31.5327 156.119 31.5713C155.927 31.6099 155.618 32.0344 155.502 32.5362C155.27 33.3853 155.232 33.3853 155.193 32.3818C155.193 31.687 154.962 31.3011 154.576 31.3011C154.151 31.3011 153.997 31.7642 153.997 33.0379V34.7747ZM156.505 37.8624C156.312 37.6308 155.695 37.515 155.155 37.5536C154.306 37.6694 154.19 37.901 154.113 39.329L153.997 40.95C157.741 40.95 158.242 40.8342 158.242 40.3711C158.242 40.0623 157.933 39.7921 157.586 39.7921C156.93 39.7921 156.93 39.7535 157.586 39.2904C158.011 39.0202 158.242 38.4799 158.165 37.901C158.049 37.0132 158.011 37.0133 157.47 37.5922C157.084 38.0553 156.776 38.1325 156.505 37.8624V37.8624ZM153.92 46.006L153.997 47.5113C157.972 47.5113 158.242 47.4341 158.242 46.7394C158.242 46.3148 157.972 45.9674 157.663 45.9674C157.355 45.9674 157.084 45.6201 157.084 45.1955C157.084 44.771 156.737 44.2692 156.312 44.0377C155.888 43.8447 155.502 43.6517 155.463 43.6517C155.386 43.6903 155.039 43.8447 154.614 44.0763C154.035 44.385 153.881 44.8482 153.92 46.006ZM172.137 101.931L193.905 102.124L212.083 136.204L212.469 102.124L231.458 101.931L231.381 165.035L210.732 165.228L209.845 163.8C209.343 162.99 205.059 155.425 191.628 131.611L191.242 165.035H172.33L172.137 101.931ZM31.8414 110.229C37.5536 110.345 39.329 110.499 41.6833 111.194C43.2657 111.657 45.8903 112.661 47.4727 113.433C49.4025 114.398 51.1779 115.71 52.9147 117.369C54.3041 118.759 56.0795 121.036 56.8514 122.387C57.6233 123.776 58.5882 125.938 59.0514 127.211C59.4759 128.485 60.0935 131.032 60.4022 132.808C60.711 134.622 61.0584 137.941 61.1741 140.141C61.3285 142.379 61.2513 146.625 61.0198 149.597C60.7882 152.569 60.2864 156.042 59.9005 157.316C59.5145 158.59 58.5882 160.519 57.8935 161.561C57.1602 162.642 56.0795 164.07 54.4199 166H6.56126L4.86306 163.221C3.89816 161.677 2.6631 159.014 2.12276 157.316C1.58242 155.618 0.8877 152.492 0.578935 150.369C0.27017 148.246 0 144.695 0 142.457C0 140.257 0.27017 136.667 0.578935 134.545C0.849105 132.422 1.54383 129.296 2.08417 127.597C2.62451 125.899 3.74378 123.39 4.59288 122.001C5.40339 120.65 7.1016 118.489 8.33667 117.292C9.68751 115.941 11.7717 114.436 13.5085 113.548C15.0909 112.699 17.7926 111.696 19.4908 111.271C21.189 110.847 23.0802 110.384 23.7363 110.306C24.3539 110.191 28.0205 110.191 31.8414 110.229V110.229ZM23.5048 127.057C22.81 127.597 21.8066 128.639 21.3434 129.373C20.8803 130.106 20.2241 131.843 19.9154 133.194C19.4908 134.969 19.2978 137.748 19.2978 142.457C19.2978 147.32 19.4522 149.867 19.8768 151.527C20.2241 152.8 20.9575 154.653 21.5364 155.579C22.3083 156.853 23.2346 157.663 24.7012 158.435C26.5924 159.4 27.2099 159.516 30.4906 159.516C33.0379 159.555 34.6203 159.362 35.701 158.898C36.5501 158.551 37.8238 157.702 38.5185 157.007C39.2132 156.351 40.1009 155 40.4869 154.035C40.9114 153.109 41.4132 150.832 41.6447 149.018C41.8763 147.242 42.0693 144.271 42.0693 142.457C42.0693 140.681 41.8763 137.709 41.6833 135.895C41.4132 133.695 40.9114 131.881 40.1395 130.299C39.4448 128.948 38.4799 127.636 37.7466 127.134C37.0518 126.671 35.5852 126.015 34.5431 125.668C33.4624 125.359 31.6485 125.127 30.4906 125.127C29.3327 125.127 27.5959 125.359 26.5924 125.629C25.6275 125.86 24.2381 126.517 23.5048 127.057V127.057ZM167.119 144.386V159.439H139.33V166H120.419L120.341 155.463C120.303 149.674 120.419 144.811 120.611 144.657C120.804 144.502 131.341 144.386 167.119 144.386ZM9.8419 100.812H51.1393L50.1744 101.622C49.634 102.047 48.206 102.935 46.9709 103.552C45.7745 104.131 43.4973 104.98 41.9535 105.405C40.4483 105.829 37.3606 106.37 35.1221 106.64C32.8449 106.871 29.5643 106.949 27.5959 106.794C25.6661 106.64 22.6557 106.215 20.8417 105.829C19.0277 105.443 16.2488 104.517 14.6664 103.784C13.0839 103.05 11.3471 102.086 10.8068 101.622L9.8419 100.812ZM120.419 100.812H164.418V114.706H139.33V124.741H167.119V139.794H120.419V100.812ZM65.3039 101.893L80.7807 102.086C92.8226 102.201 96.9137 102.394 98.9979 102.857C100.465 103.166 102.742 103.822 104.015 104.247C105.289 104.71 107.064 105.521 107.952 106.022C108.878 106.563 110.422 107.798 111.426 108.84C112.468 109.843 113.78 111.734 114.398 112.97C115.015 114.243 115.748 116.559 116.019 118.18C116.289 119.762 116.52 122.773 116.559 124.818C116.559 126.903 116.327 129.836 116.019 131.38C115.748 132.923 115.054 135.123 114.513 136.32C113.973 137.478 112.699 139.292 111.657 140.295C110.654 141.337 109.11 142.611 108.261 143.074C107.412 143.576 105.675 144.348 104.401 144.811C103.128 145.236 100.503 145.853 98.6119 146.162C96.6822 146.471 92.6682 146.741 84.1386 146.741L83.9456 165.074H65.4197L65.3039 101.893ZM84.1386 132.074C89.9665 132.074 92.2823 131.881 93.0156 131.611C93.7489 131.38 94.8682 130.724 95.4471 130.183C96.026 129.604 96.6822 128.717 96.9137 128.215C97.1453 127.674 97.2611 125.86 97.1839 124.162C97.1067 121.769 96.8751 120.804 96.2576 119.917C95.8331 119.261 94.791 118.412 93.9419 117.987C92.8612 117.447 91.356 117.215 88.3455 117.099L84.2544 116.906L84.1386 132.074ZM76.0335 19.6838C76.4194 19.761 76.7282 19.9926 76.7668 20.1855C76.7668 20.3785 76.2651 20.5329 75.6475 20.5329C74.9914 20.5329 74.4511 20.3785 74.4125 20.1855C74.3739 19.9926 74.5668 19.761 74.837 19.6452C75.1458 19.568 75.6861 19.568 76.0335 19.6838Z" fill="white"/>
</svg>
