<svg width="109" height="114" viewBox="0 0 109 114" fill="none" xmlns="http://www.w3.org/2000/svg">
<path d="M42.7476 33.6268C43.0576 32.4386 43.1351 30.4756 43.1351 25.0514V18H65.6066V25.0256C65.6066 28.9 65.4775 33.0585 65.3483 34.2725C65.1934 35.4865 64.8834 37.3462 64.6509 38.4052C64.4443 39.4642 63.9019 41.3239 63.4628 42.5379C63.0495 43.7519 62.2488 45.6633 61.6806 46.7998C61.1123 47.9363 60.105 49.6927 59.4851 50.6742C58.4002 52.3789 58.6585 52.1723 69.9976 40.859L109 79.8614L101.174 87.6877C96.886 91.9753 93.2699 95.4882 93.1149 95.4882C92.96 95.4882 84.2038 86.8353 54.3709 57.0024L35.128 76.2453C24.5379 86.8353 15.7818 95.4882 15.6268 95.4882C15.4976 95.4882 11.9073 92.027 7.69716 87.8168C3.46114 83.5808 0 80.0163 0 79.8614C0 79.7064 9.11777 70.4853 20.2502 59.327C39.7773 39.7483 40.5263 38.9735 41.4303 37.1137C41.9211 36.0547 42.541 34.4791 42.7476 33.6268Z" fill="white"/>
</svg>
