<svg width="109" height="114" viewBox="0 0 109 114" fill="none" xmlns="http://www.w3.org/2000/svg">
<path fill-rule="evenodd" clip-rule="evenodd" d="M54.4289 7C54.5734 7 57.9536 17.1785 61.9694 29.6415C65.9562 42.0755 70.0298 54.8276 72.8611 63.676L95.7423 63.8206L66.3318 85.2186C50.182 96.9876 36.7769 106.703 36.5457 106.848C36.3435 106.964 36.1124 107.022 36.0257 106.993C35.9679 106.935 37.4413 102.106 39.3481 96.2068C41.2549 90.3079 42.6994 85.4211 42.5839 85.3343C42.4683 85.2476 35.7657 80.3607 13 63.8206L35.8813 63.676L37.5569 58.4132C38.4814 55.4927 42.6127 42.7406 46.7152 30.0752C50.8176 17.381 54.3134 7 54.4289 7ZM50.182 63.8206L36.6035 64.1097C44.8951 70.1243 47.3219 71.8593 47.3797 71.8882C47.4375 71.9171 46.5418 74.7799 45.444 78.2787C44.3173 81.7776 43.4795 84.6692 43.5372 84.7271C43.6239 84.756 45.9929 83.1077 48.8242 81.0258C51.6266 78.9727 54.1111 77.2956 54.3134 77.2667C54.4867 77.2667 57.0002 78.9438 59.8604 81.0258C62.7205 83.0788 65.1184 84.756 65.1762 84.7271C65.2629 84.6692 64.3962 81.7776 63.2983 78.2787C62.1716 74.7799 61.3049 71.9171 61.3627 71.8882C61.4204 71.8593 63.8472 70.1243 66.7941 67.9845L72.1388 64.1097L58.5603 63.8206C55.5557 54.0758 54.5734 51.242 54.4289 51.242C54.2845 51.242 53.2733 54.0758 52.1755 57.5457L50.182 63.8206Z" fill="white"/>
</svg>
