<svg width="109" height="114" viewBox="0 0 109 114" fill="none" xmlns="http://www.w3.org/2000/svg">
<path d="M45.1585 11.2564C45.4659 10.9487 47.6684 9.87179 50.0759 8.84615C52.4834 7.87179 54.6859 7 54.9421 7C55.1982 7 60.679 7.82051 67.133 8.89744C73.5359 9.97436 78.7606 11.0513 78.7606 11.359C78.8118 11.6154 76.5068 13.9231 68.6185 21.1026L70.5649 26.4872C71.5894 29.4615 74.714 38.3333 77.48 46.2308C80.246 54.1282 82.551 60.641 82.551 60.7436C82.6023 60.8462 87.5709 58.6923 93.6151 55.9744C99.6594 53.2564 104.782 51.2051 104.987 51.4615C105.14 51.6667 103.962 55.6667 102.272 60.3333C100.633 65 98.9423 69 98.5837 69.3077C98.2252 69.5641 91.9248 74.641 71.3333 91.2564L18.8813 80.0769L13.1444 82.641V91.359C13.1444 96.1282 13.2468 99.9744 13.3493 99.8205C13.4517 99.6667 14.7835 96.1282 16.269 91.8718C17.7544 87.6667 19.0862 84.0256 19.2911 83.7692C19.4448 83.5641 22.5694 84.0769 26.2574 84.9487C29.9454 85.7692 33.4286 86.5897 34.0944 86.7436C34.7091 86.8974 35.2213 87.359 35.2213 87.9231C35.2213 88.3846 34.8116 89.8718 34.2993 91.2051C33.4798 93.5128 33.1212 93.7692 22.9279 100.282C17.1398 103.974 12.1199 106.949 11.8126 107C11.454 107 11.0443 106.487 10.8906 105.821C10.7369 105.205 9.35392 98.5385 7.81724 91C6.28057 83.4103 5 76.8974 5 76.4872C5 76.0769 9.20025 70.6923 14.3225 64.5385C19.4448 58.4359 23.645 53.359 23.645 53.3077C23.6963 53.2051 31.5333 54.7436 41.1119 56.7436C50.6906 58.6923 60.0643 60.5897 65.289 61.6154L63.1377 55.4615C61.9083 52.0769 59.757 45.8718 58.2715 41.6154C56.7861 37.4103 55.4543 33.6154 55.2494 33.2564C55.0957 32.8974 53.2005 37.4615 51.1004 43.4103C48.4368 50.9487 47.0025 54.1795 46.4903 54.1795C46.0805 54.1795 42.4437 53.4615 38.4484 52.5385C34.4018 51.6154 31.1235 50.6923 31.1235 50.4872C31.1235 50.2308 34.1457 41.4615 37.8337 31C41.5217 20.4872 44.8 11.6154 45.1585 11.2564Z" fill="white"/>
<path d="M76.8141 92.5897C76.9165 92.1282 79.7338 89.4103 83.1145 86.5897C87.2635 83.0513 89.3636 81.5641 89.7734 81.9231C90.0295 82.2308 92.1809 87.8205 94.4347 94.3333C96.9446 101.513 98.4301 106.436 98.1227 106.744C97.8666 107.051 94.2298 105.513 87.9806 102.385C78.6581 97.718 78.2483 97.4103 77.48 95.4615C77.019 94.3333 76.7117 93.0513 76.8141 92.5897Z" fill="white"/>
</svg>
