<svg width="109" height="114" viewBox="0 0 109 114" fill="none" xmlns="http://www.w3.org/2000/svg">
<path fill-rule="evenodd" clip-rule="evenodd" d="M44.3415 7.01255C59.7889 7.11299 61.4439 7.21343 65.1553 8.21783C67.3621 8.82046 70.6221 10.0257 72.4277 10.9297C74.4338 11.8839 76.8412 13.6918 78.7471 15.5499C80.5024 17.3076 82.4083 19.8688 83.2609 21.6265C84.5649 24.3384 84.7154 25.1419 84.7154 29.4105C84.7154 33.2775 84.5148 34.533 83.6621 36.1902C83.0603 37.295 81.4052 39.5047 80.0009 41.1117C78.5966 42.6685 77.443 44.1249 77.443 44.376C77.443 44.5769 78.2957 45.1293 79.2987 45.6315C80.352 46.1839 82.6089 47.5901 84.3643 48.7954C86.0695 50.0006 88.4268 52.2103 89.5803 53.6667C90.6837 55.0728 92.2886 57.634 93.0409 59.2913C93.8434 60.9485 94.8465 64.0621 95.2477 66.2216C95.6489 68.3308 96 71.7458 96 73.7545C96 75.7131 95.6489 78.8267 95.1975 80.6347C94.7963 82.4426 93.5926 85.4557 92.5895 87.4143C91.5864 89.3227 89.3797 92.3358 87.7246 94.0935C86.0695 95.9014 83.1104 98.3622 81.2046 99.6177C79.2987 100.923 76.2394 102.581 74.4338 103.334C72.6283 104.087 69.1175 105.192 66.66 105.845C62.2966 106.95 61.4941 107 39.2258 107C16.7568 107 16.3054 107 14.9011 105.945C14.1488 105.393 13.2962 104.137 13.0454 103.183C12.7445 101.978 13.7977 87.9165 20.5183 10.8795L22.023 9.32266C22.9257 8.36849 24.33 7.56497 25.5337 7.31387C26.6371 7.06277 35.1131 6.96234 44.3415 7.01255ZM39.5768 15.2486C37.9218 16.0019 35.4642 17.6591 34.1602 18.8644C32.8562 20.1199 31.3014 22.0785 30.7497 23.2837C30.2482 24.4388 29.7968 26.2969 29.7968 27.4018C29.7968 28.5066 30.1981 30.2643 30.7497 31.3189C31.2513 32.3233 32.7559 34.081 34.1101 35.236C35.4642 36.3911 41.0815 40.3082 46.5984 43.9743C52.1153 47.6403 58.3344 51.9592 60.3907 53.516C62.447 55.123 65.4061 57.7345 67.011 59.3415C68.5658 60.9987 70.1707 63.1582 70.6221 64.2128C71.0735 65.2172 71.4246 67.3766 71.4246 68.9837C71.4246 71.1431 71.0735 72.5493 70.0704 74.5581C69.268 76.0647 67.7633 78.0232 66.66 78.9272C65.5566 79.8311 63.2996 81.1871 61.6446 81.9906C58.9362 83.2461 58.1338 83.3967 53.1184 83.3967C48.8052 83.3967 46.9996 83.1959 44.9433 82.3923C43.4387 81.8399 41.2319 80.5844 39.9279 79.6303C38.6741 78.6761 36.9187 76.7677 36.0661 75.4118C34.9627 73.6039 34.5113 72.1475 34.411 70.1387C34.3107 68.5819 34.4611 66.7238 34.7621 65.9705C35.063 65.167 35.715 64.5643 36.2165 64.5643C36.6679 64.5643 38.4734 65.0163 40.2288 65.5687C41.9341 66.1212 43.4387 66.5229 43.539 66.4727C43.6895 66.3723 43.2882 64.5141 42.7365 62.3045C42.1848 60.0948 41.6331 55.575 41.4827 52.2605L41.1818 46.2341C36.8184 48.5945 33.6587 51.1557 31.3014 53.516C28.543 56.2279 26.4365 58.8895 25.4334 60.7979C24.5808 62.4551 23.4774 65.2674 23.026 67.0753C22.4242 69.4357 22.2236 71.5449 22.4242 74.6083C22.5747 77.1193 23.0762 80.032 23.678 81.639C24.2799 83.1456 25.7344 85.8073 26.9882 87.565C28.3925 89.4733 30.5993 91.5825 32.7057 93.0389C34.5614 94.3446 37.671 96.0521 39.5768 96.7552C41.4827 97.5085 44.5421 98.4124 46.3476 98.7137C48.1532 99.0653 51.4132 99.3164 53.6199 99.3666C55.8267 99.3666 58.9864 99.0653 60.6415 98.764C62.2966 98.4124 65.7572 97.1569 68.315 95.9014C71.876 94.194 73.7317 92.9385 76.3397 90.3271C78.6133 88.0504 80.2684 85.824 81.3049 83.6478C82.2077 81.8399 83.1104 79.3792 83.4114 78.1237C83.7123 76.8682 83.9631 74.4074 83.9631 72.5995C83.9631 70.7916 83.612 67.9793 83.1606 66.322C82.7594 64.6648 81.8566 62.4049 81.2046 61.3001C80.5526 60.1952 78.6969 57.9353 77.092 56.3283C75.487 54.7213 71.0735 51.3063 67.2618 48.7954C63.4501 46.2844 60.3406 43.8738 60.3406 43.4721C60.3406 43.0703 62.447 41.3628 65.0049 39.7056C67.5627 38.0483 70.4215 36.0395 71.3243 35.1858C72.227 34.3823 73.3304 32.6748 73.7818 31.4193C74.3335 29.8625 74.484 28.4564 74.2332 26.8996C74.0827 25.6441 73.3806 23.7357 72.7286 22.6309C72.0766 21.5261 70.7224 19.8688 69.7193 19.0151C68.7163 18.1111 66.7101 16.7552 65.3058 16.0521C63.8513 15.2988 60.9424 14.2944 58.8861 13.7922C56.7295 13.2398 53.6199 12.838 51.6138 12.8883C49.7079 12.9385 46.8492 13.1394 45.3445 13.3905C43.8399 13.6416 41.2319 14.4953 39.5768 15.2486ZM53.6199 15.6001C55.275 15.7508 57.6322 16.3534 58.8861 16.9058C60.1399 17.4583 61.6947 18.4124 62.2966 19.0151C62.9486 19.6177 63.8012 20.7225 64.2024 21.5261C64.6036 22.2793 64.9046 23.4344 64.9046 24.1375C64.9046 24.8406 64.5535 26.096 64.1523 26.8996C63.7009 27.7533 61.8953 29.4105 59.7889 30.8167C57.7827 32.1224 55.1245 33.7294 51.6138 35.5876L47.3507 32.5744C44.9935 30.8669 42.3353 28.7075 41.4827 27.7031C40.5799 26.6987 39.7775 25.393 39.7775 24.7903C39.7273 24.1375 39.7775 23.1833 39.8276 22.6309C39.8778 22.0785 40.2288 21.1243 40.6301 20.5217C41.0313 19.8688 42.1848 18.8142 43.2381 18.1111C44.2411 17.4583 46.3476 16.5543 47.8522 16.1023C49.6076 15.6503 51.6639 15.4495 53.6199 15.6001Z" fill="white"/>
</svg>
