<svg width="109" height="114" viewBox="0 0 109 114" fill="none" xmlns="http://www.w3.org/2000/svg">
<path fill-rule="evenodd" clip-rule="evenodd" d="M104.95 12V39.5579L101.167 44.1088C99.0998 46.637 97.3853 48.7607 97.3853 48.9124C97.3853 49.0641 99.0494 50.6316 105 55.7387L104.95 69.7958C104.95 82.6898 104.899 83.8023 104.092 84.0045C103.588 84.1562 93.1997 85.9766 80.996 88.1003C68.7922 90.224 58.5048 91.8421 58.1518 91.6904C57.6979 91.4376 57.5466 83.8023 57.5466 55.9915C57.5466 28.2314 57.6979 20.4949 58.1518 20.1915C58.5048 19.9893 68.4392 18.1184 80.2395 15.9946C92.0398 13.8709 102.428 12.1011 104.95 12V12ZM81.4498 30.0517C76.4574 30.9619 72.3727 31.6698 72.2718 31.7203C72.2214 31.7203 72.171 41.4794 72.171 53.4633C72.171 70.5037 72.3222 75.2062 72.7761 75.2062C73.1291 75.2062 77.1634 74.5489 81.7524 73.6893C86.3414 72.8802 90.2244 72.1723 90.4261 72.1723C90.6783 72.1723 90.8295 69.7452 90.8295 66.7113V61.3008C80.7438 52.6542 77.7685 50.0754 77.7181 49.9237C77.7181 49.772 80.643 46.0808 84.2738 41.6816L90.8295 33.7429L90.4765 28.4336L81.4498 30.0517ZM51.2431 21.2534C52.2012 21.3545 52.2516 21.759 52.5038 48.4068L48.4695 53.2105C45.6959 56.4972 44.5865 58.2164 44.8891 58.6209C45.1412 58.9749 46.9566 60.6435 52.5038 65.346V79.0997C52.5038 89.6678 52.3525 92.9545 51.8482 93.1568C51.4952 93.2579 41.4599 95.0783 29.5587 97.202C17.6072 99.2751 7.21886 101.095 5.10086 101.5L5 29.2932L9.74029 28.4336C12.3122 27.9785 22.4987 26.1582 32.3323 24.3884C42.1659 22.6186 50.6883 21.2028 51.2431 21.2534ZM18.9687 40.9737L19.2209 84.8136C21.7423 84.3585 25.8775 83.6 30.063 82.8415L37.6273 81.5268L37.8795 70.4025C30.0126 63.728 27.0373 61.2503 26.18 60.5424L24.6167 59.2783L37.8795 43.0975C37.8795 38.6477 37.6778 37.7881 37.2239 37.8387C36.8709 37.8387 32.6349 38.5972 27.7937 39.4568L18.9687 40.9737Z" fill="white"/>
</svg>
