<svg width="109" height="114" viewBox="0 0 109 114" fill="none" xmlns="http://www.w3.org/2000/svg">
<path fill-rule="evenodd" clip-rule="evenodd" d="M54.8332 7.0004C54.8448 6.98877 55.0773 7.23287 55.3446 7.52347C55.6236 7.82569 55.9839 8.25577 56.1583 8.48825C56.321 8.72072 56.6698 9.26704 56.9255 9.72037C57.1812 10.1737 57.6229 11.0804 57.9135 11.7545C58.1925 12.4287 58.6226 13.5795 58.8667 14.3118C59.0991 15.0441 59.4943 16.4854 59.7501 17.5083C59.9942 18.5312 60.494 20.7514 60.8427 22.4484C61.3077 24.6337 61.5169 25.9007 61.5634 26.8074C61.6215 27.8768 61.5866 28.2371 61.3774 29.0508C61.2495 29.5738 61.1333 30.2364 61.1333 30.527C61.1333 30.9338 61.2263 31.2012 61.5634 31.7242C61.7958 32.0846 62.1794 32.8052 62.4235 33.3167C62.656 33.8281 63.0047 34.7464 63.2023 35.3509C63.3883 35.9553 63.6208 36.8038 63.7022 37.2455C63.7951 37.6756 63.8998 38.0127 63.9579 38.0011C64.0044 37.9778 64.2833 37.4431 64.5623 36.8038C64.8529 36.1645 65.2946 35.3044 65.5387 34.8859C65.7944 34.4675 66.2826 33.7352 66.643 33.2586C67.0033 32.782 67.3288 32.2589 67.3637 32.0962C67.4101 31.9218 67.352 31.5615 67.2358 31.2244C67.0498 30.713 67.0382 30.3875 67.0963 28.5509C67.1312 27.1677 67.3985 24.2966 67.8751 20.1237C68.2587 16.6365 68.6074 13.7655 68.6306 13.7306C68.6655 13.6957 68.9677 13.8933 69.3281 14.1723C69.6768 14.4396 70.2929 15.0673 70.6881 15.5671C71.0833 16.0553 71.7575 17.0085 72.1992 17.6827C72.6409 18.3569 73.3383 19.5541 73.7451 20.3562C74.152 21.1582 74.7215 22.4136 75.0237 23.1459C75.326 23.8782 75.849 25.3195 76.1977 26.3424C76.5348 27.3653 76.93 28.6788 77.0579 29.2484C77.1974 29.8179 77.3253 30.9454 77.3717 31.7475C77.4299 33.0377 77.4066 33.2934 77.1741 34.0722C76.9533 34.8045 76.9184 35.1068 76.9765 35.9321C77.0114 36.4784 77.209 37.7105 77.4066 38.6636C77.6623 39.919 77.8018 40.9652 77.8716 42.3833C77.9297 43.4759 77.9878 44.9521 77.9878 45.6728C77.9878 46.3819 78.0227 46.9747 78.0692 46.9747C78.1273 46.9747 78.3249 46.7073 78.5109 46.3819C78.6969 46.0564 79.2083 45.4171 79.65 44.9637C80.0917 44.4872 80.4288 44.0222 80.4288 43.8944C80.4288 43.7665 80.2428 43.3132 79.6151 42.0927L79.7895 41.186C79.8825 40.6978 80.0336 39.7679 80.1266 39.1286C80.2312 38.4893 80.4869 36.6062 80.7078 34.944C80.9286 33.2818 81.3122 30.2596 81.5563 28.2255C81.8004 26.2029 82.0329 24.5407 82.0794 24.5407C82.1375 24.5407 82.463 24.8429 82.8233 25.2033C83.1837 25.5752 83.7765 26.2727 84.1368 26.7492C84.4971 27.2258 85.0435 28.0627 85.3341 28.6091C85.6363 29.1554 86.0896 30.0737 86.3337 30.6432C86.5894 31.2128 86.9614 32.1892 87.1706 32.7936C87.3682 33.3981 87.7169 34.5256 87.9262 35.2927C88.1354 36.0599 88.4376 37.4199 88.612 38.3149C88.7747 39.21 88.9839 40.5467 89.0885 41.279C89.1815 42.0113 89.3094 43.9757 89.3791 45.6379C89.4489 47.3001 89.5535 48.8926 89.6116 49.1832C89.6697 49.4738 89.7162 50.6129 89.7279 51.7056C89.7279 52.9725 89.6581 54.1349 89.5535 54.844C89.4489 55.4717 89.2397 56.4829 89.0769 57.0874C88.9142 57.6918 88.6817 58.4822 88.5422 58.831C88.4144 59.1797 88.1819 59.726 88.0192 60.0514C87.8564 60.3653 87.6123 60.7954 87.4612 60.9814C87.3217 61.1673 87.1125 61.516 86.9963 61.7369C86.8916 61.9578 86.7638 62.5041 86.7289 62.9574C86.694 63.4107 86.7289 64.0849 86.7987 64.4685C86.8684 64.8521 87.066 65.3984 87.2171 65.689C87.3798 65.9796 87.5426 66.5027 87.5775 66.8514C87.6239 67.235 87.5542 68.3741 87.4147 69.6992C87.2752 70.9197 87.066 72.6633 86.9381 73.5932C86.8219 74.5231 86.6359 75.7785 86.5429 76.3829C86.4383 76.9873 86.2523 77.9521 86.1361 78.5333C86.0082 79.1145 85.7176 80.2071 85.4968 80.9743C85.2759 81.7415 84.8342 83.0782 84.5204 83.9384C84.2066 84.7985 83.7183 86.0074 83.451 86.6118C83.1837 87.2163 82.5792 88.4717 82.1026 89.4016C81.6261 90.3315 80.7543 91.8542 80.1731 92.7957C79.5803 93.7489 78.755 94.9694 78.3365 95.5273C77.9181 96.0969 77.0347 97.1198 76.3605 97.8172C75.6863 98.503 74.8261 99.3167 74.4426 99.6073C74.059 99.8862 73.3267 100.328 72.8152 100.572C72.3038 100.816 71.4901 101.118 71.0135 101.246C70.537 101.362 69.5954 101.537 68.9212 101.607C68.1889 101.7 67.1196 101.723 66.2478 101.688C65.4457 101.653 64.5158 101.548 64.1787 101.467C63.8416 101.386 63.5394 101.339 63.5046 101.374C63.4813 101.409 63.4581 101.979 63.4581 102.653C63.4581 103.385 63.3883 104.129 63.2837 104.513C63.1791 104.861 62.9815 105.326 62.8187 105.524C62.656 105.745 62.2143 106.058 61.7958 106.256C61.3425 106.465 60.6335 106.663 59.8547 106.791C58.8899 106.954 57.8438 106.988 54.9146 107C51.9272 107 50.9508 106.965 49.9163 106.802C49.0794 106.663 48.382 106.477 47.9054 106.256C47.4405 106.035 47.0685 105.756 46.8593 105.477C46.6849 105.233 46.4757 104.757 46.4059 104.396C46.3246 104.048 46.2548 103.234 46.2548 102.595C46.2664 101.955 46.2316 101.409 46.2083 101.374C46.1735 101.339 45.8712 101.386 45.5341 101.467C45.1971 101.548 44.2672 101.653 43.4651 101.688C42.5933 101.723 41.5239 101.7 40.7916 101.607C40.1175 101.537 39.1759 101.362 38.6993 101.246C38.2228 101.118 37.4091 100.816 36.8977 100.572C36.3862 100.328 35.6539 99.8862 35.2703 99.5956C34.8867 99.305 34.0498 98.5262 33.3989 97.8753C32.7596 97.2128 31.8297 96.1201 31.3299 95.4459C30.83 94.7718 30.0047 93.5396 29.4817 92.7143C28.9702 91.8891 28.1449 90.4128 27.6451 89.4597C27.1453 88.4949 26.413 86.9606 26.0294 86.0307C25.6342 85.1008 25.053 83.5548 24.7275 82.6016C24.4137 81.6369 23.972 80.1258 23.7628 79.2307C23.5535 78.3357 23.2978 77.1036 23.2048 76.4991C23.1002 75.8947 22.9142 74.5812 22.7864 73.5932C22.6585 72.6052 22.4376 70.8267 22.2982 69.6411C22.1587 68.3741 22.0889 67.2466 22.1354 66.9095C22.1703 66.584 22.3679 65.9912 22.5771 65.5728C22.9258 64.8521 22.9491 64.7475 22.9491 63.4805C22.9491 62.3878 22.9142 62.074 22.7282 61.7369C22.612 61.516 22.3911 61.1673 22.2517 60.9814C22.1006 60.7954 21.8216 60.3072 21.624 59.9003C21.4264 59.5051 21.0893 58.5868 20.8684 57.8662C20.6592 57.1571 20.3686 55.9366 20.2175 55.1695C19.9966 53.949 19.9734 53.4956 20.0199 51.508C20.0548 50.2642 20.1245 48.8461 20.1943 48.3695C20.264 47.8929 20.3454 46.4283 20.3919 45.1149C20.4267 43.8014 20.543 42.1275 20.636 41.3952C20.7289 40.6629 20.9149 39.4308 21.0428 38.6636C21.1823 37.8965 21.4031 36.769 21.5542 36.1645C21.7053 35.5601 22.0657 34.328 22.3563 33.4329C22.6469 32.5379 23.1467 31.2012 23.4722 30.4689C23.7976 29.7366 24.3091 28.7137 24.6113 28.2022C24.9135 27.6908 25.4482 26.9004 25.8085 26.4586C26.1573 26.0169 26.7036 25.4009 26.9942 25.087C27.2964 24.7848 27.5754 24.5407 27.6219 24.5407C27.68 24.5407 27.9125 26.2029 28.1566 28.2255C28.4123 30.2596 28.7842 33.2586 29.0051 34.8859C29.2259 36.5132 29.5049 38.5358 29.6328 39.3611C29.7723 40.1864 29.9234 41.1395 29.9931 41.4534C30.121 42.0113 30.1094 42.0694 29.7025 42.8831C29.47 43.3364 29.2841 43.813 29.2841 43.9176C29.2841 44.0338 29.6328 44.4988 30.0629 44.9521C30.5046 45.4055 31.0044 46.0448 31.202 46.3819C31.388 46.7073 31.574 46.9747 31.6088 46.9747C31.6437 46.9747 31.7251 45.4984 31.8064 43.6968C31.9227 40.7792 31.9808 40.2096 32.3063 38.6636C32.5039 37.6989 32.7015 36.4784 32.7363 35.9321C32.7945 35.1184 32.7596 34.7929 32.562 34.0955C32.3876 33.5259 32.3063 32.9447 32.3063 32.2706C32.3063 31.7242 32.4109 30.6897 32.5271 29.969C32.655 29.2484 33.0502 27.7954 33.4105 26.6911C33.7709 25.6101 34.352 24.006 34.7008 23.1459C35.0611 22.2857 35.6888 20.9257 36.0956 20.1237C36.5141 19.3216 37.1883 18.1709 37.5835 17.5664C37.9787 16.962 38.6412 16.0437 39.0597 15.5439C39.4665 15.0324 40.0826 14.4048 40.4197 14.149C40.7568 13.8817 41.059 13.6957 41.0822 13.7306C41.1171 13.7655 41.4542 16.59 41.8378 20.0074C42.3492 24.5175 42.5701 26.8422 42.6166 28.4928C42.6747 30.4456 42.6514 30.8292 42.4887 31.2244C42.3841 31.4801 42.3027 31.794 42.3027 31.9218C42.3027 32.0497 42.4887 32.41 42.7096 32.7355C42.942 33.0493 43.407 33.7352 43.7441 34.2466C44.0928 34.758 44.6042 35.6531 44.8832 36.2226C45.1622 36.7922 45.4528 37.4431 45.5341 37.6408C45.6155 37.85 45.7085 38.0243 45.755 38.0243C45.8131 38.0243 45.9177 37.6989 45.9991 37.3037C46.0805 36.8968 46.2781 36.1529 46.4292 35.6415C46.5803 35.13 46.8941 34.2698 47.1266 33.7235C47.3591 33.1772 47.7892 32.3403 48.0914 31.8637C48.5563 31.1082 48.6261 30.9106 48.6028 30.4107C48.6028 30.0853 48.4982 29.5971 48.4052 29.3065C48.3006 29.0159 48.1844 28.365 48.1495 27.8535C48.1146 27.3421 48.1495 26.447 48.2192 25.8775C48.3006 25.3079 48.4866 24.2617 48.6377 23.5527C48.7888 22.8436 49.0329 21.7278 49.1724 21.0536C49.3119 20.3794 49.6606 18.8683 49.9396 17.6827C50.2185 16.497 50.6835 14.8581 50.9625 14.0212C51.2414 13.1843 51.6599 12.0684 51.904 11.5221C52.1365 10.9757 52.6014 10.0691 52.9269 9.51114C53.2524 8.9532 53.8103 8.15116 54.159 7.74432C54.5077 7.33749 54.8099 7.0004 54.8216 7.0004H54.8332ZM53.0199 17.0434C52.8223 17.7408 52.5084 18.9962 52.3108 19.8331C52.1016 20.6584 51.8226 21.9951 51.6715 22.7972C51.5204 23.5992 51.2996 24.9359 51.1833 25.7845C51.0671 26.633 51.009 27.3653 51.0671 27.4118C51.1136 27.4583 51.7413 27.3537 52.4619 27.1561C53.5081 26.8771 53.9847 26.819 54.9262 26.819C55.7863 26.8306 56.4024 26.912 57.2742 27.1445C57.9367 27.3072 58.5412 27.4467 58.6109 27.4467C58.7272 27.4467 58.7388 27.2258 58.6807 26.4935C58.6342 25.9588 58.4598 24.7383 58.2971 23.7852C58.1343 22.8204 57.7856 21.1233 57.5299 20.0074C57.2626 18.8916 56.8674 17.3456 56.6465 16.5784C56.4373 15.8112 56.0653 14.6024 55.8445 13.9049C55.612 13.1959 55.3446 12.3241 55.24 11.9521C55.1238 11.5918 54.9843 11.2896 54.9146 11.2896C54.8448 11.2896 54.4612 12.3009 54.0776 13.5214C53.6824 14.7535 53.2059 16.3343 53.0199 17.0434ZM37.6416 23.1459C37.3161 23.9479 36.8163 25.3079 36.5373 26.1681C36.2467 27.0282 35.8631 28.3417 35.6772 29.074C35.4796 29.8063 35.2471 30.9106 35.1541 31.515C35.0611 32.1194 35.0262 32.6658 35.0727 32.7123C35.1308 32.7704 35.6888 32.3287 36.3281 31.7242C36.9674 31.1314 37.7811 30.4572 38.1298 30.2364C38.4785 30.0155 39.0016 29.7714 39.2922 29.7017L39.8152 29.5738C39.7687 26.7957 39.6757 24.6337 39.5711 22.9715C39.4781 21.3093 39.3503 19.868 39.2922 19.775C39.2224 19.6471 39.0597 19.8796 38.711 20.6467C38.4436 21.2163 37.9554 22.3438 37.6416 23.1459ZM70.0488 23.1459C69.9558 24.7732 69.8395 26.8771 69.8047 27.8186C69.7582 29.1437 69.7814 29.5506 69.886 29.5855C69.9674 29.6087 70.2464 29.6901 70.5021 29.7482C70.7578 29.8179 71.2228 30.0504 71.5482 30.2596C71.8621 30.4689 72.6525 31.1314 73.2918 31.7242C74.0938 32.4682 74.489 32.7704 74.5704 32.6774C74.6518 32.596 74.6169 32.1659 74.4658 31.3639C74.3496 30.713 74.1287 29.7017 73.9892 29.1321C73.8381 28.5509 73.4662 27.3304 73.1639 26.4005C72.8733 25.4706 72.3735 24.0758 72.0597 23.2854C71.7458 22.5066 71.2576 21.3674 70.967 20.763C70.6764 20.1585 70.4207 19.6587 70.3858 19.6587C70.351 19.6587 70.3045 19.775 70.2696 19.9144C70.2464 20.0656 70.1417 21.5185 70.0488 23.1459ZM83.2883 31.2825C83.2534 31.887 83.0093 34.2698 82.7536 36.5714C82.5095 38.8729 82.277 40.9768 82.2421 41.2441C82.184 41.6975 82.2073 41.744 82.4397 41.744C82.5908 41.744 83.0674 41.8253 83.5207 41.9183C83.9741 42.0113 84.718 42.2787 85.1713 42.4995C85.6363 42.7204 86.264 43.1272 86.5546 43.3945L87.1009 43.8944C86.9614 42.267 86.8103 40.9652 86.6592 39.9423C86.5081 38.9194 86.2175 37.3502 86.0199 36.4551C85.8106 35.5601 85.4619 34.2466 85.2411 33.5492C85.0202 32.8401 84.5553 31.6777 84.2066 30.9571C83.8578 30.248 83.5556 29.6552 83.5207 29.6552C83.4859 29.6552 83.4394 29.7714 83.4161 29.9109C83.3813 30.062 83.3231 30.6781 83.2883 31.2825ZM24.4951 33.2586C24.2742 33.9328 23.9604 35.0254 23.7976 35.6996C23.6349 36.3738 23.3675 37.6524 23.2048 38.5474C23.0421 39.4424 22.8329 40.907 22.7282 41.8021C22.6236 42.6971 22.5655 43.4991 22.6004 43.5689C22.6469 43.6735 22.8212 43.5921 23.1351 43.3132C23.3908 43.0923 23.879 42.7668 24.2045 42.6041C24.5416 42.4298 25.1344 42.1973 25.518 42.081C25.9015 41.9648 26.4944 41.8253 26.8314 41.7788C27.1685 41.7323 27.4359 41.6277 27.4359 41.5696C27.4359 41.4999 27.3545 40.8024 27.2615 40.0004C27.1685 39.1983 26.9826 37.5826 26.8547 36.397C26.7152 35.2114 26.5176 33.2586 26.413 32.0497C26.2967 30.7478 26.1689 29.8296 26.0875 29.8063C26.0178 29.7831 25.7272 30.2713 25.4366 30.8989C25.146 31.5266 24.7275 32.5844 24.4951 33.2586ZM53.0315 31.2593C52.7642 31.3988 52.2992 31.7359 51.997 32.0032C51.7064 32.2822 51.2182 32.8634 50.9276 33.3167C50.6254 33.7584 50.2069 34.5488 49.9977 35.0603C49.7885 35.5717 49.4862 36.49 49.3351 37.0944C49.184 37.6989 48.998 38.9077 48.9167 39.7679C48.8121 40.9535 48.8121 41.7556 48.9167 43.0226C48.9864 43.9525 49.1492 45.2079 49.277 45.8123C49.4049 46.4167 49.6374 47.2769 49.7885 47.7302C49.9396 48.1835 50.2767 48.9623 50.544 49.4738C50.7997 49.9852 51.2996 50.6943 51.6366 51.0546C52.0435 51.4963 52.5084 51.8334 53.0083 52.0775C53.4267 52.2751 54.0544 52.4611 54.4031 52.5076C54.7751 52.5541 55.3098 52.5192 55.6817 52.4379C56.0304 52.3565 56.5303 52.1938 56.786 52.0543C57.0417 51.9264 57.5648 51.5079 57.9484 51.1127C58.3785 50.671 58.8318 50.0434 59.134 49.4738C59.4013 48.9623 59.7501 48.1254 59.9244 47.614C60.0872 47.1025 60.3312 46.1378 60.4591 45.4636C60.6335 44.615 60.7265 43.5921 60.7613 42.0927C60.8078 40.7094 60.773 39.5936 60.6916 38.9542C60.6102 38.4079 60.4475 37.571 60.3312 37.0944C60.215 36.6179 59.9593 35.8042 59.7617 35.2927C59.5641 34.7813 59.2154 34.0374 58.9713 33.6305C58.7272 33.2237 58.2157 32.5844 57.8321 32.2008C57.4485 31.8172 56.8441 31.3639 56.4954 31.1895C56.0072 30.9454 55.6585 30.8757 54.9843 30.8524C54.5077 30.8408 53.9847 30.8641 53.8219 30.9222C53.6592 30.9687 53.2989 31.1314 53.0315 31.2593ZM37.3161 35.4322C37.0255 35.6531 36.6768 36.0018 36.5257 36.1994C36.3746 36.4086 36.084 36.9085 35.8631 37.3269C35.6539 37.7454 35.3749 38.4195 35.2471 38.838C35.1192 39.2565 34.9216 40.1399 34.817 40.8141C34.6543 41.7905 34.6194 42.4879 34.6659 44.3012C34.7124 45.9866 34.7938 46.8468 34.9681 47.6721C35.1076 48.2765 35.3517 49.1948 35.5144 49.7063C35.6888 50.2177 36.0724 51.1011 36.363 51.6823C36.6768 52.2751 37.1883 53.019 37.5486 53.4143C37.8973 53.7862 38.4204 54.2163 38.711 54.3558C39.0016 54.4953 39.42 54.6464 39.6409 54.6929C39.8966 54.7394 40.2918 54.6929 40.687 54.5766C41.1868 54.4255 41.4658 54.2395 41.9656 53.7281C42.3492 53.3329 42.7793 52.7168 43.035 52.2054C43.2675 51.7288 43.5697 50.9384 43.6976 50.4618C43.8371 49.9852 44.0231 49.0902 44.116 48.4858C44.209 47.8813 44.2904 46.6957 44.2904 45.8704C44.2904 45.0451 44.2323 43.9176 44.1742 43.3713C44.1044 42.825 43.9417 41.9067 43.8138 41.3371C43.6743 40.7559 43.4419 39.9306 43.2791 39.4773C43.1164 39.024 42.7909 38.2684 42.5352 37.7919C42.2911 37.3153 41.7797 36.583 41.4077 36.1645C41.0241 35.7461 40.4894 35.2927 40.2104 35.1533C39.9315 35.0138 39.4665 34.8627 39.1759 34.8394C38.8853 34.8045 38.4669 34.8278 38.246 34.8975C38.0252 34.9673 37.6067 35.1998 37.3161 35.4322ZM69.6303 35.1184C69.4676 35.1998 69.1305 35.4322 68.8864 35.6298C68.6306 35.8274 68.2122 36.304 67.9448 36.6876C67.6659 37.0712 67.2823 37.7105 67.0847 38.1057C66.8871 38.5125 66.5965 39.2216 66.4454 39.6749C66.2826 40.1399 66.0502 40.9884 65.9223 41.5696C65.7944 42.1392 65.6317 43.3248 65.5503 44.185C65.4341 45.4055 65.4341 46.1029 65.5503 47.3234C65.6201 48.1835 65.8061 49.3575 65.9572 49.9387C66.1083 50.5083 66.3408 51.2755 66.4919 51.6242C66.6314 51.9729 66.922 52.5192 67.1196 52.8447C67.3288 53.1585 67.6775 53.6002 67.8983 53.8095C68.1192 54.0303 68.4795 54.2977 68.7004 54.4139C68.9212 54.5185 69.2932 54.6464 69.5141 54.6929C69.7582 54.7394 70.165 54.6929 70.5021 54.5999C70.8159 54.5069 71.3274 54.2395 71.6296 54.0187C71.9434 53.7862 72.42 53.2748 72.699 52.8679C72.978 52.4727 73.3615 51.8334 73.5591 51.4498C73.7451 51.0662 74.0473 50.3572 74.2101 49.8806C74.3844 49.404 74.6285 48.5671 74.7448 48.0208C74.861 47.4745 75.0237 46.4516 75.1051 45.7542C75.1865 44.9986 75.2097 43.8246 75.1749 42.9063C75.14 42.0462 75.0237 40.9187 74.9308 40.4072C74.8261 39.8958 74.6285 39.117 74.4774 38.6636C74.3263 38.2103 74.0241 37.5129 73.8032 37.1061C73.5824 36.6992 73.222 36.1529 73.0012 35.8972C72.7803 35.6415 72.3851 35.316 72.1294 35.1649C71.8737 35.0138 71.432 34.8627 71.1414 34.8394C70.8508 34.8045 70.4556 34.8278 70.2696 34.8743C70.0836 34.9208 69.793 35.0254 69.6303 35.1184ZM24.1463 47.0677C23.9139 47.335 23.5884 47.8116 23.4257 48.1371C23.2629 48.4509 23.0188 49.1251 22.8793 49.6133C22.6585 50.3804 22.612 50.7989 22.612 52.3216C22.612 53.3561 22.6817 54.4255 22.7631 54.8207C22.8445 55.2043 23.0305 55.8553 23.1583 56.2737C23.2862 56.6922 23.5652 57.3664 23.7744 57.7848C23.9836 58.2033 24.3672 58.8193 24.6345 59.1448C24.8903 59.4819 25.3436 59.9236 25.6342 60.1096C25.9248 60.2956 26.4362 60.5164 26.7617 60.5978C27.2267 60.7024 27.5289 60.7024 28.0171 60.5978C28.4936 60.5048 28.7959 60.342 29.2376 59.9585C29.5514 59.6795 29.9582 59.1913 30.1326 58.8774C30.307 58.5636 30.5278 57.9708 30.6208 57.5523C30.7254 57.1339 30.8068 56.2621 30.8068 55.5763C30.8068 54.9021 30.7254 53.9141 30.6208 53.3678C30.5162 52.8214 30.2837 51.9032 30.0861 51.3336C29.9001 50.7524 29.4933 49.8225 29.2027 49.2529C28.9005 48.695 28.389 47.9046 28.0752 47.5094C27.68 47.0328 27.2848 46.6957 26.8547 46.4748C26.506 46.3005 26.0526 46.161 25.8667 46.161C25.6691 46.161 25.3087 46.2656 25.053 46.3819C24.7973 46.4981 24.3904 46.8119 24.1463 47.0677ZM81.9748 47.056C81.7307 47.3001 81.3238 47.8116 81.0681 48.1952C80.8008 48.5788 80.4521 49.1483 80.3009 49.4738C80.1382 49.7876 79.836 50.5199 79.6384 51.1011C79.4292 51.6707 79.1618 52.6587 79.0456 53.2748C78.9061 53.9606 78.8131 54.8905 78.8131 55.5995C78.8131 56.297 78.8828 57.0874 78.9875 57.4942C79.0921 57.8778 79.2897 58.4474 79.4408 58.7728C79.5919 59.0867 79.9755 59.5865 80.2893 59.8771C80.7078 60.2723 81.01 60.4467 81.4866 60.5629C81.8702 60.6559 82.3351 60.6908 82.649 60.6443C82.9396 60.5978 83.4045 60.4467 83.6835 60.3072C83.9625 60.1677 84.4274 59.7841 84.7296 59.4703C85.0202 59.1448 85.4852 58.459 85.7409 57.9592C86.0082 57.4477 86.3569 56.6108 86.5197 56.0994C86.6824 55.5879 86.8684 54.7626 86.9381 54.2628C87.0079 53.7746 87.066 52.9144 87.066 52.3449C87.066 51.7869 86.9846 50.857 86.88 50.2875C86.787 49.6946 86.5429 48.8926 86.3221 48.4276C86.1245 47.9743 85.7409 47.3815 85.4852 47.1025C85.2411 46.8236 84.8342 46.4981 84.5901 46.3819C84.3577 46.254 83.9857 46.161 83.7765 46.161C83.5789 46.161 83.1837 46.2656 82.9047 46.3935C82.6373 46.5213 82.2189 46.8236 81.9748 47.056ZM48.998 57.4361C48.9283 57.5058 48.8702 58.6566 48.8469 60.2258L48.8237 62.8993C49.463 63.4805 49.6955 63.8408 49.7652 64.0617C49.835 64.2825 49.9279 66.6421 49.9861 69.2924C50.0442 71.9426 50.0907 77.0687 50.0907 80.6837C50.0907 84.2987 50.0442 89.4248 49.9861 92.075C49.9279 94.7253 49.835 97.0849 49.7652 97.3057C49.6955 97.5266 49.463 97.8869 49.2305 98.0845L48.8237 98.4681C48.8702 102.711 48.9283 103.85 48.998 103.92C49.0562 103.989 49.6606 104.106 50.3348 104.187C51.0322 104.268 52.985 104.327 54.8681 104.327C56.693 104.327 58.7272 104.257 59.4013 104.187C60.0755 104.106 60.6683 103.989 60.7381 103.92C60.8078 103.85 60.8659 102.711 60.8892 101.165L60.9241 98.5262C60.2964 97.8986 60.0523 97.5499 59.9825 97.3639C59.8895 97.143 59.7966 95.4808 59.7384 92.8306C59.6687 90.5291 59.6222 85.0659 59.6222 80.6837C59.6222 76.3015 59.6687 70.8383 59.7384 68.5368C59.7966 65.8866 59.8895 64.2244 59.9825 64.0035C60.0523 63.8176 60.2964 63.4688 60.5172 63.248L60.9241 62.8412C60.8659 58.6566 60.8078 57.5058 60.7381 57.4361C60.6683 57.3664 59.7849 57.2385 58.762 57.1455C57.7391 57.0525 55.9026 56.9828 54.6937 56.9944C53.4732 56.9944 51.7296 57.0641 50.7997 57.1571C49.8698 57.2385 49.0562 57.3664 48.998 57.4361ZM38.711 61.9578C37.9787 62.1554 36.7465 62.5041 35.9794 62.7598C35.2122 63.0155 33.829 63.527 32.8991 63.8873C31.9692 64.2593 30.4232 64.9218 29.47 65.3635C28.5053 65.8052 27.2034 66.4445 26.5641 66.7933C25.9248 67.1303 25.332 67.4791 25.2506 67.5604C25.1809 67.6534 25.0762 67.9324 25.0414 68.1881C25.0065 68.4438 25.053 69.3854 25.1692 70.2804C25.2739 71.1754 25.5063 72.7911 25.6923 73.8838C25.8783 74.9764 26.1689 76.4875 26.3316 77.2547C26.4944 78.0219 26.8198 79.2772 27.0407 80.0444C27.2731 80.8116 27.6916 82.0902 27.9822 82.8922C28.2728 83.6943 28.7145 84.845 28.9702 85.4495C29.2376 86.0539 29.5979 86.8908 29.7955 87.3093C29.9931 87.7277 30.4697 88.646 30.8533 89.3434C31.2252 90.0409 31.9692 91.273 32.4922 92.075C33.0153 92.8771 33.8638 94.0511 34.3753 94.6904C34.8867 95.3297 35.7004 96.2247 36.1654 96.6664C36.6419 97.1198 37.258 97.6428 37.5486 97.8404C37.8392 98.0497 38.3274 98.2938 38.6529 98.3984C38.9667 98.5146 39.7571 98.6774 40.3964 98.7703C41.0357 98.875 42.0238 98.9331 42.6049 98.9098C43.4651 98.875 43.779 98.8052 44.395 98.5262C44.9065 98.2822 45.3482 97.9567 45.7899 97.4801C46.1735 97.0849 46.6384 96.4107 46.8825 95.9109C47.115 95.4343 47.4172 94.6439 47.5334 94.1673C47.6613 93.6907 47.8124 92.5632 47.8938 91.6682C47.9868 90.4942 47.9868 89.5062 47.8938 88.1229C47.824 87.0303 47.6729 85.7749 47.5451 85.217C47.4172 84.6707 47.1964 83.8919 47.0685 83.4734C46.929 83.055 46.6268 82.3575 46.3943 81.9158C46.1618 81.4741 45.7666 80.8697 45.5109 80.5907C45.2552 80.3001 44.767 79.8584 44.4299 79.6143C43.9766 79.2888 43.8254 79.1029 43.8254 78.882C43.8254 78.6728 44.1044 78.2892 44.8018 77.5685C45.3714 76.9757 45.9177 76.2667 46.127 75.8598C46.3362 75.4297 46.5803 74.6509 46.743 73.8257C46.9871 72.64 47.022 72.1635 47.0104 69.6411C47.0104 67.0722 46.9871 66.7003 46.7546 65.8634C46.6152 65.3519 46.2664 64.4569 45.9875 63.8873C45.6969 63.3061 45.2668 62.6319 45.0227 62.3878C44.7786 62.1321 44.3136 61.8183 43.9998 61.6672C43.6743 61.516 43.0815 61.3766 42.6631 61.3417C42.2214 61.3068 41.5123 61.3533 40.9776 61.4463C40.4662 61.5393 39.4433 61.7718 38.711 61.9578ZM65.7363 61.7137C65.4806 61.8415 65.0621 62.167 64.818 62.4459C64.5623 62.7249 64.1787 63.3526 63.9579 63.8292C63.7486 64.3058 63.4116 65.224 63.2372 65.8634C63.0512 66.5027 62.7955 67.6302 62.6676 68.3625C62.5398 69.0948 62.3538 70.5129 62.2492 71.5009C62.1562 72.4889 62.0167 75.1043 61.947 77.3128C61.8656 80.0444 61.8656 82.8457 61.947 86.0888C62.0516 89.7851 62.1213 91.18 62.2957 92.3075C62.4235 93.1096 62.6328 94.1441 62.7723 94.5974C62.9001 95.0624 63.1558 95.7714 63.3302 96.1666C63.5162 96.5734 63.8881 97.1779 64.1439 97.5034C64.5042 97.9683 64.8297 98.2124 65.4109 98.4914C66.2013 98.875 66.2013 98.875 67.9448 98.8633C69.3397 98.8517 69.8744 98.8052 70.6183 98.596C71.2383 98.4333 71.8001 98.1814 72.3038 97.8404C72.7222 97.5615 73.5591 96.8175 74.1636 96.1782C74.768 95.5506 75.6631 94.516 76.1396 93.8767C76.6162 93.2374 77.4415 92.0053 77.9762 91.1451C78.5109 90.285 79.2199 89.0296 79.557 88.3554C79.9057 87.6812 80.4056 86.6118 80.6729 85.9725C80.9519 85.3332 81.4401 84.0779 81.7772 83.1828C82.1026 82.2878 82.4746 81.23 82.6025 80.8232C82.8001 80.1839 82.8001 80.0793 82.649 79.9282C82.556 79.8352 81.7191 79.6376 80.731 79.4748C79.7663 79.3121 78.197 79.0796 77.2439 78.9401C76.2791 78.8123 75.0237 78.696 74.4542 78.6728L73.408 78.6495C73.2918 79.9165 73.2453 81.5322 73.2221 83.0666L73.1756 85.8563C73.9427 85.9493 74.2217 86.0539 74.2798 86.1469C74.3379 86.2399 74.3961 86.5072 74.3961 86.7281C74.3961 86.9489 74.3379 88.1462 74.2798 89.3667C74.1985 90.8778 74.1055 91.7496 73.9892 92.0169C73.8962 92.2378 73.6405 92.5284 73.4313 92.6562C73.1872 92.8073 72.8501 92.8887 72.4781 92.8887C72.1062 92.8887 71.7691 92.8073 71.5134 92.6562C71.3157 92.5284 71.0716 92.2494 70.9787 92.0402C70.8392 91.7379 70.8392 91.1451 70.9205 88.646C70.9787 86.9838 71.0949 83.2409 71.1995 80.335C71.2925 77.429 71.3971 73.9186 71.432 72.547C71.4785 70.8383 71.5598 69.8852 71.6761 69.5481C71.7691 69.2808 71.9551 68.9785 72.0945 68.8855C72.2457 68.7926 72.5827 68.7112 72.8501 68.7112C73.1291 68.7112 73.4894 68.7809 73.6638 68.8739C73.8497 68.9669 74.1287 69.1878 74.3031 69.3737C74.4774 69.5481 74.675 69.8852 74.7448 70.106C74.8145 70.3618 74.8261 71.28 74.7796 72.6052L74.6983 74.6974C75.14 74.9997 75.8723 75.2205 76.6046 75.3949C77.3369 75.5576 79.0921 75.9644 80.4986 76.2783C81.905 76.6037 83.1837 76.8478 83.3348 76.8246C83.544 76.8014 83.6486 76.6967 83.7067 76.441C83.7648 76.255 83.9508 75.174 84.1484 74.0581C84.3344 72.9423 84.5785 71.3149 84.6831 70.4548C84.7994 69.5946 84.8691 68.6414 84.8459 68.3508C84.811 68.0254 84.7064 67.7115 84.5669 67.5488C84.439 67.4093 83.2883 66.7816 82.0096 66.1539C80.731 65.5263 79.0572 64.7475 78.29 64.4336C77.5229 64.1082 76.2442 63.6083 75.4422 63.3061C74.6402 63.0039 73.2802 62.5622 72.42 62.3181C71.5598 62.0624 70.351 61.7601 69.7465 61.6323C69.1421 61.5044 68.3052 61.3766 67.8867 61.3417C67.4683 61.3068 66.9219 61.3301 66.6662 61.3766C66.4105 61.4347 65.992 61.5858 65.7363 61.7137ZM36.1072 69.7573C37.2347 69.7573 37.3277 69.7806 37.4788 70.0131C37.5718 70.1642 37.7113 70.4896 37.7927 70.7453C37.8973 71.0476 37.9438 71.7799 37.9438 72.8376C37.9438 73.9884 37.8857 74.6509 37.7578 75.1043C37.6532 75.453 37.4556 75.8714 37.3277 76.0109C37.1418 76.2318 36.8744 76.3132 36.1537 76.4178C35.282 76.5456 35.2122 76.5456 35.003 76.3248C34.7937 76.1155 34.7589 75.8366 34.6775 73.1166C34.5961 70.6756 34.6078 70.106 34.7473 69.9433C34.8751 69.7922 35.1308 69.7573 36.1072 69.7573ZM36.7349 83.0666C37.5718 83.0898 37.6183 83.1131 37.9206 83.485C38.0949 83.7059 38.3506 84.2755 38.5017 84.752C38.7226 85.4843 38.7575 85.9028 38.7575 87.3093C38.7575 88.553 38.711 89.1691 38.5599 89.6573C38.4552 90.0292 38.246 90.4709 38.0949 90.6337C37.9206 90.8429 37.6881 90.9475 37.3161 90.994C37.0255 91.0289 36.4908 91.0289 36.1189 90.9824C35.4912 90.9127 35.4563 90.8894 35.3517 90.5291C35.2936 90.3315 35.2122 88.7041 35.1773 86.9257C35.1308 84.6707 35.1425 83.6245 35.2355 83.4269C35.3052 83.2642 35.4796 83.1131 35.619 83.0898C35.7469 83.055 36.2584 83.0433 36.7349 83.0666Z" fill="white"/>
</svg>
