<svg width="109" height="114" viewBox="0 0 109 114" fill="none" xmlns="http://www.w3.org/2000/svg">
<path fill-rule="evenodd" clip-rule="evenodd" d="M88.739 7C89.5078 7 89.9124 7.08098 89.6291 7.24293C89.3054 7.36439 88.8604 7.6883 88.6176 7.97172C88.3343 8.21465 83.236 10.1176 77.2071 12.1825C71.2186 14.2474 63.3688 17.0411 59.8081 18.4582C56.2473 19.8348 51.7964 21.7377 49.8947 22.6284C47.9929 23.5192 45.3224 25.0172 43.9062 25.908C42.5305 26.8392 41.1143 28.0134 40.7906 28.5802C40.3455 29.309 40.305 29.7948 40.5882 30.4022C40.831 30.888 41.8021 31.4549 42.9351 31.7788C43.9871 32.1027 45.2819 32.4671 45.8484 32.629C46.4149 32.8315 55.2358 33.0744 84.1667 33.4388L85.8661 34.6534C86.7967 35.3417 87.9297 36.5969 88.3748 37.4876C88.9817 38.8237 89.1436 40.0384 89.1436 44.1681C89.1436 49.0267 89.1031 49.3101 88.0106 51.0511C87.2823 52.2658 86.2707 53.197 83.2765 54.6951H54.6288C27.5188 54.6951 25.9407 54.6546 24.4841 53.9258C23.6748 53.5209 22.5014 52.6302 21.854 51.9014C21.247 51.2131 20.5592 49.958 20.3164 49.1077C20.0736 48.217 19.9522 44.6945 20.0332 40.1193C20.1545 32.6695 20.1545 32.629 21.3684 30.4427C22.0158 29.228 23.8367 27.0821 25.4147 25.6246C27.6402 23.6002 29.3801 22.4665 33.5073 20.4421C36.3801 19.025 40.5882 17.284 42.8137 16.5147C45.0392 15.7454 49.7733 14.3688 53.334 13.4781C56.8948 12.5469 62.6405 11.2917 66.0798 10.6034C69.5191 9.95564 74.9816 9.02441 78.2186 8.53855C81.4557 8.05269 84.8141 7.52635 85.7043 7.32391C86.5944 7.16195 87.9702 7 88.739 7ZM54.7502 60.4039C81.2938 60.3634 82.9528 60.4039 84.4904 61.1327C85.3805 61.5376 86.5944 62.3878 87.2014 63.0356C87.8083 63.6834 88.4962 64.6957 88.6985 65.303C88.9413 65.9508 89.1436 68.623 89.1436 71.2952C89.1436 74.9796 88.9817 76.4777 88.4962 77.4494C88.132 78.1782 87.5251 79.1094 87.1609 79.5548C86.7967 79.9597 85.8661 80.6075 85.0973 81.0124C83.8025 81.6602 81.9817 81.7412 65.8775 81.9436C51.3109 82.0651 47.5478 82.227 45.2415 82.7939C43.7039 83.1583 41.964 83.7656 41.438 84.13C40.912 84.5349 40.3859 85.1422 40.305 85.4661C40.1836 85.8305 40.9119 86.8022 41.964 87.7739C43.1779 88.9076 45.8889 90.5271 49.571 92.3086C52.7675 93.8471 58.3514 96.2359 62.0335 97.6125C65.7156 98.9891 72.6348 101.459 77.4094 103.078C82.184 104.738 86.7158 106.237 87.4037 106.479C88.132 106.722 88.739 107.208 88.739 107.532C88.739 108.018 88.3748 108.099 86.7968 107.897C85.7447 107.775 81.9008 107.249 78.2186 106.682C74.5365 106.115 69.155 105.184 66.2821 104.657C63.3688 104.091 58.3919 102.997 55.1549 102.188C51.9178 101.418 46.8195 99.9609 43.8253 98.9891C40.831 98.0174 36.3801 96.2359 33.9119 95.0213C31.4437 93.8066 28.2876 91.9442 26.8714 90.8915C25.4552 89.7983 23.7962 88.2598 23.1893 87.4905C22.5823 86.7212 21.6517 85.2636 21.1256 84.2514C20.195 82.5509 20.1545 81.9436 20.0332 74.5343C19.9522 67.0035 19.9522 66.5581 20.8424 64.8576C21.3684 63.8454 22.2991 62.6308 22.9869 62.1044C23.6343 61.6186 24.7268 61.0112 25.4147 60.8088C26.1026 60.6063 38.6056 60.4039 54.7502 60.4039Z" fill="white"/>
</svg>
