<svg width="109" height="114" viewBox="0 0 109 114" fill="none" xmlns="http://www.w3.org/2000/svg">
<path d="M35.2331 14.2864C37.044 12.3769 39.9614 9.91457 41.722 8.8593C43.4825 7.85427 45.0419 7 45.1928 7C45.3437 7 45.5952 7.15075 45.7964 7.35176C45.9976 7.55276 45.2934 9.01005 44.237 10.5176C43.1807 12.0251 41.4705 14.9397 40.4645 16.8995C39.4584 18.9095 38.3015 22.0754 37.8991 23.9347C37.2955 26.598 37.1949 27.9045 37.6476 29.9648C37.8991 31.4221 38.7039 33.5327 39.4081 34.6382C40.1123 35.7437 41.7723 37.5528 43.1807 38.6583C44.5389 39.7638 45.897 40.6683 46.1988 40.6683C46.4503 40.6683 45.897 39.2613 44.891 37.5025C43.9352 35.794 42.8286 33.8844 42.5268 33.2312C41.9735 32.2261 42.2753 31.4221 44.7904 26.4472C46.3497 23.3819 48.6636 19.5628 49.8708 18.0553C51.0277 16.5477 53.1404 14.5377 54.5488 13.6332C55.9069 12.7286 58.1202 11.6734 59.5286 11.2211C60.8867 10.8191 63.1503 10.5176 64.5587 10.5176C65.9169 10.5176 68.3313 10.8693 69.8404 11.2714C71.3494 11.7236 74.2166 12.2764 76.128 12.5779C78.0395 12.8794 80.4036 13.4824 81.309 13.9347C82.2648 14.4372 83.2708 15.4925 83.7235 16.397C84.1259 17.3015 84.4277 18.809 84.4277 19.6633C84.4277 20.5678 84.3271 21.4724 84.1762 21.6734C84.0253 21.9246 83.1199 21.7236 82.1641 21.3216C81.2084 20.9196 79.4479 20.5678 78.2407 20.5678C77.0334 20.5678 75.5747 20.9196 74.8705 21.4221C74.1663 21.9246 73.2105 22.7789 72.7578 23.3317C72.3051 23.8844 71.6512 25.3417 71.3997 26.598C70.9973 28.3065 71.0476 29.5628 71.5506 31.6231C72.1542 33.8342 72.7578 34.8392 74.7196 36.6482C76.631 38.407 78.5928 39.4623 83.2205 41.2714C86.4901 42.5779 90.1117 44.2864 91.2184 45.0905C92.325 45.8442 93.6831 47.1508 94.2867 47.9548C94.8904 48.809 95.5946 50.2663 95.9467 51.2211C96.2485 52.1759 96.5 54.2864 96.5 55.8442C96.5 57.4523 96.1479 60.3668 95.7455 62.2764C95.2928 64.4372 94.6891 65.8945 94.2364 66.0452C93.6328 66.2462 93.4819 65.7437 93.4819 63.3819C93.4819 61.4221 93.0795 59.7136 92.2747 58.005C91.6208 56.598 90.3129 54.6884 89.3069 53.7337C88.3512 52.7789 86.4398 51.3719 85.1319 50.6181C83.7738 49.9146 80.9569 48.809 78.8946 48.2563C76.8322 47.6533 73.3111 47.1005 67.0738 46.6482L71.8524 48.3065C74.4681 49.2111 77.9892 50.7688 79.5988 51.7236C81.2084 52.6784 83.7235 54.5879 85.1319 55.995C86.5404 57.3518 88.3512 59.7638 89.1057 61.2714C89.8602 62.7789 90.6651 65.2915 90.9669 66.799C91.3022 68.6415 91.3022 70.4841 90.9669 72.3266C90.7154 73.8342 90.162 75.8945 89.7596 76.8493C89.4075 77.804 88.4015 79.6633 87.647 81.0201C86.8422 82.3266 85.987 83.3819 85.6852 83.3819C85.3834 83.3819 85.1822 81.6231 85.1319 79.2111C85.1319 76.2965 84.7798 74.2864 84.0253 72.3266C83.4217 70.8191 81.9629 68.407 80.7557 67.0503C79.5485 65.6432 77.2346 63.8342 75.5747 62.9296C73.9651 62.0754 71.7015 61.1206 68.5828 60.3166L70.8967 62.4271C72.2045 63.5829 74.2166 65.8945 75.3232 67.5528C76.5304 69.2613 77.8885 72.1256 78.4922 74.0854C79.297 76.799 79.4982 78.5578 79.3473 81.6231C79.1461 84.9397 78.794 86.2462 77.3855 89.1608C76.4298 91.0704 74.619 93.6834 73.3614 94.9397C72.1039 96.196 69.5889 98.2563 67.8283 99.5126C66.0175 100.819 62.3455 103.03 59.6292 104.437C56.9632 105.844 54.3476 107 53.8949 107C53.3919 107 50.4744 105.693 47.4563 104.085C44.4382 102.477 40.0117 99.9146 37.6476 98.3568C35.2834 96.799 31.7623 94.0854 29.8509 92.3266C27.8892 90.5678 25.4747 88.206 24.4184 87C23.4123 85.8442 22.6578 84.6884 22.8087 84.3869C22.9596 84.0854 24.2675 84.4874 25.9777 85.3417C27.537 86.1457 32.2654 87.8543 36.3901 89.1608C40.5651 90.4673 45.1928 92.1759 46.7018 92.9296C48.2108 93.6834 50.2229 94.9397 52.9392 97.201L52.587 95.191C52.3858 94.0854 51.6816 92.4271 50.9774 91.5226C50.2732 90.6683 48.8648 89.3618 47.8587 88.7588C46.8024 88.1055 42.8789 86.1457 39.1566 84.4372C35.4343 82.7286 31.1587 80.6181 29.6497 79.7136C28.1407 78.8593 25.4244 76.6482 23.6136 74.8392C21.4003 72.6281 19.5895 70.2161 18.181 67.5528C17.0241 65.3417 15.6157 61.8241 15.0623 59.7638C14.509 57.7035 13.8048 54.0854 13.503 51.7236C13.2515 49.3618 13 47.402 13 47.3015C13 47.2513 13.3018 47.201 13.6539 47.201C13.9557 47.201 14.9114 48.8593 15.7666 50.8694C16.5714 52.8291 18.2816 56.0955 19.5895 58.005C20.847 59.9146 23.0099 62.5276 24.3681 63.7337C25.7262 64.9397 28.4425 66.6985 30.3539 67.603C32.5672 68.7085 36.4404 69.8643 40.9172 70.8191C44.7904 71.6231 48.9654 72.6784 50.2229 73.1307C51.4804 73.5829 53.2913 74.4372 54.247 74.99C55.2027 75.5427 57.1142 77.0503 60.8364 80.6181L59.9813 78.3568C59.4783 77.1005 58.4723 75.191 57.7178 74.0854C56.9129 72.9799 55.6051 71.5729 54.75 70.9196C53.9452 70.3166 52.2852 69.4121 51.1283 68.8593C49.9211 68.3568 46.2491 67.3518 42.9292 66.598C39.6093 65.8442 35.6355 64.7889 34.1265 64.2362C32.6175 63.6834 30.1527 62.5276 28.694 61.6231C27.2352 60.7688 24.7705 58.7588 23.2614 57.2513C21.7524 55.7437 19.7404 53.0302 18.8349 51.2211C17.8792 49.4121 16.7726 46.6985 16.3199 45.191C15.8169 43.4824 15.5151 40.5678 15.5151 37.6533C15.5151 34.99 15.8672 31.5226 16.2696 29.8643C16.7223 28.206 17.678 25.4925 18.4325 23.8342C19.2373 22.1759 20.5955 19.6633 21.5512 18.3065C22.5069 16.8995 24.4184 14.6884 25.8268 13.3317C27.1849 12.0251 29.4988 10.1658 30.8569 9.21106C32.2654 8.30653 33.6738 7.70352 34.0259 7.80402C34.4283 8.00503 34.0259 8.90955 32.6175 10.6683C31.5108 12.1256 29.5994 15.191 28.3922 17.5528C27.1849 19.9146 25.8268 23.0804 25.3741 24.5879C24.9214 26.0955 24.519 29.0603 24.4687 31.1206C24.4687 33.3317 24.7705 35.9447 25.2232 37.402C25.6759 38.7588 26.8831 40.9196 27.9395 42.1256C28.9958 43.3819 30.7563 44.9899 31.8629 45.794C32.9696 46.598 34.0259 47.201 34.2774 47.201C34.4786 47.201 33.875 46.2462 32.9193 45.0905C31.9636 43.8844 30.6054 41.6734 29.9012 40.1658C29.197 38.6583 28.4425 35.9447 28.1407 34.1357C27.8389 31.9749 27.7886 29.8643 28.1407 27.8543C28.3922 26.196 29.3479 23.2814 30.2533 21.3216C31.3599 19.0603 33.1205 16.5477 35.2331 14.2864Z" fill="white"/>
</svg>
