<svg width="109" height="114" viewBox="0 0 109 114" fill="none" xmlns="http://www.w3.org/2000/svg">
<path d="M8.87193 29.6787C6.59711 27.1313 4.85131 24.7961 5.01002 24.5307C5.22163 24.1592 22.4151 24 55.0033 24C82.3541 24 104.838 24.1592 104.997 24.4246C105.102 24.6369 102.775 27.2374 99.812 30.1564C95.7385 34.2429 93.8869 35.729 92.2998 36.1535C91.0302 36.472 85.4224 36.7373 78.7038 36.7373C72.0909 36.7373 66.6948 36.9496 66.1129 37.268C65.531 37.5865 64.6845 38.4887 64.2613 39.3909C63.6794 40.5054 63.4677 42.7345 63.4677 47.0864C63.4677 53.0836 63.5206 53.2428 66.5361 56.6394L81.296 56.7986C89.3902 56.8517 96.3734 57.064 96.7966 57.2232C97.3256 57.3824 95.6856 59.3991 91.2418 63.8572C87.7502 67.413 84.0999 70.5974 83.2005 71.022C82.1425 71.4996 79.5502 71.765 76.5877 71.765C72.6199 71.765 71.1916 72.0303 69.1813 72.9856C67.8058 73.6225 62.5155 77.8152 57.4368 82.2733C52.3052 86.6783 47.8085 90.3933 47.4911 90.4995C46.962 90.5525 46.7504 86.8375 46.2743 56.6394L39.6614 56.374C35.4821 56.1617 32.4666 55.7902 31.5144 55.3126C30.6679 54.888 27.7583 51.8629 25.0073 48.6786C22.2564 45.4412 20.299 42.6814 20.5635 42.4691C20.828 42.2568 26.7531 41.9915 46.2743 41.7792V37.0027L31.0912 36.7373C16.7545 36.472 15.8551 36.4189 14.4267 35.3574C13.6332 34.7737 11.0939 32.1731 8.87193 29.6787Z" fill="white"/>
</svg>
