<svg width="109" height="114" viewBox="0 0 109 114" fill="none" xmlns="http://www.w3.org/2000/svg">
<path d="M44.4223 8.86238C45.9739 8.56526 47.5254 8.26814 47.8886 8.20211C48.2517 8.10308 50.6946 8.03705 53.3356 8.00404C56.934 7.97102 59.0138 8.13609 61.7538 8.6643C63.7345 9.02744 66.9367 9.85277 68.8514 10.48C70.7662 11.0743 73.6382 12.2627 75.2889 13.0881C76.9065 13.9464 79.5144 15.465 81.066 16.4884C82.7497 17.5778 85.4567 19.8887 87.8336 22.2987C90.1774 24.6426 92.6534 27.5148 93.8418 29.2645C94.9312 30.8821 96.3838 33.3251 97.044 34.6126C97.7043 35.9331 98.6946 38.178 99.2559 39.5646C99.8171 40.9841 100.609 43.6252 101.072 45.4409C101.501 47.2566 102.029 50.5909 102.26 52.8688C102.557 56.1041 102.557 57.8868 102.227 61.1221C101.996 63.4 101.435 66.6683 101.006 68.385C100.576 70.1017 99.8171 72.5776 99.3219 73.8321C98.8597 75.0866 97.9023 77.2655 97.2421 78.619C96.5488 79.9726 95.0963 82.4816 93.9739 84.1322C92.8845 85.8159 91.8611 87.2024 91.696 87.2024C91.564 87.1694 86.4801 82.2505 80.4058 76.2421C74.3315 70.2007 67.0358 63.1359 64.2297 60.4949C61.3906 57.8538 57.5942 54.4204 55.8116 52.9018C53.9959 51.3832 50.3315 48.5111 47.6245 46.4643C44.9505 44.4505 42.8377 42.7338 42.9367 42.6348C43.0358 42.5357 44.8514 43.3611 46.9642 44.4505C49.11 45.5399 52.4773 47.4547 54.4911 48.7092C56.4718 49.9307 60.0371 52.4066 62.414 54.1563C64.7579 55.906 68.9175 59.2404 71.6575 61.5183C74.3645 63.8292 77.3026 66.3052 79.7455 68.385L80.2407 66.4702C80.5048 65.4468 80.868 63.2349 81.099 61.6173C81.2971 59.9997 81.3961 57.5897 81.2641 56.3352C81.1651 55.0807 80.8349 53.1329 80.5708 52.0435C80.2737 50.9541 79.6465 49.1714 79.1183 48.0819C78.6231 46.9925 77.4677 45.1438 76.5763 43.9883C75.685 42.7998 73.8363 40.9511 72.4828 39.8947C71.1293 38.8053 68.5213 37.2206 66.7056 36.3293C64.89 35.4709 62.0509 34.3485 60.4333 33.8863C58.5516 33.3581 51.2228 32.1696 40.5598 30.651C31.2503 29.3635 23.5254 28.4061 23.3934 28.5382C23.2613 28.6702 23.3934 30.684 23.7565 32.9949C24.0867 35.3059 24.879 40.0928 25.4732 43.6252C26.1004 47.1576 27.1898 52.4397 27.9161 55.3448C28.6093 58.25 29.5667 61.7493 30.0619 63.1029C30.5571 64.4564 31.6795 66.9984 32.5708 68.7151C33.4952 70.4318 34.9807 72.8087 35.9381 73.9972C36.8955 75.1857 38.7111 77.0014 39.9986 78.0578C41.2531 79.1142 43.4649 80.5668 44.9175 81.2601C46.37 81.9864 48.6149 82.8117 49.8693 83.1088C51.619 83.505 53.2036 83.604 56.3067 83.472C59.74 83.3399 60.9615 83.1418 63.5695 82.3165C65.6492 81.6232 67.8941 80.5338 70.1719 79.1472C72.0867 77.9588 74.0014 76.9684 74.4635 76.9684C74.9257 76.9684 75.9491 77.3976 76.7744 77.9258C77.5997 78.487 84.2682 84.9576 105 105.69H95.8226C89.7813 105.69 86.414 105.558 85.9188 105.327C85.5227 105.129 83.74 103.511 78.7882 98.592L75.8831 100.144C74.2985 101.002 71.1953 102.289 69.0165 103.016C66.8377 103.742 63.2063 104.633 60.9285 104.996C58.6506 105.393 55.3824 105.69 53.6657 105.69C51.9491 105.69 49.044 105.459 47.2283 105.162C45.4127 104.897 42.6066 104.303 40.956 103.874C39.3054 103.445 37.0275 102.686 35.8391 102.19C34.6506 101.728 32.6369 100.804 31.3824 100.177C30.1279 99.5163 27.751 98.0968 26.1004 97.0073C24.3508 95.8189 21.4787 93.3429 19.1348 90.9989C16.5598 88.4239 14.447 85.9479 13.0935 83.9011C11.9381 82.1845 10.3865 79.4114 9.59422 77.7937C8.80192 76.1761 7.81155 73.7001 7.34938 72.3465C6.8872 70.993 6.19394 68.319 5.76478 66.4042C5.07152 63.4 4.97248 62.0795 5.0055 56.6653C5.0055 51.5153 5.13755 49.7986 5.73177 47.0915C6.09491 45.2758 6.8872 42.4697 7.48143 40.819C8.04264 39.1684 9.19807 36.5273 9.99037 34.8767C10.8157 33.226 12.4003 30.585 13.5227 28.9343C14.6121 27.2837 17.1541 24.3125 19.1678 22.3317C21.4126 20.0868 23.9876 17.8749 25.9353 16.5874C27.652 15.432 30.392 13.8143 32.0426 13.022C33.6933 12.1967 36.4993 11.0412 38.315 10.447C40.1307 9.85277 42.8707 9.12648 44.4223 8.86238Z" fill="white"/>
</svg>
