<svg width="109" height="114" viewBox="0 0 109 114" fill="none" xmlns="http://www.w3.org/2000/svg">
<path fill-rule="evenodd" clip-rule="evenodd" d="M90.4378 9L89.5294 11.2134C89.0449 12.3959 86.259 19.6122 83.3217 27.1923C80.3844 34.7724 77.4168 42.5041 75.3577 47.6586L73.1169 47.507C71.9056 47.416 67.3634 47.3554 63.0332 47.3554C56.8558 47.3857 54.4333 47.507 51.8291 47.9315C50.0123 48.2347 47.1052 48.8714 45.3792 49.3566C43.6835 49.8417 41.0187 50.7816 39.4744 51.4487C37.9603 52.1157 35.5378 53.3892 34.1448 54.2685C32.6005 55.2084 30.3597 57.0579 28.4822 58.8772C26.7865 60.5448 24.7879 62.8795 24.0309 64.0317C23.3041 65.1838 22.3351 66.8818 21.8809 67.7308C21.457 68.6101 20.6697 70.5202 20.1852 71.9756C19.6704 73.4613 19.1859 74.7045 19.095 74.7954C18.9739 74.8864 18.9739 73.5826 19.0648 71.915C19.1556 70.2474 19.519 67.2456 19.8824 65.2445C20.2154 63.2433 20.8211 60.3022 21.245 58.7256C21.6387 57.1489 22.4563 54.4201 23.0619 52.6615C23.6675 50.9029 24.9696 47.8405 25.9386 45.8394C26.9076 43.8382 28.6336 40.8365 29.7238 39.1689C30.8442 37.5012 32.6005 35.1059 33.6603 33.8628C34.6899 32.6196 36.7793 30.4063 38.2328 28.9812C39.7166 27.5561 42.23 25.4337 43.8046 24.2512C45.3792 23.099 47.9834 21.3404 49.558 20.4005C51.1327 19.4302 53.7974 18.0052 55.4629 17.2168C57.1284 16.3982 59.7931 15.2763 61.3677 14.6699C62.9424 14.0938 65.8191 13.1236 67.7268 12.5475C69.6345 11.9714 72.9049 11.1224 74.9943 10.6979C77.0837 10.2735 80.2027 9.72769 81.959 9.48513C83.7153 9.24256 86.3195 9.06064 90.4378 9ZM56.8861 54.511C58.8847 54.4807 60.1565 54.602 60.1565 54.7839C60.1565 54.9658 58.8241 58.5437 54.2516 70.4899L50.6179 70.6415C48.044 70.7325 46.3785 70.975 44.8644 71.4602C43.7137 71.824 41.6546 72.7033 40.3222 73.3704C38.7476 74.2193 37.2335 75.3109 35.9314 76.6147C34.8413 77.7062 33.5392 79.4041 32.9942 80.4047C32.4794 81.4053 31.8132 83.0426 31.5709 84.0432C31.2984 85.0437 31.0864 86.4991 31.0864 87.3178C31.0864 88.1061 31.2378 89.4705 31.4195 90.3498C31.6012 91.1988 32.1766 92.8058 32.6913 93.8973C33.3273 95.1708 34.3871 96.6262 35.78 98.0209C37.0519 99.2944 38.7476 100.628 40.0194 101.326C41.1701 101.993 43.1687 102.842 44.4102 103.266C46.3785 103.903 47.2567 103.994 51.0721 104.024C53.4946 104.055 56.1291 103.933 56.977 103.782C58.3093 103.57 58.4305 103.57 58.0368 103.994C57.7945 104.237 56.8861 104.661 56.0685 104.904C55.2206 105.177 53.6763 105.54 52.5862 105.753C51.3446 105.965 49.1341 106.056 46.6813 105.965C43.3806 105.813 42.2905 105.662 39.868 104.873C38.2934 104.328 35.9012 103.266 34.5688 102.508C32.9336 101.538 31.2076 100.143 29.3301 98.2331C26.9076 95.7772 26.3626 95.0192 25.0605 92.3207C24.2429 90.5924 23.3647 88.3184 23.0922 87.2268C22.8499 86.1353 22.5471 84.3161 22.4563 83.1336C22.3049 81.6782 22.3957 80.2531 22.7591 78.5855C23.0316 77.2514 23.7886 75.0683 24.4245 73.7342C25.0605 72.4001 26.1809 70.4899 26.9379 69.4893C27.6949 68.4888 29.4815 66.5483 30.9047 65.1838C32.328 63.7891 34.6293 61.9395 35.992 61.0299C37.3849 60.1506 39.3835 58.9681 40.4736 58.4224C41.5638 57.8766 43.8046 56.967 45.4701 56.4212C47.1355 55.8754 49.6489 55.2084 51.0721 54.9658C52.4953 54.7233 55.0995 54.5414 56.8861 54.511Z" fill="white"/>
</svg>
