<svg width="109" height="114" viewBox="0 0 109 114" fill="none" xmlns="http://www.w3.org/2000/svg">
<path fill-rule="evenodd" clip-rule="evenodd" d="M104.873 22.3389C103.355 21.4847 101.836 20.7254 100.412 19.8712C100.128 19.6814 99.9378 19.4915 99.6531 19.3966C99.5581 19.3017 99.3683 19.3966 99.1785 19.3017C99.1785 19.4915 99.1785 19.6814 99.2734 19.7763C100.033 20.5356 100.792 21.3898 101.551 22.1491C102.026 22.6236 102.595 22.9084 103.165 23.288C104.494 24.1422 105.158 25.3761 104.968 26.9896C104.683 29.6471 104.114 32.2097 102.405 34.3927C101.646 35.3418 101.267 36.3858 100.887 37.4298C100.317 38.9484 99.3683 40.2772 97.8497 41.0365C97.6599 41.1314 97.3752 41.1314 97.1853 41.2263C97.1853 41.0365 97.0904 40.8467 97.0904 40.5619C97.0904 39.0434 97.0904 37.5248 97.0904 35.9113C97.565 35.8164 98.0396 35.8164 98.5141 35.7214C98.5141 35.7214 98.5141 35.7214 98.5141 35.6265C97.7548 35.5316 96.9955 35.4367 96.3311 35.4367C95.5718 36.6706 94.9075 37.9993 94.1482 39.1383C93.3889 40.2772 92.2499 41.1314 90.9212 41.7009C90.7313 41.7958 90.4466 41.8907 90.3517 41.7958C90.2568 41.7009 90.1619 41.4161 90.1619 41.1314C90.2568 39.2332 90.2568 37.3349 90.3517 35.5316C90.3517 34.9621 90.1619 34.6774 89.4975 34.5825C86.7451 34.1079 83.9926 33.7283 81.1453 33.8232C76.9692 34.013 73.4574 35.6265 71.1796 39.3281C70.8948 39.8026 70.705 40.2772 70.5152 40.8467C72.9829 37.6197 76.2099 35.8164 80.1012 35.4367C80.1012 35.5316 80.1962 35.5316 80.1962 35.6265C80.0063 35.7214 79.9114 35.9113 79.7216 36.0062C77.159 37.7146 75.0709 39.7077 73.7422 42.5551C72.9829 44.2635 72.6981 46.0668 72.793 47.8701C72.888 49.2938 73.6472 50.2429 74.7862 51.0971C75.2607 51.4768 75.8302 51.8564 76.3048 52.331C73.4574 51.9513 70.7999 51.3819 69.3762 48.4396C69.3762 48.5345 69.2813 48.7243 69.3762 48.8192C69.661 50.8124 70.9897 51.7615 72.793 52.2361C74.5964 52.7106 76.4946 52.9005 78.2979 53.2801C80.8605 53.8496 83.4231 54.419 86.0807 54.9885C86.7451 55.1783 87.3145 55.2732 88.1687 55.4631C88.5484 53.9445 89.0229 52.6157 89.3077 51.0971C89.4975 50.148 89.5924 49.1989 89.7822 48.3447C89.7822 48.06 89.9721 47.8701 90.067 47.6803C90.2568 47.7752 90.5415 47.8701 90.7314 48.06C92.3448 49.5785 92.9143 51.5717 93.1991 53.6597V53.7547C93.294 55.1783 93.9583 55.558 95.5718 54.8936C95.1922 54.7987 95.0024 54.7987 94.8125 54.7038C93.8634 54.514 93.6736 54.1343 93.7685 53.1852C94.0533 51.4768 94.338 49.7684 94.6227 48.06C94.6227 47.965 94.7176 47.7752 94.8125 47.4905C95.0024 47.7752 95.1922 47.965 95.382 48.1549C96.521 49.8633 97.0904 51.7615 97.565 53.6597C97.6599 54.1343 97.8497 54.6089 98.0396 54.9885C101.551 60.5883 98.1345 67.9914 91.4906 68.8456C88.928 69.1303 86.7451 68.5609 84.7519 66.9474C78.7725 62.2967 72.2236 61.3476 65.1052 64.0051C62.9222 64.8593 60.5494 65.1441 58.1766 65.1441C52.387 65.1441 47.1669 63.4356 42.8959 59.4494C39.3841 56.2224 37.4859 52.1412 36.6317 47.4905C36.5368 46.7312 36.4419 45.9719 36.347 45.2126C35.8724 49.5785 37.5808 56.602 43.1806 61.5374C48.0211 65.7135 53.6209 67.7067 60.2647 67.0423C54.4751 72.737 52.1023 79.3808 54.4751 87.2585C56.8479 95.0412 62.2578 99.5021 70.3253 100.831C69.2813 101.875 68.1424 102.634 66.8136 103.204C63.8713 104.437 60.8342 104.817 57.797 104.817C51.9125 104.817 46.3127 103.773 40.9976 101.305C39.1943 100.451 37.5808 99.4072 36.1571 98.0784C37.391 101.116 39.479 103.583 42.4213 105.197C40.5231 105.576 33.025 103.393 29.4184 101.305C25.3372 99.0275 22.2051 95.8005 19.7374 91.9091C17.3646 87.9229 16.0359 83.6518 15.0867 79.0961C14.2325 82.7027 14.4224 86.2144 15.3715 89.8211C14.9918 89.4414 14.6122 89.1567 14.2325 88.7771C10.9106 85.2653 8.91748 80.9943 7.87345 76.3436C5.97522 68.0863 7.01925 60.1137 10.4361 52.331C10.6259 51.7615 10.9106 51.287 11.1954 50.7175C10.3412 51.287 8.63275 53.4699 7.77854 55.0834C6.92434 56.7918 6.25995 58.5002 5.50066 60.3036C5.31084 59.0697 5.12101 58.0257 5.0261 56.8867C4.83628 52.6157 5.69048 48.5345 7.30398 44.5482C11.2903 34.2029 18.5985 26.9896 28.8489 22.7185C29.5133 22.4338 30.1777 22.4338 30.937 22.6236C33.12 23.1931 35.3029 22.9084 37.2961 21.9592C37.4859 21.8643 37.6757 21.7694 37.7706 21.6745C37.7706 21.6745 37.8655 21.5796 37.9605 21.3898C37.4859 21.4847 37.1063 21.4847 36.7266 21.5796C30.5573 22.5287 24.9576 17.5933 24.9576 11.3291C24.9576 10.4749 25.1474 9.62073 25.3372 8.76653C25.527 7.91232 25.8118 7.91232 26.666 8.10215C30.2726 9.14617 33.8793 10.1902 37.4859 11.0444C41.3773 11.9935 45.3636 12.3732 49.3499 12.0884C52.4819 11.8037 55.614 11.1393 58.6512 10.1902C61.7833 9.24109 64.9154 8.86144 68.1424 8.86144C70.4202 8.86144 72.6981 9.52582 74.8811 10.2851C77.7284 11.2342 80.5758 12.2783 83.613 12.7528C84.3723 12.8477 85.2265 13.0376 85.9858 12.9426C90.3517 12.8477 94.4329 14.0816 98.3243 15.9798C100.412 16.9289 102.311 18.1628 104.114 19.5865C104.778 20.3457 104.968 21.0101 104.873 22.3389ZM65.1052 13.1325C65.5798 13.0376 65.7696 13.0376 66.0543 13.0376C66.9085 13.0376 67.0983 13.4172 66.7187 14.0816C66.339 14.746 66.3391 15.5053 66.6238 16.2645C66.6238 16.3595 66.9085 16.5493 67.0983 16.5493C68.6169 16.4544 70.0406 16.834 71.4643 17.3086C71.9388 17.4984 72.2236 17.4035 72.4134 16.9289C72.9829 15.6002 72.9829 15.5053 71.749 14.6511C70.6101 13.8918 69.566 13.0376 68.2373 12.7528C67.1933 12.563 66.1492 12.563 65.1052 13.1325ZM72.793 17.7831C74.4065 18.0679 75.7353 17.4035 77.0641 16.5493C76.115 16.4544 75.1658 16.2645 74.2167 16.1696C73.7422 16.6442 73.2676 17.2137 72.793 17.7831Z" fill="white"/>
</svg>
