<svg width="109" height="114" viewBox="0 0 109 114" fill="none" xmlns="http://www.w3.org/2000/svg">
<path d="M28 38.261V32.9625V27.6641H80.993V38.261H28Z" fill="white"/>
<path d="M28.0795 76.3924C28.0353 76.2952 28 69.3719 28 59.8965V43.5595H65.0951V62.4574C65.0951 72.8512 65.1216 81.3729 65.1569 81.3994C65.2011 81.4171 65.5455 81.108 65.943 80.7106C66.3316 80.3132 66.8703 79.7128 67.1441 79.3684C67.4179 79.024 67.8242 78.45 68.0627 78.0879C68.2923 77.7258 68.6898 76.984 68.9459 76.4542C69.1932 75.9243 69.52 75.1031 69.6701 74.6439C69.8203 74.1847 70.0322 73.3634 70.3502 71.8622L70.3767 43.5595H80.993V76.0126L80.7633 77.1165C80.6397 77.7258 80.3924 78.6796 80.2069 79.2359C80.0214 79.7922 79.677 80.6312 79.4473 81.0904C79.2177 81.5496 78.8467 82.203 78.6259 82.5474C78.414 82.8918 78.0342 83.4217 77.7869 83.7396C77.5396 84.0575 72.2315 89.4266 65.9871 95.6788C59.7428 101.931 54.6025 107.026 54.5671 107C54.523 106.982 54.4965 95.0872 54.4965 54.1564H38.5986V59.4549H49.1972V70.0519H38.5986V80.5605C38.5986 86.3447 38.5721 91.0868 38.5368 91.1133C38.4926 91.131 36.9735 89.6562 35.1452 87.8194C33.3258 85.9914 31.6035 84.2165 31.3386 83.8721C31.0648 83.5277 30.6143 82.9007 30.3317 82.4591C30.0491 82.0176 29.6516 81.3111 29.4396 80.8696C29.2365 80.428 28.9274 79.6598 28.7596 79.1476C28.5918 78.6354 28.3886 77.8406 28.3091 77.3814C28.2296 76.9222 28.1237 76.4719 28.0795 76.3924Z" fill="white"/>
<path d="M52.5183 11.8304C52.5271 11.8216 52.9422 10.7266 53.4368 9.41081C54.0993 7.66231 54.3907 7 54.4879 7C54.5939 7 54.8765 7.64465 55.5477 9.40198C56.0512 10.7266 56.4751 11.8216 56.4751 11.8304C56.4839 11.8481 57.641 11.9188 59.0453 11.9894C60.4496 12.0689 61.6596 12.1484 61.7214 12.166C61.7744 12.1925 61.8274 12.2367 61.8274 12.2808C61.8362 12.3161 60.9265 13.0756 59.8225 13.9675C58.7185 14.8682 57.7911 15.61 57.7646 15.6277C57.7381 15.6453 58.0296 16.8022 58.4094 18.1974C58.8686 19.8841 59.0718 20.7584 59.0099 20.8202C58.9511 20.8791 58.5006 20.6318 57.6586 20.0784C56.9609 19.6192 55.9717 18.9746 54.4967 18.0385L52.3152 19.4514C50.5929 20.5553 50.0983 20.8379 50.0188 20.7495C49.9393 20.6701 50.063 20.1049 50.5664 18.2593C50.9285 16.9523 51.22 15.8131 51.22 15.7425C51.22 15.6718 50.3103 14.8859 49.1974 14.0028C48.0757 13.1109 47.166 12.3426 47.166 12.2985C47.166 12.2543 47.219 12.1925 47.272 12.166C47.3338 12.1484 48.5438 12.0689 49.9481 11.9894C51.3525 11.9188 52.5183 11.8481 52.5183 11.8304Z" fill="white"/>
</svg>
