<svg width="109" height="114" viewBox="0 0 109 114" fill="none" xmlns="http://www.w3.org/2000/svg">
<path fill-rule="evenodd" clip-rule="evenodd" d="M64.9064 7.00055C64.9382 6.98763 65.4699 7.20285 66.0871 7.48981C66.6918 7.76327 67.5846 8.28209 68.0597 8.62751C68.5349 8.95868 69.4132 9.74999 70.0177 10.3687C70.608 11.0019 71.3562 11.8656 71.673 12.2974C71.9897 12.7291 72.5225 13.535 72.8537 14.0963C73.1848 14.6576 73.6887 15.6513 73.9767 16.3277C74.2503 17.0042 74.7117 18.3281 74.9708 19.2779C75.23 20.2278 75.5175 21.5808 75.6183 22.3004C75.7335 23.1495 75.7618 24.3588 75.7042 25.8267C75.661 27.05 75.6041 28.2877 75.5753 28.5611C75.5466 29.0502 75.5753 29.0789 76.5538 29.5679C77.1154 29.8558 78.1811 30.2881 78.9298 30.5328C79.6785 30.7774 80.9455 31.1225 81.7374 31.2808C82.5293 31.4391 84.9628 31.7996 87.1369 32.0875C89.3093 32.3751 91.2373 32.6339 91.4269 32.6773C91.7149 32.7349 91.6581 32.8502 90.6359 34.2174C90.0312 35.0232 88.8074 36.4046 87.9435 37.2681C87.0652 38.1461 85.5815 39.4277 82.9611 41.3707L83.2638 42.6373C83.4222 43.3282 83.7105 44.5082 83.8976 45.2564C84.0848 46.0048 84.4009 47.0702 84.588 47.6314C84.7752 48.1927 85.1211 48.9694 85.3371 49.358C85.5674 49.761 86.2729 50.8553 86.9064 51.8052C87.6551 52.9278 88.5626 54.0361 89.5128 54.9859C90.4727 55.955 92.0088 57.2219 94.1203 58.7857C95.8576 60.0774 97.2941 61.1404 97.3302 61.1461C97.3369 61.173 96.5914 62.4342 95.6603 63.9664C94.7244 65.5064 93.3419 67.7085 92.6076 68.8599C91.8733 70.0113 90.6499 71.7961 89.8869 72.8179C89.1094 73.8398 87.6264 75.7543 86.5753 77.064C85.5243 78.3737 83.6815 80.604 82.4865 82.0289C81.2772 83.4536 79.3911 85.5405 78.2824 86.692C77.1737 87.829 74.9416 89.9884 73.3146 91.4996C71.6876 92.9964 69.3548 95.1115 68.131 96.191C66.9072 97.2704 64.7622 99.041 63.38 100.106C61.9978 101.185 59.3485 103.172 54.1652 107.001L50.8253 104.539C48.9824 103.171 46.3325 101.185 44.9503 100.106C43.5681 99.041 41.4231 97.2704 40.1994 96.191C38.9755 95.1115 36.6427 92.9963 35.0158 91.4996C33.3888 89.9884 31.1576 87.829 30.049 86.692C28.9403 85.5406 27.0533 83.4537 25.8439 82.0289C24.6488 80.604 22.806 78.3736 21.755 77.064C20.704 75.7543 19.221 73.8398 18.4435 72.8179C17.6804 71.7961 16.4571 70.0113 15.7228 68.8599C14.9885 67.7085 13.6203 65.5206 12.6701 64.0093C11.7358 62.4863 10.9882 61.2217 11.0001 61.189C11.0289 61.1602 12.4689 60.081 14.2111 58.7857C16.3228 57.2217 17.8586 55.955 18.8185 54.9859C19.7687 54.0361 20.6753 52.9277 21.424 51.8052C22.0575 50.8553 22.7629 49.761 22.9933 49.358C23.2092 48.9694 23.5551 48.1927 23.7423 47.6314C23.9295 47.0701 24.2466 46.0048 24.4337 45.2564C24.6209 44.508 24.9086 43.3278 25.3693 41.3707L23.6701 40.1177C22.7486 39.4268 21.266 38.146 20.3878 37.2681C19.5241 36.4047 18.3002 35.0234 17.6955 34.2174C16.6732 32.8501 16.6155 32.7349 16.9035 32.6773C17.092 32.634 19.0204 32.3752 21.1935 32.0875C23.3675 31.7996 25.8009 31.4392 26.5929 31.2808C27.3848 31.1225 28.6518 30.7775 29.4005 30.5328C30.1492 30.2881 31.215 29.8558 31.7765 29.5679C32.7552 29.0788 32.7838 29.0502 32.755 28.5611C32.7262 28.2877 32.6693 27.05 32.6261 25.8267C32.5685 24.3588 32.5969 23.1495 32.7121 22.3004C32.8128 21.5951 33.1013 20.2278 33.3605 19.2779C33.6196 18.3282 34.0801 17.0043 34.3537 16.3277C34.6416 15.6513 35.1455 14.6576 35.4767 14.0963C35.8079 13.5493 36.3406 12.7292 36.6574 12.2974C36.9741 11.8657 37.7223 11.002 38.3126 10.3687C38.9174 9.74984 39.7965 8.95853 40.2716 8.62751C40.7468 8.28209 41.6247 7.77763 42.215 7.48981C42.8052 7.2164 43.3381 7.00081 43.3956 7.0152C43.4393 7.03053 44.001 8.08126 44.6486 9.34723C45.2821 10.6137 46.1451 12.1681 46.5626 12.8013C46.9802 13.4346 47.7435 14.3701 48.2619 14.8882C48.7801 15.4063 49.5865 16.0823 50.0617 16.399C50.5368 16.7012 51.4728 17.191 52.1496 17.4644C53.0422 17.8242 53.5893 17.9537 54.1652 17.9537C54.7411 17.9537 55.2883 17.8242 56.1808 17.4644C56.8575 17.191 57.7936 16.7012 58.2687 16.399C58.7438 16.0823 59.5502 15.4063 60.0685 14.8882C60.5868 14.3701 61.3502 13.4346 61.7677 12.8013C62.1852 12.1681 63.0485 10.6137 63.6964 9.34723C64.3299 8.08069 64.8776 7.02934 64.9064 7.00055ZM78.0656 40.9244C77.3889 41.1547 76.453 41.4854 75.9923 41.6724L75.1427 42.0181C75.3011 43.6876 75.273 46.3787 75.1867 49.0699C75.1147 51.7613 74.9706 54.9424 74.8986 56.1226C74.8122 57.3172 74.6822 58.7999 74.5958 59.4332C74.5238 60.0665 74.3516 61.1027 74.2365 61.7359C74.1069 62.3692 73.7756 63.6068 73.5021 64.4703C73.2142 65.3481 72.6811 66.7727 72.3068 67.6363C71.9324 68.5142 71.2849 69.8391 70.8673 70.5875C70.4498 71.3359 69.4991 72.8611 68.7648 73.9693C68.0305 75.0775 66.8927 76.6609 66.216 77.4957C65.5537 78.3303 64.4603 79.5966 63.798 80.3306C63.1357 81.0502 62.0411 82.1587 61.3644 82.7632C60.6878 83.3677 59.5504 84.303 58.8449 84.8355C58.1252 85.3679 57.1319 86.0588 56.6134 86.3755C56.0952 86.6921 55.3318 87.1242 54.9142 87.3257L54.1652 87.7144C52.4374 86.8077 51.4149 86.1884 50.7814 85.7711C50.1478 85.3392 49.0104 84.4758 48.2619 83.857C47.5132 83.2237 46.1313 81.9286 45.1955 80.9644C44.274 80.0145 42.9493 78.5313 42.2726 77.6822C41.5959 76.8186 40.3715 75.1203 39.5509 73.897C38.7303 72.6737 37.6359 70.8607 37.132 69.8677C36.6136 68.8747 35.894 67.2913 35.5197 66.3414C35.131 65.3916 34.6417 63.8663 34.4113 62.9595C34.1809 62.0528 33.9073 60.5982 33.7921 59.7203C33.6913 58.8565 33.5182 56.9711 33.4318 55.5465C33.331 54.1212 33.2159 50.4657 33.1583 47.4293L33.0724 41.8882C30.1116 40.8251 29.1879 40.5075 29.0988 40.5064C29.0268 40.5064 28.9689 40.8092 28.9689 41.1978C28.9689 41.5721 28.897 42.421 28.8107 43.0972C28.7387 43.7736 28.5655 44.8098 28.4503 45.4C28.3352 45.9901 27.946 47.3574 27.5861 48.4224C27.2261 49.4874 26.6511 50.9845 26.2912 51.733C25.9312 52.4814 25.2687 53.6473 24.8224 54.3238C24.3761 54.9857 23.4832 56.0933 22.8498 56.7554C22.2162 57.4175 21.107 58.4547 20.4015 59.0591C19.6815 59.6637 18.4002 60.6711 17.5509 61.3043C16.7016 61.9375 16.0109 62.4989 16.0109 62.5709C16.0145 62.6335 16.8334 63.884 17.839 65.3775C18.8325 66.8599 20.2439 68.8747 20.9494 69.8677C21.6693 70.8609 22.8932 72.5159 23.6994 73.5377C24.4913 74.5739 25.931 76.3443 26.8956 77.4957C27.8459 78.6471 29.5449 80.5616 30.6535 81.7418C31.7764 82.9362 33.0579 84.2741 33.5187 84.7203L34.3683 85.5552C36.2975 82.8208 37.3774 81.4101 38.0109 80.6617C38.6299 79.9134 39.2634 79.1938 39.4074 79.0787C39.6521 78.8772 39.6663 78.8919 39.5656 79.1509C39.5077 79.3101 39.2051 80.3169 38.8742 81.3814C38.5575 82.4462 38.2847 83.4392 38.2414 83.5836C38.1982 83.7563 38.846 84.4612 40.3722 85.9293C41.5816 87.0951 43.7559 89.0819 45.2101 90.3629C46.6486 91.6283 47.8431 92.7068 47.8449 92.7515C47.8449 92.7947 47.1245 93.3419 46.2462 93.9752C45.3824 94.6084 44.6623 95.1556 44.6623 95.1988C44.6791 95.244 45.3118 95.8044 46.0734 96.4507C46.8365 97.0984 47.7584 97.847 48.1183 98.106C48.4785 98.3796 49.3854 99.0268 50.1339 99.5591L51.5021 100.524C53.4594 99.186 54.0784 98.7967 54.1652 98.7964C54.2372 98.7964 54.8706 99.1855 55.5617 99.6461L56.8292 100.495C58.9456 99.0412 59.9537 98.322 60.4289 97.9478C60.904 97.588 61.811 96.8394 62.4445 96.2925C63.078 95.76 63.61 95.27 63.6388 95.2125C63.6513 95.1679 62.9612 94.6076 62.0841 93.9752C61.2202 93.3419 60.5001 92.7947 60.5001 92.7515C60.5011 92.7076 61.0916 92.1607 61.8253 91.5279C62.5453 90.8945 63.8989 89.7007 64.8058 88.8804C65.7273 88.0601 67.3109 86.563 68.3331 85.5699L70.1759 83.7564C69.4848 81.3097 69.1683 80.2011 69.0099 79.7261L68.7072 78.8629C69.8589 80.0861 70.5357 80.8633 70.9533 81.3814C71.3564 81.8995 72.206 83.0364 72.8107 83.9C73.4146 84.7623 73.9754 85.481 74.0343 85.483C74.1063 85.483 75.1142 84.4758 76.2804 83.2525C77.4466 82.0291 79.0598 80.2735 79.8517 79.3668C80.658 78.46 81.8674 77.0345 82.5441 76.1998C83.2208 75.365 84.3291 73.9838 84.9913 73.106C85.6681 72.2425 86.8635 70.6156 87.6554 69.5074C88.4473 68.3991 89.8581 66.3699 90.7794 65.0172L92.464 62.5269C89.8439 60.5841 88.4327 59.4619 87.6408 58.7711C86.8489 58.0946 85.7834 57.0865 85.2794 56.5396C84.7899 55.9926 83.983 54.9711 83.5079 54.2515C83.033 53.5465 82.4723 52.64 82.2706 52.2369C82.0691 51.8483 81.6221 50.7686 81.2765 49.8619C80.931 48.9552 80.4561 47.5015 80.2257 46.6236C79.9954 45.76 79.7078 44.2771 79.5783 43.356C79.4631 42.4208 79.3615 41.3994 79.3615 41.0826C79.3615 40.7659 79.3473 40.5064 79.3185 40.5064C79.3018 40.5072 78.7408 40.6946 78.0656 40.9244ZM73.5597 42.5357C73.4733 42.5357 72.2494 43.0109 70.8673 43.5865C69.4851 44.1622 67.6702 44.954 66.8351 45.357C65.9999 45.7601 64.4453 46.6812 63.38 47.3863C62.3146 48.1059 60.7881 49.2289 59.9962 49.8765C59.2043 50.5387 57.7073 51.9205 56.6564 52.9566L54.756 54.8277C54.7416 59.4896 54.7412 59.5045 55.0578 59.5045C55.2449 59.5045 56.0373 59.4038 56.8292 59.2886C57.621 59.1735 58.8299 58.9 59.5353 58.6841L60.7882 58.2818V56.4107C63.4231 54.5109 64.3882 53.7049 64.633 53.3882C64.8633 53.0716 65.324 52.3665 65.6408 51.8052C65.9719 51.2583 66.6337 50.0489 67.1232 49.1422C67.6122 48.2364 67.9868 47.5893 67.9445 47.7027C67.9157 47.8178 67.6133 48.8259 67.2677 49.9341C66.9368 51.0415 66.6056 52.0626 66.5333 52.2076C66.4615 52.3369 66.4468 52.4523 66.504 52.4527C66.576 52.4527 67.0375 52.2366 67.5558 51.9488C68.0736 51.6756 68.5337 51.4453 68.5919 51.4449C68.6639 51.4449 68.6644 51.8767 68.6212 52.4234C68.5781 52.9558 68.4483 53.7474 68.3331 54.1793C68.2036 54.611 67.8721 55.4175 67.5841 55.9644C67.253 56.5833 66.7775 57.2018 66.3312 57.5904C65.9281 57.9358 65.1368 58.4542 64.5753 58.7564L63.5236 59.2886C61.767 62.4118 60.8889 63.8231 60.4425 64.442C59.9966 65.0458 59.6082 65.5348 59.5646 65.5211C59.5358 65.4923 60.0112 64.254 60.6447 62.7427C61.2761 61.2508 61.7643 60.0021 61.7531 59.98C61.7387 59.9657 61.3355 60.0515 60.8605 60.1666C60.3854 60.2673 59.219 60.4838 58.2687 60.6422C57.3185 60.8005 56.1379 60.9583 55.6339 61.0015L54.7414 61.0884C54.7414 79.9424 54.7704 85.4117 54.8136 85.4117C54.8608 85.4088 55.5791 84.9495 56.4259 84.3755C57.2898 83.8142 58.3697 83.0508 58.8449 82.691C59.3201 82.3311 60.2559 81.5541 60.9181 80.9498C61.5804 80.3597 62.6462 79.2519 63.2941 78.5035C63.942 77.7551 64.8775 76.6172 65.3527 75.9839C65.8277 75.3508 66.576 74.2863 67.008 73.6099C67.4543 72.9335 68.1886 71.7093 68.6349 70.8746C69.0812 70.0398 69.7728 68.6587 70.1759 67.7808C70.5647 66.9173 70.8668 66.1829 70.838 66.1685C70.8075 66.1549 70.2751 66.3416 69.6427 66.6002C69.0091 66.8592 67.5411 67.3197 66.3751 67.6363L64.258 68.2125C63.4806 69.6658 62.9335 70.5435 62.5304 71.0904C62.1417 71.6516 61.465 72.4865 61.0187 72.9615L60.2267 73.8257C60.3563 68.702 60.4289 67.1619 60.4865 67.1187C60.532 67.0751 61.6396 66.816 62.9484 66.5572C64.2585 66.2981 65.9858 65.8951 66.7921 65.6793C67.6128 65.449 69.0819 64.9736 70.0753 64.6138L71.8751 63.9664C72.4222 61.5632 72.7099 60.1241 72.8683 59.2174C73.0267 58.3106 73.2136 56.8135 73.2999 55.9068C73.3863 55.0002 73.5163 53.1581 73.6027 51.8052C73.6747 50.4667 73.7462 47.8179 73.7462 45.9468C73.7462 43.3009 73.7034 42.5226 73.5597 42.5357ZM35.0304 42.6656C34.8576 42.6656 34.8434 43.2416 34.9298 46.3072C34.9874 48.2934 35.0876 51.3587 35.174 53.1002C35.246 54.8415 35.3754 57.0146 35.4474 57.9215C35.5338 58.8282 35.7353 60.2537 35.8937 61.0884C36.0665 61.9232 36.4987 63.5058 36.8585 64.6138C37.2329 65.7508 37.9674 67.5362 38.5578 68.7164C39.1337 69.8678 40.2713 71.8105 41.0919 73.0338C41.9126 74.2715 43.0644 75.884 43.6691 76.6324C44.2738 77.3808 45.4258 78.6756 46.2033 79.5103C46.9952 80.3451 48.3201 81.5543 49.1408 82.2164C49.9614 82.864 51.2139 83.8135 51.9337 84.3316C52.6392 84.8497 53.3161 85.2672 53.4025 85.2672C53.5462 85.2634 53.589 82.7412 53.589 73.1773V61.0884C52.754 60.9589 51.5737 60.7425 50.422 60.5123C49.2702 60.282 47.7147 59.8934 46.966 59.6343C46.2172 59.3896 44.8353 58.828 43.8996 58.4107C42.4886 57.7631 42.215 57.6772 42.215 57.8931C42.2152 58.0236 42.3739 59.0735 42.5753 60.2242C42.7769 61.3756 43.1936 63.0169 43.4816 63.8804C43.8415 64.931 44.1157 65.4926 44.3029 65.5933C44.4622 65.68 45.3399 66.0252 46.2462 66.356L47.9025 66.9459C48.0177 72.0552 48.0319 73.5667 48.0031 73.6099C47.974 73.6526 47.8301 73.5229 47.672 73.3218C47.5136 73.1203 46.8363 72.199 46.174 71.2779C45.4973 70.3425 44.6194 69.0185 44.2306 68.3277C43.8275 67.6225 43.2368 66.3841 42.9201 65.5494C42.589 64.7147 42.1717 63.4198 41.9845 62.6715C41.7829 61.923 41.5091 60.426 41.3507 59.3609C41.1924 58.2958 40.9625 56.0506 40.8185 54.3668C40.6748 52.7 40.6026 51.277 40.674 51.2007C40.7316 51.1432 41.5098 51.5748 42.4025 52.1793C43.2808 52.7838 44.5618 53.7337 45.2384 54.2662C45.9151 54.8131 46.7364 55.5179 47.0675 55.8345C47.6432 56.3669 47.6713 56.4681 47.6857 57.2017C47.6857 57.6331 47.7434 58.065 47.8009 58.1519C47.8585 58.2527 48.4352 58.4829 49.0831 58.6988C49.7455 58.9003 50.8829 59.1735 51.6027 59.2886C52.3366 59.4037 53.0847 59.5044 53.258 59.5045C53.5891 59.5045 53.589 59.4904 53.589 57.274C53.589 55.2015 53.5603 55.0144 53.258 54.5826C53.0851 54.3234 52.5961 53.7186 52.1642 53.2437C51.7466 52.7687 50.8968 51.9344 50.2921 51.4019C49.6875 50.8551 48.4783 49.8765 47.6144 49.2144C46.7361 48.5668 45.4835 47.6738 44.8068 47.2564C44.1301 46.839 42.5745 46.0044 41.3507 45.4C40.127 44.7812 38.2413 43.9321 37.1759 43.4859C36.1108 43.0399 35.1461 42.6658 35.0304 42.6656ZM67.2101 53.1002C67.1813 53.0714 66.7638 53.273 66.2599 53.5465L65.3527 54.0504C65.3959 55.1584 65.3235 55.4028 65.1076 55.6187C64.9348 55.7914 64.6328 55.9068 64.3449 55.9068C64.1002 55.9068 63.7692 55.8061 63.6251 55.691C63.4092 55.4895 63.3081 55.518 62.7326 55.9351L62.0841 56.4107C62.0841 58.6117 62.0988 58.6415 62.4152 58.5552C62.588 58.4977 63.1789 58.2528 63.7404 57.9937C64.3019 57.7346 65.0076 57.3314 65.3244 57.1011C65.6554 56.8564 66.087 56.3243 66.3605 55.8209C66.6052 55.3605 66.9073 54.5544 67.0226 54.065C67.1378 53.5613 67.2245 53.1289 67.2101 53.1002ZM67.2248 13.3052C67.1384 13.3052 66.7634 13.7801 66.4035 14.3414C66.0434 14.9028 65.1362 16.0111 64.3732 16.817L62.9914 18.2701C63.9704 19.7237 64.417 20.6593 64.633 21.2925C64.9353 22.2568 65.0067 22.7175 64.9923 24.0269C64.9923 25.279 64.9206 25.9126 64.6183 27.0494C64.4023 27.841 64.2008 28.5179 64.172 28.5611C64.1286 28.6042 63.6393 28.4025 63.0636 28.1148C62.4878 27.8414 61.3934 27.1937 60.6447 26.69C59.896 26.1863 58.5999 25.2219 57.7648 24.5455C56.9298 23.8835 55.8359 22.9621 55.3175 22.5015C54.8 22.0417 54.2963 21.6684 54.1945 21.6529C54.1081 21.6529 53.5458 22.0554 52.9699 22.5591C52.4084 23.0629 51.257 24.0127 50.422 24.689C49.587 25.3511 48.3199 26.287 47.6144 26.7476C46.909 27.2225 45.8579 27.812 45.3107 28.0855C44.75 28.3442 44.2611 28.5027 44.2023 28.4459C44.1447 28.3883 43.9571 27.8271 43.7843 27.1939C43.5972 26.5032 43.4535 25.4093 43.4103 24.4595C43.3527 23.3082 43.3957 22.6169 43.5685 21.9117C43.6981 21.3648 43.9714 20.5871 44.173 20.1841C44.3889 19.7668 44.7347 19.1629 44.965 18.8463L45.3683 18.2701C43.4246 16.2695 42.5024 15.147 42.0705 14.4849C41.6386 13.8374 41.2066 13.3052 41.1203 13.3052C41.0188 13.3062 40.6016 13.6794 40.1847 14.1392C39.7384 14.5998 39.1196 15.5358 38.7453 16.2554C38.3709 16.9751 37.9097 18.0113 37.7081 18.5582C37.5066 19.1194 37.2479 20.1122 37.1183 20.7886C36.9887 21.4651 36.8878 22.6892 36.8878 23.524C36.8879 24.3585 36.9597 25.423 37.046 25.898C37.118 26.3729 37.363 27.3085 37.5646 27.9849C37.7661 28.6613 38.2264 29.928 38.6007 30.7916C38.9751 31.6695 39.6805 33.0515 40.1701 33.8863C40.674 34.721 41.7398 36.2177 42.546 37.2252C43.3523 38.2326 44.5326 39.6435 45.1662 40.3775C45.7995 41.1113 46.2176 41.6574 46.1027 41.6002C45.9875 41.5282 45.4252 41.1401 44.8781 40.7515C44.3165 40.3485 43.2663 39.4989 42.5177 38.8658C41.769 38.2181 40.6595 37.1245 40.0548 36.4049C39.4357 35.6996 38.3709 34.3322 37.6798 33.3824C36.9887 32.4325 36.413 31.6407 36.3986 31.6119C36.3955 31.5848 35.7626 31.901 35.0158 32.2886C34.267 32.6916 32.9709 33.2388 32.1359 33.5123C31.3007 33.7857 29.8467 34.1596 28.8966 34.3179C27.9463 34.4763 26.4057 34.6918 25.4699 34.7925C24.4765 34.8933 23.7995 35.0236 23.8283 35.1099C23.858 35.1968 24.4056 35.6141 25.0529 36.0455C25.6865 36.4772 26.8808 37.168 27.7013 37.5709C28.522 37.9739 30.5814 38.8661 32.2804 39.5425C33.9793 40.219 36.47 41.1975 37.8234 41.73C39.1624 42.2626 40.9192 43.025 41.7111 43.4136C42.503 43.8166 43.7991 44.5363 44.591 45.0113C45.3827 45.4862 46.5482 46.2351 47.1818 46.6812C47.8153 47.1274 49.0108 48.0487 49.8458 48.7252C50.6807 49.4158 51.6595 50.2932 52.0197 50.6675C52.3796 51.0561 52.9844 51.7619 53.3732 52.2369C53.7475 52.7118 54.1078 53.1002 54.1798 53.1002C54.2383 53.099 54.7996 52.4807 55.4181 51.733C56.0516 50.9846 57.1316 49.8765 57.8371 49.272C58.5569 48.6819 59.5211 47.8897 59.9962 47.5299C60.4713 47.1701 61.5081 46.4513 62.2999 45.9332C63.0917 45.4295 64.4451 44.6091 65.3234 44.1197C66.2016 43.6448 67.584 42.9534 68.4191 42.608C69.2541 42.2482 72.0042 41.1401 74.5382 40.147C77.0723 39.154 79.8513 37.9733 80.7296 37.5416C81.6079 37.1098 82.8173 36.405 83.422 35.9732C84.0411 35.5414 84.5451 35.1382 84.5451 35.0806C84.5445 35.0087 84.012 34.9077 83.3644 34.8502C82.7021 34.7926 81.2911 34.6061 80.2257 34.4478C79.1603 34.2751 77.7345 33.9872 77.0578 33.7857C76.3811 33.5986 75.3162 33.2095 74.6828 32.9361C74.0495 32.6627 73.2289 32.2455 72.84 32.0152C72.4658 31.7707 72.1056 31.598 72.0333 31.6265C71.9614 31.6409 71.3707 32.4035 70.7228 33.3101C70.075 34.2167 69.082 35.5122 68.506 36.1744C67.9445 36.8364 67.0373 37.8007 66.4757 38.3189C65.9142 38.8226 64.7913 39.7586 63.9562 40.3775C63.1222 41.0099 62.4029 41.5129 62.3292 41.5142C62.2717 41.5142 62.7323 40.9243 63.3371 40.2047C63.9562 39.485 65.0938 38.1172 65.8712 37.1529C66.6485 36.1888 67.6272 34.8508 68.0304 34.1744C68.4336 33.4979 69.0672 32.3029 69.4415 31.5113C69.8159 30.7198 70.3196 29.4965 70.5499 28.7769C70.7947 28.0717 71.1118 26.992 71.2414 26.4019C71.3853 25.7831 71.4864 24.6464 71.4865 23.7398C71.5009 22.8763 71.4144 21.6668 71.3136 21.0767C71.1984 20.4866 70.9673 19.5076 70.7658 18.9175C70.5785 18.3275 70.1327 17.263 69.7873 16.5435C69.3986 15.7233 68.8372 14.8882 68.2902 14.2838C67.8014 13.7377 67.3266 13.3066 67.2248 13.3052Z" fill="white"/>
</svg>
