<svg width="109" height="114" viewBox="0 0 109 114" fill="none" xmlns="http://www.w3.org/2000/svg">
<path d="M104.999 13C105.05 13.0509 103.424 22.9835 101.29 35.0039C99.2068 47.0749 97.2249 57.567 96.9199 58.4336C96.6659 59.2994 95.9037 60.7764 95.2432 61.7441C94.5826 62.7628 91.1274 65.6667 87.3164 68.3662C83.6072 71.0147 80.3556 73.6634 80.1523 74.2236C79.9491 74.7841 79.5931 77.3307 78.9326 84.4102L67.7539 92.458C61.6056 96.8384 56.219 100.709 55.8125 100.964C55.2533 101.32 52.1023 99.3328 31.1689 84.4102L30.7617 79.8262C30.5585 77.3304 30.1018 74.6815 29.7461 74.0703C29.3902 73.408 26.1886 70.7597 22.5303 68.1621C17.805 64.8007 15.5183 62.8144 14.502 61.1846C13.2825 59.1981 12.6223 56.2945 9.06543 36.5322C6.83005 24.2082 5.00062 13.8189 5 13.459C5 13.1534 8.913 14.8851 13.791 17.3809C18.5676 19.9277 29.8484 25.7348 55.0508 38.7227L68.2617 31.9482C75.5279 28.1791 86.7069 22.3724 93.1602 19.0107C99.6076 15.703 104.888 13.0047 104.999 13ZM33.0479 34.8516C32.8452 34.9577 32.9473 38.1136 33.252 41.8799C33.6076 45.649 34.0136 50.1317 34.166 51.8125C34.3185 53.4935 34.9284 60.5729 35.5381 67.6016C36.4018 77.5325 36.8083 80.5385 37.4688 81.2012C37.9261 81.6596 41.4829 84.3597 45.3955 87.1611L52.5098 92.2031C52.7638 78.9094 52.6618 78.0942 51.6455 76.0059C50.7817 74.3761 49.4097 72.9502 46.666 70.9639C44.5827 69.4358 42.6515 68.06 42.4482 67.9072C42.2449 67.7525 41.8896 66.0727 41.6865 64.1895C41.4833 62.2539 41.3818 60.7256 41.4834 60.7256C41.542 60.7303 44.4861 62.4604 48.0889 64.5459C51.6442 66.6333 54.7934 68.3647 55.0498 68.3662C55.3547 68.3662 58.4041 66.6342 61.9102 64.5459C65.4161 62.5086 68.3632 60.8786 68.5156 60.9805C68.668 61.0827 68.5666 62.6617 68.2617 64.4951L67.7529 67.8057C62.2657 71.6763 60.0299 73.51 59.2676 74.376C58.4546 75.2927 57.6418 76.8719 57.3369 77.8906C57.0829 78.9602 56.8281 82.6275 56.8281 86.04C56.8281 89.5036 56.9306 92.3047 57.083 92.3047C57.241 92.3006 60.8465 89.8065 65.1113 86.7529C72.6308 81.3545 72.8348 81.1506 73.1904 79.0117C73.3937 77.7893 73.9529 72.6441 74.3594 67.6016C74.8166 62.5596 75.2733 57.1613 75.375 55.6328C75.4766 54.1048 75.9344 48.9604 76.29 44.2236C76.6457 39.5377 76.9502 35.3604 76.8994 35.0039C76.8478 34.597 73.9514 35.8199 69.2266 38.3662L61.6562 42.3389C61.1482 46.5149 60.9952 48.9595 60.9443 50.3857C60.8935 51.8624 60.7412 53.0852 60.5381 53.0859C60.284 53.035 59.115 52.2705 57.8447 51.3027C56.5745 50.3351 55.3547 49.5714 55.0498 49.5205C54.7949 49.5212 53.4231 50.3353 52.001 51.3535L49.4609 53.1367C48.9528 49.3676 48.749 47.0754 48.749 45.7002C48.6982 44.2745 48.4952 42.9 48.292 42.5938C48.0887 42.2881 44.6841 40.3526 40.7207 38.3662C36.7065 36.3798 33.2511 34.8006 33.0479 34.8516ZM17.3975 46.0566C17.0929 45.9045 16.9405 46.3118 17.042 47.0244C17.1436 47.6866 17.4997 49.9791 17.9062 52.0674C18.262 54.1556 18.9226 56.5492 19.3291 57.415C19.7864 58.3318 22.1741 60.4204 25.1211 62.5596C27.9153 64.5456 30.4561 66.3786 30.8633 66.6338C31.5238 67.0412 31.5744 66.4815 31.2188 62.7637C31.0155 60.3699 30.7111 57.3137 30.5078 55.9893L30.1523 53.4932C20.7012 47.9413 17.7023 46.2094 17.3975 46.0566ZM92.9561 45.9551C92.7998 45.9575 89.8034 47.6877 86.2998 49.7236L79.9482 53.4932C79.3893 57.7205 79.0841 60.7765 78.8301 63.0176C78.5252 66.532 78.5767 67.0414 79.2373 66.583C79.645 66.3274 82.1848 64.5451 84.9277 62.6611C87.8748 60.5728 90.1618 58.5868 90.6191 57.6699C91.0256 56.804 91.737 54.257 92.1943 51.9141C92.6007 49.6229 93.0066 47.3317 93.1084 46.8213C93.21 46.3629 93.1085 45.9551 92.9561 45.9551ZM28.4238 31.9482C14.5531 24.7162 13.2316 24.1552 13.1807 24.9189C13.1807 25.4283 13.689 28.9428 14.4004 32.7119C15.1114 36.4789 15.6693 39.7372 15.6699 39.9443C15.6699 40.199 18.8209 42.1856 22.6318 44.4268C26.4862 46.7144 29.6824 48.5456 29.7451 48.502C29.8467 48.502 29.796 47.2789 29.6436 45.8018C29.5419 44.3755 29.2882 41.5232 29.1357 39.5879C28.9833 37.6015 28.7296 35.1059 28.6279 33.9854L28.4238 31.9482ZM96.8184 24.7158C96.7167 24.3593 93.9725 25.4794 89.501 27.7715C85.5377 29.8088 82.1837 31.5406 82.0312 31.6934C81.8279 31.8492 81.3712 35.6174 80.9648 40.0977C80.5589 44.5738 80.3046 48.2879 80.3545 48.3994C80.4053 48.4503 83.607 46.6679 87.4688 44.4268C91.2796 42.1857 94.4297 40.199 94.4297 39.9443C94.4303 39.7371 94.9892 36.3767 95.7002 32.457C96.4112 28.537 96.9194 25.0751 96.8184 24.7158Z" fill="white" fill-opacity="0.99"/>
</svg>
