<svg width="109" height="114" viewBox="0 0 109 114" fill="none" xmlns="http://www.w3.org/2000/svg">
<path fill-rule="evenodd" clip-rule="evenodd" d="M50.6215 9.06186C50.5905 9.10826 49.9559 9.21652 49.244 9.29385C48.5165 9.37117 47.1236 9.57223 46.1485 9.74235C45.1734 9.897 43.5328 10.2527 42.5113 10.5156C41.4898 10.7785 39.8182 11.2734 38.7967 11.6137C37.7752 11.9694 36.0417 12.6499 34.9273 13.1293C33.8284 13.6087 32.0176 14.5212 30.9032 15.1398C29.8043 15.7585 28.1327 16.7946 27.1886 17.4442C26.26 18.0783 24.8206 19.1299 24.0157 19.764C23.2109 20.4136 21.431 22.0529 20.069 23.4139C18.707 24.7903 17.0199 26.6307 16.3389 27.5277C15.6424 28.4247 14.59 29.8785 14.0018 30.7755C13.4137 31.6725 12.5005 33.1572 11.9743 34.1006C11.4481 35.044 10.6742 36.5596 10.2563 37.503C9.83841 38.4464 9.25026 39.9002 8.92524 40.7508C8.61569 41.6014 8.10493 43.1325 7.82634 44.1532C7.53227 45.1739 7.11438 46.8442 6.91317 47.865C6.71196 48.8857 6.41789 50.556 6.26312 51.5767C6.06191 52.9686 6 54.4533 6 57.5309C6 60.6086 6.06191 62.0933 6.26312 63.4852C6.41789 64.5059 6.71196 66.2071 6.92865 67.2742C7.14533 68.3414 7.56322 70.0116 7.84182 70.986C8.12041 71.9603 8.61569 73.4605 8.92524 74.3111C9.25026 75.1617 9.86936 76.6618 10.3027 77.6362C10.7516 78.6105 11.5874 80.2498 12.1755 81.2706C12.7482 82.2913 13.7387 83.8842 14.3888 84.8276C15.0233 85.771 16.1222 87.2248 16.8033 88.0754C17.4997 88.926 18.7844 90.3798 19.6821 91.3077C20.5798 92.2356 22.112 93.6585 23.0871 94.4782C24.0622 95.2978 25.5635 96.4578 26.4147 97.0609C27.266 97.6641 28.659 98.5765 29.5102 99.0869C30.3615 99.5973 31.8628 100.417 32.8379 100.912C33.813 101.407 35.3452 102.103 36.2429 102.458C37.1406 102.83 38.6419 103.371 39.5706 103.665C40.5147 103.974 41.9696 104.392 42.8208 104.593C43.6721 104.809 44.9567 105.088 45.6842 105.227C46.4116 105.366 47.8665 105.582 48.9344 105.737C50.3119 105.923 51.9216 106 54.5837 106C57.2149 106 58.8555 105.923 60.233 105.737C61.3009 105.598 62.8951 105.335 63.7928 105.149C64.6905 104.979 65.9751 104.701 66.6561 104.531C67.3371 104.361 68.6217 103.974 69.5194 103.696C70.4171 103.402 71.9803 102.83 73.0019 102.412C74.0234 101.994 75.4473 101.345 76.1747 100.989C76.9022 100.633 78.0475 100.015 78.7285 99.6282C79.4095 99.2415 80.6013 98.4992 81.3597 97.9888C82.1335 97.4939 83.3098 96.6433 83.9908 96.133C84.6718 95.6226 86.0339 94.4936 87.0089 93.6276C87.984 92.7615 89.3925 91.416 90.1199 90.6118C90.8473 89.8076 91.8998 88.6012 92.457 87.9208C93.0142 87.2403 93.9893 85.9257 94.6238 84.9823C95.2739 84.0389 96.1716 82.647 96.6204 81.8892C97.0693 81.1314 97.8741 79.5848 98.4003 78.4868C98.942 77.3887 99.7004 75.6102 100.087 74.543C100.49 73.4759 101.047 71.8056 101.326 70.8313C101.604 69.857 101.976 68.3568 102.146 67.5062C102.332 66.6556 102.579 65.2328 102.703 64.3358C102.842 63.4388 103.013 61.5365 103.075 60.0827C103.152 58.629 103.152 56.3401 103.09 54.9791C103.013 53.6181 102.889 51.9479 102.796 51.2674C102.703 50.5869 102.486 49.3033 102.316 48.4062C102.146 47.5092 101.867 46.2256 101.697 45.5451C101.527 44.8646 101.14 43.5501 100.83 42.6067C100.536 41.6633 99.979 40.1476 99.5921 39.2042C99.2052 38.2608 98.4623 36.637 97.9205 35.5698C97.3788 34.5027 96.4347 32.8324 95.8156 31.8581C95.212 30.8838 94.2214 29.4145 93.6178 28.6103C92.9987 27.8061 91.8998 26.4452 91.1724 25.5945C90.4449 24.7439 89.1139 23.3675 88.2317 22.5169C87.3494 21.6818 86.0029 20.4909 85.229 19.8723C84.4706 19.2691 83.2479 18.3412 82.5205 17.8308C81.793 17.3205 80.5084 16.4853 79.6572 15.975C78.8059 15.4646 77.3201 14.6449 76.3759 14.1655C75.4163 13.6861 74.0234 13.052 73.2805 12.7427C72.5221 12.4334 71.2529 11.9539 70.4481 11.6755C69.6432 11.3817 68.3586 10.9796 67.5847 10.7631C66.8264 10.5466 65.325 10.1908 64.2571 9.9898C63.1892 9.77328 61.4866 9.47943 60.4651 9.32478C59.2269 9.15466 57.3077 9.0464 54.6456 9.01547C52.4788 8.98453 50.6679 9 50.6215 9.06186ZM50.7917 10.6084C51.1787 10.5775 53.2372 10.5775 55.3576 10.593C58.2364 10.6393 59.7377 10.7321 61.239 10.9641C62.3379 11.1342 64.0559 11.4436 65.031 11.6601C66.006 11.8921 67.6157 12.3096 68.5908 12.6189C69.5659 12.9283 71.0672 13.4541 71.9184 13.7943C72.7697 14.1346 74.1936 14.7532 75.0913 15.1862C75.989 15.6038 77.5213 16.4235 78.4963 17.0112C79.4714 17.5834 81.0037 18.5886 81.9014 19.2227C82.7991 19.8568 84.192 20.9394 84.9969 21.6199C85.8017 22.3004 87.303 23.7077 88.34 24.7594C89.3615 25.8111 90.7854 27.404 91.4974 28.301C92.1939 29.198 93.2773 30.6827 93.8964 31.6261C94.5 32.5695 95.3668 33.9614 95.8001 34.7192C96.2335 35.477 96.8681 36.7452 97.224 37.503C97.58 38.2608 98.1372 39.5754 98.4777 40.3951C98.8027 41.2302 99.3135 42.6995 99.6076 43.6429C99.9016 44.6017 100.273 46.0246 100.459 46.7824C100.629 47.5402 100.877 48.762 101.001 49.4888C101.124 50.2157 101.326 51.4684 101.434 52.2726C101.558 53.1696 101.62 55.273 101.62 57.6083C101.62 60.4075 101.542 62.0159 101.341 63.4078C101.186 64.475 100.939 66.0061 100.768 66.8103C100.598 67.6145 100.258 69.0373 100.01 69.9807C99.7624 70.9241 99.3135 72.3779 99.004 73.2285C98.6944 74.0791 98.1217 75.5019 97.7348 76.3989C97.3479 77.2959 96.574 78.8579 96.0168 79.8787C95.4596 80.8994 94.531 82.4614 93.9274 83.3584C93.3392 84.2554 92.2867 85.7092 91.6057 86.6062C90.9092 87.5032 89.2222 89.3436 87.8602 90.7046C86.4982 92.0655 84.6564 93.7513 83.7587 94.4472C82.861 95.1277 81.4061 96.1794 80.5084 96.7825C79.6107 97.3702 78.0475 98.2982 77.026 98.8549C76.0045 99.4117 74.5806 100.123 73.8531 100.432C73.1257 100.757 71.7017 101.329 70.6802 101.716C69.6587 102.103 67.786 102.675 66.5013 103C65.2322 103.324 63.313 103.742 62.245 103.912C61.1771 104.098 59.3353 104.314 58.1435 104.407C56.8898 104.515 54.7385 104.546 53.0359 104.5C51.3644 104.438 49.1666 104.268 47.9284 104.082C46.7366 103.897 45.0341 103.587 44.1364 103.386C43.2387 103.185 41.7838 102.799 40.8862 102.536C39.9885 102.273 38.3633 101.701 37.249 101.268C36.1501 100.819 34.3392 100.015 33.2248 99.4426C32.1259 98.8858 30.5008 97.9734 29.6186 97.4321C28.7364 96.8753 27.2041 95.8237 26.2135 95.0659C25.223 94.3235 23.6752 93.0399 22.7775 92.2047C21.8799 91.385 20.5024 90.0086 19.713 89.158C18.9237 88.3074 17.67 86.8072 16.9271 85.8174C16.1842 84.8276 15.1626 83.3584 14.6674 82.5697C14.1566 81.7655 13.2744 80.2034 12.7017 79.1054C12.1291 78.0073 11.4016 76.4608 11.0766 75.703C10.7671 74.9451 10.2408 73.5532 9.93127 72.6098C9.60624 71.6665 9.12644 70.0735 8.8788 69.0528C8.61569 68.032 8.30614 66.6092 8.16684 65.8823C8.04302 65.1555 7.84182 63.9027 7.73347 63.0985C7.60965 62.1861 7.53227 60.0518 7.53227 57.4536C7.53227 54.809 7.60965 52.7675 7.73347 51.886C7.85729 51.1282 8.04302 49.9064 8.18232 49.1795C8.30614 48.4526 8.58473 47.169 8.78594 46.3184C9.00262 45.4678 9.31217 44.2769 9.48242 43.6893C9.66815 43.1016 10.1944 41.6323 10.6587 40.4415C11.123 39.2506 11.9588 37.4102 12.5005 36.3431C13.0268 35.276 13.9709 33.6057 14.5745 32.6314C15.1936 31.657 16.277 30.095 16.9735 29.1516C17.6855 28.2082 18.9546 26.7081 19.7904 25.7956C20.6262 24.8831 21.8953 23.5995 22.6228 22.9499C23.3502 22.3004 24.5729 21.2642 25.3313 20.6456C26.1052 20.0269 27.4517 19.0371 28.3494 18.434C29.2471 17.8463 30.7484 16.9338 31.6771 16.408C32.6212 15.8822 34.2154 15.0934 35.2369 14.6295C36.2584 14.1655 38.0383 13.4695 39.1836 13.0829C40.329 12.6808 42.2482 12.124 43.4399 11.8302C44.6317 11.5364 46.6128 11.1652 47.851 10.9796C49.0892 10.8095 50.4048 10.6393 50.7917 10.6084ZM55.2028 12.3096C55.1409 12.3715 55.079 12.6189 55.0945 12.8664C55.1099 13.0984 55.2337 13.3304 55.3576 13.3768C55.4814 13.4232 56.0076 13.4541 56.5184 13.4541C57.2613 13.4541 57.4625 13.5005 57.5399 13.7325C57.6018 13.8717 57.5863 14.8151 57.5089 15.8358C57.4161 17.0421 57.4161 17.6916 57.5244 17.7226C57.6018 17.7535 57.8494 17.7999 58.0661 17.8154C58.4221 17.8618 58.4531 17.7999 58.5614 16.9338C58.6233 16.4235 58.7162 15.4646 58.7626 14.8151L58.84 13.6087L61.4712 13.8407L61.4092 12.7272C57.3232 12.4334 55.9612 12.3251 55.729 12.2787C55.5123 12.2323 55.2802 12.2478 55.2028 12.3096ZM50.0488 12.5416C49.2749 12.6189 48.4082 12.7891 48.1606 12.9128C47.8974 13.0365 47.6188 13.284 47.5415 13.4541C47.4486 13.6242 47.3867 14.2738 47.3867 14.8924C47.3867 15.4955 47.4641 16.2843 47.5415 16.6245C47.6188 16.9802 47.8665 17.3978 48.1141 17.6143C48.532 17.97 48.5939 17.9855 50.4822 17.8772C51.5501 17.8308 52.68 17.7071 52.9895 17.6298C53.3455 17.537 53.686 17.305 53.8408 17.0576C54.0575 16.7173 54.1039 16.3616 54.0729 15.279C54.0575 14.5057 53.9491 13.6861 53.8098 13.3768C53.655 13.0159 53.3971 12.7581 53.0359 12.6035C52.7419 12.4798 52.2621 12.387 51.9835 12.387C51.7204 12.4024 50.8382 12.4798 50.0488 12.5416ZM50.1417 13.5933C50.7917 13.5469 51.5346 13.485 51.7978 13.485C52.0454 13.4695 52.3549 13.5159 52.4633 13.5778C52.5716 13.6397 52.7264 13.9644 52.8038 14.3047C52.8812 14.6449 52.9586 15.2017 52.9586 15.5419C52.9586 15.8822 52.8812 16.2688 52.8038 16.3925C52.7264 16.5163 52.293 16.6709 51.8442 16.7328C51.3953 16.7792 50.5596 16.841 49.9714 16.841C49.1356 16.8565 48.9035 16.8101 48.7951 16.5936C48.7177 16.4389 48.6249 15.8203 48.5939 15.2017C48.563 14.4284 48.6094 14.0263 48.7487 13.8871C48.857 13.7789 49.4916 13.6397 50.1417 13.5933ZM63.2046 13.4695C63.1272 13.6706 62.8641 14.614 62.632 15.5419C62.276 16.9338 62.245 17.3205 62.3843 17.6762C62.4772 17.9082 62.7403 18.2175 62.9725 18.3721C63.2046 18.5113 64.0714 18.8206 64.8762 19.0526C65.681 19.2846 66.6716 19.4857 67.074 19.4857C67.6931 19.4857 67.8788 19.4083 68.1729 19.0681C68.3741 18.8206 68.7301 17.8772 69.0242 16.8565C69.2873 15.8822 69.5194 14.9852 69.5194 14.8924C69.5194 14.7841 69.2873 14.6449 69.0087 14.5985C68.7456 14.5521 68.4979 14.5367 68.4824 14.5676C68.467 14.5985 68.2193 15.3873 67.9562 16.3152C67.6931 17.2431 67.3835 18.1247 67.2597 18.2484C67.0585 18.4495 66.8728 18.434 65.6036 18.1247C64.8298 17.9236 64.0249 17.6607 63.8237 17.537C63.638 17.4133 63.4832 17.1967 63.4832 17.0576C63.4832 16.9029 63.6999 16.0059 63.9475 15.078C64.2107 14.15 64.3964 13.3613 64.3809 13.3458C64.35 13.3304 64.1178 13.2685 63.8547 13.2066C63.4368 13.1293 63.3439 13.1602 63.2046 13.4695ZM44.3686 13.4077C44.1983 13.4386 44.0745 13.5469 44.1055 13.6242C44.1209 13.7015 44.2448 14.1655 44.3841 14.6604C44.5079 15.1398 44.5698 15.5729 44.5079 15.6193C44.4614 15.6657 43.7031 15.8822 42.8363 16.1142C41.9851 16.3461 41.2421 16.5008 41.1957 16.4544C41.1493 16.408 41.01 15.975 40.8862 15.4955C40.654 14.6604 40.623 14.614 40.1897 14.6449C39.9266 14.6759 39.6789 14.7377 39.617 14.7996C39.5551 14.8769 39.7408 15.7584 40.0194 16.7792C40.3135 17.7999 40.623 18.9289 40.7159 19.3001C40.8707 19.9032 40.9171 19.9496 41.3041 19.8568C41.5517 19.8104 41.7993 19.7022 41.8922 19.6248C42.0005 19.532 41.9541 19.1609 41.7684 18.5268C41.6136 17.9855 41.5053 17.537 41.5362 17.537C41.5672 17.5215 42.2017 17.3359 42.9756 17.1194C43.734 16.9029 44.5079 16.7018 44.6627 16.6709C44.8948 16.64 45.0032 16.7946 45.2044 17.5525C45.421 18.3567 45.5139 18.4804 45.8389 18.5268C46.0556 18.5423 46.3187 18.5113 46.4271 18.4495C46.5973 18.3567 46.489 17.8154 45.9473 15.8512C45.3746 13.8098 45.2044 13.3768 44.9722 13.3458C44.802 13.3458 44.5388 13.3613 44.3686 13.4077ZM34.463 16.9338C34.2928 17.073 34.0916 17.1813 34.0142 17.2122C33.9368 17.2277 34.2463 17.9082 34.7107 18.7124C35.1905 19.5166 35.6083 20.3053 35.6703 20.4445C35.7322 20.5992 35.7012 20.8621 35.6238 21.0322C35.531 21.2023 34.8654 21.6663 34.107 22.0529C33.2558 22.5169 32.6522 22.7334 32.451 22.687C32.2652 22.6252 31.8473 22.0839 31.4604 21.3879C31.0889 20.7229 30.6401 19.996 30.4853 19.764C30.2686 19.4238 30.1448 19.3619 29.9281 19.4857C29.7888 19.563 29.5721 19.6867 29.4638 19.7486C29.309 19.8414 29.4948 20.2899 30.2377 21.6354C30.8723 22.7798 31.3675 23.4912 31.6771 23.6923C32.0021 23.8933 32.2962 23.9552 32.6831 23.8933C32.9772 23.8469 33.8749 23.4448 34.6797 22.9963C35.4691 22.5633 36.3358 21.9447 36.5834 21.6508C36.9549 21.2333 37.0323 21.0013 36.9858 20.6456C36.9394 20.3827 36.4596 19.3929 35.9179 18.434C35.3762 17.4751 34.8964 16.7018 34.85 16.7018C34.8035 16.7018 34.6333 16.8101 34.463 16.9338ZM73.946 17.0421C73.8222 17.2431 73.234 18.2639 72.6304 19.331L71.5315 21.2642C72.0732 21.6972 72.3208 21.821 72.4137 21.8055C72.5221 21.8055 72.8161 21.4188 73.0792 20.9549C73.3269 20.4909 73.59 20.1043 73.6519 20.1043C73.7293 20.1043 74.4258 20.4445 75.1997 20.8776C75.989 21.2951 76.6391 21.7282 76.6391 21.8055C76.6391 21.8828 76.4224 22.3468 76.1747 22.8107L75.7104 23.6614C76.314 24.0171 76.5617 24.1099 76.6545 24.0789C76.7474 24.0635 77.3665 23.0737 78.032 21.8828C78.713 20.692 79.2547 19.6712 79.2702 19.5939C79.2702 19.532 79.0535 19.3774 78.8059 19.2537L78.3416 19.0217C77.676 20.1197 77.4129 20.5373 77.3355 20.6456C77.2117 20.8312 76.9176 20.7074 75.7878 20.0733C75.0139 19.6558 74.3174 19.2382 74.24 19.1763C74.1472 19.0835 74.271 18.7433 74.5806 18.2175C74.8591 17.769 75.0913 17.3514 75.0913 17.2895C75.1068 17.2277 74.8901 17.073 74.6425 16.9338C74.1936 16.7173 74.1627 16.7173 73.946 17.0421ZM51.4882 19.5939C51.1477 19.6248 50.0952 19.7486 49.1666 19.8878C48.2225 20.0115 46.6902 20.3053 45.7615 20.5218C44.8174 20.7384 43.1459 21.2333 42.047 21.6044C40.9326 21.9911 39.0598 22.7643 37.8681 23.352C36.6763 23.9243 35.0666 24.8058 34.3082 25.2852C33.5344 25.7801 32.2652 26.6771 31.4604 27.2803C30.6556 27.8835 29.2007 29.1362 28.2256 30.0796C27.2505 31.023 25.8885 32.4458 25.223 33.25C24.542 34.0542 23.4276 35.5544 22.7621 36.5751C22.0811 37.5958 20.9976 39.4672 20.3785 40.7508C19.744 42.019 18.9237 43.9676 18.5522 45.0812C18.1807 46.1947 17.6855 47.8495 17.4688 48.7929C17.2521 49.7363 16.9426 51.2983 16.7878 52.2726C16.5866 53.5717 16.5247 54.9791 16.5247 57.5309C16.5247 60.0673 16.5866 61.4901 16.7878 62.7892C16.9426 63.7636 17.2366 65.2946 17.4533 66.1916C17.6545 67.0886 18.0105 68.3723 18.2272 69.0528C18.4593 69.7333 18.9391 71.0169 19.2951 71.9139C19.6511 72.8109 20.2083 74.0636 20.5333 74.6977C20.8583 75.3318 21.5084 76.4917 21.9727 77.2495C22.437 78.0073 23.3966 79.3992 24.0931 80.3426C24.7896 81.286 26.0897 82.8017 26.9719 83.7296C27.8542 84.6575 29.2471 85.9721 30.0519 86.6371C30.8568 87.3176 32.3271 88.4157 33.3022 89.0652C34.2773 89.7148 35.6703 90.5808 36.3977 90.9829C37.1251 91.3696 38.5181 92.0346 39.4932 92.4522C40.4683 92.8697 41.9696 93.442 42.8208 93.7203C43.6721 93.9833 45.096 94.3699 45.9937 94.5709C46.8914 94.772 48.4237 95.0658 49.3987 95.2205C50.6834 95.4061 52.1073 95.4834 54.5063 95.4834C56.3636 95.4834 58.4531 95.4061 59.2269 95.2978C59.9853 95.1896 61.3164 94.9576 62.1676 94.7875C63.0189 94.6173 64.4428 94.2616 65.3405 93.9987C66.2382 93.7513 67.6467 93.2564 68.467 92.9316C69.3027 92.6068 70.7421 91.9418 71.6863 91.4778C72.6149 91.0139 73.9615 90.2715 74.6579 89.8385C75.3699 89.39 76.7474 88.4466 77.7225 87.7042C78.6976 86.9774 80.4155 85.4772 81.5144 84.3637C82.6288 83.2656 84.1301 81.5489 84.8731 80.5746C85.6005 79.6003 86.6065 78.1311 87.1018 77.3268C87.5816 76.5226 88.4329 74.9452 88.9591 73.8471C89.4853 72.749 90.1663 71.1406 90.4759 70.29C90.77 69.4394 91.1878 68.0784 91.4045 67.2742C91.6212 66.47 91.9308 65.0008 92.1165 64.0265C92.2868 63.0521 92.5034 61.1963 92.5963 59.9281C92.7201 58.2733 92.7201 56.9278 92.5963 55.2111C92.5034 53.8965 92.3022 52.0561 92.132 51.1127C91.9772 50.1693 91.6367 48.6073 91.3736 47.633C91.1105 46.6586 90.5842 45.0193 90.1818 43.9986C89.7949 42.9778 89.0829 41.4003 88.6186 40.4724C88.1697 39.5599 87.4114 38.2144 86.947 37.4721C86.4827 36.7143 85.7398 35.6162 85.3064 35.0285C84.8576 34.4408 83.9908 33.3583 83.3872 32.6468C82.7836 31.9354 81.6228 30.7291 80.818 29.9558C80.0131 29.198 78.7904 28.1309 78.1094 27.6051C77.4284 27.0792 76.0973 26.1358 75.1687 25.5327C74.2246 24.9141 72.553 23.9707 71.4541 23.4294C70.3397 22.9035 68.7765 22.2076 67.9717 21.9137C67.1669 21.6044 65.7274 21.1405 64.7988 20.8776C63.8547 20.6146 62.3224 20.2744 61.3938 20.1043C60.4496 19.9342 58.9174 19.7331 57.9887 19.6403C57.0446 19.563 55.3421 19.5011 54.1968 19.5166C53.0514 19.532 51.8287 19.563 51.4882 19.5939ZM50.25 21.2178C50.931 21.1405 52.7728 21.0631 54.3515 21.0477C56.0386 21.0477 57.9423 21.125 58.9948 21.2487C59.9698 21.3724 61.3009 21.589 61.9355 21.7127C62.5701 21.8519 63.8392 22.1612 64.7524 22.4241C65.681 22.6716 67.1359 23.1665 68.0026 23.5222C68.8849 23.8624 70.4326 24.5738 71.4541 25.1151C72.4756 25.6409 73.9305 26.4915 74.7044 26.9864C75.4628 27.4968 76.7629 28.4402 77.5677 29.0898C78.3725 29.7393 79.8429 31.1003 80.8334 32.1055C81.8085 33.1263 83.1396 34.6419 83.7742 35.4925C84.4087 36.3431 85.3374 37.7041 85.8481 38.5083C86.3434 39.3125 87.1482 40.8127 87.6435 41.8334C88.1233 42.8541 88.8508 44.6327 89.2377 45.7771C89.6246 46.9216 90.1509 48.8393 90.3985 50.0301C90.6461 51.221 90.9247 53.1387 91.0331 54.2832C91.1569 55.5823 91.2033 57.2989 91.1414 58.8455C91.0795 60.2065 90.9247 62.0469 90.7854 62.9439C90.6616 63.8409 90.3211 65.4802 90.027 66.5783C89.7484 67.6763 89.2687 69.2848 88.9436 70.1354C88.6341 70.986 87.9376 72.5944 87.3959 73.6924C86.8542 74.7905 85.9255 76.4298 85.3374 77.3268C84.7647 78.2239 83.7122 79.6467 83.0312 80.4973C82.3502 81.3479 80.9882 82.8017 80.0286 83.7451C79.0535 84.6885 77.5987 85.9412 76.7938 86.5598C75.989 87.1629 74.6889 88.0599 73.9305 88.5394C73.1566 89.0188 71.6244 89.8539 70.5255 90.3952C69.4111 90.9365 67.4609 91.7253 66.1918 92.1428C64.9072 92.5759 63.0034 93.1017 61.9355 93.3028C60.8675 93.5193 59.165 93.7822 58.1435 93.8905C56.9827 93.9987 55.2183 94.0451 53.4229 93.9833C51.8442 93.9369 49.8321 93.7822 48.9344 93.643C48.0367 93.5038 46.5354 93.1945 45.6068 92.9625C44.6627 92.7151 43.1768 92.2666 42.2791 91.9573C41.3814 91.6325 39.6015 90.8592 38.3324 90.2406C37.0478 89.6065 35.3143 88.6322 34.463 88.0754C33.6118 87.5032 32.2652 86.5134 31.4604 85.8638C30.6556 85.1988 29.2781 83.9461 28.4113 83.0491C27.5291 82.1521 26.4147 80.9458 25.9349 80.3426C25.4706 79.7395 24.5884 78.5332 24.0003 77.6362C23.3966 76.7392 22.437 75.0689 21.8644 73.9244C21.2762 72.78 20.5178 71.0788 20.1773 70.1354C19.8368 69.192 19.3416 67.599 19.0939 66.5783C18.8463 65.5576 18.5522 64.2739 18.4593 63.7172C18.3665 63.1604 18.2117 62.0778 18.1343 61.32C18.0569 60.5622 17.9795 58.8146 17.9795 57.4536C17.9795 56.0926 18.0724 54.1749 18.1962 53.2006C18.32 52.2262 18.5677 50.6951 18.7689 49.7981C18.9546 48.9011 19.3416 47.4165 19.6356 46.4731C19.9452 45.5297 20.4869 44.0604 20.8583 43.1944C21.2298 42.3128 21.9263 40.89 22.4061 40.0239C22.8859 39.1424 23.7371 37.7659 24.2943 36.9617C24.8515 36.1575 25.7337 34.9667 26.2445 34.3326C26.7707 33.6985 27.8541 32.5077 28.659 31.7034C29.4638 30.8992 30.6556 29.8166 31.2901 29.2908C31.9247 28.7805 33.1165 27.8989 33.9213 27.3422C34.7261 26.7854 36.0882 25.9503 36.9394 25.5018C37.7907 25.0378 39.0753 24.3882 39.8027 24.0635C40.5302 23.7387 42.016 23.1665 43.1304 22.8107C44.2293 22.4396 46.0092 21.9601 47.0771 21.7436C48.1451 21.5271 49.569 21.2951 50.25 21.2178ZM25.3313 22.9809C24.0622 24.0635 23.0407 25.0223 23.0561 25.1151C23.0716 25.2079 23.2109 25.4244 23.3812 25.5945L23.6907 25.9039C25.2849 24.5274 25.6254 24.3264 25.7492 24.4192C25.8576 24.512 26.4767 25.1924 27.1112 25.9657C27.7458 26.7235 28.3339 27.3576 28.4268 27.3731C28.5042 27.3731 28.7364 27.2184 28.9221 27.0328L29.2626 26.6771C27.2351 24.28 26.6469 23.5067 26.6469 23.4294C26.6624 23.352 27.0493 22.9654 27.5136 22.5788C27.978 22.1921 28.3494 21.8055 28.3494 21.7282C28.3649 21.6508 28.2411 21.4498 28.0863 21.3106C27.9315 21.1559 27.7768 21.0322 27.7303 21.0322C27.6839 21.0322 26.616 21.9137 25.3313 22.9809ZM80.462 21.5735C80.2298 21.6972 79.6572 22.2695 79.1928 22.8571C78.7285 23.4294 78.3106 24.0789 78.2642 24.3264C78.2177 24.5584 78.2797 24.9295 78.3725 25.1615C78.4809 25.3935 79.2393 26.1668 80.0441 26.8627C80.8489 27.5741 81.6847 28.2237 81.9014 28.3165C82.1181 28.4093 82.4741 28.4402 82.7062 28.3938C82.9539 28.3474 83.3563 28.1154 83.6194 27.868C83.898 27.636 84.4087 27.0483 84.7802 26.5534C85.1981 26.0121 85.4612 25.5018 85.4612 25.2388C85.4612 25.0069 85.3064 24.6048 85.1207 24.3264C84.9195 24.0635 84.2385 23.3984 83.6039 22.8571C82.9693 22.3004 82.2109 21.7436 81.9323 21.6044C81.6692 21.4498 81.3132 21.3415 81.1585 21.3415C81.0192 21.357 80.7096 21.4498 80.462 21.5735ZM80.3536 23.3211C80.7096 22.9035 81.112 22.5788 81.2513 22.5788C81.3906 22.5788 81.7311 22.7334 81.9942 22.919C82.2419 23.1201 82.83 23.584 83.2789 23.9707C83.7122 24.3573 84.1147 24.7903 84.1456 24.9295C84.192 25.0842 84.0837 25.4399 83.9289 25.7028C83.7587 25.9812 83.3872 26.4452 83.1086 26.7235C82.7217 27.1256 82.505 27.2339 82.2109 27.1566C81.9942 27.1102 81.2668 26.5534 80.5858 25.9348C79.4405 24.8677 79.3631 24.7594 79.5179 24.4192C79.6262 24.2181 79.9977 23.7232 80.3536 23.3211ZM86.5756 26.3214L86.2351 26.6771C87.4423 28.0536 87.7828 28.5021 87.7828 28.5794C87.7828 28.6413 87.0863 29.2908 86.2351 30.0486L84.6873 31.3941C85.229 31.9973 85.4148 32.1674 85.4612 32.1674C85.5076 32.1674 86.2351 31.5797 87.0863 30.8528L88.6341 29.5228L90.3985 31.4715L91.1569 30.6982C88.0614 27.0947 87.1018 26.043 87.0399 26.0121C86.9625 25.9967 86.7613 26.1358 86.5756 26.3214ZM21.5394 26.8163C21.1834 26.9555 20.6571 27.4659 19.9142 28.3629C19.3261 29.1052 18.707 29.9404 18.5522 30.2342C18.351 30.6673 18.32 30.8838 18.4439 31.3168C18.5522 31.688 18.9082 32.121 19.5582 32.6932C20.1 33.1417 20.6881 33.5902 20.8738 33.6985C21.075 33.7913 21.3846 33.8686 21.5703 33.8686C21.7715 33.8686 22.1275 33.7449 22.3906 33.5902C22.6383 33.4356 23.3502 32.7087 23.9538 31.9973C24.5575 31.2859 25.1301 30.5435 25.2385 30.3579C25.3313 30.1569 25.4087 29.7702 25.4087 29.5073C25.4087 29.0898 25.2385 28.8423 24.4336 28.1C23.9074 27.5896 23.3038 27.0947 23.0871 26.9864C22.8704 26.8782 22.5609 26.7545 22.3906 26.7081C22.2204 26.6617 21.8334 26.7081 21.5394 26.8163ZM20.9667 28.8887C21.5084 28.301 22.0037 27.8371 22.0811 27.8371C22.1739 27.8216 22.437 27.9762 22.7002 28.1618C22.9478 28.3474 23.3966 28.7186 23.6752 28.9815C23.9538 29.2444 24.1705 29.6001 24.186 29.7702C24.186 29.9404 23.6907 30.6518 23.0871 31.3632C22.3287 32.2447 21.8953 32.6314 21.6477 32.6314C21.4465 32.6314 20.9357 32.3066 19.4499 30.9611L19.7285 30.4507C19.8678 30.1569 20.4405 29.4609 20.9667 28.8887ZM90.414 33.25C89.5163 33.7604 88.665 34.3326 88.5102 34.5336C88.34 34.7347 88.2317 35.1213 88.2471 35.4925C88.2471 35.941 88.4793 36.4978 89.0829 37.5804C89.5472 38.3846 90.1199 39.2506 90.3675 39.4826C90.6771 39.7919 90.9557 39.9157 91.3426 39.9002C91.7141 39.9002 92.457 39.5754 93.6178 38.9259C94.5774 38.4 95.3668 37.9051 95.3668 37.8123C95.3822 37.7195 95.2584 37.4876 95.1036 37.2865L94.825 36.9153C92.426 38.2608 91.5748 38.6629 91.3736 38.6629C91.1724 38.6629 90.9247 38.4928 90.7545 38.2454C90.5842 37.9979 90.2128 37.3484 89.9032 36.7761C89.5782 36.1885 89.3615 35.6008 89.4079 35.4616C89.4389 35.3069 90.2128 34.7656 91.095 34.2553C91.9927 33.7449 92.7356 33.2655 92.7356 33.1727C92.7356 33.0799 92.6273 32.8634 92.5034 32.6778C92.3796 32.4767 92.2248 32.3221 92.1474 32.3221C92.0855 32.3221 91.3117 32.7396 90.414 33.25ZM16.3544 33.1263C16.2151 33.3119 16.0913 33.5593 16.1068 33.6676C16.1222 33.7758 16.5092 34.0697 16.9735 34.3326C17.4378 34.5955 17.8093 34.8584 17.7783 34.9357C17.7629 35.0131 17.3914 35.709 16.9735 36.4823C16.5401 37.2556 16.1222 37.8897 16.0449 37.8897C15.952 37.8897 15.5186 37.6732 15.0698 37.4257L14.265 36.9617C13.909 37.5649 13.8316 37.8278 13.8625 37.9361C13.8935 38.0289 14.8995 38.6784 16.1222 39.3589C17.9486 40.3951 18.3355 40.5652 18.4593 40.3642C18.5367 40.2404 18.676 40.0085 18.7534 39.8693C18.8618 39.6682 18.8463 39.5445 18.707 39.4672C18.6141 39.3898 18.1962 39.1424 17.7783 38.9259C17.3759 38.6939 17.0509 38.4774 17.0509 38.431C17.0509 38.3846 17.4069 37.7041 17.8557 36.9308C18.2891 36.1421 18.676 35.4616 18.707 35.4152C18.7225 35.3688 19.1558 35.5544 19.6356 35.8327C20.1309 36.1111 20.5798 36.3276 20.6417 36.3431C20.719 36.3431 20.8738 36.1421 20.9976 35.8791C21.1834 35.508 21.1834 35.3842 21.0286 35.276C20.9357 35.2141 20.1154 34.7502 19.2177 34.2553C18.32 33.7604 17.3759 33.2345 17.1128 33.0644C16.6175 32.7706 16.6175 32.7706 16.3544 33.1263ZM11.6183 42.9624C11.5409 43.1944 11.4945 43.4418 11.51 43.5191C11.5409 43.581 12.2838 43.8594 13.1815 44.1068C14.0792 44.3543 14.9305 44.6327 15.0698 44.71C15.24 44.7873 15.3484 45.0193 15.3484 45.2822C15.3484 45.5142 15.1626 46.2875 14.946 47.0143C14.7448 47.7412 14.4816 48.3908 14.3733 48.4526C14.265 48.5145 13.9399 48.5454 13.6459 48.499C13.3518 48.4526 12.5005 48.2516 11.7421 48.0351L10.3956 47.633C10.148 48.2361 10.086 48.499 10.086 48.6073C10.086 48.7156 10.829 48.9939 11.9433 49.3033C12.9648 49.5662 13.9399 49.7981 14.1102 49.7981C14.2804 49.7981 14.6055 49.7054 14.8221 49.6126C15.0388 49.5043 15.3484 49.1331 15.5032 48.7929C15.6579 48.4526 15.983 47.4783 16.1996 46.6277C16.4163 45.7771 16.5556 44.911 16.5092 44.6945C16.4628 44.478 16.277 44.1532 16.0758 43.9522C15.8591 43.7357 15.0543 43.4109 13.9399 43.0706C12.9494 42.7768 12.0517 42.5293 11.9588 42.5293C11.866 42.5293 11.7112 42.7149 11.6183 42.9624ZM94.5464 43.1944L92.2403 43.8439C92.3951 44.6791 92.4415 44.942 92.4725 44.9574C92.488 44.9729 92.9677 44.8646 93.5404 44.6945L94.5929 44.3852C95.0572 46.0091 95.2584 46.7514 95.3513 47.0917C95.4441 47.4319 95.5215 47.7567 95.5215 47.834C95.5215 47.8959 95.0727 48.066 94.5155 48.2207C93.9583 48.3599 93.5095 48.5454 93.5095 48.6382C93.5095 48.731 93.5404 48.9475 93.5869 49.1486C93.6333 49.3806 93.7726 49.4888 94.0047 49.4734C94.2059 49.4734 95.3668 49.1795 96.605 48.8238L98.8492 48.1743C98.7718 47.4474 98.7099 47.1999 98.648 47.1381C98.5861 47.0762 98.1063 47.1535 97.5646 47.3237C97.0383 47.4938 96.574 47.5866 96.543 47.5247C96.5121 47.4474 96.3109 46.7514 96.0787 45.9782C95.862 45.1894 95.6763 44.4471 95.6763 44.3543C95.6763 44.246 96.0942 44.0295 96.605 43.8903C97.3324 43.6738 97.5336 43.5501 97.5336 43.3026C97.5336 43.1325 97.5027 42.885 97.4562 42.7613C97.4098 42.6376 97.255 42.5293 97.1002 42.5448C96.9609 42.5448 95.8001 42.8386 94.5464 43.1944ZM96.0323 50.4013C95.5989 50.4477 95.0417 50.6333 94.8096 50.8034C94.5774 50.9735 94.3298 51.3292 94.2524 51.5767C94.175 51.8396 94.1905 52.8449 94.2833 53.9275C94.3607 54.9791 94.531 56.0153 94.6548 56.2473C94.7631 56.4947 95.1036 56.7731 95.3822 56.8968C95.7846 57.067 96.218 57.0979 97.224 57.0051C97.9515 56.9432 98.7254 56.7886 98.9575 56.6649C99.2052 56.5411 99.4683 56.2628 99.5611 56.0153C99.6695 55.7369 99.7004 54.9482 99.6385 53.6955C99.5766 52.5665 99.4528 51.5922 99.3135 51.2674C99.1897 50.9581 98.8801 50.6178 98.617 50.4941C98.3539 50.3704 97.8586 50.2776 97.4872 50.2776C97.1312 50.293 96.4811 50.3549 96.0323 50.4013ZM95.9085 51.6076C96.0787 51.5612 96.6514 51.5303 97.1776 51.5148C98.0134 51.4994 98.1682 51.5458 98.3075 51.8087C98.3849 51.9788 98.5087 52.8758 98.6944 55.5049L98.261 55.6596C98.0289 55.7524 97.3479 55.8297 96.7597 55.8297C95.7846 55.8297 95.6608 55.7988 95.537 55.4895C95.4751 55.2884 95.3668 54.4687 95.3048 53.6645C95.2275 52.5819 95.2584 52.1334 95.3977 51.9324C95.5061 51.7932 95.7382 51.654 95.9085 51.6076ZM9.69911 50.7725C9.66815 50.8653 9.57529 52.0407 9.48242 53.3552C9.38956 54.6698 9.31217 56.0153 9.31217 56.3401C9.31217 56.8968 9.32765 56.9123 9.80745 56.8814L10.3182 56.835C10.4885 55.041 10.5813 54.4842 10.6278 54.4378C10.6897 54.3914 11.6028 54.4378 12.6863 54.5306C14.1257 54.6543 14.6828 54.6543 14.7602 54.5306C14.8221 54.4378 14.8841 54.1749 14.8841 53.9429V53.5099C12.7791 53.3862 11.8195 53.3088 11.4016 53.2624L10.6278 53.1696L10.7051 50.5714C9.9777 50.5714 9.74554 50.6642 9.69911 50.7725ZM11.6338 57.9794C10.9837 58.0413 10.2873 58.2114 10.0396 58.3506C9.80745 58.4898 9.57529 58.7991 9.52886 59.0466C9.48242 59.2785 9.42051 59.526 9.38956 59.6188C9.35861 59.7116 9.40504 60.5312 9.48242 61.4746C9.55981 62.418 9.69911 63.4078 9.7765 63.6862C9.86936 63.9955 10.1015 64.2739 10.3956 64.4131C10.6742 64.5523 11.2778 64.6451 11.8969 64.6451C12.485 64.6451 13.228 64.5678 13.5685 64.4904C13.9245 64.4131 14.3423 64.1657 14.559 63.9182C14.915 63.5006 14.9305 63.4388 14.8531 61.4746C14.7912 60.1446 14.6828 59.2631 14.5126 58.8764C14.3733 58.5671 14.1411 58.2423 13.9864 58.165C13.8471 58.0877 13.5066 57.9949 13.2589 57.9485C12.9958 57.9176 12.2684 57.933 11.6338 57.9794ZM11.4016 59.1857C11.6493 59.1548 12.1445 59.1084 12.485 59.0929C12.8256 59.0775 13.228 59.1548 13.3827 59.2631C13.5839 59.4177 13.6768 59.8198 13.7697 61.0107C13.8471 61.8613 13.8471 62.7119 13.7697 62.9129C13.7078 63.0985 13.4911 63.2841 13.2899 63.3151C13.1041 63.3614 12.6398 63.4233 12.2529 63.4697C11.866 63.5161 11.4016 63.5006 11.2004 63.4388C11.0147 63.3769 10.8135 63.2223 10.7671 63.0985C10.7206 62.9748 10.6123 62.2015 10.5504 61.3973C10.442 60.1601 10.473 59.8817 10.6742 59.5879C10.8135 59.4023 11.1385 59.2167 11.4016 59.1857ZM98.8801 58.1032C98.8337 58.1805 98.7408 58.7682 98.6789 59.4332L98.5396 60.655C97.8122 60.5158 96.8681 60.4539 95.9394 60.4075L94.2833 60.3147C94.2833 61.2427 94.3607 61.4128 94.5464 61.4592C94.7012 61.5056 95.6608 61.5829 96.6823 61.6293L98.5396 61.7376L98.3075 64.3358C99.1433 64.3976 99.298 64.3358 99.3754 64.1038C99.4373 63.9337 99.5766 62.5418 99.685 61.0107C99.8397 58.7372 99.8397 58.2114 99.6695 58.1186C99.5611 58.0568 99.3445 57.9949 99.2052 57.9949C99.0659 57.9949 98.9111 58.0413 98.8801 58.1032ZM94.6548 65.2328C94.5 65.2637 94.2369 65.4029 94.0666 65.5576C93.9119 65.6967 93.6952 65.9751 93.5869 66.1916C93.4785 66.4082 93.2154 67.2742 92.9832 68.1248C92.7665 68.9754 92.5808 69.857 92.5808 70.089C92.5808 70.3519 92.7511 70.6921 92.9987 70.955C93.3237 71.2798 93.8809 71.5273 95.212 71.8984C96.1871 72.1923 97.1002 72.3933 97.224 72.3469C97.3479 72.3005 97.4872 72.084 97.5336 71.8366C97.5955 71.5118 97.5336 71.3881 97.3014 71.2798C97.1312 71.218 96.3109 70.955 95.4596 70.7231C94.6238 70.4911 93.8809 70.1818 93.8035 70.058C93.7261 69.9188 93.8345 69.2538 94.0666 68.3568C94.2833 67.5526 94.5774 66.7639 94.7167 66.6092C94.9643 66.3308 95.0417 66.3463 96.8371 66.8103C97.8586 67.0732 98.7408 67.2278 98.8027 67.166C98.8647 67.1041 98.942 66.8567 98.9885 66.6092C99.0659 66.2999 99.0194 66.1762 98.8027 66.1143C98.6635 66.0834 97.9051 65.8823 97.1467 65.6813C96.3728 65.4648 95.568 65.2637 95.3513 65.2328C95.1346 65.2019 94.825 65.2019 94.6548 65.2328ZM13.6459 65.8359C12.9184 66.037 11.866 66.3463 11.2778 66.5164L10.2408 66.8103C10.3956 67.5835 10.4575 67.8465 10.4885 67.8929C10.5349 67.9393 10.9837 67.8465 11.5254 67.6918C12.0517 67.5372 12.5315 67.4598 12.5779 67.5371C12.6243 67.599 12.8565 68.3414 13.0732 69.161C13.3054 69.9962 13.4601 70.7231 13.4292 70.7849C13.3982 70.8622 12.9803 71.0169 12.485 71.1406C11.9898 71.2643 11.5719 71.419 11.5409 71.4809C11.51 71.5582 11.5409 71.8211 11.6338 72.0686C11.7421 72.3933 11.866 72.5171 12.0517 72.4552C12.2065 72.4243 13.3363 72.0995 14.5745 71.7592C15.8127 71.4035 16.8342 71.1097 16.8652 71.0942C16.8961 71.0788 16.8806 70.8313 16.8342 70.5529C16.7723 70.2591 16.6485 70.058 16.5092 70.058C16.3854 70.058 15.8746 70.1663 15.3793 70.3055C14.8995 70.4292 14.4971 70.522 14.4816 70.4911C14.4662 70.4601 14.265 69.7333 14.0173 68.8517C13.7232 67.8155 13.6149 67.2278 13.7232 67.135C13.8006 67.0577 14.2804 66.8876 14.7602 66.7484C15.627 66.5164 15.6579 66.4855 15.5651 66.0679C15.5032 65.8359 15.4412 65.604 15.4103 65.5266C15.3793 65.4648 15.2555 65.4184 15.1472 65.4338C15.0543 65.4493 14.3733 65.6194 13.6459 65.8359ZM90.4914 74.8833C90.3366 75.0689 90.2282 75.2854 90.2437 75.3473C90.2592 75.4246 90.6616 75.6875 91.1414 75.9504C91.6367 76.2133 92.0546 76.4453 92.0855 76.4608C92.101 76.4608 91.745 77.1877 91.2652 78.0537L90.414 79.6467L88.4019 78.5641C88.0459 79.2755 87.9376 79.523 87.9376 79.5694C87.9376 79.6157 88.9591 80.2189 90.2128 80.8994L92.5034 82.1676C92.9368 81.5953 93.0606 81.3634 93.0606 81.2706C93.0451 81.1778 92.6582 80.8994 92.1939 80.6519C91.7296 80.4045 91.3426 80.1416 91.3426 80.0643C91.3426 80.0024 91.6986 79.3064 92.1474 78.5177C92.5808 77.7444 92.9678 77.0794 92.9987 77.0485C93.0142 77.033 93.4166 77.2186 93.85 77.4815C94.2988 77.729 94.7322 77.9455 94.825 77.9455C94.9024 77.9455 95.0882 77.7444 95.212 77.4815C95.3358 77.2341 95.4132 76.9866 95.3668 76.9557C95.3203 76.9402 94.3452 76.3834 93.1999 75.7339C92.0546 75.0843 91.0331 74.543 90.9247 74.543C90.8164 74.543 90.6307 74.6977 90.4914 74.8833ZM16.8961 75.3009C16.602 75.4401 15.7972 75.8731 15.1317 76.2597C14.4507 76.6309 13.878 77.033 13.8471 77.1258C13.8316 77.2341 13.909 77.497 14.0328 77.7135L14.265 78.1001C15.5186 77.3732 16.3235 76.9247 16.8652 76.6618L17.8557 76.1669C18.3665 76.7701 18.7844 77.4042 19.1094 77.9764C19.4499 78.595 19.6666 79.1982 19.6356 79.4302C19.6047 79.7704 19.3416 79.9869 18.0569 80.7293C17.2057 81.2242 16.4937 81.7191 16.4628 81.8273C16.4318 81.951 16.5401 82.1985 16.6949 82.3841L16.9735 82.7243C19.4963 81.286 20.394 80.6829 20.5952 80.4509C20.8893 80.1261 20.9512 79.9096 20.8893 79.4147C20.8429 79.0435 20.4714 78.1775 19.8987 77.1877C19.3261 76.1669 18.8153 75.471 18.5213 75.3009C18.2581 75.1307 17.9176 75.007 17.7474 75.007C17.5771 75.0225 17.1902 75.1462 16.8961 75.3009ZM86.8696 81.317C86.591 81.4562 85.8481 82.1676 85.229 82.8944C84.6254 83.6213 84.0373 84.3637 83.9444 84.5647C83.8361 84.7503 83.7587 85.137 83.7587 85.3999C83.7587 85.6937 83.898 86.0804 84.1147 86.3278C84.3004 86.5598 84.8421 87.0547 85.3064 87.4568C85.7707 87.8434 86.3589 88.1991 86.622 88.2455C86.9006 88.3074 87.2721 88.2455 87.5507 88.1063C87.7983 87.9826 88.4483 87.4104 88.9591 86.8227C89.4853 86.235 90.0889 85.4772 90.3211 85.137C90.5687 84.7503 90.7235 84.3173 90.7235 83.977C90.7235 83.5131 90.5687 83.2966 89.6711 82.4459C89.0984 81.9047 88.4019 81.3634 88.1233 81.2396C87.8602 81.1314 87.5816 81.0386 87.5042 81.0386C87.4423 81.0386 87.1637 81.1623 86.8696 81.317ZM86.4363 83.1728C86.8851 82.6779 87.303 82.2758 87.3649 82.2758C87.4268 82.2758 87.659 82.3686 87.8912 82.4924C88.1388 82.6006 88.6186 83.0182 88.9746 83.4203C89.5627 84.0544 89.6246 84.1781 89.4699 84.4874C89.3615 84.673 88.8508 85.338 88.309 85.9412C87.7673 86.5598 87.1947 87.0701 87.0399 87.0701C86.9006 87.0856 86.4053 86.7763 85.941 86.4206C85.4921 86.0494 85.0433 85.6319 84.9814 85.4927C84.8885 85.2916 84.9504 85.0442 85.229 84.6421C85.4302 84.3173 85.9874 83.6523 86.4363 83.1574V83.1728ZM22.112 84.0698C21.2917 84.7967 20.5643 85.3844 20.4869 85.3844C20.425 85.3999 20.0535 85.0132 19.6356 84.5338C19.2332 84.0698 18.8153 83.6832 18.707 83.6832C18.6141 83.6677 18.3974 83.8069 18.2427 83.9925C17.9795 84.2863 18.026 84.3637 19.9297 86.5907C21.0131 87.8434 21.9727 88.8796 22.0656 88.9106C22.1585 88.9415 22.3751 88.8178 22.5454 88.6322L22.8549 88.3074C22.3751 87.7352 22.0037 87.3021 21.7406 86.9774L21.2453 86.3897C23.6288 84.3482 24.3253 83.7141 24.3253 83.6368C24.3253 83.5749 24.217 83.3584 24.0931 83.1419C23.9693 82.9254 23.8145 82.7553 23.7371 82.7553C23.6752 82.7553 22.9478 83.3584 22.112 84.0698ZM25.3313 87.3176C24.9444 87.7042 24.4182 88.3074 24.1705 88.6786C23.8455 89.1116 23.7062 89.5137 23.7062 89.8694C23.7062 90.3334 23.861 90.5499 24.6813 91.3386C25.2075 91.8645 26.0123 92.5759 26.4457 92.9316C27.1112 93.4574 27.3898 93.5812 27.8851 93.5812C28.3494 93.5812 28.628 93.4729 28.9995 93.1327C29.2781 92.9007 29.8043 92.313 30.1603 91.8645C30.671 91.2304 30.8258 90.8901 30.8258 90.4416C30.8258 90.1323 30.702 89.7148 30.5472 89.5137C30.4079 89.3127 29.7579 88.7095 29.1233 88.1527C28.4887 87.596 27.7922 87.0238 27.5756 86.8846C27.3589 86.7454 26.9255 86.6217 26.6005 86.6217C26.1207 86.6217 25.904 86.7454 25.3313 87.3176ZM25.6409 88.694C26.1826 88.0599 26.4612 87.8589 26.7707 87.8589C27.0648 87.8744 27.5756 88.1991 28.3959 88.9106C29.0614 89.4828 29.6341 90.0395 29.665 90.1323C29.7114 90.2406 29.6031 90.5654 29.4483 90.8283C29.2936 91.1067 28.8757 91.6016 28.5197 91.9109C27.9625 92.4212 27.8387 92.4831 27.5291 92.3284C27.3434 92.2202 26.9719 91.9727 26.7243 91.7562C26.4612 91.5552 25.9659 91.1067 25.5944 90.7819C25.2385 90.4571 24.9444 90.0241 24.9289 89.854C24.9134 89.6529 25.223 89.158 25.6409 88.694ZM80.2763 87.9053L79.8119 88.2919C81.6073 90.3643 82.2419 91.1067 82.3657 91.2768C82.5824 91.5552 82.5514 91.617 81.9169 92.1583C81.5299 92.4676 81.0811 92.8388 80.9263 92.9625C80.6322 93.1945 80.6322 93.21 80.9882 93.6276L81.3597 94.0606C85.0123 90.9365 86.0803 89.9777 86.0803 89.9003C86.0958 89.8385 85.9719 89.6684 85.8172 89.5292C85.6624 89.3745 85.4612 89.2663 85.3838 89.2663C85.2909 89.2663 84.8421 89.6065 84.3778 90.0241L83.5265 90.7974C81.8395 88.8487 81.2204 88.1063 81.0501 87.9053L80.7406 87.5187L80.2763 87.9053ZM31.1973 92.9161C30.5317 94.0915 29.9746 95.1586 29.9436 95.2824C29.8972 95.4216 30.0365 95.5917 30.2686 95.6999C30.4853 95.8082 30.7175 95.901 30.7794 95.901C30.8568 95.901 31.1044 95.5144 31.3675 95.0504C31.6152 94.5864 31.8783 94.1998 31.9402 94.1998C32.0176 94.1998 32.7141 94.5555 33.4879 95.004C34.2773 95.437 34.9428 95.8237 34.9583 95.8546C34.9893 95.8855 34.8035 96.2722 34.5404 96.7052C34.2928 97.1537 34.0761 97.5867 34.0761 97.6795C34.0606 97.7569 34.2773 97.9424 34.5404 98.0662C34.788 98.1899 35.0357 98.2672 35.0512 98.2208C35.0821 98.1744 35.6393 97.1846 36.2894 96.0092C36.9549 94.8493 37.4811 93.8131 37.4811 93.7358C37.4811 93.643 37.3263 93.4729 37.1251 93.3492C36.9394 93.2254 36.7382 93.1172 36.6608 93.1172C36.5989 93.1172 36.3358 93.5193 36.0572 93.9987C35.7941 94.4936 35.5464 94.9112 35.5155 94.9267C35.5 94.9576 34.7726 94.5864 33.9213 94.1224L32.3736 93.2718C33.0855 92.0191 33.3022 91.5397 33.3022 91.416C33.3022 91.2923 33.132 91.0912 32.9153 90.9829C32.6986 90.8901 32.4974 90.7974 32.4664 90.7974C32.42 90.7974 31.8473 91.7562 31.1973 92.9161ZM74.7198 91.849C73.946 92.2511 73.0638 92.8388 72.7387 93.1481C72.197 93.6585 72.1351 93.7977 72.197 94.308C72.2435 94.6328 72.6613 95.5917 73.1721 96.5041C73.6829 97.3857 74.1317 98.128 74.1936 98.159C74.271 98.1899 74.4877 98.128 74.7044 98.0198C74.9211 97.927 75.0913 97.7414 75.0913 97.6331C75.0913 97.5403 74.7353 96.8444 74.302 96.0866C73.8686 95.3442 73.4817 94.5555 73.4507 94.308C73.4043 93.9678 73.4817 93.8286 73.9615 93.5193C74.2865 93.3337 74.983 92.9471 75.5092 92.6687C76.2057 92.3284 76.5617 92.2356 76.7474 92.3284C76.9022 92.4058 77.351 93.0399 77.7534 93.7513C78.1558 94.4627 78.5737 95.1741 78.6821 95.3288C78.8523 95.5762 78.9297 95.5917 79.3166 95.4061C79.5488 95.2978 79.7345 95.1122 79.7345 95.004C79.7345 94.9112 79.3476 94.1379 78.8833 93.3028C78.4035 92.4831 77.8463 91.648 77.6451 91.4469C77.382 91.2149 77.0724 91.1067 76.67 91.1067C76.2831 91.1067 75.633 91.3541 74.7198 91.849ZM67.3062 95.2824C67.0585 95.4216 67.0585 95.4834 67.3526 96.3959C67.5074 96.9372 67.6312 97.3857 67.6157 97.4011C67.6002 97.4321 66.8883 97.6486 66.037 97.9115C65.1857 98.159 64.4119 98.3755 64.3345 98.3755C64.2416 98.3755 64.0868 98.0198 63.9785 97.5713C63.8702 97.1228 63.7309 96.6588 63.669 96.5505C63.5916 96.4113 63.3904 96.365 63.0499 96.4268C62.7094 96.4887 62.5546 96.6124 62.5546 96.7825C62.5546 96.9372 62.8641 98.0971 63.2356 99.3807L63.9166 101.701C64.5976 101.623 64.8452 101.561 64.9226 101.5C64.9845 101.438 64.9226 101.036 64.7988 100.618C64.675 100.185 64.5666 99.7365 64.5666 99.6127C64.5666 99.4581 65.0155 99.257 66.037 98.9477C66.8418 98.7157 67.6157 98.5301 67.7395 98.5301C67.8943 98.5301 68.0646 98.8549 68.2348 99.4581C68.4515 100.2 68.5753 100.386 68.8229 100.386C68.9932 100.386 69.2408 100.309 69.3801 100.2C69.5968 100.015 69.5504 99.7519 68.9158 97.5558C68.2967 95.4525 68.1574 95.1277 67.8943 95.1277C67.724 95.1277 67.4609 95.205 67.3062 95.2824ZM41.1493 95.7463C40.8707 95.9474 40.623 96.3804 40.4373 97.0145C40.2671 97.5558 40.0194 98.4064 39.8646 98.9168C39.7253 99.4271 39.648 99.953 39.6789 100.077C39.7254 100.2 39.942 100.34 40.1897 100.386C40.5147 100.448 40.6385 100.386 40.7469 100.154C40.8088 99.9839 41.0719 99.1642 41.3041 98.3136C41.5362 97.4785 41.8458 96.7361 41.9696 96.6588C42.1089 96.5815 42.7744 96.6897 43.6721 96.9217C44.4769 97.1382 45.2663 97.4321 45.421 97.5713C45.6996 97.8187 45.6842 97.896 45.2198 99.6901C44.9567 100.711 44.802 101.592 44.8639 101.639C44.9258 101.701 45.1734 101.778 45.4056 101.84C45.7461 101.917 45.8544 101.871 45.9163 101.654C45.9473 101.515 46.164 100.726 46.3806 99.922C46.6128 99.1178 46.7831 98.1744 46.7831 97.8342C46.7831 97.4012 46.6747 97.1073 46.4271 96.8598C46.2259 96.6743 45.6532 96.3804 45.1425 96.2103C44.6317 96.0556 43.7959 95.8082 43.2852 95.6845C42.7744 95.5453 42.1708 95.437 41.9541 95.437C41.7374 95.437 41.366 95.5762 41.1493 95.7463ZM57.6792 97.1382C56.9053 97.2156 56.085 97.3702 55.8374 97.4785C55.5897 97.5867 55.2957 97.8806 55.1564 98.1435C54.9861 98.5147 54.9552 98.8858 55.048 99.922C55.1099 100.649 55.2183 101.422 55.2957 101.654C55.373 101.902 55.6516 102.195 55.9302 102.335C56.3636 102.551 56.7351 102.582 58.3757 102.489C59.6913 102.412 60.4806 102.304 60.8521 102.118C61.1461 101.979 61.4712 101.685 61.5795 101.469C61.6878 101.252 61.7807 100.773 61.7807 100.386C61.7807 99.9994 61.7033 99.2725 61.6259 98.7621C61.5176 98.1126 61.3473 97.7259 61.0842 97.4475C60.7747 97.1382 60.5116 97.0609 59.877 97.03C59.4281 97.0145 58.4376 97.0764 57.6792 97.1382ZM57.8185 98.2053C58.4221 98.159 59.196 98.1126 59.5365 98.128C60.0318 98.1435 60.1865 98.2208 60.3413 98.5301C60.4496 98.7466 60.5425 99.3807 60.5425 99.953C60.5425 100.85 60.4961 101.02 60.233 101.159C60.0627 101.237 59.2114 101.36 58.3292 101.407C56.9208 101.5 56.7196 101.484 56.5184 101.237C56.3791 101.066 56.2707 100.541 56.2243 99.8602C56.1779 98.9632 56.2243 98.7157 56.441 98.5301C56.5958 98.3909 57.1994 98.2517 57.8185 98.2053ZM50.575 97.5558C50.5286 97.8032 50.4512 98.7467 50.3893 99.6901L50.281 101.391L47.6962 101.159C47.6962 102.226 47.7272 102.242 48.3463 102.319C48.7177 102.366 50.0952 102.474 51.4108 102.551C52.7264 102.644 53.8717 102.659 53.9336 102.598C53.9956 102.536 54.042 102.304 54.011 102.087C53.9646 101.732 53.8872 101.685 52.68 101.546C51.4263 101.391 51.3953 101.376 51.4727 101.005C51.5192 100.788 51.5811 99.8292 51.6275 98.8704L51.6894 97.1382C50.7298 97.1382 50.6524 97.2001 50.575 97.5558ZM45.1425 29.894C44.6317 29.9558 43.7804 30.2342 43.2387 30.4817C42.7125 30.7446 41.9696 31.2549 41.5826 31.6416C41.1957 32.0282 40.7159 32.7087 40.4992 33.1417C40.298 33.5902 40.0504 34.3326 39.9575 34.7656C39.8492 35.3224 39.8492 35.8327 39.9575 36.3586C40.0349 36.7761 40.2206 37.3638 40.3599 37.6268C40.4992 37.9051 40.8242 38.3691 41.1028 38.6475C41.366 38.9413 41.7684 39.2661 42.0005 39.3898C42.2482 39.5136 42.4649 39.5754 42.5113 39.529C42.5577 39.4826 42.4184 39.2197 42.2172 38.9413C42.0005 38.6784 41.7219 38.1835 41.5981 37.8587C41.4588 37.5494 41.3505 36.9153 41.3505 36.4668C41.3505 35.9565 41.4898 35.3842 41.7065 34.8893C41.9077 34.4563 42.3875 33.8377 42.7744 33.4974C43.1613 33.1572 43.8423 32.7396 44.3067 32.585C44.9412 32.3685 45.3591 32.3066 46.0711 32.3839C46.5819 32.4303 47.3403 32.6468 47.7736 32.8634C48.1915 33.0644 48.857 33.5748 49.2285 33.9923C49.6154 34.3945 50.0643 35.044 50.2345 35.4306C50.5441 36.0957 50.5596 36.4204 50.5905 44.8956L50.6369 53.68C34.3856 53.68 33.9523 53.6645 32.9927 53.3707C32.4355 53.2006 31.739 52.8603 31.4294 52.6283C31.1199 52.3964 30.6865 51.9943 30.4698 51.7468C30.2532 51.4839 29.9127 50.9271 29.7269 50.5096C29.4483 49.9373 29.3709 49.4579 29.3709 48.6537C29.3709 47.7876 29.4483 47.4165 29.7734 46.7978C29.99 46.3648 30.4698 45.7462 30.8413 45.4214C31.2128 45.0812 31.7699 44.71 32.064 44.5863C32.3581 44.4625 32.9927 44.3543 33.457 44.3543C33.9213 44.3543 34.5868 44.478 34.9273 44.6172C35.2678 44.7564 35.7631 45.0966 36.0262 45.375C36.3667 45.7152 36.5525 45.808 36.6144 45.6688C36.6608 45.5761 36.4751 45.1585 36.1965 44.7564C35.8869 44.2924 35.3762 43.8284 34.85 43.5191C34.3082 43.1944 33.6891 42.9778 33.1474 42.916C32.5593 42.8386 31.9866 42.885 31.2901 43.0706C30.733 43.2098 29.9436 43.5501 29.5257 43.813C29.1078 44.0759 28.5506 44.5708 28.2566 44.9265C27.978 45.2667 27.5601 45.9782 27.3279 46.4885C27.0029 47.169 26.8791 47.7412 26.8326 48.6537C26.7707 49.6126 26.8326 50.1384 27.0803 50.9735C27.266 51.5612 27.622 52.3809 27.8851 52.783C28.1327 53.2006 28.6745 53.8347 29.0769 54.2213C29.4948 54.6079 30.2067 55.1183 30.671 55.3657C31.1354 55.6132 31.9092 55.9225 32.3736 56.0617C33.1165 56.2782 34.3856 56.3092 41.9231 56.3092H50.6369L50.5596 58.7063L32.451 58.861C31.1354 59.4177 30.377 59.8353 29.9126 60.1446C29.4483 60.4694 28.7828 61.0571 28.4578 61.4901C28.1173 61.9077 27.622 62.7119 27.3589 63.2687C26.91 64.1966 26.8791 64.3976 26.8791 65.9751C26.8791 67.5835 26.91 67.7382 27.3743 68.7125C27.6529 69.3002 28.1947 70.0735 28.5816 70.4601C28.9685 70.8468 29.7114 71.3571 30.2377 71.6201C30.7794 71.8675 31.5223 72.115 31.9092 72.1768C32.2962 72.2232 32.9927 72.1923 33.457 72.0995C33.9213 72.0067 34.6333 71.7283 35.0357 71.4654C35.4691 71.2025 35.9798 70.6921 36.2429 70.2591C36.4906 69.857 36.6608 69.4858 36.6299 69.4085C36.5834 69.3466 36.3667 69.4703 36.1191 69.6714C35.8869 69.8724 35.4071 70.1818 35.0357 70.3673C34.6023 70.5839 34.0916 70.6921 33.4879 70.6921C32.9462 70.6921 32.3426 70.5684 31.9092 70.3673C31.5223 70.1972 30.9806 69.8261 30.702 69.5631C30.4079 69.2848 29.99 68.7125 29.7734 68.295C29.4483 67.6763 29.3709 67.3052 29.3555 66.4391C29.3555 65.604 29.4483 65.1555 29.7579 64.5059C29.9746 64.0419 30.4544 63.346 30.8258 62.9593C31.2128 62.5882 31.9092 62.1087 32.3736 61.8768L33.2248 61.4901L50.6369 61.4128L50.5596 78.9662C49.9714 80.157 49.4607 80.8375 49.0583 81.2396C48.6558 81.6572 47.9903 82.1366 47.5724 82.3222C47.0462 82.5542 46.5199 82.647 45.6842 82.6625C44.771 82.6625 44.3841 82.6006 43.8578 82.3222C43.5018 82.1366 42.9601 81.75 42.6351 81.4716C42.3256 81.2087 41.9077 80.621 41.7065 80.2034C41.4743 79.7085 41.3505 79.1363 41.3505 78.6105C41.3505 78.1775 41.4588 77.5434 41.5981 77.2186C41.7219 76.9093 42.0005 76.4144 42.2172 76.136C42.4184 75.8731 42.5732 75.5947 42.5422 75.5483C42.5268 75.5019 42.372 75.5019 42.2017 75.5483C42.0315 75.5947 41.5981 75.935 41.2267 76.2907C40.8707 76.6618 40.4683 77.1567 40.3444 77.4196C40.2206 77.6671 40.0504 78.2548 39.9575 78.6878C39.8492 79.2446 39.8492 79.7704 39.9575 80.3117C40.0504 80.7602 40.2825 81.4716 40.4837 81.9047C40.685 82.3222 41.1957 83.0182 41.6136 83.4357C42.016 83.8378 42.8054 84.3946 43.3625 84.673C44.2912 85.1215 44.4769 85.1524 46.0711 85.1524C47.7272 85.1524 47.8046 85.137 49.0118 84.5493C49.8476 84.1472 50.5286 83.6832 51.1167 83.08C51.5965 82.6006 52.2156 81.7655 52.4942 81.2087C52.7728 80.6519 53.0979 79.7549 53.2062 79.1982C53.3765 78.4249 53.4229 76.2752 53.4229 69.7951V61.4128H55.7445C55.7445 75.5328 55.8064 78.7033 55.9148 79.2291C56.0076 79.6776 56.2862 80.4664 56.5184 80.9767C56.7505 81.4871 57.2922 82.2913 57.7101 82.7553C58.1435 83.2192 58.8555 83.8533 59.3198 84.1472C59.7841 84.441 60.558 84.7967 61.0378 84.9514C61.5331 85.106 62.3998 85.2298 62.9725 85.2298C63.5606 85.2298 64.4119 85.1215 64.8762 84.9823C65.3405 84.8431 65.9751 84.5957 66.2692 84.4101C66.5632 84.24 67.1204 83.8069 67.4764 83.4667C67.8479 83.111 68.3741 82.415 68.6372 81.9047C69.0861 81.054 69.1325 80.853 69.1325 79.5075C69.1325 78.363 69.0706 77.9145 68.8384 77.497C68.6836 77.2031 68.3431 76.7237 68.0646 76.4453C67.8014 76.1515 67.399 75.8267 67.1514 75.703C66.9192 75.5792 66.7025 75.5174 66.6561 75.5638C66.6097 75.6102 66.7799 75.935 67.0121 76.2907C67.2597 76.6618 67.5383 77.2031 67.6467 77.497C67.7395 77.7908 67.8169 78.2857 67.8169 78.5796C67.8169 78.8734 67.7086 79.4611 67.5538 79.8941C67.399 80.389 67.0276 80.9303 66.5942 81.3788C66.1299 81.8273 65.5572 82.1985 64.9536 82.4305C64.2107 82.7243 63.8392 82.7707 63.0963 82.6934C62.5855 82.647 61.8117 82.4305 61.3938 82.2294C60.9604 82.0129 60.3258 81.5335 59.9544 81.1468C59.5984 80.7602 59.165 80.157 58.9948 79.8168C58.8245 79.4766 58.6078 78.7342 58.5304 78.1465C58.4376 77.5124 58.3911 74.0791 58.4066 69.3002L58.4531 61.4901H75.9426C77.2736 62.1242 77.9856 62.681 78.419 63.1449C78.9452 63.6862 79.3012 64.243 79.4869 64.8152C79.6572 65.2792 79.781 66.0525 79.781 66.5164C79.781 67.0113 79.6417 67.6609 79.4714 68.063C79.3012 68.4496 78.9297 69.0218 78.6356 69.3466C78.3416 69.6714 77.7534 70.1199 77.3355 70.321C76.7783 70.5993 76.314 70.6921 75.633 70.6921C75.0758 70.6921 74.4567 70.5684 74.0853 70.3983C73.7448 70.2436 73.2495 69.9188 72.9709 69.6714C72.6923 69.4239 72.4292 69.2538 72.3982 69.3002C72.3518 69.3466 72.4137 69.5631 72.5375 69.7951C72.6613 70.0426 73.0019 70.4911 73.2805 70.8004C73.5745 71.1252 74.1781 71.5582 74.6425 71.7747C75.2925 72.0686 75.7259 72.1459 76.5617 72.1459C77.3201 72.1304 77.9237 72.0222 78.5737 71.7592C79.1619 71.5427 79.8274 71.1097 80.3536 70.5993C80.818 70.1663 81.3906 69.4394 81.6228 68.9754C81.8395 68.5115 82.1026 67.831 82.1955 67.4444C82.2883 67.0577 82.3657 66.3927 82.3657 65.9751C82.3657 65.5421 82.2883 64.8925 82.1955 64.5059C82.1026 64.1193 81.855 63.4233 81.6228 62.9593C81.3906 62.4954 80.818 61.6912 80.3382 61.1808C79.8274 60.6395 79.0535 60.0364 78.4809 59.727C77.9392 59.4332 77.2736 59.1239 77.026 59.0311C76.7319 58.9228 73.2804 58.8455 67.5074 58.7836L58.4531 58.7063V56.3865C76.1593 56.2318 76.5926 56.2164 77.3355 55.9225C77.7534 55.7369 78.419 55.4276 78.8059 55.1956C79.1928 54.9791 79.8584 54.4223 80.2917 53.9738C80.7251 53.5099 81.2668 52.7521 81.5144 52.2881C81.7466 51.8241 82.0407 51.0818 82.149 50.6642C82.2728 50.2312 82.3657 49.5352 82.3657 49.1177C82.3657 48.6846 82.2574 47.9268 82.1335 47.4165C81.9942 46.9061 81.7157 46.2101 81.5299 45.8699C81.3287 45.5297 80.8644 44.942 80.4929 44.5708C80.1215 44.1996 79.394 43.6893 78.8833 43.4418C78.3725 43.2098 77.5677 42.9624 77.1034 42.9005C76.6391 42.8541 75.8961 42.885 75.4782 42.9933C75.0449 43.0861 74.4103 43.3645 74.0388 43.6274C73.6829 43.8748 73.1876 44.3852 72.9245 44.7409C72.6768 45.1121 72.4911 45.4523 72.5375 45.5142C72.584 45.5915 72.9399 45.4059 73.3424 45.1276C73.7602 44.8337 74.4567 44.5244 74.8901 44.4316C75.339 44.3233 75.9426 44.2924 76.2057 44.3388C76.4843 44.4007 77.026 44.5863 77.3974 44.7718C77.7689 44.9574 78.3261 45.375 78.6202 45.7152C78.9297 46.0555 79.3167 46.6432 79.4714 47.0298C79.6417 47.4319 79.781 48.0815 79.781 48.5764C79.781 49.0403 79.6726 49.7672 79.5333 50.2003C79.394 50.6333 78.9761 51.3138 78.6202 51.7313C78.2487 52.1489 77.707 52.6438 77.4129 52.8294C77.1189 53.0305 76.4843 53.2934 76.02 53.4326C75.277 53.6491 74.1472 53.68 66.8109 53.6491L58.4531 53.6027V36.4359C59.2114 34.843 59.6758 34.1779 60.1556 33.7294C60.6354 33.2809 61.2854 32.8788 61.8581 32.6623C62.5701 32.3839 63.0034 32.3221 63.7154 32.3685C64.35 32.4149 64.9072 32.585 65.4798 32.8943C65.9441 33.1417 66.5478 33.6212 66.8418 33.9614C67.1204 34.3017 67.4609 34.8893 67.5847 35.276C67.724 35.6626 67.8169 36.173 67.8169 36.4359C67.8169 36.6834 67.755 37.1473 67.6621 37.4412C67.5847 37.735 67.2752 38.3536 66.9811 38.7867C66.6716 39.2352 66.4239 39.6373 66.4239 39.6837C66.4239 39.7301 66.6871 39.6373 66.9966 39.4672C67.3216 39.3125 67.8169 38.9259 68.08 38.6165C68.3586 38.3072 68.7146 37.8278 68.8539 37.5494C69.0706 37.1783 69.1325 36.6834 69.1325 35.5853C69.1325 34.3017 69.0706 34.0078 68.7146 33.2655C68.4824 32.786 67.9253 32.0592 67.4455 31.5952C66.9657 31.1622 66.2073 30.6209 65.7584 30.4043C65.325 30.2033 64.4738 29.9713 63.9011 29.8785C63.2511 29.8012 62.4927 29.8012 61.9664 29.8785C61.4712 29.9713 60.6354 30.2497 60.0782 30.4971C59.4746 30.791 58.7007 31.3477 58.1435 31.8736C57.6327 32.3685 56.9982 33.1727 56.7196 33.6676C56.4565 34.1779 56.116 35.0285 55.9921 35.5853C55.7909 36.4204 55.7445 37.967 55.7445 45.1276V53.68H53.4229C53.4229 38.8176 53.3765 36.6679 53.2062 35.8946C53.0979 35.3379 52.7728 34.4408 52.4942 33.8841C52.2156 33.3273 51.6585 32.5386 51.2715 32.1365C50.8846 31.7189 50.25 31.1776 49.8631 30.9456C49.4761 30.6982 48.7797 30.3579 48.3153 30.2033C47.851 30.0332 47.1545 29.8785 46.7676 29.8321C46.3806 29.8012 45.6532 29.8321 45.1425 29.894ZM53.4074 56.3092H55.7135L55.6671 58.7063H53.5003L53.4538 57.5L53.4074 56.3092Z" fill="white"/>
</svg>
