<svg width="109" height="114" viewBox="0 0 109 114" fill="none" xmlns="http://www.w3.org/2000/svg">
<path fill-rule="evenodd" clip-rule="evenodd" d="M69.3342 40.2581C69.5237 40.2552 69.8979 40.2772 70.1652 40.3065C70.4326 40.3355 70.7629 40.384 70.899 40.4137C71.0352 40.4434 71.3057 40.5173 71.5003 40.5785C71.6948 40.6394 71.9812 40.7533 72.1368 40.8314C72.2924 40.9096 72.5711 41.0734 72.7557 41.1954C72.9403 41.3174 73.2278 41.5494 73.3944 41.7107C73.561 41.872 73.7519 42.069 73.8188 42.1486C73.8856 42.2279 73.9928 42.3633 74.0564 42.4493C74.1204 42.5349 74.2117 42.665 74.3471 42.8705L74.2676 42.8854C74.2237 42.8932 73.9252 42.9816 73.6045 43.0814C73.2833 43.1811 72.9095 43.2826 72.5258 43.3509L72.3402 43.6236C72.2107 43.8139 72.1545 43.931 72.1541 44.0113C72.1541 44.0746 72.1807 44.1662 72.2136 44.2146C72.2465 44.2635 72.3182 44.3547 72.3731 44.418C72.4279 44.4813 72.4728 44.5729 72.4728 44.6214C72.4728 44.6702 72.4452 44.7236 72.4109 44.741C72.3769 44.7579 72.2376 44.8082 72.1015 44.8524C71.9653 44.8969 71.8062 44.9677 71.7478 45.0101C71.6895 45.0522 71.618 45.1378 71.5887 45.2004C71.5593 45.2627 71.5278 45.3133 71.5179 45.3122C71.508 45.3115 71.4242 45.1477 71.3316 44.9486C71.2386 44.7491 71.0851 44.4668 70.9903 44.3208C70.8955 44.175 70.6968 43.9402 70.5489 43.799C70.3972 43.6544 70.1879 43.4963 70.068 43.4365C69.9184 43.3615 69.7437 43.3137 69.4756 43.2738C69.2595 43.2416 68.9961 43.2253 68.8656 43.2356C68.739 43.2458 68.5002 43.2724 68.3351 43.2943C68.1699 43.3166 67.9549 43.3594 67.8577 43.3894C67.7604 43.4195 67.6091 43.468 67.5217 43.497C67.4344 43.5263 67.3307 43.5635 67.2918 43.5797C67.2529 43.596 67.1415 43.6441 67.0443 43.6862C66.947 43.7286 66.7801 43.8068 66.6729 43.8599C66.5658 43.9129 66.4279 43.9869 66.366 44.0236C66.3044 44.0608 66.1372 44.1609 65.9946 44.2468C65.8525 44.3328 65.5289 44.5567 65.276 44.7445C65.0232 44.9327 64.7293 45.1647 64.6232 45.2606C64.5167 45.3564 64.2703 45.5831 64.075 45.7642C63.8798 45.9453 63.523 46.3036 63.2825 46.5601C63.042 46.8165 62.7319 47.1621 62.5933 47.3273C62.4543 47.4925 62.3323 47.6361 62.3216 47.6456C62.311 47.6552 62.2315 47.7524 62.1448 47.8614C62.0582 47.9703 61.9394 48.1196 61.881 48.1932C61.8227 48.2667 61.6267 48.5278 61.4457 48.7732C61.2646 49.0187 60.93 49.4983 60.7023 49.8386C60.4749 50.1792 60.2047 50.5931 60.1018 50.7582C59.9992 50.9234 59.8489 51.1703 59.768 51.3065C59.6866 51.4427 59.5119 51.7451 59.3793 51.9785C59.247 52.212 58.9408 52.8009 58.6989 53.2873C58.4573 53.7736 58.1702 54.3785 57.8621 55.0912L57.9261 55.3388C57.9675 55.4972 57.9905 55.7137 57.9905 55.9401C57.9909 56.2644 57.9827 56.3069 57.8933 56.453C57.8395 56.5403 57.7316 56.6995 57.6535 56.8067C57.5421 56.9591 57.4388 57.2064 57.1764 57.9474C56.9922 58.4677 56.74 59.2239 56.6159 59.6275C56.4917 60.0311 56.3411 60.5443 56.281 60.7682C56.2205 60.9921 56.1084 61.4455 56.0309 61.7763C55.9538 62.107 55.8432 62.6322 55.7848 62.9435C55.7268 63.2548 55.6543 63.7245 55.6239 63.9869C55.5935 64.2494 55.5507 64.7191 55.5288 65.0304C55.5068 65.3416 55.4987 65.8273 55.5107 66.1092C55.5224 66.3911 55.5553 66.8049 55.5832 67.0288C55.6112 67.2527 55.6518 67.5152 55.6731 67.6125C55.6946 67.7097 55.7526 67.9166 55.8018 68.0723C55.8513 68.2279 55.9567 68.4985 56.0366 68.6736C56.1162 68.8487 56.2562 69.1033 56.3478 69.2395C56.4394 69.3757 56.6159 69.5907 56.7397 69.717C56.8638 69.8436 57.0608 70.0124 57.1775 70.0919C57.2942 70.1719 57.4615 70.2688 57.5488 70.3074C57.6362 70.3463 57.7638 70.4004 57.8317 70.4276C57.9142 70.4609 58.097 70.4775 58.3799 70.4775C58.6953 70.4775 58.8541 70.4609 58.9988 70.4131C59.1059 70.3777 59.3287 70.2837 59.4939 70.2037C59.659 70.1241 59.8977 69.9873 60.0243 69.9002C60.151 69.8132 60.3331 69.6767 60.4293 69.5968C60.5255 69.5172 60.7727 69.2848 60.9781 69.0803C61.1836 68.8759 61.4418 68.6057 61.5511 68.479C61.6607 68.3524 61.8435 68.1299 61.9574 67.9838C62.0709 67.8381 62.24 67.6153 62.333 67.4887C62.4256 67.362 62.5915 67.1314 62.7015 66.9758C62.8111 66.8201 63.0116 66.5177 63.1467 66.3037C63.2815 66.0897 63.4279 65.8588 63.4714 65.7909C63.5152 65.7229 63.6355 65.5238 63.7391 65.3487C63.8427 65.1736 64.0623 64.7916 64.2268 64.4998C64.3912 64.208 64.7608 63.5077 65.0483 62.9435C65.3354 62.3793 65.7138 61.6072 65.8886 61.228C66.0633 60.8488 66.302 60.3232 66.4183 60.0608C66.535 59.7983 66.6896 59.4319 66.7624 59.2472C66.8349 59.0626 66.9219 58.8553 66.9559 58.7874C66.9895 58.7195 67.0669 58.6198 67.1277 58.5664C67.1889 58.5129 67.2904 58.4599 67.3537 58.4486C67.417 58.4369 67.5362 58.445 67.619 58.4663C67.7632 58.503 67.7721 58.5133 67.8418 58.7255C67.8817 58.8472 67.9231 59.0499 67.9337 59.1765C67.9493 59.3643 67.9355 59.4612 67.8573 59.7071C67.805 59.8723 67.6508 60.2864 67.5146 60.6267C67.3785 60.9673 67.1631 61.4845 67.0361 61.7763C66.9092 62.0681 66.6549 62.6252 66.471 63.0142C66.2871 63.4033 65.9819 64.0241 65.7924 64.3937C65.6032 64.7633 65.3839 65.1772 65.3054 65.3133C65.2269 65.4495 65.0607 65.7328 64.9362 65.9429C64.812 66.1531 64.6876 66.3678 64.66 66.4205C64.6324 66.4728 64.4534 66.7508 64.2621 67.0377C64.0708 67.3245 63.9152 67.5714 63.9159 67.5859C63.917 67.6004 63.8922 67.6362 63.8614 67.6655C63.8307 67.6949 63.8059 67.7345 63.807 67.7539C63.808 67.7734 63.8908 67.7019 63.9909 67.5948C64.0906 67.4876 64.358 67.1774 64.585 66.905C64.8117 66.6327 65.1473 66.215 65.3312 65.9766C65.5147 65.7382 65.7206 65.4676 65.7881 65.3752C65.8557 65.2829 66.035 65.0321 66.1867 64.8182C66.338 64.6042 66.5173 64.3495 66.5845 64.2522C66.6521 64.155 66.8314 63.8844 66.9834 63.6509C67.1352 63.4175 67.388 63.0114 67.545 62.749C67.7017 62.4865 67.9234 62.1123 68.0373 61.9177C68.1512 61.7232 68.4762 61.1024 68.7602 60.5383C69.0438 59.9741 69.4141 59.1864 69.5824 58.7874C69.7508 58.3884 69.9622 57.8713 70.0524 57.6379C70.1422 57.4044 70.2639 57.078 70.323 56.9128C70.3817 56.7476 70.5245 56.3097 70.6402 55.9401C70.7562 55.5704 70.9468 54.9019 71.0646 54.4545C71.182 54.0071 71.3227 53.4422 71.3775 53.1988C71.432 52.9558 71.5257 52.4861 71.5855 52.1554C71.6452 51.8247 71.7252 51.339 71.7637 51.0766C71.8019 50.8141 71.8574 50.3285 71.8864 49.9978C71.9158 49.6671 71.9494 49.1418 71.9611 48.8305C71.9731 48.5193 71.9883 48.2565 71.9954 48.2469C72.0021 48.2374 72.1563 48.2589 72.6673 48.3619L73.3039 48.1419C73.654 48.0205 74.3259 47.7917 74.7973 47.6332C75.2684 47.4748 75.6662 47.3584 75.6814 47.3743C75.6963 47.3906 75.708 47.9158 75.7073 48.5416C75.7066 49.185 75.6864 49.8871 75.6609 50.1569C75.6358 50.4194 75.5771 50.921 75.5301 51.2711C75.483 51.6213 75.4028 52.1466 75.3518 52.4384C75.3006 52.7302 75.2068 53.2077 75.1435 53.4995C75.0802 53.7913 74.9536 54.3166 74.8627 54.6667C74.7715 55.0169 74.6569 55.4389 74.6078 55.6041C74.5586 55.7692 74.4221 56.2071 74.3043 56.5767C74.1862 56.9464 73.9712 57.5749 73.8262 57.9739C73.6812 58.3729 73.4305 59.0251 73.2685 59.4241C73.1065 59.8231 72.8678 60.3957 72.7377 60.6975C72.6075 60.9992 72.3844 61.5004 72.2422 61.8116C72.0997 62.1229 71.8345 62.68 71.6523 63.0496C71.4702 63.4192 71.2276 63.9045 71.113 64.1284C70.9988 64.3523 70.7583 64.7976 70.579 65.1188C70.3997 65.44 70.1504 65.8775 70.0248 66.0915C69.8989 66.3055 69.6878 66.6557 69.5552 66.8697C69.4226 67.0837 69.1269 67.5375 68.8981 67.8777C68.6693 68.2184 68.4196 68.5841 68.3432 68.6913C68.2672 68.7984 68.0964 69.0291 67.9638 69.2041C67.8311 69.3792 67.6091 69.6657 67.4697 69.8408C67.3304 70.0159 67.0924 70.3024 66.9407 70.4775C66.7886 70.6526 66.4636 71.0095 66.2178 71.2702C65.972 71.5312 65.5957 71.9054 65.3814 72.1014C65.1668 72.2977 64.8007 72.6111 64.568 72.7978C64.335 72.9849 63.9534 73.2647 63.72 73.4196C63.4866 73.5749 63.1842 73.7631 63.048 73.8381C62.9119 73.9131 62.6972 74.0255 62.5706 74.0878C62.444 74.15 62.2134 74.2452 62.0578 74.299C61.8184 74.3817 61.7505 74.4242 61.6158 74.5748C61.5284 74.6728 61.3237 74.8812 61.161 75.0382C60.9986 75.1949 60.6934 75.4588 60.483 75.6239C60.2726 75.7891 60.0396 75.9621 59.9653 76.0081C59.8907 76.0541 59.7184 76.1595 59.5823 76.2422C59.4461 76.325 59.1756 76.4605 58.9811 76.5436C58.7866 76.6264 58.5001 76.7303 58.3445 76.7742C58.1889 76.8184 57.9661 76.8757 57.8494 76.9019C57.7306 76.9288 57.4431 76.9489 57.1952 76.9482C56.9037 76.9472 56.6626 76.9256 56.4879 76.8849C56.3418 76.851 56.1031 76.7823 55.9574 76.7325C55.8113 76.6826 55.5807 76.5864 55.4446 76.5188C55.3084 76.4513 55.0871 76.3218 54.9523 76.2309C54.8176 76.1404 54.5881 75.9547 54.442 75.8185C54.2959 75.6823 54.0636 75.4195 53.9257 75.2349C53.7874 75.0502 53.5848 74.7238 53.4748 74.5098C53.3648 74.2958 53.2163 73.9693 53.1445 73.7847C53.073 73.6 52.9927 73.3454 52.9662 73.2187C52.9326 73.0596 52.893 72.9697 52.8371 72.9266C52.7929 72.8923 52.6773 72.8106 52.58 72.7448C52.4828 72.6786 52.2999 72.5304 52.1733 72.4148C52.0467 72.2991 51.8377 72.0787 51.7086 71.9245C51.5799 71.7706 51.3911 71.5093 51.2892 71.3441C51.1877 71.1789 51.0445 70.9242 50.9709 70.7781C50.8977 70.6324 50.7655 70.3141 50.6774 70.0707C50.5893 69.8277 50.4769 69.4694 50.4277 69.2749C50.3786 69.0803 50.3068 68.7302 50.2679 68.4967C50.2293 68.2633 50.1798 67.929 50.1579 67.7539C50.136 67.5788 50.1056 67.1891 50.0896 66.8873C50.0741 66.5856 50.067 66.0367 50.0744 65.6671C50.0815 65.2974 50.1041 64.7722 50.1243 64.4998C50.1441 64.2275 50.1996 63.6665 50.2474 63.253C50.2955 62.8395 50.3344 62.4575 50.3347 62.4041C50.3351 62.3111 50.333 62.31 50.2866 62.3776C50.2605 62.4165 50.0946 62.8144 49.9185 63.2618C49.7424 63.7093 49.5326 64.2268 49.4531 64.4114C49.3176 64.7248 49.3109 64.7559 49.3526 64.8712C49.3806 64.9487 49.3961 65.1666 49.3947 65.4548C49.3926 65.7965 49.3717 66.001 49.3141 66.2507C49.2709 66.4353 49.1942 66.714 49.1433 66.8697C49.0927 67.0253 48.9647 67.3518 48.8593 67.5948C48.7539 67.8381 48.5612 68.236 48.431 68.479C48.3012 68.7224 48.1881 68.9371 48.1799 68.9565C48.1718 68.976 48.0151 69.2307 47.8316 69.5225C47.6481 69.8143 47.3365 70.283 47.1392 70.5641C46.9418 70.8453 46.7565 71.0972 46.7272 71.1237C46.692 71.1558 46.6861 71.1831 46.7095 71.2058C46.7321 71.2274 46.8474 71.2263 47.0278 71.2029C47.1834 71.1824 47.5335 71.1481 47.8058 71.1265C48.1711 71.0972 48.4632 71.0972 48.9198 71.1265C49.26 71.1481 49.5464 71.175 49.5563 71.186C49.5662 71.1966 49.5143 71.3243 49.4414 71.4693C49.3686 71.6143 49.289 71.7335 49.2646 71.7342C49.2402 71.7349 49.1171 71.7501 48.9905 71.7682C48.8639 71.7862 48.6093 71.8251 48.4247 71.8548C48.2401 71.8845 47.9614 71.9337 47.8058 71.9641C47.6502 71.9945 47.3955 72.0423 47.2399 72.0709C47.0843 72.0992 46.8138 72.1463 46.6387 72.1753C46.4637 72.2043 46.2069 72.2482 46.0679 72.2726C45.929 72.297 45.808 72.3246 45.7985 72.3345C45.7893 72.3444 45.657 72.5035 45.5049 72.6882C45.3525 72.8728 45.0678 73.2067 44.8723 73.4299C44.6767 73.6531 44.3736 73.9873 44.1986 74.1727C44.0235 74.358 43.6882 74.7008 43.4534 74.9342C43.2186 75.1677 42.9081 75.4701 42.7638 75.6063C42.6192 75.7424 42.4215 75.9257 42.3239 76.013C42.2266 76.1004 42.0526 76.2518 41.9377 76.3491C41.8224 76.4463 41.6555 76.5871 41.5667 76.6621C41.4776 76.7371 41.3648 76.8319 41.3163 76.8729C41.2675 76.9136 41.0649 77.0713 40.8654 77.2231C40.666 77.3744 40.4492 77.5343 40.3838 77.5782C40.3183 77.622 40.1472 77.7391 40.0036 77.8382C39.86 77.9376 39.5597 78.1307 39.3359 78.2672C39.112 78.4037 38.6983 78.6361 38.4164 78.7833C38.1345 78.9301 37.7045 79.1299 37.4616 79.2268C37.2182 79.3237 36.8922 79.4447 36.7366 79.4953C36.581 79.5462 36.3263 79.6173 36.1707 79.6537C36.0151 79.6902 35.7368 79.7446 35.5518 79.7744C35.3669 79.8041 35.0486 79.8384 34.8445 79.8508C34.6405 79.8631 34.2784 79.8564 34.04 79.8356C33.8016 79.8147 33.4437 79.7588 33.2443 79.7118C33.0448 79.6644 32.7704 79.5837 32.6342 79.5328C32.4981 79.4818 32.2474 79.3694 32.0772 79.2831C31.9071 79.1964 31.6762 79.0673 31.5645 78.9958C31.4527 78.9244 31.2338 78.7702 31.0782 78.6531C30.9226 78.5357 30.6736 78.3277 30.5247 78.1905C30.3758 78.0532 30.1311 77.7975 29.9808 77.6224C29.8305 77.4473 29.5914 77.129 29.4493 76.915C29.3071 76.701 29.1101 76.3628 29.0115 76.1634C28.8346 75.805 28.8311 75.8008 28.7176 75.8135C28.6543 75.8206 28.3721 75.8779 28.0899 75.9412C27.8076 76.0045 27.4894 76.0767 27.3826 76.1015C27.2758 76.1266 27.0685 76.1743 26.9228 76.2076C26.7768 76.2408 26.5699 76.2889 26.4631 76.3144C26.3563 76.3395 26.0535 76.4102 25.7911 76.4711C25.5287 76.5316 25.2104 76.6062 25.0838 76.6366C24.9572 76.6667 24.7663 76.7123 24.6595 76.7374C24.5527 76.7629 24.1944 76.8492 23.8638 76.9291C23.5331 77.0094 23.2067 77.0911 23.1388 77.1102C23.0709 77.1297 22.9513 77.1598 22.8735 77.1774C22.7957 77.1951 22.5492 77.2577 22.3254 77.3168C22.1015 77.3755 21.64 77.4951 21.2998 77.5828C20.9592 77.6702 20.5377 77.7826 20.3626 77.8325C20.1876 77.8824 19.9648 77.9471 19.8675 77.9761C19.7703 78.0048 19.5712 78.0596 19.4255 78.0974C19.2794 78.1349 19.0807 78.1894 18.9834 78.2177C18.8861 78.2463 18.6075 78.3288 18.3645 78.4013C18.1212 78.4738 17.8906 78.5413 17.8517 78.5512C17.8128 78.5611 17.741 78.6054 17.6926 78.6492C17.6438 78.6931 17.5285 78.7628 17.4362 78.8034C17.3439 78.8445 17.2562 78.8777 17.2417 78.8777C17.2272 78.8774 17.1317 78.917 17.0295 78.9661C16.9273 79.015 16.812 79.0549 16.7731 79.0549C16.7342 79.0549 16.6546 79.0312 16.5963 79.0019C16.4997 78.9534 16.4661 78.9555 16.2161 79.0234C16.0654 79.0645 15.8706 79.1186 15.7829 79.1433C15.6952 79.1685 15.5282 79.2162 15.4115 79.2502C15.2948 79.2841 15.088 79.3474 14.9518 79.3913C14.8156 79.4348 14.5769 79.5059 14.4213 79.5487C14.2657 79.5918 13.8997 79.698 13.6079 79.7846C13.3162 79.8713 13.0375 79.9562 12.989 79.9728C12.9402 79.9898 12.7892 80.0368 12.6531 80.0775C12.5169 80.1182 12.2146 80.2091 11.9812 80.2795C11.7477 80.3502 11.4853 80.4287 11.3976 80.4538C11.3099 80.479 11.143 80.5309 11.0263 80.5691C10.9096 80.6077 10.6946 80.6738 10.5489 80.7166C10.4028 80.7598 10.1722 80.8309 10.0361 80.8755C9.89993 80.92 9.52577 81.0396 9.20501 81.1418C8.88425 81.2437 8.48639 81.3749 8.32088 81.4329C8.15538 81.4909 7.9446 81.5687 7.8523 81.6055C7.76 81.6423 7.64153 81.7081 7.58954 81.7519C7.53755 81.7958 7.43782 81.88 7.36851 81.9394C7.29919 81.9988 7.1786 82.0958 7.1008 82.1548C7.02299 82.2139 6.87977 82.3044 6.78251 82.3561C6.68526 82.4074 6.5339 82.4742 6.44655 82.5046C6.35919 82.5347 6.19192 82.5814 6.07521 82.6083C5.95851 82.6348 5.71591 82.6818 5.5359 82.713C5.35589 82.7437 4.92621 82.7911 3.95332 82.8683L3.67606 82.7742C3.4324 82.6918 3.37369 82.6539 3.18979 82.4594C3.03171 82.2921 2.95709 82.2383 2.88353 82.2386C2.83013 82.2386 2.65083 82.2539 2.48568 82.2726C2.32017 82.291 2.08146 82.3416 1.95521 82.3847C1.73453 82.4604 1.71897 82.4615 1.56619 82.406C1.47849 82.3741 1.36072 82.3034 1.30449 82.2489C1.24791 82.1944 1.15631 82.0505 1.10114 81.9288C1.02476 81.7615 1.00035 81.654 1 81.4867C1 81.3519 1.03006 81.1761 1.07745 81.0357C1.11989 80.9091 1.21502 80.7025 1.28893 80.5759C1.36249 80.4492 1.45904 80.3042 1.50324 80.2529C1.55488 80.1935 1.7805 80.0775 2.13203 79.93C2.43369 79.8034 2.75976 79.6714 2.85701 79.6368C2.95426 79.6018 3.04975 79.5628 3.0692 79.5498C3.08865 79.5367 3.20783 79.4893 3.33444 79.444C3.46069 79.3987 3.58022 79.3503 3.59967 79.3365C3.61912 79.3227 3.81787 79.247 4.04173 79.1685C4.26524 79.0899 4.58352 78.9746 4.74903 78.9124C4.91419 78.8498 5.32017 78.7037 5.65084 78.5877C5.9815 78.4713 6.79312 78.1961 7.45444 77.9758C8.11577 77.7554 8.89556 77.5004 9.18732 77.4088C9.47908 77.3175 9.86103 77.1972 10.0361 77.1421C10.2111 77.0869 10.5453 76.9843 10.7787 76.9139C11.0122 76.8439 11.2746 76.765 11.3623 76.7388C11.45 76.7127 11.6965 76.6405 11.9104 76.5783C12.1244 76.516 12.379 76.4442 12.4763 76.4187C12.5735 76.3936 12.7327 76.3487 12.8299 76.3197C12.9272 76.2907 13.1818 76.2161 13.3957 76.1535C13.6097 76.0912 14.0475 75.9695 14.3683 75.8832C14.689 75.7969 15.0395 75.7025 15.1463 75.6728C15.2531 75.6434 15.4402 75.5964 15.5618 75.5684C15.7121 75.5341 15.7829 75.5009 15.7829 75.4648C15.7829 75.4354 15.6874 75.2763 15.3585 74.8104L15.3581 74.1826C15.3581 73.8374 15.3748 73.4674 15.3949 73.3602C15.4299 73.1777 15.4236 73.1391 15.1527 72.3168L15.2538 71.91C15.3093 71.6861 15.4975 71.0657 15.6715 70.5305C15.8458 69.9957 16.1234 69.1758 16.2889 68.7089C16.4541 68.2421 16.725 67.494 16.8905 67.0465C17.056 66.5991 17.2869 65.9783 17.4033 65.6671C17.52 65.3558 17.7212 64.8228 17.8507 64.4821C17.9801 64.1419 18.1902 63.6007 18.3171 63.2795C18.4444 62.9584 18.6679 62.4013 18.814 62.0415C18.9604 61.6818 19.191 61.1166 19.3264 60.7859C19.4619 60.4552 19.6773 59.938 19.8046 59.6363C19.9319 59.3346 20.1713 58.7697 20.3365 58.3807C20.5016 57.9916 20.7541 57.4065 20.8977 57.0808C21.0409 56.755 21.1583 56.4805 21.1583 56.4706C21.1583 56.4607 21.2323 56.2899 21.3224 56.0904C21.4126 55.8909 21.5537 55.5687 21.6358 55.3741C21.7178 55.1796 21.8766 54.8135 21.9887 54.5606C22.1008 54.3077 22.3176 53.8224 22.4707 53.4818C22.6235 53.1415 22.7491 52.8508 22.7491 52.8363C22.7494 52.8218 22.7982 52.7104 22.8576 52.5887C22.917 52.467 23.038 52.2007 23.1271 51.9962C23.2159 51.7918 23.3662 51.4536 23.4613 51.2446C23.5561 51.0356 23.6257 50.8484 23.6162 50.829C23.6066 50.8095 23.5151 50.8661 23.4128 50.9546C23.3106 51.043 23.1239 51.1993 22.9973 51.3022C22.8707 51.4048 22.7197 51.5329 22.6613 51.5866C22.603 51.6404 22.3515 51.8463 22.1022 52.0436C21.8533 52.2413 21.559 52.4525 21.448 52.513C21.3373 52.5731 21.1552 52.6488 21.0434 52.681C20.9316 52.7128 20.7325 52.739 20.6013 52.7394C20.4701 52.7397 20.2749 52.7139 20.1681 52.6824C20.0366 52.6435 19.8877 52.6294 19.7084 52.6393C19.499 52.6506 19.417 52.6718 19.3194 52.7404C19.2515 52.7882 19.0842 52.9272 18.948 53.0492C18.78 53.1999 18.6609 53.2781 18.5767 53.2926C18.5084 53.3046 18.3734 53.3053 18.2761 53.2947C18.1491 53.2805 17.92 53.185 17.4627 52.9551C16.8668 52.6555 16.8244 52.6276 16.7993 52.519C16.7844 52.4553 16.7724 52.3432 16.7727 52.2703C16.7727 52.1975 16.7918 52.062 16.8148 51.9697C16.8456 51.8466 16.9008 51.7592 17.021 51.6425C17.1115 51.5552 17.566 51.1972 18.0314 50.847C18.4968 50.4972 19.0446 50.0781 19.2486 49.9154C19.4527 49.753 19.6518 49.5931 19.6907 49.5602C19.7296 49.5273 19.9672 49.3339 20.2187 49.1301C20.4705 48.9264 20.8206 48.6498 20.9967 48.5154C21.1732 48.381 21.3256 48.2607 21.3352 48.248C21.3447 48.2349 21.4243 48.1737 21.512 48.1111C21.5997 48.0488 21.7348 47.9494 21.8126 47.8904C21.8904 47.8313 21.9859 47.7595 22.0248 47.7316C22.0637 47.7033 22.3342 47.5048 22.626 47.2912C22.9177 47.0772 23.2021 46.8667 23.258 46.8229C23.3135 46.7794 23.4507 46.68 23.5628 46.6022C23.6749 46.5244 24.0431 46.2619 24.3811 46.0189C24.7189 45.7759 25.0831 45.5181 25.1899 45.4459C25.2967 45.3737 25.464 45.2574 25.5613 45.1877C25.6585 45.1177 25.9082 44.9458 26.1165 44.8057C26.3244 44.6653 26.5154 44.5142 26.5409 44.4693C26.566 44.4247 26.6505 44.3416 26.7283 44.285C26.8061 44.2281 26.9334 44.1244 27.1527 43.9278L27.6124 44.3943L28.4559 44.3738L28.5885 44.6037C28.7084 44.811 28.7254 44.8736 28.7632 45.2404C28.7862 45.4643 28.8523 45.8541 28.91 46.107C28.9676 46.3599 29.0178 46.5679 29.021 46.5689C29.0242 46.57 29.1137 46.6259 29.2198 46.6927C29.3255 46.7596 29.4295 46.8303 29.4507 46.8498C29.4716 46.8692 29.584 46.9729 29.7 47.0797C29.816 47.1865 29.9628 47.334 30.0261 47.4069C30.0897 47.4804 30.141 47.5791 30.141 47.6279C30.141 47.6771 30.0855 47.7832 30.0165 47.8667C29.9271 47.9746 29.8917 48.052 29.891 48.1408C29.8906 48.2345 29.9186 48.2922 30.007 48.3792C30.0846 48.4556 30.1705 48.5005 30.2648 48.514C30.3426 48.5249 30.5495 48.6045 30.7245 48.6908C30.8996 48.7771 31.116 48.9154 31.2059 48.9982C31.2953 49.081 31.3869 49.1846 31.4092 49.2285C31.4315 49.2723 31.4495 49.3399 31.4495 49.3788C31.4495 49.4177 31.3837 49.573 31.3035 49.7236C31.2232 49.8743 30.9813 50.2843 30.7663 50.6344C30.5513 50.9846 30.2489 51.478 30.094 51.7309C29.9391 51.9838 29.6664 52.4373 29.4885 52.739C29.3103 53.0407 29.0366 53.5101 28.8799 53.7825C28.7236 54.0548 28.4764 54.4927 28.3303 54.7552C28.1846 55.0176 27.9533 55.4396 27.8168 55.6925C27.6803 55.9454 27.4763 56.3274 27.3635 56.5414C27.2506 56.7554 26.9104 57.4239 26.607 58.027C26.3039 58.63 25.9337 59.3781 25.7844 59.6894C25.6352 60.0006 25.3788 60.5418 25.2147 60.892C25.0506 61.2422 24.8045 61.7674 24.6679 62.0592C24.5314 62.351 24.2811 62.8922 24.1117 63.2618C23.9419 63.6315 23.6869 64.1886 23.5444 64.4998C23.4022 64.8111 23.2031 65.2486 23.102 65.4725C23.0008 65.6964 22.8187 66.1021 22.6967 66.3745C22.5751 66.6468 22.3399 67.1721 22.1747 67.5417C22.0092 67.9113 21.8342 68.3011 21.7854 68.4083C21.7366 68.5155 21.646 68.7224 21.5841 68.8681C21.5226 69.0142 21.4024 69.2848 21.3175 69.4694C21.2323 69.6541 21.072 70.0124 20.961 70.2653C20.8503 70.5182 20.676 70.9161 20.5741 71.1495C20.4723 71.383 20.242 71.9082 20.0627 72.3168C19.8834 72.7253 19.6444 73.2746 19.5316 73.5371C19.4187 73.7995 19.2688 74.1419 19.1981 74.2975C19.1277 74.4532 19.0704 74.5925 19.0707 74.607C19.0715 74.6215 19.1036 74.6336 19.1425 74.6336C19.1814 74.6336 19.464 74.5695 19.7703 74.4914C20.0765 74.4128 20.4387 74.3255 20.5748 74.2972C20.711 74.2685 20.9179 74.2226 21.0346 74.1943C21.1513 74.1663 21.3543 74.1182 21.4855 74.0878C21.6167 74.0574 21.8317 74.0071 21.9629 73.976C22.0941 73.9452 22.2971 73.8971 22.4138 73.8696C22.5305 73.842 22.7452 73.7956 22.8912 73.767C23.0369 73.7383 23.2519 73.6923 23.3686 73.6651C23.4853 73.6379 23.8114 73.5643 24.0936 73.5017C24.3758 73.4391 24.7097 73.3659 24.8363 73.339C24.9629 73.3121 25.1853 73.2661 25.3314 73.2371C25.4771 73.2078 25.6999 73.1618 25.8265 73.1349C25.9531 73.1077 26.1837 73.0585 26.3393 73.0253C26.4949 72.9924 26.7255 72.9428 26.8521 72.9152C26.9787 72.888 27.1774 72.8488 27.2941 72.8282C27.4109 72.8077 27.5622 72.7762 27.6301 72.7586C27.698 72.7409 27.8098 72.7179 28.0014 72.6882L28.0036 71.742C28.0046 71.2217 28.0089 70.4138 28.0128 69.9469C28.0167 69.48 28.005 68.9788 27.9866 68.8327C27.9686 68.687 27.9325 68.5233 27.9067 68.4691C27.8734 68.3991 27.8345 68.3715 27.7716 68.3729C27.7228 68.374 27.6315 68.4143 27.5682 68.4624C27.5049 68.5105 27.4296 68.5498 27.4002 68.5498C27.3709 68.5498 27.2874 68.5126 27.2146 68.4674C27.1417 68.4221 27.0261 68.299 26.9582 68.1936C26.8383 68.0086 26.8348 67.9927 26.8404 67.6835C26.8436 67.5085 26.8864 67.1102 26.9355 66.7989C26.9847 66.4877 27.0668 66.0579 27.1177 65.8439C27.1686 65.6299 27.2821 65.1842 27.3695 64.8535C27.4568 64.5228 27.5498 64.1804 27.5767 64.0931C27.6032 64.0057 27.7313 63.5996 27.8614 63.1911C27.9919 62.7826 28.2225 62.1063 28.3742 61.6878C28.5259 61.2694 28.7643 60.6409 28.904 60.2907C29.044 59.9405 29.2268 59.4948 29.3107 59.3003C29.3941 59.1058 29.5327 58.7874 29.6183 58.5929C29.7036 58.3983 29.8599 58.0482 29.9653 57.8147C30.0706 57.5813 30.4031 56.8969 30.704 56.2938C31.005 55.6907 31.3696 54.9822 31.5142 54.7198C31.6589 54.4573 31.9047 54.0194 32.0606 53.7471C32.2162 53.4747 32.416 53.1327 32.5041 52.9866C32.5922 52.8409 32.8471 52.4267 33.0706 52.067C33.2942 51.7072 33.6482 51.1579 33.8575 50.8467C34.0672 50.5354 34.3162 50.1693 34.4113 50.0331C34.5065 49.897 34.6709 49.6663 34.777 49.5203C34.8827 49.3745 35.1639 49.0003 35.4012 48.6891C35.6388 48.3778 35.8768 48.0672 35.9306 47.9993C35.984 47.9314 36.1453 47.7323 36.2888 47.5572C36.4324 47.3821 36.576 47.2067 36.6078 47.1674C36.6397 47.1278 36.7532 46.9927 36.8596 46.8667C36.9664 46.7405 37.2122 46.4625 37.4064 46.2485C37.6005 46.0345 37.9825 45.6355 38.2558 45.3617C38.5289 45.0883 38.8539 44.7777 38.9784 44.672C39.1025 44.5662 39.222 44.4626 39.2436 44.4414C39.2652 44.4201 39.3504 44.3685 39.4331 44.3264C39.5371 44.2737 39.6517 44.2493 39.8045 44.2475C39.9261 44.2465 40.0973 44.2705 40.1846 44.3013C40.272 44.3324 40.3795 44.3572 40.4234 44.3568C40.4672 44.3565 40.5563 44.4078 40.6218 44.4711C40.7063 44.5528 40.7523 44.6398 40.7809 44.7717C40.8032 44.874 40.8212 45.0211 40.8212 45.0989C40.8212 45.1767 40.8371 45.2485 40.8566 45.2581C40.876 45.2676 40.9669 45.2082 41.0589 45.1254C41.1508 45.0427 41.2516 44.9514 41.2827 44.9221C41.3138 44.8927 41.3786 44.8372 41.4263 44.7983C41.474 44.7594 41.6003 44.655 41.7064 44.5666C41.8128 44.4782 42.071 44.2751 42.28 44.1156C42.489 43.9561 42.6722 43.8256 42.6867 43.8256C42.7012 43.8259 42.7528 43.7898 42.8016 43.7456C42.8501 43.7018 43.0092 43.5872 43.1553 43.4913C43.301 43.3951 43.4764 43.2819 43.5443 43.2391C43.6122 43.1967 43.7554 43.1068 43.8626 43.0396C43.9698 42.9724 44.2721 42.8132 44.5345 42.6863C44.7969 42.5589 45.1474 42.4072 45.3126 42.3488C45.4777 42.2905 45.669 42.2261 45.7369 42.2056C45.8048 42.1851 45.9962 42.1401 46.1613 42.1055C46.3717 42.0613 46.6264 42.0422 47.0101 42.0411C47.4069 42.0397 47.6459 42.057 47.8765 42.1041C48.0516 42.1398 48.2425 42.1826 48.3009 42.1996C48.3592 42.2169 48.4943 42.2569 48.6015 42.2887C48.7086 42.3205 48.8678 42.3782 48.9551 42.4164C49.0425 42.4546 49.1861 42.5232 49.2734 42.5688C49.3608 42.6145 49.5121 42.6944 49.6094 42.746C49.7066 42.7977 49.8895 42.9137 50.0161 43.0039C50.1427 43.0937 50.3492 43.2501 50.4758 43.3516C50.6024 43.4528 50.827 43.6607 50.9752 43.8132C51.1234 43.966 51.3539 44.2284 51.488 44.3968C51.6217 44.5652 51.8342 44.8676 51.9601 45.0688C52.086 45.2701 52.2533 45.5623 52.3321 45.7179C52.411 45.8735 52.5581 46.2078 52.6593 46.4607C52.7604 46.7136 52.8987 47.1356 52.9666 47.398C53.0345 47.6605 53.1218 48.0584 53.1604 48.2823C53.1993 48.5062 53.2498 48.8801 53.2732 49.1135C53.3011 49.3979 53.3071 49.8121 53.2909 50.3692C53.2774 50.8262 53.2537 51.3037 53.2382 51.4303C53.2223 51.5569 53.2152 51.6722 53.2219 51.6867C53.2286 51.7012 53.2622 51.6991 53.2962 51.6818C53.3301 51.6644 53.4111 51.5969 53.4762 51.5315C53.5413 51.466 53.6428 51.3171 53.7018 51.2004C53.7609 51.0837 53.8542 50.9245 53.909 50.8467C53.9748 50.7536 54.1435 50.6199 54.4006 50.4576C54.616 50.3214 55.0184 50.0629 55.295 49.8835C55.5719 49.7038 55.806 49.5525 55.8159 49.5475C55.8258 49.5422 55.9722 49.3551 56.1416 49.1312C56.311 48.9073 56.5236 48.6289 56.6145 48.5122C56.7054 48.3955 56.885 48.1726 57.0137 48.017C57.1428 47.8614 57.4222 47.5353 57.6347 47.2919C57.8476 47.0489 58.11 46.7546 58.2183 46.6383C58.3268 46.5222 58.6858 46.1505 59.0164 45.8123C59.3471 45.4742 59.8245 45.0123 60.0777 44.7855C60.3306 44.5592 60.6489 44.2776 60.785 44.1602C60.9208 44.0427 61.1889 43.8199 61.3799 43.665C61.5712 43.5101 61.7968 43.3357 61.8814 43.2773C61.9659 43.219 62.0727 43.1394 62.119 43.1005C62.1657 43.0616 62.2583 42.9905 62.3252 42.9427C62.392 42.895 62.6219 42.7368 62.8359 42.5915C63.0498 42.4465 63.4077 42.2165 63.6316 42.0807C63.8554 41.9449 64.3329 41.6849 64.6925 41.5028C65.0522 41.3206 65.3715 41.172 65.4016 41.1724C65.4316 41.1724 65.4716 41.1586 65.49 41.1416C65.5084 41.1243 65.6668 41.0543 65.8419 40.986C66.0169 40.9177 66.2793 40.8212 66.4254 40.7713C66.5711 40.7214 66.7543 40.6655 66.8321 40.6468C66.9099 40.6284 67.1009 40.581 67.2565 40.5414C67.4121 40.5018 67.6748 40.4438 67.84 40.4123C68.0051 40.3808 68.3316 40.3345 68.565 40.309C68.7984 40.2839 69.1446 40.2609 69.3342 40.2581V40.2581ZM46.6939 44.1347C46.615 44.1591 46.4828 44.1789 46.4 44.1789C46.3173 44.1786 46.1065 44.2245 45.9314 44.2808C45.7564 44.3374 45.5099 44.4375 45.3833 44.5036C45.257 44.5698 45.0526 44.6872 44.9292 44.7643C44.8058 44.8414 44.583 44.9949 44.4341 45.1053C44.2852 45.216 44.0359 45.4119 43.8803 45.541C43.7247 45.6702 43.4708 45.8902 43.3159 46.0299C43.161 46.1696 42.8345 46.4833 42.5909 46.727C42.3469 46.9707 41.9883 47.3446 41.7937 47.5582C41.5992 47.7715 41.4316 47.9544 41.421 47.964C41.4104 47.9735 41.2512 48.1581 41.0674 48.3739C40.8835 48.5897 40.6189 48.908 40.4796 49.0813C40.3403 49.2546 40.1316 49.516 40.0163 49.6618C39.901 49.8078 39.7525 50.002 39.686 50.0936C39.6199 50.1849 39.4469 50.4236 39.3016 50.6242C39.1562 50.8244 38.8995 51.1951 38.7308 51.448C38.5621 51.7009 38.253 52.1865 38.0437 52.5268C37.8343 52.8674 37.6281 53.2094 37.5853 53.2873C37.5422 53.3651 37.4117 53.5879 37.295 53.7825C37.1783 53.977 36.9615 54.3671 36.8133 54.649C36.6648 54.9309 36.5431 55.1817 36.5428 55.2061C36.5424 55.2305 36.5541 55.2507 36.5686 55.2514C36.5831 55.2518 36.6828 55.1456 36.7896 55.0155C36.8968 54.8853 37.0082 54.7428 37.0372 54.6993C37.0665 54.6558 37.2971 54.3548 37.55 54.0308C37.8028 53.7068 38.1176 53.3035 38.2491 53.1348C38.381 52.9657 38.5752 52.716 38.6806 52.5798C38.7863 52.4437 38.9416 52.2449 39.0254 52.1377C39.1096 52.0305 39.4006 51.6666 39.6726 51.3281C39.9445 50.9899 40.2228 50.6444 40.2907 50.5602C40.359 50.476 40.51 50.2914 40.6264 50.1495C40.7431 50.0077 40.9913 49.7166 41.178 49.5026C41.3651 49.2886 41.6282 49.0102 41.763 48.8836C41.9154 48.7407 42.1085 48.6045 42.2722 48.5235C42.4176 48.4521 42.6351 48.3725 42.7557 48.3467C42.9099 48.3138 43.0029 48.3106 43.0697 48.3353C43.1521 48.3661 43.1783 48.416 43.2635 48.7067L43.3618 49.0428C43.1882 49.18 42.9615 49.3947 42.7465 49.6087C42.5315 49.8227 42.2591 50.1092 42.1417 50.2454C42.0243 50.3815 41.8252 50.6203 41.6997 50.7759C41.5741 50.9316 41.3043 51.2817 41.0999 51.5541C40.8958 51.8264 40.6246 52.1925 40.4976 52.3676C40.3707 52.5427 40.0092 53.0761 39.6948 53.5525C39.3804 54.029 39.077 54.4909 39.0204 54.5783C38.9642 54.6657 38.8114 54.9126 38.6809 55.1265C38.5504 55.3405 38.392 55.5952 38.3291 55.6925C38.2661 55.7897 38.1745 55.9411 38.1261 56.0285C38.0776 56.1159 37.9422 56.3468 37.8251 56.5414C37.708 56.7359 37.5005 57.0861 37.3636 57.3195C37.2267 57.553 37.0637 57.8395 37.0007 57.9562C36.9381 58.0729 36.8427 58.2402 36.7889 58.3276C36.7348 58.415 36.5831 58.6859 36.4512 58.9289C36.3196 59.1723 36.0427 59.7053 35.8358 60.1138C35.6293 60.5224 35.3679 61.0558 35.2551 61.2988C35.1427 61.5421 34.9033 62.0911 34.7232 62.5191C34.5429 62.947 34.29 63.5837 34.1609 63.9339C34.0319 64.2841 33.848 64.8171 33.7525 65.1188C33.6566 65.4205 33.5304 65.834 33.4717 66.0384C33.413 66.2429 33.2927 66.7123 33.2043 67.0819C33.1159 67.4515 33.0031 67.9609 32.9532 68.2138C32.9034 68.4667 32.8234 68.9919 32.7757 69.381C32.728 69.7701 32.6728 70.3509 32.653 70.672C32.6332 70.9932 32.6169 71.371 32.6166 71.5121C32.6166 71.6532 32.6286 71.776 32.6431 71.7848C32.6576 71.7936 32.8051 71.777 32.9702 71.7473C33.1357 71.7179 33.414 71.672 33.5891 71.6451C33.7642 71.6182 34.0467 71.5712 34.2168 71.5407C34.3869 71.5103 34.6656 71.4612 34.8357 71.4311C35.0058 71.4014 35.2806 71.3543 35.4458 71.3267C35.6113 71.2995 35.8896 71.2521 36.0646 71.2217C36.2397 71.1913 36.5421 71.1435 36.7366 71.1152C36.9311 71.0873 37.2416 71.0392 37.4262 71.0084C37.6108 70.9776 37.8658 70.9362 37.992 70.9168C38.1186 70.8973 38.2856 70.892 38.3634 70.9048C38.4412 70.9175 38.5448 70.9483 38.5932 70.973C38.642 70.9981 38.7078 71.048 38.74 71.0841C38.7722 71.1202 38.8199 71.2196 38.8461 71.3048C38.8754 71.4 38.9419 71.5011 39.0176 71.5662L39.1414 71.6723C38.9939 71.788 38.8588 71.8711 38.7456 71.9316C38.6325 71.9924 38.4369 72.0674 38.3103 72.0989C38.1841 72.1304 37.985 72.1725 37.8682 72.1926C37.7515 72.2124 37.5447 72.2528 37.4085 72.2818C37.2723 72.3111 37.0418 72.3589 36.8957 72.3882C36.75 72.4172 36.5272 72.4632 36.4006 72.4901C36.2744 72.517 35.9561 72.5806 35.6933 72.6316C35.4309 72.6825 35.1126 72.7465 34.986 72.7738C34.8598 72.8006 34.6087 72.8523 34.4287 72.888C34.225 72.9287 34.1015 72.9701 34.1015 72.9977C34.1019 73.0221 34.1058 73.0419 34.1107 73.0415C34.1157 73.0415 34.2151 73.0253 34.3318 73.0054C34.4485 72.9856 34.7031 72.9467 34.8976 72.9188C35.0921 72.8908 35.4185 72.8424 35.6226 72.8113C35.827 72.7798 36.1612 72.7324 36.3652 72.7059C36.5696 72.6793 36.8879 72.6337 37.0725 72.605C37.2571 72.576 37.5836 72.5265 37.7975 72.4943C38.0115 72.4625 38.3379 72.4133 38.5225 72.385C38.7071 72.3567 38.9992 72.3139 39.1714 72.2899L39.4841 72.246C40.0135 71.6737 40.2228 71.4403 40.2907 71.3579C40.359 71.2758 40.5348 71.0678 40.6812 70.8959C40.8279 70.724 41.0896 70.4085 41.2629 70.1945C41.4359 69.9805 41.7216 69.6152 41.8981 69.3821C42.0742 69.1493 42.3019 68.8391 42.4045 68.6923C42.5067 68.5459 42.7557 68.1794 42.9573 67.8777C43.1588 67.576 43.4216 67.1625 43.5411 66.9581C43.6607 66.7536 44.0186 66.0614 44.3361 65.4195C44.6541 64.7775 45.042 63.9816 45.1983 63.6509C45.3546 63.3202 45.617 62.755 45.7811 62.3953C45.9456 62.0355 46.1182 61.6472 46.1648 61.5329C46.2115 61.4183 46.2656 61.3164 46.2851 61.3069C46.3045 61.297 46.3484 61.3267 46.3827 61.3734C46.417 61.4197 46.5164 61.5655 46.6037 61.6967L46.7625 61.9354C46.4308 62.9633 46.2688 63.4288 46.1885 63.6332C46.1083 63.8377 45.8282 64.538 45.5665 65.1895C45.3048 65.8411 45.0385 66.5099 44.9752 66.6751C44.9119 66.8403 44.8365 67.0317 44.8079 67.0996C44.7796 67.1675 44.7449 67.2711 44.7312 67.3295C44.7064 67.4345 44.7068 67.4349 44.7729 67.3649C44.8097 67.3259 44.9798 67.0631 45.1516 66.7812C45.3232 66.4993 45.5035 66.1966 45.5523 66.1092C45.6011 66.0218 45.7161 65.8227 45.8077 65.6671C45.8989 65.5114 46.0856 65.1853 46.2225 64.942C46.3594 64.699 46.5475 64.3566 46.6409 64.1815C46.7346 64.0064 46.8718 63.7517 46.9461 63.6155C47.0203 63.4794 47.31 62.9064 47.5901 62.3422C47.8701 61.778 48.2263 61.0381 48.3822 60.6975C48.5378 60.3572 48.7207 59.943 48.7886 59.7778C48.8561 59.6126 48.9841 59.3021 49.0725 59.0881C49.161 58.8741 49.3311 58.4365 49.451 58.1154C49.5708 57.7942 49.6897 57.4681 49.7151 57.3903C49.7406 57.3125 49.8096 57.0974 49.8679 56.9128C49.9263 56.7281 50.0228 56.4176 50.0822 56.223C50.142 56.0285 50.2636 55.5588 50.3531 55.1796C50.4426 54.8004 50.5469 54.3385 50.5851 54.1538C50.6233 53.9692 50.6926 53.5869 50.7389 53.3049C50.7856 53.023 50.8528 52.5296 50.8885 52.2085C50.938 51.7624 50.9533 51.3539 50.9533 50.4753C50.9533 49.5609 50.9398 49.2246 50.8882 48.8305C50.8521 48.5582 50.7778 48.1443 50.7227 47.9109C50.6675 47.6774 50.5558 47.2954 50.4741 47.062C50.3924 46.8285 50.2583 46.5021 50.1759 46.3369C50.0935 46.1717 49.9584 45.9248 49.8757 45.7886C49.7926 45.6525 49.6681 45.4696 49.5984 45.3819C49.5291 45.2942 49.4082 45.1513 49.33 45.0635C49.2518 44.9758 49.0676 44.8039 48.9212 44.6812C48.7744 44.5584 48.5272 44.3961 48.3716 44.32C48.216 44.244 47.9854 44.1563 47.8588 44.1248C47.7326 44.0933 47.4776 44.0618 47.293 44.0544C47.1084 44.0473 46.9301 44.0523 46.8973 44.0657C46.8647 44.0792 46.7731 44.1103 46.6939 44.1347V44.1347ZM37.3201 73.9785C37.1744 74.0086 36.9357 74.057 36.7896 74.086C36.6439 74.115 36.413 74.1631 36.2768 74.1925C36.1407 74.2222 35.9101 74.2685 35.764 74.2958C35.6183 74.3234 35.3715 74.3715 35.2159 74.4033C35.0603 74.4351 34.8297 74.4822 34.7031 74.5084C34.5768 74.5342 34.2426 74.6053 33.9604 74.6661C33.6786 74.7273 33.4034 74.7885 33.3497 74.8026C33.2956 74.8168 33.2524 74.8518 33.2535 74.8812C33.2545 74.9105 33.3065 75.0294 33.3691 75.1454C33.4317 75.2618 33.5707 75.446 33.6775 75.555C33.814 75.6943 33.9247 75.7711 34.0488 75.8128C34.1461 75.8457 34.3013 75.8723 34.3936 75.8719C34.4859 75.8719 34.6691 75.8461 34.8003 75.815C34.9315 75.7838 35.2382 75.6621 35.4811 75.5451C35.7244 75.4276 36.0905 75.2197 36.2945 75.0835C36.4989 74.947 36.8568 74.6827 37.0902 74.4963C37.3236 74.3099 37.5659 74.1094 37.6288 74.0507C37.6918 73.9919 37.7353 73.9318 37.7261 73.9173C37.7169 73.9028 37.6879 73.8908 37.6621 73.8908C37.6359 73.8908 37.6083 73.8982 37.6002 73.9074C37.592 73.9166 37.4661 73.9488 37.3201 73.9785V73.9785ZM54.5704 74.0524C54.604 74.0927 54.7348 74.2434 54.8611 74.3877C54.9877 74.532 55.1387 74.6979 55.197 74.7567C55.2554 74.8154 55.3986 74.948 55.5153 75.0509C55.632 75.1542 55.8548 75.3159 56.0104 75.4103C56.166 75.5047 56.397 75.6172 56.5232 75.66C56.6498 75.7025 56.8404 75.746 56.9476 75.7559C57.0682 75.7676 57.2429 75.7516 57.4073 75.7141C57.5534 75.6809 57.808 75.5865 57.9732 75.504C58.1387 75.422 58.3611 75.2943 58.4683 75.2211C58.5754 75.1475 58.7144 75.041 58.7777 74.9844C58.841 74.9275 58.8888 74.8727 58.8838 74.8621C58.8789 74.8514 58.6762 74.8599 58.4329 74.8808C58.0708 74.9123 57.8855 74.9087 57.4073 74.8614C57.0173 74.8224 56.7358 74.7743 56.5586 74.7163C56.4129 74.6686 56.0309 74.526 55.7098 74.3994C55.3891 74.2728 55.0786 74.1476 55.0202 74.121C54.9619 74.0945 54.8384 74.0397 54.7461 73.9994C54.6538 73.959 54.5729 73.9261 54.5665 73.9261C54.5598 73.9261 54.5446 73.9382 54.5322 73.9527C54.5198 73.9672 54.5371 74.0121 54.5704 74.0524Z" fill="white"/>
<path fill-rule="evenodd" clip-rule="evenodd" d="M54.2261 15.0001C55.1307 14.9984 56.117 15.0136 56.4187 15.0341C56.7203 15.0543 57.1659 15.0864 57.4089 15.1052C57.6522 15.1243 58.0179 15.1558 58.2223 15.1752C58.4267 15.1943 58.745 15.235 58.9296 15.2651C59.1142 15.2951 59.377 15.3415 59.5131 15.368C59.6493 15.3945 59.9198 15.4172 60.1143 15.4182C60.3088 15.4193 60.4917 15.4285 60.521 15.4384C60.5504 15.4486 60.8128 15.4808 61.1045 15.5102C61.3963 15.5395 61.8019 15.5862 62.0063 15.6145C62.2107 15.6428 62.5368 15.6902 62.7313 15.7203C62.9258 15.7504 63.2204 15.7981 63.3856 15.8264C63.5507 15.8547 63.8216 15.9028 63.9868 15.9332C64.1519 15.9633 64.4228 16.0121 64.588 16.0415C64.7531 16.0708 65.0477 16.1278 65.2422 16.1677C65.4367 16.2077 65.7313 16.2717 65.8965 16.3103C66.0616 16.3485 66.404 16.4284 66.6568 16.4875C66.9097 16.5469 67.4189 16.6764 67.7885 16.775C68.1581 16.8741 68.5322 16.976 68.6196 17.0011C68.7069 17.0265 68.8505 17.0658 68.9379 17.0884C69.0252 17.1111 69.4712 17.248 69.9281 17.3926C70.385 17.5373 70.8507 17.6862 70.9625 17.7237C71.0742 17.7612 71.3448 17.8563 71.5637 17.9352C71.7826 18.0141 72.0174 18.1 72.0853 18.1266C72.1532 18.1527 72.3446 18.2253 72.5097 18.2879C72.6749 18.3501 72.9854 18.4725 73.1993 18.5595C73.4133 18.6469 73.6679 18.7502 73.7652 18.7898C73.8624 18.829 74.0534 18.9132 74.1895 18.9765C74.3257 19.0402 74.5407 19.1357 74.667 19.1891C74.7932 19.2422 75.1992 19.4374 75.5688 19.622C75.9383 19.807 76.4635 20.0858 76.7358 20.2414C77.0081 20.397 77.2864 20.5675 77.3547 20.6199C77.4229 20.6726 77.5658 20.7737 77.673 20.8448C77.7801 20.9159 77.917 21.0341 77.9771 21.1073C78.0376 21.1805 78.0981 21.2802 78.1122 21.329C78.131 21.3945 78.114 21.4518 78.0468 21.5501C77.9831 21.6431 77.8869 21.7146 77.726 21.7889C77.5998 21.8472 77.4721 21.895 77.4431 21.895C77.4141 21.895 77.3954 21.9148 77.4021 21.9392C77.4088 21.9636 77.5527 22.087 77.7214 22.2133C77.8905 22.3396 78.1833 22.5546 78.3721 22.6908C78.5613 22.827 78.9228 23.1043 79.176 23.307C79.4288 23.51 79.8242 23.8361 80.0548 24.0321C80.2854 24.2284 80.5577 24.4601 80.6599 24.5478C80.7618 24.6355 80.9789 24.8247 81.1423 24.9687C81.3057 25.1127 81.7976 25.5675 82.235 25.98C82.6729 26.392 83.365 27.0786 83.7734 27.5055C84.1819 27.9324 84.6759 28.4566 84.8711 28.6699C85.0664 28.8832 85.4243 29.2861 85.6669 29.5655C85.9091 29.8449 86.2709 30.2747 86.4707 30.5205C86.6702 30.7663 86.9648 31.1335 87.125 31.3358C87.2852 31.5385 87.4715 31.7794 87.5398 31.8713C87.608 31.9633 87.7403 32.1398 87.8337 32.2636C87.9274 32.3874 88.0908 32.6077 88.1969 32.7538C88.3033 32.8996 88.3896 33.0471 88.3893 33.081C88.3889 33.1242 88.3376 33.1578 88.2206 33.1917C88.1283 33.2186 87.949 33.2681 87.8227 33.3017C87.6965 33.3357 87.521 33.3856 87.4337 33.4128C87.3463 33.44 87.1313 33.5033 86.9563 33.5529C86.7812 33.6027 86.4629 33.6901 86.249 33.7477C86.035 33.8054 85.8122 33.8659 85.7539 33.8822C85.6955 33.8988 85.449 33.9716 85.2057 34.0442C84.9627 34.1167 84.6522 34.2044 84.5161 34.2398C84.3799 34.2748 83.9502 34.3989 83.5612 34.5157C83.1722 34.632 82.7584 34.7541 82.6417 34.7862C82.525 34.8184 82.2704 34.8927 82.0759 34.9514C81.8814 35.0101 81.6667 35.0795 81.5985 35.1056C81.5033 35.1421 81.4609 35.1435 81.4153 35.112C81.3828 35.089 81.2395 34.9267 81.097 34.7509C80.9548 34.5751 80.7586 34.3388 80.6613 34.2256C80.5641 34.1124 80.2673 33.7789 80.0021 33.4842C79.7369 33.1896 79.2036 32.63 78.8174 32.241C78.4312 31.8519 77.9234 31.3584 77.6889 31.1445C77.4544 30.9305 77.0965 30.6114 76.8932 30.4356C76.6898 30.2598 76.3486 29.9726 76.1346 29.7972C75.9206 29.6217 75.4828 29.2794 75.1621 29.0367C74.8413 28.7937 74.4672 28.5171 74.331 28.4216C74.1948 28.3261 73.9084 28.1319 73.6944 27.9901C73.4805 27.8482 73.2053 27.6643 73.0833 27.5815C72.961 27.4984 72.7587 27.3591 72.6335 27.2713C72.5083 27.1836 72.306 27.0439 72.1836 26.9608C72.0616 26.8777 71.7946 26.7044 71.5902 26.5763C71.3858 26.4479 70.988 26.2028 70.7061 26.0316C70.4242 25.8604 70.1615 25.7083 70.1226 25.6942C70.0837 25.68 70.0122 25.6415 69.9634 25.6086C69.915 25.5757 69.7795 25.4964 69.6628 25.4324C69.5461 25.3684 69.2756 25.2248 69.0616 25.1134C68.8477 25.002 68.5853 24.864 68.4781 24.8064C68.371 24.7491 68.0371 24.5856 67.7354 24.4434C67.4338 24.3013 67.0045 24.1067 66.7806 24.0109C66.5567 23.915 66.3102 23.8082 66.2324 23.7732C66.1546 23.7382 66.0273 23.6844 65.9495 23.6536C65.8717 23.6225 65.6171 23.5235 65.3837 23.4333C65.1503 23.3431 64.9197 23.2529 64.8709 23.2331C64.8224 23.2129 64.3567 23.0551 63.8365 22.8818C63.3162 22.7089 62.7352 22.5256 62.5456 22.4751C62.3561 22.4245 62.0976 22.3559 61.971 22.3219C61.8444 22.2883 61.5979 22.2253 61.4228 22.1818C61.2478 22.1387 61.0172 22.0807 60.91 22.0534C60.8029 22.0262 60.5327 21.9703 60.3088 21.9293C60.085 21.8883 59.7829 21.8317 59.6369 21.8034C59.4912 21.7751 59.2284 21.7277 59.0534 21.698C58.8783 21.6686 58.5682 21.6212 58.3638 21.5933C58.1593 21.5657 57.6978 21.5119 57.3382 21.4741C56.9785 21.4366 56.3975 21.3959 56.0474 21.3842C55.6972 21.3726 55.2439 21.3538 55.0395 21.3428C54.835 21.3319 54.1348 21.3414 53.4834 21.3641C52.832 21.3867 51.9804 21.4359 51.5914 21.473C51.2024 21.5105 50.6931 21.5646 50.4597 21.5936C50.2263 21.6226 49.884 21.6697 49.6994 21.698C49.5148 21.7266 49.2679 21.7666 49.1512 21.7871C49.0345 21.8073 48.8913 21.8387 48.8329 21.8564C48.7746 21.8745 48.6632 21.8996 48.5854 21.9127C48.5076 21.9254 48.2611 21.9809 48.0372 22.0361C47.8133 22.0913 47.5032 22.1705 47.3476 22.2126C47.192 22.2543 47.0169 22.3021 46.9586 22.3184C46.9002 22.3346 46.6933 22.3895 46.4988 22.4408C46.3043 22.4917 46.0734 22.5568 45.986 22.5854C45.8987 22.6137 45.6678 22.6869 45.4733 22.7478C45.2787 22.809 44.8331 22.9533 44.483 23.0693C44.1329 23.1853 43.6675 23.3505 43.4486 23.4364C43.2297 23.5224 43.0387 23.5924 43.0242 23.5924C43.0097 23.5921 42.7194 23.7116 42.3788 23.8581C42.0386 24.0045 41.7479 24.124 41.7334 24.1237C41.7189 24.1237 41.5039 24.2206 41.256 24.3398C41.0081 24.4587 40.6778 24.6171 40.5222 24.6918C40.3666 24.7664 40.0405 24.9333 39.7972 25.0631C39.5542 25.193 39.0687 25.4727 38.7186 25.685C38.3684 25.8972 37.9667 26.1458 37.8256 26.2378C37.6848 26.3294 37.5017 26.4522 37.4189 26.5098C37.3361 26.5678 37.1494 26.7026 37.0034 26.8091C36.8577 26.9159 36.6189 27.0994 36.4732 27.2169C36.3275 27.3343 36.0648 27.5586 35.8897 27.7149C35.7143 27.8716 35.4201 28.1542 35.2351 28.3431C34.9041 28.6819 34.8984 28.6855 34.8493 28.6069C34.81 28.5443 34.8047 28.4545 34.8252 28.191C34.8397 28.006 34.8779 27.7319 34.9105 27.5819C34.9434 27.4316 34.9617 27.3085 34.9522 27.3081C34.9427 27.3081 34.7991 27.3944 34.6339 27.5002C34.4688 27.606 34.2537 27.7354 34.1565 27.7874C34.0592 27.8398 33.8524 27.971 33.6967 28.0789C33.5411 28.1867 33.2151 28.4227 32.9718 28.6031C32.7288 28.7831 32.3964 29.0307 32.233 29.1534C32.07 29.2758 31.879 29.4166 31.8086 29.4661C31.7386 29.5156 31.4581 29.736 31.1858 29.956C30.9135 30.176 30.4771 30.5492 30.2158 30.7854C29.9548 31.0217 29.4162 31.5335 29.019 31.9226C28.6219 32.3117 28.1271 32.8203 27.9199 33.0531C27.7127 33.2855 27.44 33.5896 27.3134 33.7286C27.1868 33.8677 26.9615 34.123 26.8126 34.296C26.6637 34.4693 26.338 34.8655 26.0891 35.1767C25.8397 35.488 25.4649 35.9733 25.2555 36.2555C25.0465 36.5378 24.8297 36.8321 24.7742 36.9099C24.7183 36.9877 24.6023 37.1469 24.516 37.2636C24.4297 37.3803 24.3045 37.5636 24.2381 37.6704C24.1712 37.7772 24.0743 37.9208 24.0227 37.9887C23.971 38.0566 23.8851 38.1921 23.8317 38.2894C23.7783 38.3866 23.7147 38.4899 23.6906 38.5193C23.6662 38.5486 23.5672 38.7078 23.4699 38.873C23.373 39.0382 23.1994 39.3409 23.0845 39.545C22.9695 39.7491 22.7778 40.1074 22.4426 40.7653L21.9079 41.1367C21.614 41.3408 21.2062 41.6273 21.0018 41.7734C20.7978 41.9191 20.483 42.1451 20.303 42.2757C20.1226 42.4058 19.9037 42.5643 19.816 42.6272C19.7283 42.6902 19.2194 43.0687 18.6844 43.4684C18.1496 43.8684 17.465 44.3933 17.1637 44.6352C16.8624 44.8768 16.5108 45.1637 16.3832 45.2723C16.2551 45.3809 16.0504 45.5492 15.9277 45.6465C15.8053 45.7438 15.6295 45.8792 15.5376 45.9472C15.4456 46.0151 15.0379 46.3235 14.6315 46.6323C14.2248 46.9411 13.8369 47.2492 13.7686 47.3171C13.7004 47.385 13.6251 47.4306 13.6006 47.4189C13.5702 47.4041 13.5632 47.35 13.5773 47.247C13.5886 47.1643 13.6449 46.858 13.7021 46.5661C13.7594 46.2743 13.8387 45.9001 13.8786 45.7349C13.9182 45.5697 13.9911 45.2751 14.0402 45.0806C14.0894 44.886 14.1661 44.5758 14.211 44.3908C14.2556 44.2058 14.3472 43.8956 14.414 43.7011C14.4812 43.5066 14.5958 43.1723 14.669 42.9583C14.7422 42.7443 14.8494 42.4497 14.9074 42.304C14.965 42.1579 15.0577 41.9273 15.1129 41.7911C15.1684 41.6549 15.2451 41.4558 15.2837 41.3489C15.3222 41.2421 15.5047 40.8042 15.6893 40.3762C15.8736 39.9483 16.1275 39.3753 16.2534 39.1029C16.3796 38.8305 16.6353 38.3053 16.822 37.9357C17.0088 37.566 17.2429 37.1126 17.3419 36.9276C17.4413 36.7426 17.5594 36.5279 17.6043 36.4501C17.6492 36.3723 17.7171 36.2527 17.7553 36.1848C17.7935 36.1169 17.9102 35.91 18.0142 35.725C18.1185 35.54 18.2384 35.3412 18.2808 35.2828C18.3236 35.2245 18.4011 35.0971 18.4538 34.9999C18.5061 34.9026 18.6267 34.7035 18.7215 34.5577C18.8166 34.4117 18.9538 34.197 19.0267 34.0802C19.0992 33.9635 19.247 33.746 19.3549 33.5971C19.4627 33.4482 19.6703 33.1571 19.816 32.9508C19.9621 32.7443 20.1608 32.4709 20.2581 32.3428C20.3553 32.2151 20.5145 32.0026 20.6117 31.8703C20.709 31.7383 20.8681 31.53 20.9654 31.4076C21.0626 31.2856 21.2759 31.0171 21.4393 30.8113C21.603 30.6054 21.8417 30.3118 21.9697 30.159C22.0981 30.0062 22.4412 29.6083 22.7319 29.2748C23.0226 28.9412 23.5159 28.3979 23.8282 28.0675C24.1404 27.7368 24.539 27.323 24.7141 27.1479C24.8891 26.9728 25.3269 26.5523 25.6866 26.2138C26.0463 25.8749 26.5559 25.4126 26.8183 25.1859C27.0807 24.9595 27.423 24.678 27.5786 24.5602C27.7342 24.4427 27.9358 24.2843 28.0267 24.2082C28.1172 24.1325 28.3322 23.9631 28.5041 23.8322C28.676 23.701 29.0392 23.4294 29.3115 23.2281C29.5838 23.0268 29.9099 22.7902 30.0365 22.7021C30.1631 22.6141 30.3778 22.4655 30.5139 22.3718C30.6501 22.278 31.0083 22.0358 31.3096 21.8331C31.6109 21.6308 32.0647 21.3379 32.3175 21.1823C32.5704 21.027 32.801 20.8855 32.8303 20.8682C32.8597 20.8508 33.0584 20.7348 33.2724 20.6103C33.4863 20.4858 33.8442 20.2803 34.0681 20.1537C34.2919 20.027 34.8249 19.7473 35.2528 19.5326C35.6807 19.3179 36.2416 19.0451 36.4994 18.9267C36.7572 18.8085 36.9761 18.7116 36.9857 18.7116C36.9952 18.7116 37.1904 18.6257 37.4189 18.5202C37.6474 18.4152 38.0572 18.238 38.3295 18.1269C38.6019 18.0155 38.9042 17.8935 39.0015 17.8553C39.0987 17.8167 39.3056 17.7382 39.4612 17.6802C39.6168 17.6222 39.7841 17.561 39.8326 17.5444C39.8814 17.5277 40.0083 17.4807 40.1155 17.44C40.2226 17.399 40.4691 17.312 40.6636 17.2469C40.8581 17.1815 41.256 17.0534 41.5478 16.9625C41.8395 16.8713 42.15 16.7743 42.2374 16.7471C42.3247 16.7199 42.4761 16.6749 42.5733 16.6477C42.6706 16.6201 42.8534 16.5703 42.98 16.5363C43.1066 16.5023 43.2817 16.4539 43.369 16.4284C43.4564 16.4029 43.8228 16.3106 44.1824 16.2236C44.5421 16.1363 45.0358 16.022 45.2787 15.9693C45.5221 15.9166 45.8322 15.8508 45.9684 15.8232C46.1045 15.7953 46.3432 15.7489 46.4988 15.7196C46.6544 15.6906 46.9172 15.6432 47.0824 15.6145C47.2475 15.5862 47.5499 15.5385 47.7543 15.5084C47.9587 15.4787 48.2925 15.431 48.497 15.4023C48.7014 15.3737 49.0593 15.327 49.2927 15.2983C49.5261 15.27 49.884 15.2301 50.0884 15.2095C50.2928 15.1894 50.5951 15.1575 50.7603 15.1391C50.9255 15.1208 51.387 15.0882 51.7859 15.067C52.1848 15.0458 52.5268 15.0228 52.5462 15.0161C52.5657 15.009 53.3214 15.0019 54.2261 15.0001V15.0001ZM105.664 34.2769C105.703 34.2755 105.767 34.296 105.806 34.3225C105.845 34.3487 105.964 34.5001 106.071 34.6585C106.24 34.9097 106.287 34.9546 106.434 35.0087C106.526 35.0427 106.61 35.0943 106.62 35.1237C106.63 35.153 106.607 35.2086 106.569 35.2475C106.531 35.2864 106.483 35.3897 106.462 35.4774C106.442 35.5651 106.397 35.6652 106.363 35.7006C106.329 35.7356 106.245 35.7784 106.177 35.7954C106.109 35.8123 105.966 35.8431 105.859 35.8636C105.752 35.8845 105.505 35.9333 105.311 35.9726C105.116 36.0115 104.949 36.0511 104.939 36.0599C104.929 36.0691 104.985 36.0858 105.063 36.0974C105.141 36.1088 105.316 36.1395 105.452 36.1657C105.588 36.1922 105.74 36.2287 105.788 36.2471C105.837 36.2654 105.934 36.3663 106.003 36.4713C106.073 36.5764 106.177 36.6959 106.233 36.7373C106.29 36.7783 106.471 36.8717 106.637 36.9446C106.802 37.0171 106.956 37.1027 106.979 37.1349C107.012 37.1816 107.009 37.1975 106.961 37.2169C106.929 37.23 106.815 37.242 106.708 37.2434C106.597 37.2449 106.46 37.2728 106.391 37.3078C106.303 37.3524 106.234 37.4355 106.143 37.6049C106.075 37.734 106.01 37.849 106 37.86C105.99 37.8709 105.887 37.9063 105.77 37.9385C105.654 37.9703 105.463 38.017 105.346 38.0421C105.229 38.0669 104.847 38.1617 104.497 38.2529C104.147 38.3438 103.789 38.4337 103.702 38.4528C103.614 38.4719 103.535 38.4938 103.525 38.5016C103.515 38.509 103.396 38.5384 103.259 38.5667C103.123 38.595 102.725 38.6926 102.375 38.7835C102.025 38.8744 101.675 38.9632 101.597 38.9809C101.52 38.9982 101.384 39.035 101.297 39.0619C101.15 39.1071 101.176 39.1093 101.65 39.0916C102.151 39.0732 102.167 39.075 102.322 39.1623C102.41 39.2115 102.541 39.3218 102.613 39.4071C102.687 39.4934 102.755 39.6179 102.766 39.6865C102.778 39.7544 102.774 39.846 102.758 39.8895C102.742 39.9327 102.642 40.0406 102.534 40.1283C102.427 40.2164 102.268 40.3218 102.181 40.3628C102.093 40.4038 101.926 40.4668 101.81 40.5022C101.693 40.5379 101.351 40.6309 101.049 40.7091C100.748 40.7873 100.414 40.8764 100.307 40.9068C100.199 40.9372 99.9369 41.0087 99.723 41.0656C99.509 41.1226 99.1508 41.2184 98.9273 41.2786C98.7038 41.339 98.4728 41.4016 98.4145 41.4179C98.3561 41.4342 98.221 41.4717 98.1139 41.501C98.0067 41.5304 97.7921 41.5895 97.6365 41.6319C97.4809 41.6747 97.2103 41.7458 97.0353 41.7904C96.8602 41.8346 96.5101 41.9304 96.2572 42.003C96.0044 42.0755 95.7101 42.1579 95.603 42.1858C95.4958 42.2141 95.3211 42.2583 95.214 42.2849C95.1068 42.311 94.9321 42.3577 94.825 42.3881C94.7178 42.4186 94.5908 42.4539 94.542 42.4667C94.4936 42.4797 94.3185 42.5289 94.153 42.5767C93.9875 42.6244 93.7651 42.6877 93.6579 42.7178C93.5508 42.7475 93.4079 42.7839 93.3396 42.7988C93.2714 42.8137 93.0967 42.8586 92.9506 42.8989C92.8049 42.9392 92.4944 43.0273 92.261 43.0945C92.0276 43.1617 91.7411 43.2353 91.6244 43.2579C91.5077 43.2802 91.1976 43.3209 90.9348 43.3481C90.6721 43.3753 90.306 43.415 90.1214 43.4362C89.9368 43.4578 89.7752 43.486 89.7628 43.4995C89.7501 43.5133 89.6808 43.6675 89.6086 43.8426C89.5365 44.0177 89.3834 44.3838 89.2688 44.6561C89.1538 44.9285 89.0601 45.1672 89.0605 45.1867C89.0608 45.2061 88.9904 45.3894 88.9045 45.5934C88.8182 45.7975 88.6994 46.0922 88.6407 46.2478C88.5816 46.4034 88.46 46.7218 88.3702 46.9552C88.2803 47.1887 88.1601 47.4911 88.1024 47.6273C88.0448 47.7634 87.9981 47.8908 87.9981 47.9102C87.9981 47.9297 87.926 48.1285 87.8372 48.3524C87.7484 48.5763 87.6515 48.8228 87.6215 48.9006C87.5918 48.9784 87.5469 49.098 87.5221 49.1659C87.4973 49.2338 87.4514 49.3573 87.4199 49.44C87.3888 49.5228 87.34 49.6501 87.312 49.723C87.2841 49.7959 87.2024 50.0067 87.1303 50.1917C87.0585 50.3766 86.9789 50.5913 86.9538 50.6692C86.9283 50.747 86.8739 50.8984 86.8325 51.0052C86.7908 51.112 86.7091 51.3271 86.6504 51.4827C86.5916 51.6383 86.4962 51.893 86.4378 52.0486C86.3798 52.2043 86.3186 52.3716 86.302 52.42C86.2854 52.4688 86.2412 52.588 86.2033 52.6853C86.1655 52.7826 86.0757 53.0213 86.0035 53.2159C85.9317 53.4104 85.8253 53.6969 85.7669 53.8525C85.7086 54.0082 85.6379 54.1953 85.6099 54.2681C85.5823 54.341 85.5353 54.4645 85.5063 54.5423C85.4773 54.6201 85.4303 54.7435 85.4023 54.8164C85.3744 54.8893 85.269 55.1719 85.1679 55.4442C85.0667 55.7166 84.9532 56.019 84.915 56.1163C84.8772 56.2135 84.833 56.3409 84.8167 56.3992C84.8008 56.4576 84.6816 56.7759 84.5518 57.1067C84.422 57.4374 84.3025 57.7557 84.2862 57.8141C84.2703 57.8724 84.2226 58.0076 84.1808 58.1147C84.1387 58.2219 84.0567 58.4366 83.998 58.5922C83.9396 58.7479 83.83 59.0503 83.755 59.2643C83.6797 59.4783 83.5612 59.8125 83.4912 60.0071C83.4212 60.2016 83.2447 60.7109 83.0987 61.1389C82.9526 61.5669 82.7991 62.0204 82.7581 62.147C82.7167 62.2736 82.5682 62.7271 82.4281 63.1551C82.2877 63.5831 82.0756 64.2356 81.956 64.6053C81.8368 64.9749 81.7155 65.3569 81.6862 65.4542C81.6572 65.5514 81.5872 65.7743 81.5309 65.9494C81.4747 66.1245 81.3569 66.4987 81.2689 66.7806C81.1808 67.0625 81.0578 67.4604 80.9955 67.6649C80.9333 67.8693 80.8385 68.1717 80.7851 68.3369C80.7317 68.5021 80.6624 68.7249 80.6309 68.8321C80.5994 68.9393 80.4767 69.3372 80.3582 69.7164C80.2394 70.0955 80.1199 70.4779 80.0926 70.5653C80.0654 70.6526 79.9614 70.971 79.8617 71.2727C79.762 71.5744 79.6545 71.8761 79.6226 71.9437C79.5788 72.0367 79.5056 72.0968 79.3174 72.1951C79.1148 72.3006 79.0515 72.3554 78.9691 72.4969C78.9136 72.592 78.81 72.7392 78.7392 72.824C78.6681 72.9089 78.5659 73.0363 78.5122 73.107C78.4411 73.2 78.4132 73.2796 78.41 73.3949C78.4079 73.4862 78.3994 73.5163 78.3905 73.4657C78.3824 73.4172 78.3378 73.2817 78.2922 73.165C78.2466 73.0483 78.1469 72.8573 78.0705 72.7406C77.9944 72.6238 77.8979 72.4449 77.8555 72.3426C77.8134 72.2404 77.7791 72.0894 77.7787 72.0066C77.7787 71.9239 77.8021 71.753 77.8307 71.6264C77.8594 71.4998 77.9173 71.2451 77.9598 71.0605C78.0019 70.8758 78.0411 70.6926 78.0471 70.6537C78.0532 70.6148 78.1225 70.3283 78.2013 70.017C78.2802 69.7058 78.3449 69.4154 78.3449 69.3715C78.3449 69.3276 78.3608 69.2841 78.3803 69.2742C78.3997 69.2643 78.416 69.2367 78.4167 69.2123C78.4171 69.1879 78.4054 69.1794 78.3902 69.1936C78.375 69.2074 78.2908 69.1911 78.2035 69.1571C78.1161 69.1232 78.0097 69.0641 77.9669 69.0256C77.9244 68.9874 77.8647 68.8961 77.8342 68.8232C77.8038 68.7504 77.7791 68.6588 77.7791 68.6199C77.7791 68.581 77.7352 68.5166 77.6818 68.4773C77.6245 68.4349 77.5336 68.4062 77.4608 68.408C77.3925 68.4094 77.3169 68.3903 77.2921 68.3648C77.2589 68.3312 77.2486 68.1622 77.2528 67.7179C77.2578 67.1863 77.2507 67.1032 77.1917 67.002C77.1549 66.9387 77.1128 66.887 77.0983 66.887C77.0838 66.8867 77.0718 66.8708 77.0718 66.8513C77.0718 66.8319 77.0279 66.7487 76.9745 66.6667C76.9211 66.5843 76.8504 66.4212 76.8175 66.3041C76.7846 66.1867 76.7687 66.0774 76.7821 66.0608C76.7956 66.0442 76.8182 65.8928 76.8324 65.7248C76.8465 65.5564 76.8652 65.387 76.8737 65.3481C76.8826 65.3092 76.9317 65.1022 76.9827 64.8882C77.0339 64.6742 77.1782 64.0935 77.3034 63.5972C77.429 63.101 77.5542 62.6157 77.5817 62.5184C77.6093 62.4211 77.6744 62.1983 77.7264 62.0232C77.7784 61.8481 77.8678 61.5379 77.9251 61.3335C77.9824 61.129 78.091 60.7711 78.1663 60.5376C78.242 60.3042 78.3389 59.994 78.382 59.8479C78.4248 59.7022 78.6151 59.121 78.8047 58.5569C78.9942 57.9927 79.1845 57.4356 79.2276 57.3189C79.2708 57.2022 79.3595 56.9475 79.4246 56.7529C79.49 56.5584 79.6251 56.1923 79.7245 55.9394C79.8242 55.6865 79.9264 55.4159 79.9515 55.3381C79.9766 55.2603 80.0566 55.0452 80.1291 54.8606C80.2012 54.676 80.3303 54.3576 80.4159 54.1532C80.5011 53.9487 80.5718 53.7659 80.5725 53.7464C80.5736 53.727 80.668 53.4882 80.7826 53.2159C80.8976 52.9435 81.1356 52.3786 81.3117 51.9602C81.4881 51.5418 81.6324 51.1877 81.6331 51.1732C81.6335 51.1587 81.7233 50.9518 81.8329 50.7134C81.9422 50.475 82.084 50.1527 82.1481 49.9971C82.2121 49.8415 82.3779 49.4517 82.5173 49.1305C82.6562 48.8094 82.831 48.4114 82.9059 48.2463C82.9809 48.0811 83.169 47.6672 83.3239 47.3266C83.4792 46.9863 83.6412 46.628 83.6843 46.5308C83.7271 46.4335 83.8031 46.2662 83.853 46.1594C83.9029 46.0526 84.0765 45.6822 84.2388 45.337C84.4503 44.8864 84.5189 44.7092 84.4807 44.7092C84.4517 44.7092 84.352 44.7332 84.2597 44.7622C84.1674 44.7916 84.0121 44.8383 83.9149 44.8662C83.8176 44.8942 83.4357 45.0066 83.0661 45.1159C82.6966 45.2252 82.3224 45.3363 82.235 45.3625C82.1477 45.3886 81.909 45.4573 81.7046 45.5149C81.5002 45.5729 81.0945 45.695 80.8028 45.7862C80.511 45.8775 80.1927 45.9744 80.0955 46.0009C79.9982 46.0278 79.7595 46.0992 79.565 46.1601C79.3705 46.2209 79.1636 46.2842 79.1053 46.3012C79.0469 46.3178 78.7445 46.4102 78.4333 46.5064C78.1221 46.6022 77.6843 46.7405 77.4608 46.8134C77.2373 46.8859 76.9027 46.9934 76.7181 47.0518C76.5335 47.1105 76.2428 47.2042 76.0727 47.2601C75.9026 47.316 75.7314 47.362 75.6925 47.362C75.6536 47.362 75.2438 47.4879 74.7819 47.6414C74.32 47.7953 73.6555 48.0199 72.6688 48.3602L72.3859 48.3029C72.2303 48.271 72.0036 48.2374 71.882 48.2279C71.7603 48.2187 71.6213 48.195 71.5725 48.1755C71.5241 48.1561 71.4325 48.1401 71.3692 48.1398C71.3059 48.1398 71.1029 48.189 70.9183 48.2491C70.6831 48.3258 70.5081 48.3598 70.3348 48.3623C70.1986 48.364 69.968 48.3524 69.822 48.3365C69.5748 48.3092 69.5362 48.3145 69.2561 48.4167C69.091 48.4769 68.8919 48.5367 68.8141 48.549C68.7186 48.5642 68.6295 48.5533 68.54 48.5151C68.4671 48.4839 68.3794 48.4153 68.3455 48.3626C68.3034 48.2979 68.285 48.2038 68.2882 48.0708C68.2907 47.9633 68.3257 47.7871 68.3664 47.6803C68.407 47.5735 68.5053 47.3981 68.5846 47.2912C68.6638 47.1844 68.772 47.062 68.8243 47.0192C68.8802 46.9743 69.0977 46.8958 69.3445 46.8314C69.578 46.7706 70.0794 46.6418 70.4585 46.5456C70.8377 46.4494 71.1761 46.3628 71.21 46.3532C71.2539 46.3412 71.2776 46.2871 71.2917 46.1682C71.3027 46.0759 71.3275 45.9206 71.3469 45.8234C71.366 45.7261 71.4413 45.5192 71.5142 45.3635C71.5973 45.186 71.6854 45.0533 71.7511 45.007C71.8084 44.9667 71.9669 44.897 72.103 44.8524C72.2392 44.8079 72.3785 44.7573 72.4125 44.7403C72.4468 44.723 72.4743 44.6696 72.4743 44.6207C72.4743 44.5723 72.4294 44.4807 72.3746 44.4174C72.3198 44.3541 72.248 44.2628 72.2151 44.214C72.1822 44.1655 72.1557 44.0739 72.1557 44.0106C72.1561 43.93 72.2123 43.8136 72.5313 43.3474L72.759 43.3092C72.8846 43.2883 73.2099 43.2041 73.4822 43.1224C73.7545 43.0407 74.0491 42.9491 74.1365 42.9191C74.2238 42.8886 74.3434 42.843 74.4017 42.8172C74.4601 42.7914 74.7865 42.6881 75.1267 42.5869C75.4673 42.4861 76.0957 42.3015 76.5236 42.1766C76.9515 42.0518 77.7073 41.8303 78.2035 41.6843C78.6996 41.5385 79.4635 41.315 79.901 41.188C80.3388 41.0607 80.9036 40.8951 81.1564 40.8198C81.4093 40.7445 81.823 40.6253 82.0759 40.5549C82.3288 40.4845 82.663 40.3879 82.8186 40.3398C82.9742 40.2921 83.412 40.164 83.7911 40.0551C84.1702 39.9461 84.839 39.7555 85.2764 39.631C85.7142 39.5065 86.2631 39.3494 86.4965 39.2819C86.7299 39.2143 87.4383 39.0145 88.0703 38.8376C88.7026 38.6604 89.6415 38.3976 90.1568 38.2529C90.6721 38.1083 91.1813 37.9675 91.2885 37.9399C91.3956 37.9127 91.6899 37.831 91.9427 37.7584C92.1956 37.6859 92.4502 37.6145 92.5086 37.5996C92.5669 37.5848 92.742 37.5374 92.8976 37.4942C93.0532 37.4511 93.3237 37.3793 93.4988 37.3347C93.6738 37.2901 94.1353 37.166 94.5244 37.0595C94.9134 36.9527 95.2716 36.8576 95.3201 36.848C95.3689 36.8385 95.5358 36.7949 95.6914 36.7511C95.847 36.7076 96.0221 36.6595 96.0804 36.6446C96.1388 36.6298 96.3138 36.582 96.4694 36.5389C96.625 36.4954 96.8478 36.4359 96.9645 36.4069C97.0812 36.3776 97.2322 36.3415 97.3005 36.3266C97.3687 36.3118 97.5795 36.258 97.7691 36.2067C97.9586 36.1558 98.2691 36.0727 98.4587 36.0224C98.6482 35.9719 98.8831 35.9093 98.9803 35.8834C99.0776 35.8573 99.2685 35.8116 99.4047 35.7816C99.5409 35.7515 99.9309 35.6535 100.271 35.564C100.612 35.4742 101.025 35.3684 101.191 35.3288C101.356 35.2896 101.976 35.1399 102.57 34.9967C103.163 34.8534 103.752 34.7127 103.878 34.6837C104.005 34.6547 104.251 34.5981 104.427 34.5574C104.602 34.5171 104.856 34.4587 104.992 34.4276C105.129 34.3965 105.319 34.3505 105.417 34.3254C105.514 34.2999 105.625 34.2783 105.664 34.2769V34.2769ZM94.153 48.1752C94.182 48.1737 94.2237 48.1928 94.245 48.2183C94.2665 48.2434 94.3019 48.3594 94.3238 48.4762C94.3461 48.5929 94.3967 48.8713 94.4366 49.0952C94.4763 49.3191 94.5169 49.5338 94.5265 49.5727C94.5364 49.6116 94.5668 49.7707 94.5944 49.9264C94.6216 50.082 94.6683 50.3448 94.6973 50.51C94.7266 50.6752 94.7754 50.9539 94.8059 51.129C94.8363 51.3041 94.8851 51.6224 94.9141 51.8364C94.9434 52.0504 94.9908 52.3846 95.0195 52.5792C95.0481 52.7737 95.0962 53.1158 95.1259 53.3397C95.156 53.5636 95.203 53.9456 95.2306 54.1886C95.2582 54.4319 95.2967 54.7821 95.3158 54.9667C95.3349 55.1514 95.3682 55.5019 95.3894 55.7449C95.4102 55.9882 95.4513 56.7123 95.4799 57.3543C95.5086 57.9962 95.5319 58.768 95.5319 59.0697C95.5322 59.3715 95.5089 60.1355 95.4803 60.7675C95.4516 61.4 95.4109 62.1 95.3894 62.3239C95.3678 62.5478 95.3342 62.8739 95.3144 63.049C95.2946 63.224 95.2568 63.5424 95.2302 63.7564C95.2037 63.9704 95.1577 64.2968 95.1284 64.4815C95.0994 64.6661 95.0283 65.0403 94.9707 65.3127C94.9134 65.585 94.8398 65.9112 94.8073 66.0378C94.7751 66.1644 94.7277 66.3473 94.7022 66.4446C94.6768 66.5418 94.6046 66.7965 94.542 67.0105C94.4794 67.2245 94.4084 67.4792 94.3843 67.5764C94.3599 67.6737 94.2987 67.8888 94.2481 68.0539C94.1976 68.2191 94.0526 68.6651 93.9263 69.0443C93.7997 69.4235 93.6632 69.8214 93.6225 69.9286C93.5819 70.0358 93.5108 70.2264 93.4648 70.353C93.4185 70.4797 93.3612 70.6388 93.3371 70.7067C93.3135 70.7747 93.2502 70.942 93.1968 71.0781C93.1434 71.2143 93.0281 71.5008 92.9404 71.7148C92.853 71.9288 92.6811 72.3426 92.5588 72.6345C92.4368 72.9263 92.3155 73.1969 92.2896 73.2358C92.2638 73.2747 92.243 73.3263 92.243 73.3507C92.2433 73.3751 92.099 73.6935 91.9226 74.0581C91.7464 74.4228 91.553 74.8168 91.4929 74.9336C91.4331 75.0503 91.2489 75.4005 91.0837 75.7117C90.9185 76.023 90.7113 76.405 90.6232 76.5606C90.5352 76.7163 90.3601 77.0187 90.2346 77.2327C90.1087 77.4467 89.8944 77.7968 89.7582 78.0108C89.6221 78.2248 89.3724 78.6068 89.2037 78.8597C89.0347 79.1126 88.8345 79.4069 88.7588 79.5141C88.6831 79.6213 88.5724 79.7804 88.5127 79.8678C88.4533 79.9552 88.344 80.1065 88.2701 80.2038C88.1962 80.3011 87.8906 80.7068 87.5911 81.1058C87.2915 81.5048 86.9545 81.9451 86.842 82.0845C86.7299 82.2242 86.5595 82.4393 86.4636 82.562C86.3678 82.6851 86.2168 82.8669 86.1277 82.9663C86.0389 83.0653 85.8387 83.2949 85.6831 83.476C85.5275 83.6574 85.2729 83.9496 85.1173 84.1257C84.9617 84.3015 84.532 84.7628 84.1624 85.1508C83.7929 85.5392 83.18 86.1543 82.8009 86.5179C82.4218 86.8818 81.8832 87.3845 81.6048 87.6352C81.3262 87.8864 81.0387 88.1393 80.9658 88.1976C80.893 88.256 80.7388 88.3851 80.6235 88.4845C80.5082 88.5842 80.2387 88.8039 80.0247 88.9733C79.8108 89.1424 79.565 89.3398 79.4784 89.4112C79.3917 89.483 79.0851 89.7168 78.7969 89.9308C78.5087 90.1448 78.1737 90.3917 78.0528 90.479C77.9318 90.5664 77.6574 90.7585 77.4435 90.9053C77.2291 91.0524 76.9586 91.2367 76.8419 91.3152C76.7252 91.3934 76.4822 91.5518 76.3022 91.6668C76.1222 91.7821 75.788 91.9912 75.5596 92.1319C75.3311 92.2724 75.0807 92.4216 75.0029 92.463C74.9251 92.5047 74.6945 92.6377 74.4901 92.7587C74.2857 92.8793 73.8642 93.1145 73.553 93.2808C73.2418 93.4474 72.613 93.7661 72.1561 93.9889C71.6991 94.2117 71.1977 94.4508 71.0421 94.5198C70.8865 94.5884 70.6159 94.7087 70.4409 94.7865C70.2658 94.8643 69.9793 94.9871 69.8043 95.0592C69.6292 95.1314 69.3746 95.235 69.2385 95.2895C69.1023 95.3439 68.9035 95.4242 68.7964 95.4681C68.6892 95.5123 68.5223 95.5785 68.4251 95.6153C68.3278 95.652 68.1368 95.7199 68.0007 95.7663C67.8645 95.813 67.6658 95.8844 67.5586 95.9258C67.4515 95.9668 67.2287 96.0485 67.0635 96.1073C66.8984 96.1656 66.7152 96.2261 66.6568 96.2413C66.5985 96.2565 66.4315 96.3099 66.2855 96.3598C66.1398 96.4097 65.9644 96.4666 65.8965 96.4861C65.8286 96.5055 65.6372 96.5635 65.4721 96.6148C65.3069 96.6665 65.0523 96.7404 64.9063 96.7793C64.7606 96.8186 64.5933 96.8635 64.5349 96.8794C64.4766 96.8953 64.3015 96.9434 64.1459 96.9866C63.9903 97.0297 63.7834 97.0867 63.6862 97.1136C63.5889 97.1404 63.3739 97.1939 63.2087 97.2324C63.0436 97.271 62.7253 97.3435 62.5014 97.3937C62.2776 97.4439 61.8638 97.5334 61.582 97.5928C61.3001 97.6523 60.9419 97.7241 60.7862 97.7527C60.6306 97.7814 60.3601 97.827 60.185 97.8542C60.01 97.8811 59.7076 97.9271 59.5131 97.9557C59.3186 97.9844 59.1199 98.0173 59.071 98.0282C59.0226 98.0396 58.8394 98.065 58.6644 98.0852C58.4893 98.1054 58.0755 98.1446 57.7449 98.1719C57.4142 98.1994 56.9368 98.238 56.6839 98.2578C56.4311 98.2776 55.9777 98.3102 55.676 98.3303C55.3744 98.3508 54.4195 98.3671 53.5541 98.3667C52.6781 98.3664 51.5178 98.343 50.9371 98.3144C50.3635 98.2857 49.7584 98.2465 49.5933 98.2267C49.4281 98.2069 49.1653 98.1747 49.0097 98.1552C48.8541 98.1358 48.5755 98.0951 48.3909 98.0647C48.2063 98.0343 47.8798 97.9876 47.6659 97.961C47.4519 97.9345 47.094 97.8878 46.8702 97.8567C46.6463 97.8259 46.368 97.7838 46.2513 97.7637C46.1346 97.7435 45.8322 97.6873 45.5793 97.6385C45.3265 97.5897 44.8731 97.4941 44.5714 97.4259C44.2698 97.358 43.92 97.2777 43.7934 97.2469C43.6668 97.2165 43.4918 97.1716 43.4044 97.1468C43.3171 97.122 43.142 97.0739 43.0154 97.04C42.8888 97.0057 42.6264 96.9321 42.4319 96.8766C42.2374 96.8207 41.9987 96.751 41.9014 96.7217C41.8041 96.6923 41.3904 96.5586 40.9819 96.4249C40.3673 96.2233 40.1721 96.1748 39.8502 96.143C39.6363 96.1214 39.2625 96.0804 39.0192 96.0514C38.7762 96.0224 38.4657 95.9824 38.3295 95.9622C38.1934 95.9421 37.9628 95.9007 37.8168 95.8703C37.6711 95.8399 37.4483 95.7917 37.3216 95.7635C37.195 95.7348 36.9726 95.6803 36.8265 95.6421C36.6808 95.6039 36.3626 95.5024 36.1192 95.4165C35.8763 95.3305 35.5895 95.2258 35.4827 95.1837C35.3759 95.1416 35.2486 95.0946 35.1998 95.079C35.1513 95.0631 34.8645 94.9326 34.5632 94.7886C34.2619 94.6447 33.9036 94.4653 33.7675 94.3896C33.6313 94.3143 33.3845 94.1728 33.2193 94.0752C33.0542 93.9776 32.7037 93.7551 32.4413 93.5811C32.1789 93.407 31.717 93.0788 31.4157 92.8517C31.1144 92.6246 30.6525 92.2593 30.3901 92.04C30.1277 91.8207 29.6899 91.4401 29.4176 91.1946C29.1453 90.9488 28.0316 89.8636 26.9428 88.783C25.8539 87.7024 24.695 86.5476 24.3675 86.2169C24.04 85.8861 23.4908 85.3039 23.1467 84.923C22.8029 84.5424 22.386 84.0663 22.2208 83.8658C22.0557 83.6652 21.869 83.4434 21.8067 83.3734C21.7441 83.303 21.6925 83.21 21.6918 83.1661C21.6911 83.1194 21.7158 83.0798 21.7523 83.0703C21.7862 83.0614 21.9337 83.0208 22.0794 82.9797C22.2254 82.9383 22.5275 82.8577 22.7513 82.8C22.9752 82.7424 23.1898 82.6879 23.2287 82.6787C23.2676 82.6699 23.3472 82.6462 23.4056 82.6267C23.4639 82.6073 23.5435 82.5846 23.5824 82.5768C23.6213 82.5691 23.8041 82.522 23.9891 82.4725C24.174 82.423 24.3569 82.3742 24.3958 82.3639C24.4347 82.354 24.5779 82.3211 24.7141 82.2907C24.8502 82.2603 25.0493 82.2132 25.1561 82.186C25.2629 82.1591 25.4221 82.1177 25.5098 82.094C25.5975 82.0707 25.7644 82.0293 25.8811 82.0021C25.9978 81.9752 26.1251 81.9458 26.164 81.937C26.2029 81.9285 26.2984 81.9101 26.3762 81.8963C26.5159 81.8719 26.5223 81.8754 26.842 82.1694C27.0202 82.3335 27.3137 82.579 27.4945 82.7151C27.6748 82.8513 28.0709 83.2093 28.3743 83.511C28.6778 83.8127 29.1513 84.2662 29.4264 84.5191C29.7016 84.772 30.0556 85.0903 30.2137 85.2265C30.3714 85.3627 30.5288 85.49 30.5631 85.5094C30.597 85.5289 30.7593 85.6573 30.9231 85.7949C31.0872 85.9325 31.3004 86.0998 31.397 86.1663C31.4939 86.2331 31.6562 86.3513 31.758 86.4291C31.8595 86.5069 32.0749 86.6629 32.2362 86.7761C32.3978 86.8893 32.7447 87.1209 33.0071 87.2911C33.2695 87.4612 33.5641 87.6508 33.6614 87.712C33.7586 87.7735 33.9814 87.9094 34.1565 88.0141C34.3315 88.1184 34.6739 88.3158 34.9168 88.4519C35.1601 88.5885 35.5021 88.7763 35.6772 88.8697C35.8522 88.963 36.2342 89.1576 36.5259 89.3019C36.8177 89.4462 37.1519 89.61 37.2686 89.6659C37.3853 89.7218 37.7315 89.8799 38.0378 90.0171C38.344 90.1543 38.6545 90.2884 38.7274 90.3149C38.8003 90.3415 39.0828 90.4546 39.3551 90.5664C39.6274 90.6782 40.0493 90.8409 40.2923 90.9279C40.5356 91.0149 40.8139 91.1143 40.9112 91.1486C41.0084 91.1829 41.1835 91.2441 41.3002 91.2848C41.4169 91.3251 41.6793 91.4089 41.8837 91.4705C42.0881 91.532 42.3187 91.6042 42.3965 91.6307C42.4743 91.6572 42.6734 91.7192 42.8386 91.7676C43.0037 91.8164 43.4893 91.9452 43.9172 92.0538C44.3451 92.162 44.918 92.2985 45.1903 92.3569C45.4626 92.4152 45.8368 92.4871 46.0214 92.5164C46.206 92.5461 46.5165 92.5935 46.711 92.6222C46.9055 92.6508 47.1807 92.6858 47.3225 92.6996C47.4643 92.7138 47.5916 92.7117 47.6054 92.6954C47.6192 92.6791 47.8455 92.701 48.1079 92.7438C48.5486 92.8164 48.7006 92.8224 50.0884 92.8217C51.3155 92.8206 51.7537 92.8068 52.4755 92.7453C52.9618 92.7039 53.5425 92.6476 53.7663 92.62C53.9902 92.5928 54.3558 92.5458 54.5797 92.5153C54.8036 92.4853 55.1296 92.4375 55.3047 92.4092C55.4797 92.3806 55.7503 92.3328 55.9059 92.3031C56.0615 92.2731 56.3002 92.2257 56.4364 92.1977C56.5725 92.1698 57.0022 92.0743 57.3912 91.9855C57.7802 91.8971 58.1859 91.7991 58.293 91.7683C58.4002 91.7375 58.5194 91.7032 58.5583 91.6923C58.5972 91.6813 58.7644 91.6332 58.9296 91.5854C59.0947 91.5377 59.3416 91.4677 59.4777 91.4295C59.6139 91.3916 60.0835 91.2395 60.521 91.0917C60.9588 90.9442 61.6191 90.7051 61.9887 90.5608C62.3582 90.4168 62.9552 90.1692 63.3148 90.0107C63.6745 89.8526 64.2715 89.5771 64.641 89.3988C65.0106 89.2206 65.5439 88.951 65.8257 88.8003C66.1076 88.6497 66.4818 88.4456 66.6568 88.3469C66.8319 88.2479 67.2297 88.0162 67.5409 87.8319C67.8521 87.6476 68.21 87.4301 68.3366 87.3484C68.4633 87.267 69.0199 86.8995 69.5737 86.5317C70.1279 86.1642 70.6449 85.8338 70.7231 85.7981C70.8012 85.762 70.9526 85.7252 71.0597 85.716C71.2069 85.7033 71.2843 85.7153 71.378 85.7655C71.465 85.8126 71.5333 85.8946 71.6079 86.0421C71.7016 86.2275 71.714 86.2883 71.714 86.5589C71.714 86.8164 71.702 86.8818 71.639 86.9657C71.5976 87.0208 71.4852 87.1216 71.389 87.1896C71.2924 87.2575 70.9494 87.5125 70.6262 87.7555C70.3029 87.9988 69.9327 88.2694 69.8036 88.3568C69.6745 88.4442 69.5104 88.5605 69.439 88.6154C69.3675 88.6698 69.1819 88.7996 69.0263 88.904C68.8707 89.0083 68.6401 89.1587 68.5135 89.2386C68.3869 89.3185 68.1644 89.4614 68.0184 89.5562C67.8727 89.6507 67.5222 89.8703 67.2403 90.044C66.9585 90.2173 66.5207 90.4808 66.2678 90.629C66.0149 90.7772 65.5602 91.0308 65.2571 91.1928C64.9536 91.3545 64.4734 91.6067 64.1894 91.7524C63.9054 91.8985 63.6763 92.0226 63.6798 92.0283C63.6833 92.0343 63.8294 92.0046 64.0045 91.9625C64.1795 91.9204 64.4741 91.8383 64.6587 91.7803C64.8433 91.7223 65.0505 91.6548 65.1184 91.6304C65.1863 91.6056 65.2981 91.5663 65.366 91.5426C65.4339 91.5193 65.6093 91.4624 65.755 91.4164C65.9011 91.3704 66.1076 91.2986 66.2148 91.2569C66.3219 91.2151 66.4492 91.1684 66.4977 91.1529C66.5465 91.1373 66.7611 91.0574 66.9751 90.9753C67.1891 90.8932 67.6506 90.7065 68.0007 90.5608C68.3508 90.415 68.709 90.2626 68.7964 90.2223C68.8837 90.1816 69.0988 90.0617 69.2738 89.9552C69.4489 89.8491 69.7749 89.6415 69.9988 89.494C70.2227 89.3465 70.6283 89.0593 70.9006 88.8555C71.1729 88.6521 71.5152 88.3893 71.6609 88.2716C71.807 88.1534 72.1253 87.8804 72.3682 87.6646C72.6116 87.4488 72.9942 87.0827 73.2191 86.8507C73.444 86.6187 73.7241 86.3258 73.8412 86.1992C73.9583 86.0725 74.1482 85.8518 74.2631 85.7082C74.3784 85.5646 74.5793 85.3022 74.7098 85.1246C74.8399 84.947 74.9923 84.7384 75.0482 84.6605C75.1041 84.5827 75.1911 84.4473 75.2413 84.3599C75.2915 84.2725 75.3583 84.177 75.3902 84.1477C75.4411 84.1003 75.4528 84.102 75.4973 84.1654C75.5246 84.2043 75.5896 84.3716 75.6416 84.5367C75.7155 84.7713 75.7311 84.8724 75.7116 84.9966C75.6979 85.0839 75.6572 85.259 75.6208 85.3856C75.5843 85.5123 75.5292 85.6874 75.498 85.7747C75.4666 85.8621 75.37 86.0771 75.2837 86.2522C75.1971 86.4273 75.1345 86.5745 75.144 86.5794C75.1539 86.5844 75.2897 86.4889 75.4461 86.3672C75.6024 86.2455 75.7735 86.1143 75.8266 86.0754C75.8796 86.0365 76.0402 85.9091 76.1838 85.7924C76.3273 85.6757 76.5045 85.5324 76.5777 85.4741C76.6509 85.4157 76.8341 85.2647 76.9851 85.1381C77.1358 85.0114 77.5153 84.6782 77.8286 84.397C78.1416 84.1158 78.5949 83.6942 78.8358 83.4597C79.0766 83.2252 79.5448 82.747 79.8769 82.3968C80.2086 82.0466 80.7055 81.4977 80.9814 81.1765C81.2572 80.8553 81.5645 80.4896 81.6646 80.363C81.7647 80.2364 82.0494 79.8625 82.2973 79.5318C82.5452 79.2011 82.7836 78.8827 82.8267 78.8244C82.8702 78.766 83.0198 78.5513 83.1591 78.3468C83.2988 78.1424 83.4406 77.9358 83.4746 77.887C83.5085 77.8386 83.6076 77.6872 83.6946 77.551C83.7819 77.4148 84.0082 77.0487 84.1982 76.7375C84.3881 76.4262 84.607 76.0601 84.6844 75.9239C84.7619 75.7878 84.9019 75.5409 84.9953 75.3757C85.0886 75.2105 85.2715 74.8681 85.4016 74.6152C85.5318 74.3623 85.7814 73.853 85.9561 73.4834C86.1312 73.1137 86.3112 72.7158 86.3561 72.5991C86.4007 72.4824 86.5128 72.2118 86.6044 71.9978C86.6963 71.7838 86.8162 71.4814 86.871 71.3257C86.9258 71.1701 87.004 70.9554 87.0447 70.8482C87.0853 70.7411 87.167 70.5182 87.2261 70.353C87.2848 70.1879 87.3704 69.9332 87.416 69.7871C87.4613 69.6414 87.5394 69.3945 87.5896 69.2389C87.6399 69.0832 87.7071 68.8685 87.7392 68.7613C87.7711 68.6542 87.8114 68.5272 87.8284 68.4784C87.8457 68.4299 87.9005 68.2308 87.9507 68.0362C88.0006 67.8417 88.0632 67.603 88.0894 67.5057C88.1152 67.4084 88.194 67.106 88.2644 66.8336C88.3344 66.5613 88.4306 66.1474 88.4784 65.914C88.5261 65.6805 88.5975 65.3463 88.6368 65.1712C88.6764 64.9961 88.7404 64.6937 88.779 64.4992C88.8175 64.3046 88.8653 64.0581 88.8847 63.9509C88.9038 63.8437 88.9356 63.629 88.9551 63.4734C88.9745 63.3178 89.0064 63.0472 89.0258 62.8721C89.0453 62.697 89.076 62.4664 89.0948 62.3592C89.1132 62.2521 89.1528 61.9737 89.1821 61.7402C89.2118 61.5068 89.2525 61.1007 89.2723 60.8383C89.2921 60.5758 89.308 60.2334 89.3077 60.0778C89.3073 59.8907 89.3296 59.7287 89.3738 59.6003C89.4109 59.4931 89.4817 59.2943 89.5315 59.1582C89.5814 59.022 89.6461 58.8469 89.6755 58.7691C89.7048 58.6913 89.76 58.548 89.7975 58.4507C89.8353 58.3535 89.9248 58.1147 89.9962 57.9202C90.0677 57.7256 90.1479 57.5106 90.1745 57.4427C90.201 57.3748 90.294 57.136 90.381 56.9121C90.468 56.6882 90.6218 56.2825 90.723 56.0102C90.8241 55.7378 90.938 55.4354 90.9762 55.3381C91.0144 55.2408 91.0837 55.0498 91.1304 54.9137C91.1771 54.7775 91.2962 54.4591 91.3953 54.2062C91.4939 53.9533 91.6135 53.635 91.6605 53.4988C91.7072 53.3627 91.8267 53.0443 91.9257 52.7914C92.0244 52.5385 92.1379 52.2361 92.1775 52.1194C92.2171 52.0026 92.3208 51.7243 92.4081 51.5004C92.4951 51.2765 92.5881 51.0377 92.6146 50.9698C92.6412 50.9019 92.7214 50.6868 92.7929 50.4923C92.8643 50.2978 92.9513 50.0671 92.986 49.9794C93.0206 49.8921 93.1076 49.6611 93.1791 49.4666C93.2509 49.272 93.357 48.9936 93.4153 48.8476C93.4737 48.7018 93.5479 48.5264 93.5808 48.4585C93.631 48.3538 93.6756 48.3227 93.8701 48.2565C93.9964 48.2134 94.124 48.1766 94.153 48.1752V48.1752ZM67.762 47.3302C67.7864 47.3284 67.8055 47.3546 67.8048 47.3885C67.8041 47.4225 67.745 47.53 67.6739 47.6273C67.6025 47.7245 67.53 47.86 67.5123 47.9279C67.495 47.9958 67.4737 48.1154 67.4653 48.1932C67.4571 48.271 67.4426 48.3863 67.4338 48.4496C67.4203 48.5434 67.3797 48.5886 67.2138 48.6951C67.066 48.7899 66.9765 48.8239 66.8867 48.8189C66.8188 48.815 66.6596 48.7963 66.533 48.7772C66.4064 48.7581 66.2077 48.734 66.091 48.7241C65.9743 48.7142 65.8583 48.6863 65.8332 48.6619C65.8077 48.6375 65.7879 48.5427 65.789 48.4496C65.7897 48.3573 65.7745 48.2738 65.755 48.2639C65.7356 48.2544 65.7196 48.1904 65.7196 48.1225C65.7196 48.0545 65.7356 47.9668 65.755 47.9279C65.7745 47.889 65.8261 47.8384 65.8699 47.8158C65.9138 47.7928 66.085 47.7617 66.2501 47.7461C66.4153 47.7306 66.7099 47.6938 66.9044 47.6641C67.1993 47.6195 67.2962 47.5873 67.4879 47.472C67.6145 47.3959 67.7376 47.3323 67.762 47.3302V47.3302ZM77.4392 74.5073C77.4997 74.5204 77.6687 74.5434 77.8144 74.5586C78.033 74.5816 78.1193 74.6106 78.3053 74.7245C78.4383 74.8059 78.5532 74.9063 78.5847 74.9689C78.614 75.0273 78.6604 75.1387 78.688 75.2165C78.7152 75.2943 78.7622 75.4776 78.7923 75.6233C78.822 75.7694 78.8609 75.9643 78.8786 76.0566C78.8991 76.1641 78.898 76.2501 78.8754 76.2953C78.8518 76.3425 78.8047 76.3661 78.7339 76.3661C78.6756 76.3661 78.5521 76.3838 78.4598 76.4053C78.3049 76.4418 78.2682 76.4358 77.9913 76.33C77.8258 76.2667 77.6702 76.1974 77.645 76.1754C77.6196 76.1539 77.5524 75.9848 77.4955 75.8001C77.4382 75.6155 77.3763 75.3287 77.3579 75.1635C77.3395 74.9983 77.3133 74.8232 77.2999 74.7744C77.2864 74.7259 77.2875 74.6403 77.3024 74.5848C77.3268 74.4935 77.3398 74.4861 77.4392 74.5073V74.5073Z" fill="white"/>
</svg>
