<svg width="109" height="114" viewBox="0 0 109 114" fill="none" xmlns="http://www.w3.org/2000/svg">
<path fill-rule="evenodd" clip-rule="evenodd" d="M58.2035 7C58.331 7 68.7772 10.5565 81.4242 14.9263C97.8987 20.5879 104.517 22.9323 104.725 23.1716C104.996 23.4905 105.012 24.3517 104.996 39.5345C104.996 48.3539 104.916 57.572 104.836 60.028C104.741 62.4841 104.597 65.5302 104.517 66.806C104.422 68.0819 104.246 70.1552 104.103 71.431C103.975 72.7069 103.688 74.9237 103.465 76.375C103.241 77.8263 102.763 80.1548 102.412 81.5582C102.061 82.9617 101.455 85.0509 101.056 86.1832C100.658 87.3155 100.004 88.9742 99.5892 89.8513C99.1746 90.7285 98.4569 92.0841 97.9785 92.8815C97.5 93.6789 96.6867 94.875 96.1923 95.5608C95.6819 96.2306 94.6293 97.4905 93.8479 98.3358C93.0823 99.197 91.7746 100.473 90.9772 101.175C90.1638 101.876 88.9517 102.865 88.2819 103.375C87.6121 103.87 86.9582 104.269 86.8466 104.253C86.7349 104.221 82.4927 98.9418 68.2349 80.7927L66.9431 80.1388C66.2414 79.772 65.1729 79.0862 64.5828 78.6078C63.9767 78.1293 63.0677 77.1884 62.5414 76.5345C61.9991 75.8806 61.3134 74.7961 60.9785 74.1423C60.6595 73.4884 60.197 72.372 59.9578 71.6703C59.7345 70.9685 59.3996 69.6767 59.2241 68.7996C59.0009 67.747 58.8573 66.2638 58.7935 64.4138C58.7298 62.3246 58.7776 61.0487 58.969 59.3104C59.1285 58.0345 59.3517 56.7746 59.4634 56.5194C59.591 56.2642 59.7185 55.8974 59.7504 55.722C59.7983 55.4828 59.8302 55.5147 59.8461 55.8336C59.8461 56.0888 59.9259 56.3121 60.0216 56.3599C60.1173 56.4078 60.181 56.8543 60.181 57.3487C60.181 57.8591 60.2927 58.8798 60.4203 59.6293C60.5638 60.3789 60.819 61.4474 60.9944 62.0216C61.1698 62.5957 61.5367 63.5526 61.8078 64.1746C62.0789 64.7966 62.6052 65.8332 62.9879 66.4871C63.3548 67.141 63.8013 67.7948 63.9608 67.9384C64.1203 68.0819 66.0819 68.9272 68.3147 69.8362C70.5474 70.7453 72.7642 71.6543 74.056 72.2285L75.4117 74.9716C76.1612 76.4867 77.1341 78.6237 77.5647 79.7242C77.9953 80.8246 78.5375 82.3556 78.7608 83.153C78.9841 83.9504 79.2073 84.6203 79.2552 84.6681C79.303 84.716 80.5789 84.7638 82.078 84.7957C83.5931 84.8276 84.9647 84.7957 85.1561 84.716C85.475 84.6043 85.3634 84.3811 83.5293 81.4785C82.4448 79.772 81.4879 78.1772 81.3923 77.922C81.2647 77.5552 81.2806 77.4914 81.5039 77.4914C81.6634 77.4914 83.7845 78.5918 86.2086 79.9634C88.6487 81.319 90.738 82.4194 90.8655 82.3875C90.9772 82.3716 92.4604 80.7448 94.1349 78.7673C95.8095 76.7897 97.1811 75.0832 97.1811 74.9716C97.1811 74.8759 94.2785 69.1664 90.7379 62.2927C87.1974 55.4349 84.2151 49.5341 84.0875 49.1832C83.9599 48.8164 83.8802 47.8116 83.8642 46.791C83.8642 45.8181 83.9121 44.5582 84.1035 42.8836L80.7862 40.6509C78.9681 39.4229 75.0767 36.7435 72.1423 34.7022C69.144 32.6129 66.7836 30.8586 66.7517 30.7151C66.7358 30.5556 67.1504 30.0134 67.7086 29.4392C68.2668 28.897 69.0483 27.9401 69.4629 27.3341C69.8776 26.7121 70.3879 25.819 70.5953 25.3405C70.8026 24.8621 71.0578 24.0806 71.1694 23.6181C71.2651 23.1716 71.3448 22.1828 71.3448 21.4332C71.3448 20.6836 71.2651 19.6948 71.1694 19.2323C71.0578 18.7858 70.7867 17.9724 70.5315 17.4461C70.2923 16.9198 69.9254 16.2181 69.3513 15.2772L65.1888 19.7108C62.9082 22.1509 60.3405 24.8621 59.5112 25.7392C58.1237 27.1905 57.9642 27.3181 57.725 27.0948C57.5815 26.9672 57.3263 26.2496 57.1509 25.5C56.9754 24.7504 56.7203 23.3948 56.5767 22.4698C56.4013 21.3535 56.3056 19.8224 56.3056 17.8448C56.3216 15.9151 56.4013 14.2884 56.5767 13.1401C56.7203 12.1672 56.9914 10.7797 57.1668 10.0302C57.3423 9.2806 57.5974 8.29181 57.725 7.82931C57.8685 7.31897 58.0599 7 58.2035 7V7ZM45.0621 9.40819C45.2216 9.48793 45.381 9.71121 45.4289 9.90259C45.4767 10.1099 45.7638 11.4974 46.0828 12.9806C46.3858 14.4638 46.928 16.7603 47.2629 18.0841C47.6138 19.3918 48.172 21.4491 48.5388 22.6293C48.8897 23.8095 49.5117 25.7552 49.9263 26.9353C50.3888 28.3069 50.6121 29.1522 50.5164 29.2797C50.4366 29.3754 49.5116 29.9017 48.4591 30.444C47.4065 30.9862 46.0828 31.7198 45.5086 32.0707C44.9345 32.4056 44.3285 32.6767 44.153 32.6448C43.9297 32.6129 43.3397 31.7677 42.2073 29.8858C41.2983 28.4026 39.6875 25.4203 38.5871 23.2672C37.5026 21.1142 36.1789 18.3552 35.6526 17.1272C35.1263 15.8991 34.5362 14.5276 34.3608 14.097C34.2013 13.6504 34.1056 13.2198 34.1535 13.1082C34.2172 12.9966 36.6254 12.0875 39.5121 11.0987C43.3556 9.75905 44.8388 9.3125 45.0621 9.40819ZM22.8302 17.0634C23.1013 17.0474 23.3405 17.3026 23.8509 18.116C24.2177 18.722 25.1267 20.0935 25.8603 21.194C26.6099 22.2944 28.0134 24.256 29.0022 25.5797C29.991 26.8875 31.6017 28.9448 32.5905 30.125C33.5793 31.3052 35.3177 33.2987 36.45 34.5427C37.5664 35.8026 38.4914 36.8552 38.4914 36.903C38.4914 36.9509 37.391 38.0672 36.0672 39.375C34.1854 41.225 33.5474 41.7513 33.3082 41.6875C33.1328 41.6556 31.8729 40.8104 30.5172 39.8375C29.1616 38.8487 27.0246 37.2379 25.7806 36.2491C24.5207 35.2444 22.6228 33.6655 21.5543 32.7246C20.4698 31.7996 18.2211 29.6625 16.5466 27.9879C14.872 26.3134 12.8944 24.2241 12.1289 23.347C11.3793 22.4698 10.7573 21.6246 10.7414 21.4651C10.7414 21.3216 10.9009 21.1142 11.1082 21.0345C11.2996 20.9388 13.931 20.0138 16.9612 18.9772C19.9914 17.9246 22.6228 17.0634 22.8302 17.0634ZM5.41466 33.9526C5.54224 33.9526 5.90905 34.1599 6.22802 34.4151C6.56293 34.6703 7.98233 35.6272 9.38578 36.5522C10.7892 37.4772 13.0858 38.8806 14.4892 39.694C15.8927 40.5073 18.9069 42.0862 21.1875 43.2026C23.4681 44.319 26.1634 45.5789 27.1681 46.0095C28.1728 46.4241 29.0979 46.8548 29.2095 46.9504C29.3211 47.0302 29.4168 47.1737 29.4168 47.2694C29.4009 47.3651 28.9384 48.2104 28.3483 49.1832C27.7741 50.156 27.0565 51.416 26.7535 52.006C26.4504 52.6121 26.0836 53.1543 25.9241 53.2341C25.7647 53.3138 25.047 53.25 24.0582 53.0746C23.181 52.8991 21.6341 52.5961 20.6293 52.3729C19.6246 52.1496 17.6789 51.6711 16.3233 51.3203C14.9677 50.9694 12.703 50.3315 11.2996 49.9009C9.89612 49.4703 7.95043 48.8164 6.99353 48.4655C6.02069 48.1147 5.19138 47.7319 5.12759 47.6203C5.06379 47.5246 5 44.5104 5 40.922C5 37.3496 5.04784 34.3194 5.09569 34.1918C5.14353 34.0642 5.28707 33.9526 5.41466 33.9526ZM73.466 44.319C73.5776 44.319 74.5504 44.9091 75.6349 45.6427C77.166 46.6474 77.8517 47.2216 78.6332 48.1466C79.1754 48.8004 79.6379 49.3746 79.6379 49.4224C79.6379 49.4703 79.5742 49.5819 79.5104 49.6935C79.4466 49.8052 78.9681 49.9647 78.4418 50.0763C77.9155 50.172 77.1819 50.2039 76.8151 50.156C76.3579 50.0923 75.9379 49.8849 75.5552 49.5341C75.2362 49.2629 74.7418 48.5612 74.4548 47.9871C74.1677 47.4129 73.753 46.456 73.5457 45.8341C73.3224 45.2121 73.1789 44.622 73.2108 44.5104C73.2427 44.4147 73.3703 44.319 73.466 44.319ZM5.84526 59.1509C6.13233 59.1509 7.50388 59.2625 8.90733 59.406C10.3108 59.5336 14.0267 59.6772 17.2004 59.725C20.3582 59.7729 23.0535 59.8845 23.181 59.9483C23.3884 60.0599 23.3565 60.3151 22.9737 61.8142C22.7185 62.7552 22.3358 64.3979 22.1285 65.4504C21.9211 66.503 21.6978 67.4121 21.6341 67.4759C21.5543 67.5397 20.2625 67.8905 18.7634 68.2414C17.2483 68.5923 14.8082 69.1026 13.341 69.3578C11.8578 69.6289 9.6569 69.9638 8.44483 70.1233C6.67457 70.3466 6.18017 70.3625 6.00474 70.1871C5.8931 70.0914 5.76552 69.7246 5.71767 69.3897C5.68578 69.0707 5.60603 68.2573 5.55819 67.6035C5.51034 66.9496 5.39871 64.8763 5.31897 63.0104C5.22328 61.1604 5.20733 59.5177 5.25517 59.3901C5.30302 59.2466 5.54224 59.1509 5.84526 59.1509ZM87.8992 72.356C88.0427 72.4039 88.6328 72.8186 89.2069 73.2651C89.7811 73.7117 90.7858 74.2858 91.4397 74.541C92.0936 74.8121 92.7474 75.1311 92.875 75.2746C93.0983 75.5138 93.0505 75.5457 92.4763 75.7052C92.1255 75.8009 91.2642 75.9285 90.5625 75.9763C89.6375 76.0401 89.2069 76.0082 89.0155 75.8647C88.872 75.753 88.5052 75.0513 88.2181 74.3017C87.9151 73.5522 87.6599 72.7867 87.644 72.5953C87.628 72.3242 87.6759 72.2763 87.8992 72.356ZM20.5496 75.5936C20.6453 75.5776 20.8047 75.6573 20.9164 75.769C21.0599 75.9125 21.1078 76.5983 21.1078 78.1293C21.1078 79.3095 21.2035 81.2552 21.3151 82.4513C21.4746 84.3492 21.4746 84.6681 21.2672 84.9233C21.1397 85.0828 20.0233 85.9599 18.7953 86.869C17.5672 87.778 15.5099 89.2293 14.2181 90.1065C12.9103 90.9677 11.7302 91.6694 11.5866 91.6375C11.3953 91.6216 10.9966 90.9996 10.4703 89.9311C10.0078 89.0061 9.24224 87.0763 8.76379 85.625C8.28535 84.1737 7.82285 82.5948 7.71121 82.1164C7.55172 81.3987 7.56767 81.2073 7.7431 81.0638C7.85474 80.9681 8.6681 80.6173 9.54526 80.2823C10.4224 79.9474 12.2565 79.2138 13.6121 78.6556C14.9677 78.0974 17.0569 77.1884 18.2371 76.6302C19.4172 76.072 20.4698 75.5936 20.5496 75.5936ZM23.0216 94.875C23.1172 94.875 23.2448 95.0345 23.3246 95.2259C23.4203 95.4332 23.7711 96.6612 24.122 97.9849C24.4728 99.2927 25.1905 101.653 25.7328 103.2C26.2591 104.763 26.6897 106.15 26.6897 106.278C26.6897 106.406 26.578 106.517 26.4504 106.517C26.3228 106.517 25.4457 106.007 24.5047 105.385C23.5478 104.747 22.1763 103.774 21.4267 103.2C20.6772 102.626 19.6565 101.797 19.1461 101.35C18.6039 100.872 18.2371 100.425 18.269 100.266C18.3009 100.122 19.1302 99.0854 20.1349 97.953C21.1397 96.8367 22.1603 95.6724 22.4155 95.3854C22.6547 95.1142 22.9418 94.875 23.0216 94.875Z" fill="white"/>
</svg>
