<svg width="109" height="114" viewBox="0 0 109 114" fill="none" xmlns="http://www.w3.org/2000/svg">
<path fill-rule="evenodd" clip-rule="evenodd" d="M59.1537 23.0012C59.9415 22.9931 60.6076 23.0248 60.9408 23.0979C61.2332 23.1548 61.5988 23.2686 61.7533 23.3499C61.9076 23.4311 62.3304 23.7153 62.6878 23.9915C63.0453 24.2596 63.866 24.9267 64.516 25.471C65.1659 26.0153 66.1489 26.8922 66.7093 27.4202C67.2699 27.9482 67.9118 28.493 68.1312 28.6311C68.3592 28.7775 69.2278 29.1351 70.0804 29.4436C70.9335 29.7442 72.7213 30.3937 74.0619 30.8811C75.4022 31.3685 77.1892 32.0509 78.0423 32.3841C78.8953 32.7171 80.4797 33.3748 81.5765 33.846C82.673 34.3089 83.8022 34.8291 84.0951 34.9837C84.3875 35.1461 84.9891 35.5278 85.4359 35.8284C85.8827 36.129 86.557 36.6333 86.9388 36.9339C87.3208 37.2346 88.6693 38.4856 89.9447 39.7122C91.2202 40.9389 94.4133 44.0503 97.0375 46.6175C99.6697 49.1927 102.31 51.8168 102.911 52.4505C103.512 53.0913 103.999 53.6673 104 53.7337C104 53.7986 103.732 54.1321 103.415 54.4651C102.871 55.0175 102.789 55.0664 102.456 55.0989C102.18 55.1152 101.814 55.2772 100.912 55.7971C100.263 56.1708 99.1665 56.8458 98.4759 57.3089C97.7854 57.7638 96.4848 58.7219 95.5912 59.4368C94.6975 60.1436 93.4384 61.1838 92.7884 61.7444C92.1466 62.2968 91.1064 63.2468 90.4808 63.8479C89.8634 64.4491 89.043 65.3269 88.6693 65.7981C88.2874 66.2693 87.5646 67.2689 87.0609 68.0325C86.5572 68.7962 85.4363 70.6237 84.5589 72.094C83.6897 73.5643 82.7223 75.2296 82.4134 75.7903C82.0966 76.3509 81.7064 77.1559 81.5277 77.5784C81.3571 78.0007 81.1705 78.4393 81.1136 78.553C81.065 78.6665 81.0328 78.7798 81.057 78.8206C81.0732 78.8531 81.0487 78.8782 81.0082 78.8782C80.9675 78.8782 80.9428 78.8126 80.9671 78.7395C80.9834 78.6582 81.0646 78.2273 81.1459 77.7805C81.2433 77.1876 81.2845 76.4971 81.2845 75.2219C81.2845 74.2633 81.219 72.7602 81.1459 71.8909C81.0727 71.0217 80.9836 69.9489 80.8861 68.7141L80.6429 68.763C80.5129 68.7955 80.1059 68.9498 79.7484 69.1204C79.3909 69.291 78.7903 69.6652 78.4085 69.9495C78.0267 70.2338 76.8974 71.2898 75.89 72.2971C74.8826 73.3045 73.6959 74.548 73.2572 75.0598C72.952 75.4163 69.8091 79.8711 67.7865 82.7337C67.8597 82.6099 67.9319 82.4864 68.0013 82.3714C68.2857 81.9002 68.5695 81.4608 68.6263 81.3958C68.7156 81.2981 68.7324 80.8593 68.7162 79.3245L68.6996 77.3753L68.472 78.0657C68.3422 78.4471 68.1882 78.8689 68.1312 78.9993C68.0256 79.2349 68.0254 79.2108 68.0091 78.6341L67.9925 78.0247L67.3187 79.9749L67.2377 78.2688C67.0266 78.9019 66.8719 79.2672 66.7582 79.4866C66.5632 79.8603 66.5462 79.9748 66.5462 80.8928C66.5462 81.7862 66.5304 81.8841 66.4086 81.8841C66.3274 81.8841 66.1893 81.9321 66.1 82.0051C66.0106 82.0701 65.9127 82.1272 65.8802 82.1272C65.8493 82.1253 65.8232 81.8224 65.8089 81.3977C65.8133 81.3761 65.8203 81.3542 65.8236 81.3313C65.8317 81.2176 65.8641 80.8357 65.9291 79.8284L65.7777 79.9885L65.7748 79.8118C65.705 79.9512 65.6367 80.0823 65.5736 80.2073C65.3804 80.4076 65.1814 80.5671 65.1332 80.551C65.0601 80.5267 65.1251 80.3891 65.3119 80.1536C65.466 79.9508 65.6362 79.8045 65.6771 79.8284C65.7177 79.8528 65.7833 79.8038 65.8158 79.7307C65.817 79.727 65.8297 79.7087 65.8509 79.676C65.8405 79.7066 65.8368 79.7256 65.8402 79.7307C65.8476 79.7518 65.9664 79.5508 66.1175 79.2747C66.2374 79.0975 66.3885 78.8747 66.5638 78.6175C66.5703 78.6155 66.5755 78.6143 66.5794 78.6175C66.6203 78.6446 66.6307 78.6156 66.6146 78.5432C68.2056 76.2097 71.6166 71.2498 71.6166 71.2249C71.6247 71.2004 71.6571 71.1434 71.6976 71.1028C71.7462 71.0624 71.746 71.0874 71.7054 71.1604C71.6408 71.2655 71.6492 71.2656 71.7787 71.1604C71.8518 71.0955 71.9166 70.9895 71.9085 70.9407C71.9085 70.8838 72.0227 70.7615 72.1527 70.6721C72.3069 70.5666 72.3717 70.4692 72.3392 70.4124C72.296 70.3421 72.3099 70.329 72.3802 70.3723C72.429 70.4045 72.5103 70.3799 72.5589 70.3313C72.5995 70.2745 72.6152 70.1929 72.5746 70.1604C72.5426 70.1201 72.5752 70.1042 72.64 70.1204C72.7049 70.1366 72.762 70.0876 72.7621 70.0227C72.7621 69.9577 72.8107 69.9088 72.8675 69.9251C72.9245 69.9331 73.1355 69.738 73.3548 69.4944C73.5661 69.2426 73.7533 69.0641 73.7777 69.0803C73.8026 69.1039 73.9327 69.0064 74.0785 68.8606C74.2166 68.7144 74.4519 68.5114 74.598 68.3977C74.7361 68.284 74.9145 68.1375 74.9876 68.0725C75.0608 68.0075 75.232 67.862 75.3783 67.7483C75.5164 67.6346 75.7111 67.4796 75.8167 67.4065C75.9225 67.3333 76.2471 67.0974 76.5394 66.8782C76.8318 66.667 77.5065 66.1966 78.0345 65.8391C78.5626 65.4817 79.5053 64.8228 80.139 64.3841C80.7726 63.9454 81.5282 63.4257 81.8207 63.2307C82.1131 63.0439 82.4384 62.8657 82.7552 62.7844L82.8685 64.4739C82.9579 65.7575 82.9664 66.6677 82.9095 68.26C82.8608 69.6409 82.8605 70.3479 82.9173 70.3479C82.958 70.356 83.0395 70.3071 83.0882 70.2503C83.137 70.1934 83.2012 70.0306 83.2337 69.9007C83.2662 69.7707 83.8358 68.5605 84.5101 67.22C85.1763 65.8795 85.8424 64.5796 85.9886 64.3196C86.1268 64.0677 86.7355 63.0847 87.3285 62.1262C87.9214 61.1759 88.6528 60.0547 88.9535 59.6321C89.2541 59.2097 89.807 58.5513 90.1888 58.1614C90.5707 57.7795 91.3177 57.0808 91.8539 56.6096C92.3901 56.1303 93.1866 55.4479 93.6253 55.0823C94.056 54.7248 94.8767 54.0587 95.4535 53.6038C96.1412 53.0569 96.7288 52.6667 97.2162 52.4339C97.6224 52.247 98.0691 51.9627 98.4916 51.5403L96.3871 49.4768C95.2335 48.3395 93.8686 47.0483 93.3568 46.6096C92.845 46.1628 91.9111 45.4148 91.2855 44.9436C90.66 44.4725 89.6367 43.7496 89.0111 43.3352C88.3855 42.9209 87.434 42.3363 86.8978 42.0276C86.3618 41.7271 85.6799 41.3369 85.3792 41.1663C84.9893 40.9469 84.8347 40.8165 84.8509 40.719C84.8673 40.5974 84.998 40.5646 85.7611 40.5159C86.2566 40.4915 86.8738 40.4433 87.1419 40.427C87.4095 40.4027 87.6365 40.3458 87.6537 40.2971C87.6618 40.2484 87.3698 40.0204 87.0042 39.801C86.6305 39.5736 85.5087 38.9727 84.5013 38.469C83.494 37.9654 82.105 37.2914 81.4144 36.9827C80.724 36.6659 79.5541 36.154 78.8148 35.8372C78.0756 35.5285 76.9058 35.0402 76.2152 34.7639C75.5246 34.4877 73.9478 33.8872 72.721 33.4241C71.4943 32.9692 70.121 32.4736 69.6742 32.3274C69.2273 32.1812 68.4802 31.9048 68.0091 31.718C67.538 31.5231 66.7502 31.2305 66.2464 31.0598C65.629 30.8405 65.3114 30.7676 65.2464 30.8245C65.1899 30.8819 65.1903 31.118 65.2552 31.637C65.304 32.0431 65.4662 32.7737 65.6205 33.261C65.7667 33.7565 65.9696 34.4475 66.0589 34.8049C66.1483 35.1624 66.2459 35.5608 66.3109 35.9426L66.141 35.7796C66.0516 35.6902 65.9698 35.5685 65.9779 35.5198C65.9775 35.4623 65.75 34.9836 65.474 34.4641C65.1978 33.9362 64.7594 33.1562 64.4994 32.7337C64.2395 32.3114 63.8337 31.7102 63.598 31.4094C63.3705 31.1008 62.956 30.5886 62.6878 30.2717C62.4197 29.9549 62.0456 29.5814 61.8587 29.4514C61.6722 29.3135 61.5176 29.1756 61.5091 29.1428C61.5091 29.1022 61.6481 29.0451 61.8187 28.9964C61.9814 28.9557 62.3875 28.883 62.7123 28.8342C63.0291 28.7936 63.3866 28.7043 63.5003 28.6555C63.614 28.5987 63.7595 28.4439 63.8246 28.3059C63.9139 28.1272 63.9225 27.9888 63.8656 27.7776C63.8086 27.5663 63.3942 27.0948 62.3382 26.0227C61.0713 24.7234 60.8598 24.5364 60.5755 24.4876C60.3481 24.4469 60.0473 24.4797 59.5599 24.6096C59.1781 24.7071 58.2513 24.9342 57.4877 25.1048C56.7243 25.2834 55.8555 25.5027 55.5384 25.5921C55.2216 25.6814 54.2544 25.9907 53.3851 26.2913C52.2559 26.6731 51.6949 26.9007 51.4349 27.1038C51.2078 27.274 50.9808 27.3712 50.8265 27.3714C50.6965 27.3714 50.2653 27.2415 49.8753 27.0872C49.4772 26.9328 48.803 26.7136 48.3724 26.5999C47.9337 26.4861 47.1538 26.3556 46.6419 26.3069C46.0003 26.2582 45.4154 26.2589 44.7738 26.3157C44.262 26.3644 43.563 26.4616 43.2298 26.5266C42.8967 26.5997 42.3846 26.7299 42.0921 26.8274C41.7591 26.933 41.3529 26.9983 40.9955 26.9983C40.4512 26.9902 40.3616 26.965 39.1673 26.3801C38.4769 26.039 37.7454 25.7222 37.5423 25.6653C37.3392 25.6085 37.0305 25.5921 36.8519 25.6165C36.6731 25.649 36.3074 25.7788 36.0394 25.9007C35.7714 26.0306 35.3006 26.2583 34.9837 26.4046C34.5777 26.5913 34.2606 26.8189 33.8871 27.2005C33.5703 27.5172 33.2452 27.9563 33.0746 28.2893C32.831 28.7683 32.7657 28.8338 32.5873 28.8176C32.4085 28.7933 32.3842 28.7605 32.4086 28.4925C32.4248 28.2085 32.4081 28.1839 32.2054 28.1839C32.0755 28.1839 31.742 28.2974 31.4496 28.4436C31.1002 28.6224 30.8478 28.818 30.7015 29.0374C30.5718 29.2159 30.4663 29.4186 30.4662 29.4837C30.4662 29.5487 30.5885 29.6948 30.7347 29.7923C30.8809 29.8979 31.1406 30.1742 31.3031 30.4016C31.4737 30.6372 31.8393 31.0518 32.6273 31.8479L33.0746 31.304C33.3183 31.0034 33.6673 30.6374 33.8461 30.4993C34.0248 30.3531 34.3581 30.142 34.5775 30.0364C34.805 29.9227 35.2196 29.7523 35.5121 29.6467C35.8044 29.5412 36.0561 29.4348 36.0804 29.4104C36.1049 29.3861 36.1539 29.3616 36.2025 29.3616C36.2521 29.3612 36.5358 29.2719 36.8519 29.1585C37.2663 29.0122 37.5919 28.9553 38.0306 28.9553C38.5177 28.9554 38.7289 28.9964 39.0863 29.1751C39.3381 29.2888 39.7038 29.5736 39.9232 29.801C40.1668 30.069 40.305 30.2883 40.305 30.4182C40.305 30.5399 40.2642 30.6134 40.2074 30.5891C40.1505 30.5729 39.7932 30.459 39.4115 30.3372C38.8022 30.1422 38.6231 30.1253 37.8675 30.1497C37.2339 30.1741 36.9329 30.2231 36.7054 30.345C36.5431 30.4262 36.4056 30.5159 36.4056 30.5403C36.4082 30.5655 36.634 30.679 36.9086 30.8001C37.1929 30.9219 37.5834 31.1656 37.7865 31.3362C37.9896 31.515 38.4604 32.0915 38.8421 32.6194C39.2239 33.1473 39.6551 33.8053 39.7933 34.0735C39.9396 34.3416 40.0609 34.6427 40.0609 34.7483C40.0608 34.8457 39.9962 34.9426 39.9232 34.9671C39.842 34.9914 39.354 34.9591 38.8421 34.886C38.3304 34.821 37.6641 34.7316 37.3636 34.6829C37.055 34.6423 36.5437 34.6019 36.2269 34.6018C35.7234 34.6018 35.6009 34.6342 35.4466 34.7883C35.3491 34.8858 35.2679 35.0489 35.2679 35.1546C35.268 35.2518 35.3004 35.3487 35.349 35.3733C35.3977 35.3977 35.6901 35.804 36.015 36.2913C36.3318 36.7705 36.8273 37.5509 37.1117 38.0383C37.396 38.5177 37.6244 38.9323 37.6244 38.9729C37.6247 39.0057 37.6807 39.0951 37.7455 39.176C37.8186 39.2573 37.8352 39.3304 37.7865 39.3548C37.7376 39.3789 37.5504 39.2489 37.3636 39.0784C37.1683 38.9075 36.0799 37.9328 34.9427 36.9094C33.8053 35.8939 32.8548 35.0403 32.8304 35.0159C32.8041 34.9818 32.4234 34.6495 31.9779 34.2688C31.531 33.887 30.5962 33.123 29.9056 32.5706C29.215 32.0263 28.167 31.2388 27.5902 30.8245C27.0134 30.4102 26.1845 29.8409 25.7621 29.5647C25.3397 29.2805 24.6415 28.8746 24.2191 28.6633C23.7968 28.4522 23.2119 28.2004 22.9193 28.1028C22.5943 27.9972 22.171 27.9319 21.8216 27.9319C21.432 27.9319 21.1397 27.9807 20.888 28.0862C20.6849 28.1756 20.4491 28.3142 20.3597 28.4036C20.2702 28.485 19.9294 28.7776 19.6127 29.0618C19.2879 29.3378 18.9464 29.5645 18.8568 29.5647C18.7674 29.5647 18.4256 29.3615 18.1087 29.1096C17.7836 28.8578 17.1501 28.4763 16.7035 28.2571C16.2567 28.0459 15.5096 27.7536 15.0384 27.6155C14.413 27.4287 14.0147 27.3551 13.5355 27.3469C12.9831 27.3388 12.8367 27.372 12.5443 27.5344C12.3574 27.6482 11.9428 27.9 11.6097 28.095C11.2848 28.29 10.8538 28.582 10.6507 28.7444C10.4558 28.9068 10.188 29.1424 10.058 29.2805C9.92797 29.4186 9.7003 29.7116 9.55406 29.9309C9.4079 30.1584 9.21307 30.5722 9.11558 30.8645C9.02626 31.1568 8.90393 31.5549 8.84703 31.7581C8.76582 32.0342 8.68507 32.1485 8.49839 32.2298C8.31153 32.3191 8.20549 32.3192 8.05113 32.2542C7.93731 32.2053 7.44997 31.7014 6.95445 31.1409C6.24834 30.3455 6.04462 30.1501 5.96324 30.2307C5.91449 30.2876 5.81663 30.5398 5.74351 30.7835C5.67039 31.0272 5.61363 31.3606 5.61363 31.5149C5.61366 31.7504 5.69541 31.8727 6.08531 32.2464C6.33718 32.4982 6.80795 32.9041 7.11656 33.1477C7.43322 33.3994 7.83122 33.6839 8.01011 33.7815C8.18885 33.879 8.40902 33.9521 8.49839 33.9358C8.59602 33.9191 8.82301 33.6675 9.05015 33.343C9.26138 33.0262 9.66845 32.5141 9.94468 32.2053C10.2291 31.8966 10.708 31.4497 11.0248 31.2141C11.3335 30.9785 11.8939 30.6291 12.2757 30.426C12.6576 30.2311 13.2995 29.9548 13.6976 29.8167C14.1036 29.6786 14.6315 29.5247 14.8753 29.4758C15.1921 29.4109 15.4037 29.4103 15.6068 29.4671C15.7693 29.5158 16.0459 29.7191 16.2572 29.9466C16.4603 30.1659 16.687 30.467 16.7601 30.6214C16.8414 30.7757 16.9722 31.0116 17.0697 31.1497C17.1588 31.2875 17.2316 31.4413 17.2318 31.4983C17.2318 31.5633 17.1506 31.5796 16.972 31.5471C16.8258 31.5228 16.4843 31.4826 16.2162 31.4583C15.745 31.4258 15.6881 31.4419 14.7132 31.9212C13.8277 32.3598 13.6163 32.5058 13.0882 33.0501C12.6821 33.4562 12.2923 33.9761 11.9349 34.5608C11.6424 35.0564 11.2683 35.7232 11.1058 36.0481C10.9109 36.4461 10.7318 36.6815 10.5531 36.7952C10.4069 36.8845 10.1961 36.9582 10.0824 36.9583C9.96864 36.9583 9.67572 36.8933 9.43199 36.804C9.18824 36.7146 8.79027 36.5515 8.56285 36.4378C8.32733 36.3241 8.10803 36.2183 8.07554 36.2102C8.03489 36.202 7.95396 36.145 7.88902 36.0882C7.82394 36.0312 7.58811 35.8609 7.3607 35.6985C7.14158 35.5443 6.87377 35.3659 6.76792 35.3089C6.61356 35.2276 6.56405 35.2358 6.50718 35.3333C6.46655 35.3988 6.40194 35.6583 6.36949 35.9016C6.33699 36.1453 6.30406 36.7303 6.30406 37.2014C6.31218 37.8592 6.3529 38.1763 6.48277 38.5823C6.58026 38.8748 6.73544 39.2 6.97105 39.5169L7.12535 39.1184C7.20659 38.8993 7.32828 38.6961 7.38511 38.6555C7.45018 38.6071 7.58791 38.7133 7.8314 38.9973C8.01826 39.2248 8.31966 39.5011 8.49839 39.6067C8.73395 39.7447 9.04295 39.8259 9.59507 39.8909C10.017 39.9314 10.4469 39.9552 10.5531 39.9309C10.6506 39.9066 11.0733 39.5653 11.4877 39.1673C11.8939 38.7773 12.4226 38.3304 12.6419 38.176C12.8688 38.0302 13.0633 37.8684 13.0882 37.8274C13.1126 37.7868 13.1697 37.7545 13.2103 37.7464C13.2594 37.7462 13.5845 37.6073 13.9418 37.4368C14.2993 37.2662 14.9247 37.0388 15.3226 36.9251C15.7207 36.8113 16.4521 36.6655 16.9476 36.5842C17.4429 36.5112 17.9622 36.4051 18.1087 36.3401C18.2466 36.2752 18.369 36.1945 18.3695 36.1458C18.3695 36.097 17.8738 36.0566 17.0941 36.0403C16.3399 36.0322 15.8119 35.9913 15.8099 35.9426C15.8099 35.902 16.1922 35.8038 16.6634 35.7307C17.1346 35.6576 17.9545 35.5363 18.4906 35.4632C19.0268 35.39 19.6854 35.3333 19.9535 35.3333C20.2216 35.3333 20.7337 35.3822 21.0912 35.4553C21.4487 35.5204 22.1064 35.6985 22.5531 35.8528C22.9999 35.999 23.6014 36.227 23.8939 36.3489C24.1864 36.4627 24.7547 36.7308 25.1527 36.9339C25.5508 37.1288 26.6321 37.7943 27.5502 38.4036C28.4682 39.0129 29.4915 39.7201 29.8246 39.9719C30.1577 40.2238 30.6776 40.6789 30.9701 40.9876C31.2625 41.2963 31.7343 41.8887 32.0267 42.303C32.3111 42.7173 32.5711 43.051 32.6117 43.051C32.6439 43.0514 32.6683 43.0836 32.6683 43.1321C32.6683 43.1808 32.8061 43.4243 32.9847 43.676C33.1553 43.936 33.5376 44.5457 33.8382 45.0413C34.1389 45.5369 34.7074 46.3658 35.0892 46.8938C35.4783 47.4207 35.8189 47.8423 35.8607 47.844C35.8932 47.844 35.9173 47.8929 35.9173 47.9417C35.9256 47.9987 36.0802 48.2586 36.2669 48.5266C36.4538 48.7866 36.885 49.2818 37.2181 49.6311C37.5512 49.9804 37.9087 50.4196 38.0062 50.6145C38.1037 50.8095 38.2577 51.1342 38.347 51.3372C38.4364 51.5403 38.5659 51.9226 38.639 52.1907C38.7121 52.4588 38.8429 52.9867 38.9242 53.3684C39.0054 53.7503 39.1271 54.4412 39.1839 54.9124C39.2408 55.3837 39.2894 56.2449 39.2894 56.8216C39.2894 57.6576 39.2572 57.934 39.1517 58.1614C39.0705 58.3158 38.9478 58.5193 38.8666 58.6087C38.7849 58.6986 38.5175 59.0476 38.266 59.3801C38.0222 59.7132 37.6566 60.2172 37.4535 60.4934C37.2585 60.7616 36.82 61.387 36.4789 61.8743C36.1376 62.3536 35.4954 63.28 35.0404 63.93C34.594 64.5792 34.1636 65.2201 34.098 65.3508C34.0249 65.4808 33.9515 65.6844 33.9271 65.7981C33.9108 65.9119 33.8221 66.2371 33.7328 66.5296C33.6434 66.8221 33.4969 67.3666 33.4076 67.7483C33.3182 68.1302 33.1717 68.8046 33.0824 69.2512C32.993 69.698 32.887 70.3154 32.8382 70.6321C32.7895 70.949 32.733 71.5663 32.7005 72.013C32.6762 72.4598 32.6273 72.8659 32.6029 72.9065C32.5704 72.9471 32.5462 73.0042 32.5462 73.0286C32.538 73.0532 32.4815 73.183 32.4086 73.3128C32.3436 73.4427 32.1564 73.6623 32.0101 73.7923C31.8557 73.9141 31.6039 74.0769 31.4496 74.1419C31.2952 74.2068 30.8891 74.2962 30.556 74.345C30.223 74.3856 29.8003 74.4903 29.6214 74.5716C29.4428 74.6446 29.0937 74.8074 28.85 74.9212C28.6064 75.043 28.2002 75.1976 27.9564 75.2708C27.7127 75.3439 27.4198 75.4166 27.306 75.4329C27.1923 75.4491 27.0217 75.4818 26.9242 75.5061C26.8186 75.5305 26.7044 75.4985 26.6556 75.4417C26.5988 75.3686 26.7127 75.2137 27.0863 74.8645C27.3625 74.6046 28.1262 73.8493 28.7923 73.1995C29.8648 72.1352 29.979 72.0047 29.849 71.9153C29.7353 71.8341 29.654 71.8424 29.4593 71.9397C29.3293 72.0128 29.0364 72.0941 28.8089 72.1184C28.5896 72.1347 28.1511 72.1108 27.8343 72.054C27.5175 71.9971 27.2327 71.9156 27.1839 71.8831C27.1351 71.8506 27.0134 71.8095 26.8998 71.7932C26.7861 71.7851 26.68 71.7453 26.6556 71.721C26.6312 71.6885 26.3227 71.5179 25.9652 71.3391C25.6079 71.1524 25.1371 70.9654 24.9095 70.9085C24.5521 70.8272 24.4377 70.8345 23.9339 70.9807C23.6252 71.0783 23.1463 71.29 22.8783 71.4524C22.6105 71.6147 22.3101 71.7768 22.2123 71.8176C22.0335 71.8826 22.0255 71.8748 22.058 71.5823C22.0743 71.3873 22.2202 71.0868 22.472 70.7132C22.6914 70.3963 22.9432 70.0792 23.0326 70.0061C23.1301 69.9249 23.3904 69.8035 23.6097 69.7385C23.9427 69.6411 24.1299 69.6325 24.6253 69.6975C24.9583 69.7463 25.3075 69.803 25.3968 69.8274C25.4862 69.8518 25.8353 69.9738 26.1683 70.1038C26.5011 70.2255 26.9071 70.3713 27.0619 70.4202C27.2162 70.4689 27.5173 70.51 27.7367 70.51C27.9642 70.51 28.2892 70.4372 28.5492 70.3235C28.7767 70.2179 29.2235 69.9661 29.5404 69.763C29.8571 69.56 30.2789 69.2105 30.4984 68.9749C30.734 68.7149 30.8561 68.5194 30.8236 68.4544C30.7805 68.3896 30.7943 68.3765 30.8646 68.4143C30.9214 68.4547 30.9623 68.4297 30.9623 68.3567C30.9624 68.2919 30.9947 68.2274 31.0433 68.2112C31.0839 68.203 31.1329 68.1052 31.141 67.9915C31.1572 67.8778 31.214 67.7397 31.2709 67.6829C31.3195 67.6341 31.3684 67.4637 31.3685 67.3176C31.3685 67.1796 31.3117 66.9114 31.2386 66.7327C31.1736 66.554 31.0024 66.1883 30.8724 65.9202C30.7424 65.6521 30.6371 65.3833 30.6371 65.3264C30.6369 65.2781 30.6044 65.2458 30.556 65.2698C30.5073 65.2942 30.4821 65.286 30.4984 65.2454C30.5062 65.2123 30.4253 64.9774 30.3119 64.718C30.1982 64.4583 30.0847 64.2545 30.0521 64.2542C30.0115 64.2542 29.9867 64.2056 29.9867 64.1487C29.9862 64.0989 29.8327 63.6689 29.638 63.1985C29.4431 62.7275 29.2311 62.1997 29.1742 62.0208C29.1173 61.8421 28.9881 61.5087 28.8744 61.2893C28.7688 61.062 28.687 60.8347 28.6869 60.7776C28.6869 60.7207 28.6382 60.7041 28.557 60.7366C28.492 60.7772 28.3295 61.0536 28.1996 61.3704C28.0777 61.6872 27.8748 62.2483 27.7611 62.6301C27.6555 63.0119 27.5175 63.5399 27.4769 63.8079C27.4282 64.0759 27.4118 64.3118 27.4281 64.3362C27.452 64.3607 27.4353 64.4088 27.3949 64.4573C27.3543 64.4983 27.2975 64.9209 27.265 65.3919C27.2406 65.863 27.225 66.6753 27.225 68.1536L26.7621 67.9837C26.3885 67.8537 26.1525 67.8213 25.641 67.8538C25.2836 67.87 24.5521 67.8618 24.016 67.8294C23.48 67.7888 22.9357 67.7153 22.7972 67.6585C22.6592 67.6016 22.4562 67.4877 22.3343 67.4065C22.1965 67.3173 22.1228 67.212 22.1468 67.1389C22.1793 67.0496 22.2608 67.0332 22.4964 67.0657C22.6589 67.0982 22.8295 67.1145 22.8783 67.1145C22.9271 67.1145 23.1141 67.0653 23.3089 67.0247C23.4956 66.976 23.7877 66.8627 23.9584 66.7815C24.1208 66.6922 24.357 66.5209 24.4789 66.3909C24.6088 66.2607 24.8034 65.8631 24.9496 65.4329C25.0877 65.0267 25.2586 64.4656 25.3236 64.1731C25.3967 63.8808 25.4456 63.3694 25.4457 63.0364C25.4457 62.7034 25.3886 62.2806 25.3236 62.1018C25.2668 61.9232 25.1859 61.574 25.1615 61.3303C25.1371 61.0867 25.096 60.6639 25.0716 60.3958C25.0554 60.1277 24.9582 59.6322 24.8607 59.2991C24.7713 58.966 24.6493 58.5756 24.5843 58.4456C24.5274 58.3155 24.3976 58.0154 24.3002 57.7962C24.2027 57.5687 23.8696 56.8778 23.5609 56.2522C23.2603 55.6267 22.8298 54.8226 22.6185 54.4651C22.4073 54.1077 22.0498 53.5551 21.8304 53.2464C21.6111 52.9295 21.2529 52.4829 21.0336 52.2473C20.8224 52.0199 20.6439 51.7922 20.6439 51.7434C20.6441 51.6947 20.7664 51.6542 20.9125 51.638C21.0749 51.6218 21.302 51.679 21.5375 51.8089C21.7406 51.9145 22.2123 52.2149 22.5941 52.4749C22.976 52.7349 23.6503 53.2627 24.097 53.6526C24.5439 54.0344 25.072 54.5381 25.2669 54.7737C25.4619 55.0011 25.8351 55.529 26.0951 55.927C26.355 56.3251 26.8428 57.0892 27.7933 58.5676H28.224C28.5054 58.5676 28.7357 58.6216 28.9144 58.7298C29.0525 58.8191 29.2883 59.0468 29.4183 59.2337C29.5564 59.4286 29.9061 59.949 30.1986 60.3958C30.4829 60.8426 30.8724 61.5574 31.0511 61.9798C31.238 62.4022 31.4415 62.8654 31.4984 62.9954C31.5634 63.1253 31.6117 63.2637 31.6117 63.2962C31.6123 63.338 31.7667 63.6948 31.9613 64.0921C32.1481 64.4983 32.3269 64.8316 32.3675 64.8235C32.4 64.8234 32.4486 64.7582 32.473 64.677C32.5055 64.6039 32.6034 64.3762 32.6927 64.1731C32.7822 63.9699 33.0017 63.4991 33.1966 63.1175C33.3835 62.7356 33.6588 62.2068 33.805 61.9387C33.9513 61.6706 34.2439 61.1428 34.4632 60.761C34.6745 60.3792 34.9185 59.8347 35.016 59.5423C35.1053 59.2498 35.2192 58.7303 35.2679 58.3811C35.3085 58.0399 35.3493 57.4707 35.3412 57.1214C35.333 56.7804 35.3082 56.4071 35.2757 56.2932C35.2432 56.1633 35.1541 56.0819 35.0404 56.0657C34.9348 56.0576 34.7396 56.1552 34.5609 56.3176C34.3904 56.4719 34.0901 56.65 33.8871 56.7151C33.684 56.7801 33.4155 56.9188 33.2855 57.0325C33.1556 57.1381 32.9203 57.341 32.766 57.471C32.6116 57.601 32.3673 57.8939 32.2211 58.1214C32.0748 58.3408 31.8477 58.7709 31.7259 59.0794C31.5963 59.3792 31.4421 59.6231 31.3929 59.6243C31.3361 59.6243 31.2304 59.5347 31.1654 59.4212C31.1004 59.3074 31.0189 59.0634 30.9945 58.8684C30.9701 58.6816 30.9861 58.1942 31.0267 57.7962C31.0755 57.3981 31.1893 56.8289 31.2787 56.5364C31.3681 56.2439 31.5798 55.7813 31.7503 55.5051C31.921 55.2371 32.2458 54.798 32.4652 54.5462C32.6923 54.2947 32.8955 54.0191 32.9203 53.9456C32.9528 53.8725 33.0011 53.263 33.0336 52.5969C33.066 51.8497 33.0582 51.0371 33.0013 50.4846C32.9526 49.9891 32.8554 49.3876 32.7904 49.1438C32.7173 48.9002 32.6354 48.3318 32.6029 47.885C32.5541 47.2676 32.4812 46.9665 32.3187 46.6253C32.205 46.3816 31.9531 46.0165 31.7582 45.8216C31.5632 45.6266 31.1894 45.3663 30.9212 45.2444C30.6531 45.1225 29.9384 44.854 29.3373 44.6428C28.7279 44.4316 28.1342 44.2692 28.0043 44.2854C27.7609 44.3098 27.7605 44.3108 27.5169 45.4475C27.2976 46.5035 27.2738 46.7149 27.2738 48.3313C27.2657 49.5093 27.2983 50.1917 27.3714 50.4192C27.4527 50.7116 27.4525 50.8094 27.347 51.0286C27.282 51.1748 27.0948 51.4596 26.9242 51.6546C26.7537 51.8574 26.494 52.0601 26.3558 52.1253C26.1283 52.2146 26.0465 52.2146 25.7865 52.1008C25.6156 52.0276 25.1443 51.8162 24.7464 51.6214C24.1537 51.3372 23.9178 51.1669 23.4955 50.7122C23.2111 50.4116 22.7075 49.7938 22.3744 49.3469C22.0413 48.9001 21.5699 48.201 21.3343 47.803C21.0986 47.4046 20.5297 46.3976 20.0668 45.5774C19.6042 44.766 19.1745 44.0517 19.1087 43.9934C19.0275 43.9284 18.808 43.9367 18.2152 44.0423C17.7847 44.1235 17.1264 44.2207 16.7445 44.2776C16.3627 44.3263 15.9481 44.4073 15.8099 44.4641C15.6799 44.521 15.4447 44.676 15.2904 44.8059C15.136 44.9359 14.908 45.2605 14.7699 45.5286C14.6399 45.7967 14.4448 46.13 14.3392 46.26C14.2338 46.3899 14.145 46.5602 14.1449 46.6253C14.1449 46.6903 14.3155 47.0073 14.5267 47.3323C14.7461 47.6492 15.2094 48.2501 15.5668 48.6643C15.9242 49.0786 16.2729 49.4773 16.346 49.5423C16.4112 49.6156 16.7041 49.9486 16.9964 50.2815C17.2808 50.6227 17.6625 51.0779 17.8412 51.2971C18.0198 51.5083 18.2714 51.8411 18.4095 52.0198C18.5394 52.2065 18.6692 52.3693 18.6937 52.3938C18.7181 52.4182 18.905 52.6698 19.1 52.9622C19.3031 53.2546 19.5474 53.6526 19.6449 53.8557C19.7423 54.0588 19.8643 54.3997 19.9212 54.6272C19.97 54.8465 20.0261 55.2122 20.0423 55.4397C20.0667 55.659 20.1 55.9353 20.1244 56.0491C20.1406 56.1628 20.2215 56.5452 20.2865 56.9026C20.3514 57.2599 20.4242 57.7308 20.4486 57.9583C20.473 58.1776 20.5056 58.3812 20.5218 58.4055C20.5382 58.4305 20.6276 58.8442 20.725 59.3391C20.8224 59.8347 20.9206 60.3064 20.9369 60.3958C20.9612 60.4851 20.9936 60.6474 21.0179 60.761C21.0423 60.8747 21.0827 61.5005 21.099 62.1585C21.1152 62.8246 21.1071 63.3606 21.0746 63.3606C21.0339 63.3608 20.9605 63.7507 20.9037 64.2298C20.8306 64.7658 20.8068 65.4322 20.8392 65.9358C20.8635 66.3972 20.9037 66.8107 20.9281 66.8538C20.9524 66.8943 20.9524 66.9919 20.9281 67.0569C20.9037 67.13 20.8224 67.1633 20.725 67.1389C20.6358 67.1146 20.563 67.0574 20.5628 67.0169C20.5628 66.9762 20.5139 66.9358 20.4652 66.9358C20.4083 66.9277 20.1809 66.7975 19.9535 66.635C19.7341 66.4725 19.5064 66.3342 19.4496 66.3342C19.4009 66.3261 19.3767 66.3098 19.3929 66.2854C19.4082 66.2604 19.1486 66.009 18.808 65.7171C18.4667 65.4246 18.0688 65.0341 17.9144 64.8391C17.7603 64.6526 17.606 64.4988 17.557 64.4983C17.5082 64.4983 17.4348 64.5795 17.3861 64.677C17.3374 64.7826 17.2966 65.0829 17.2884 65.3508C17.2884 65.6188 17.3293 65.9845 17.3861 66.1633C17.4429 66.342 17.5973 66.732 17.7435 67.0325C17.8897 67.3412 18.0366 67.5533 18.0853 67.5208C18.1339 67.4884 18.1415 67.5041 18.1009 67.5608C18.0685 67.6176 18.093 67.7557 18.1498 67.8694C18.1983 67.9827 18.2712 68.0719 18.3119 68.0725C18.3443 68.0725 18.3694 68.1215 18.3695 68.1702C18.3695 68.227 18.4991 68.4545 18.6615 68.6819C18.824 68.9012 19.0918 69.2268 19.2543 69.4055C19.4167 69.5761 19.7423 69.8599 19.9779 70.0305C20.2054 70.2011 20.433 70.3479 20.4818 70.3479C20.5306 70.3482 20.62 70.4293 20.6849 70.5266C20.7903 70.6969 20.7818 70.7625 20.5951 71.2415C20.4733 71.5339 20.3675 71.932 20.3431 72.135C20.3269 72.3379 20.2949 72.5814 20.2787 72.679C20.2543 72.7846 20.2625 72.8495 20.3031 72.8333C20.3354 72.8182 20.3512 72.9727 20.3431 73.1751C20.3351 73.3863 20.3843 73.7358 20.4574 73.9632C20.5224 74.1826 20.6686 74.6045 20.7904 74.8967C20.9041 75.1892 21.1073 75.6038 21.2455 75.8313C21.3754 76.0506 21.6429 76.4402 21.8216 76.6839C22.0085 76.9276 22.3986 77.3425 22.683 77.6106C22.9672 77.8705 23.406 78.2196 23.6498 78.3821C23.8935 78.5446 24.1052 78.6992 24.1214 78.7317C24.1297 78.7722 24.1943 78.7961 24.2591 78.7962C24.3241 78.7962 24.3812 78.8376 24.3812 78.8782C24.3815 78.9185 24.4218 78.9424 24.4623 78.9182C24.511 78.8939 24.5433 78.9186 24.5433 78.9592C24.5435 78.9997 24.5848 79.0236 24.6253 78.9993C24.6743 78.9755 24.7795 79.0241 24.8685 79.0969C24.966 79.1782 25.0397 79.2186 25.0316 79.178C25.0322 79.146 25.1129 79.1623 25.2181 79.219C25.3154 79.2758 25.4371 79.3241 25.4779 79.3323C25.5266 79.3404 25.722 79.4138 25.9252 79.4788C26.128 79.5518 26.3711 79.6085 26.4769 79.6087C26.5744 79.6087 26.6723 79.5516 26.6966 79.4866C26.7209 79.4211 26.7377 79.202 26.7377 78.9993C26.7377 78.6421 26.7459 78.6338 26.9652 78.6663C27.0873 78.6907 27.3877 78.7315 27.6312 78.7639C27.8749 78.7883 28.1512 78.8287 28.2406 78.845C28.3304 78.8613 28.6959 78.9024 29.0531 78.9348C29.589 78.9754 29.7436 78.9669 30.1498 78.7151L29.8246 78.3499C29.6458 78.1468 29.4994 77.9432 29.4994 77.9026C29.5001 77.8621 29.6711 77.8216 29.89 77.8216C30.1014 77.8217 30.5236 77.8944 30.8402 77.9837C31.1569 78.073 31.4655 78.1627 31.5306 78.179C31.5956 78.1952 31.7992 78.2197 31.9779 78.2278C32.1565 78.2359 32.3517 78.2437 32.4086 78.2356C32.4581 78.2265 32.6526 78.0725 32.8226 77.8782C33.0014 77.6912 33.3995 77.1799 33.7162 76.7415C34.033 76.3109 34.3015 75.9126 34.3177 75.8557C34.3259 75.807 34.3904 75.7091 34.4554 75.636C34.5285 75.5628 34.6745 75.3438 34.7962 75.1409C34.9099 74.9379 35.1619 74.4993 35.3568 74.1663C35.5517 73.8333 35.6988 73.5322 35.6908 73.4915C35.6827 73.459 35.7147 73.4349 35.7552 73.4348C35.804 73.4348 35.8206 73.3611 35.7962 73.2717C35.772 73.1826 35.7877 73.1264 35.8363 73.1507C35.8849 73.175 35.9179 73.1666 35.9261 73.1262C35.9261 73.0937 35.9336 72.9874 35.9418 72.8899C35.95 72.7925 36.007 72.6625 36.0638 72.6057C36.145 72.5164 36.1615 72.6142 36.1615 73.1096C36.1615 73.4427 36.1292 73.9144 36.0804 74.1419C36.0399 74.3768 36.0153 74.6197 36.0394 74.6692C36.0557 74.7261 36.251 74.8644 36.4623 74.97C36.6735 75.0756 37.0555 75.2218 37.2992 75.303C37.5428 75.3761 37.8919 75.4332 38.0707 75.4251C38.2493 75.4169 38.558 75.3843 38.7611 75.3518C38.9642 75.3193 39.2 75.2707 39.2894 75.2464C39.3787 75.2139 39.5409 75.198 39.6546 75.2141C39.7683 75.2223 40.0447 75.1651 40.264 75.0921C40.5727 74.9865 40.8251 74.7998 41.3207 74.2962C41.6781 73.9306 42.0923 73.4511 42.2386 73.2317C42.3849 73.0042 42.5884 72.6137 42.6859 72.3538C42.7996 72.0535 42.9212 71.8667 43.0267 71.8342C43.1161 71.8017 43.2952 71.6715 43.4252 71.5335C43.5552 71.3951 43.7986 70.9893 43.9691 70.6321C44.1316 70.2746 44.3266 69.9331 44.3998 69.8762C44.5134 69.7951 44.538 69.8114 44.6029 70.0061C44.6514 70.1274 44.6676 70.2407 44.6517 70.2659C44.6355 70.2903 44.5862 70.5914 44.5375 70.9407C44.4887 71.2819 44.416 71.6313 44.3753 71.7044C44.3347 71.7856 44.2538 71.9807 44.1888 72.135C44.1157 72.2894 43.9447 72.6708 43.7904 72.9876C43.6361 73.3042 43.4652 73.6046 43.4164 73.6536C43.3595 73.7105 43.3109 73.8005 43.3109 73.8411C43.3106 73.882 43.2297 74.0439 43.1244 74.1897C43.0269 74.3278 42.9052 74.5072 42.8646 74.5803C42.8159 74.6534 42.6853 74.8561 42.5716 75.0266C42.4579 75.1972 42.2951 75.4011 42.222 75.4661C42.1491 75.5311 42.0843 75.6287 42.0843 75.6692C42.0827 75.7109 41.8472 75.9298 41.5638 76.1565C41.2714 76.3758 40.9219 76.6029 40.7757 76.6516C40.6294 76.7005 40.3292 76.8388 40.1019 76.9524C39.8827 77.0661 39.5986 77.2609 39.4847 77.3909C39.3629 77.5127 39.216 77.7078 39.1429 77.8216C39.078 77.9352 39.0216 78.1869 39.0296 78.3899C39.0296 78.6336 39.0947 78.862 39.2328 79.0813C39.3466 79.2602 39.5988 79.625 39.7855 79.8928C39.9805 80.1609 40.1668 80.4216 40.2074 80.4622C40.2481 80.503 40.4027 80.7221 40.557 80.9495C40.7031 81.1686 40.8655 81.4038 40.9144 81.469C40.955 81.534 41.2718 81.8671 41.6048 82.2083C41.9379 82.5413 42.6037 83.0864 43.0912 83.4114C43.5692 83.7274 43.9833 83.9704 44.0257 83.9475C44.0582 83.9232 44.0337 83.663 43.9769 83.3626C43.9201 83.0622 43.847 82.7047 43.8226 82.5745C43.7982 82.4445 43.766 82.0051 43.766 81.5989C43.766 81.1198 43.798 80.7786 43.8793 80.5999C43.9442 80.4618 44.018 80.3646 44.0423 80.3889C44.0666 80.4133 44.0824 80.4623 44.0824 80.4866C44.0907 80.5197 44.1566 80.7463 44.2377 80.9895C44.3189 81.2332 44.4318 81.5509 44.4886 81.6809L45.139 83.2239C45.1959 83.3539 45.2774 83.5574 45.3099 83.6712C45.3424 83.7848 45.3669 83.9232 45.3587 83.9719C45.3508 84.0366 45.383 84.0525 45.4398 84.012C45.5127 83.9716 45.5204 83.9958 45.4798 84.093C45.4474 84.1742 45.4637 84.2561 45.5043 84.2805C45.5449 84.3049 45.5612 84.3861 45.5287 84.4592C45.4801 84.5727 45.4889 84.5886 45.5863 84.5237C45.6752 84.4591 45.6834 84.4755 45.6429 84.6214C45.6104 84.7432 45.6268 84.8245 45.6918 84.8489C45.7404 84.8735 45.7966 84.9795 45.8128 85.093C45.8209 85.2065 45.797 85.2794 45.7484 85.2551C45.7078 85.2308 45.5936 85.2308 45.5043 85.2551C45.415 85.2796 45.3421 85.3366 45.3421 85.3772C45.3425 85.418 45.4234 85.5312 45.5287 85.6204C45.6912 85.7666 45.6915 85.7746 45.5453 85.7258C45.4154 85.6771 45.3992 85.686 45.4642 85.7835C45.5208 85.8725 45.5208 85.8887 45.4398 85.8401C45.3911 85.8076 45.367 85.7346 45.4076 85.6858C45.4454 85.6155 45.4314 85.6016 45.3666 85.6448C45.3097 85.6773 45.1632 85.6369 45.0414 85.5637C44.9112 85.4823 44.3752 85.1088 43.8392 84.719C43.303 84.3291 42.555 83.7764 42.1732 83.4758C41.7915 83.1835 41.4504 82.9727 41.4017 83.0051C41.3533 83.0374 41.3451 83.0211 41.3773 82.9807C41.4098 82.932 41.3203 82.7858 41.1742 82.6477C41.0279 82.5096 40.8003 82.3145 40.6703 82.2171C40.5407 82.1199 40.3952 82.0466 40.3461 82.0462C40.2973 82.0462 40.3536 82.1193 40.6703 82.3548L40.4515 82.3469C40.2404 82.3307 40.2241 82.3061 40.2484 82.0139C40.2646 81.7542 40.2319 81.6726 40.0941 81.6077C39.9966 81.5589 39.8825 81.4852 39.85 81.4446C39.8015 81.3961 39.8258 81.3962 39.8988 81.4368C39.9637 81.4692 39.9312 81.4045 39.8177 81.2991C39.704 81.1854 39.598 81.1035 39.5736 81.1116C39.5492 81.128 39.5254 81.494 39.5091 81.9407C39.501 82.3875 39.5333 82.9236 39.5902 83.1673C39.6471 83.4028 39.679 83.6139 39.6546 83.6301C39.6299 83.6542 39.4763 83.5891 39.306 83.4837C39.1435 83.3862 39.0052 83.2808 39.0052 83.2483C39.0051 83.2079 38.9727 83.184 38.9242 83.1839C38.8754 83.1839 38.7616 83.1183 38.6722 83.0452C38.5748 82.964 38.3637 82.7855 38.2093 82.6555C38.055 82.5256 37.7702 82.1922 37.5834 81.9241C37.3884 81.656 37.0716 81.0877 36.8685 80.6653C36.6654 80.2429 36.3643 79.6662 36.1937 79.3899C36.015 79.1056 35.8284 78.8615 35.7796 78.8372C35.7228 78.8128 35.5929 78.8373 35.4955 78.886C35.3898 78.9347 35.17 79.1132 34.9994 79.2757C34.837 79.438 34.6753 79.6818 34.6507 79.8118C34.6182 79.9905 34.6828 80.2425 34.8939 80.7298C35.0807 81.1521 35.2355 81.6803 35.3168 82.1839C35.3817 82.6226 35.5119 83.257 35.5931 83.5901C35.6825 83.9232 35.8444 84.4916 35.9662 84.8489C36.088 85.2064 36.2994 85.7508 36.4457 86.0676C36.5919 86.3845 36.8688 86.8719 37.0638 87.1643C37.2588 87.4568 37.6084 87.9034 38.2337 88.6262H40.5082C41.7591 88.6262 43.0262 88.6509 43.8793 88.7483V90.6575H29.0853L29.3773 90.3733C29.5313 90.2193 29.6619 90.0409 29.6625 89.9837C29.6625 89.9349 29.8895 89.3739 30.1576 88.7483C30.4338 88.1228 30.8644 87.1889 31.1244 86.677C31.3843 86.1653 31.8068 85.3935 32.0668 84.971C32.489 84.2888 32.5465 84.1503 32.5384 83.7932C32.5384 83.5333 32.4568 83.2074 32.3187 82.8987C32.1968 82.6307 32.0177 82.3304 31.9203 82.2249C31.8062 82.1192 31.295 81.8998 30.6781 81.6887C29.7033 81.3638 29.6131 81.3391 29.4994 81.469C29.4263 81.5421 29.3454 81.7778 29.3128 82.0051C29.2803 82.2326 29.1991 82.4933 29.1341 82.5989C29.0529 82.7206 28.9309 82.7776 28.7523 82.7776C28.6061 82.7776 27.9725 82.6308 27.347 82.4602C26.7217 82.2816 25.958 82.0379 25.641 81.9241C25.3243 81.8023 24.9587 81.6721 24.8285 81.6233C24.6986 81.5746 24.5521 81.5018 24.5033 81.4612C24.4546 81.4288 24.3733 81.3959 24.3246 81.3958C24.2677 81.3958 23.845 81.2092 23.39 80.9817C22.9269 80.7542 22.3339 80.4127 22.0658 80.2258C21.7976 80.0308 21.3259 79.6008 21.0091 79.2678C20.7004 78.9266 20.2946 78.4066 20.1078 78.0979C19.9209 77.7892 19.6531 77.2611 19.515 76.928C19.3688 76.5949 19.0918 75.7171 18.8968 74.9778C18.6938 74.2386 18.4588 73.2878 18.3695 72.8655C18.2802 72.443 18.2064 71.7853 18.2064 71.4036C18.2064 71.022 18.1578 70.5512 18.1009 70.3479C18.0441 70.1448 17.727 69.5599 17.3939 69.0481C17.069 68.5363 16.6061 67.7074 16.3705 67.22C16.1349 66.7325 15.8827 66.0906 15.8177 65.7981C15.7446 65.5056 15.6878 64.9935 15.6878 64.6604C15.6879 64.3273 15.7449 63.7994 15.8099 63.4827C15.883 63.1659 15.9972 62.808 16.0785 62.678C16.1517 62.5481 16.3139 62.3701 16.4437 62.2727C16.6467 62.1184 16.6875 62.1096 17.0121 62.2151C17.2314 62.2801 17.5001 62.4753 17.7601 62.7434C17.9876 62.9709 18.2558 63.2795 18.3695 63.4339C18.4832 63.58 18.6454 63.7021 18.7347 63.7102C18.8891 63.7265 18.8969 63.6696 18.9212 62.5891C18.9375 61.9636 18.8889 60.664 18.8158 59.7053C18.7427 58.7469 18.6369 57.5771 18.5638 57.1057C18.4988 56.6346 18.369 56.0007 18.2796 55.6839C18.1822 55.3672 18.02 54.945 17.9144 54.7337C17.8088 54.5143 17.5485 54.132 17.3373 53.8801C17.126 53.6201 16.5167 52.9129 15.9886 52.3118C15.4606 51.7106 14.7615 50.866 14.4447 50.4436C14.1198 50.0213 13.7703 49.5902 13.6566 49.4846C13.5429 49.3873 13.3888 49.2978 13.3158 49.3059C13.2347 49.306 13.1133 49.3956 13.0482 49.5091C12.9345 49.6959 12.9419 49.7776 13.1205 50.427C13.2342 50.817 13.4785 51.4997 13.6654 51.9466C13.8603 52.4013 14.022 52.9291 14.0384 53.1487C14.0628 53.5062 14.0468 53.5386 13.8031 53.6604C13.5918 53.766 13.3805 53.7906 12.763 53.7581C12.1783 53.7256 11.8291 53.6522 11.3011 53.4573C10.9193 53.3192 10.4072 53.0918 10.1634 52.9456C9.9197 52.7993 9.55397 52.5475 9.35093 52.385C9.14782 52.2225 8.83068 51.89 8.6439 51.6546C8.45704 51.4108 8.18076 50.9959 8.03453 50.7278C7.88008 50.4595 7.56396 49.8175 7.32847 49.3059C7.0929 48.7941 6.7184 47.8444 6.50718 47.1946C6.28789 46.5449 6.05303 45.7241 5.97984 45.3665C5.90672 45.009 5.82542 44.1883 5.7523 42.3606L5.32945 41.9544C4.9964 41.6213 4.89043 41.4587 4.77671 41.0608C4.7036 40.7927 4.59007 40.2401 4.51695 39.8421C4.44383 39.444 4.36261 38.5091 4.33824 37.7698C4.31389 36.909 4.3306 36.0807 4.40367 35.4553C4.46051 34.9194 4.50909 34.2451 4.50914 33.9524C4.51726 33.4975 4.48451 33.3753 4.02964 32.7092L4.00523 30.9133C3.98899 29.3218 4.00555 29.086 4.1273 28.8342C4.20854 28.6799 4.43591 28.4277 4.63902 28.2815C4.84211 28.1272 5.2401 27.9402 5.53257 27.8508C5.82505 27.7615 6.84929 27.5263 7.80796 27.3313C9.35122 27.0064 9.61123 26.933 10.0824 26.6487C10.3748 26.4781 10.8455 26.242 11.138 26.1282C11.4305 26.0145 11.9426 25.836 12.2757 25.7385C12.7306 25.6005 13.08 25.552 13.6566 25.552C14.2334 25.552 14.6404 25.6083 15.2416 25.7708C15.7128 25.8927 16.3869 26.1612 16.85 26.3967C17.3535 26.6566 17.7434 26.8029 17.9222 26.803C18.0928 26.803 18.4342 26.6813 18.7591 26.5188C19.1247 26.3238 19.4906 26.2101 19.8724 26.1614C20.1894 26.1127 21.0663 26.0552 21.8216 26.0227C22.6828 25.9902 23.7962 26.0067 26.3714 26.1692L27.5091 25.885C28.1345 25.7226 28.9386 25.5441 29.2962 25.471C29.6537 25.406 30.3287 25.3246 31.6449 25.219L32.2533 24.6585C32.6187 24.3256 33.09 23.9923 33.3988 23.846C33.8781 23.6185 34.0167 23.594 34.8617 23.5696C35.6334 23.5452 35.9341 23.5693 36.5677 23.7317C37.177 23.8779 37.5507 23.9185 38.3548 23.9104C39.1184 23.9104 39.5898 23.8616 40.264 23.7073C41.0521 23.5367 41.3535 23.513 42.8646 23.513C44.3591 23.513 44.7332 23.5455 45.8705 23.7405C46.5851 23.8623 47.4621 24.0408 47.8197 24.1301C48.2744 24.2519 48.6078 24.2846 48.9164 24.2522C49.1601 24.2278 49.5995 24.1541 49.8919 24.0891C50.1847 24.016 51.1352 23.8538 52.0043 23.7239C52.8736 23.5858 54.4338 23.3904 55.4574 23.2766C56.4805 23.163 57.4549 23.0576 57.6097 23.0413C57.7641 23.025 58.4631 23.0094 59.1537 23.0012ZM65.7992 80.9739C65.8011 81.1233 65.8045 81.2663 65.8089 81.3977C65.7916 81.4834 65.7698 81.5548 65.7503 81.5745C65.7179 81.5989 65.5799 82.0217 65.4418 82.5091C65.3036 82.9965 65.1898 83.5249 65.1898 83.6712C65.1898 83.8171 65.2222 83.914 65.2709 83.8899C65.3115 83.8655 65.3529 83.8903 65.3529 83.9309C65.3529 83.9715 65.3115 84.012 65.2709 84.012C65.2304 84.0129 65.1899 84.1831 65.1898 84.4016C65.1817 84.6616 65.231 84.8246 65.3285 84.9221C65.4098 85.0033 65.5883 85.0686 65.7181 85.0686L65.9613 85.0764C65.6853 85.2875 65.629 85.377 65.6615 85.4094C65.6936 85.4419 65.645 85.4828 65.556 85.5071C65.4504 85.5315 65.3525 85.6694 65.2875 85.8967C65.2307 86.0914 65.2066 86.2616 65.2308 86.2864C65.2552 86.3108 65.2796 86.2703 65.2796 86.2053C65.2798 86.1404 65.3283 86.0428 65.3851 86.0022C65.4427 85.9606 65.7674 85.5548 66.1 85.1087C66.2056 84.9702 66.8845 84.0102 67.7865 82.7337C67.5597 83.1167 67.3316 83.5085 67.2211 83.7112C67.0748 83.9793 66.8556 84.402 66.7337 84.6458C66.6039 84.8893 66.4822 85.1009 66.4496 85.1175C66.409 85.1256 66.3842 85.1818 66.3841 85.2385C66.3841 85.2873 66.2787 85.5555 66.1488 85.8235C66.0188 86.0916 65.6688 86.8396 65.3763 87.4895C65.0758 88.1393 64.694 88.8865 64.5316 89.1546C64.3691 89.4226 64.0528 89.8697 63.4193 90.6575H62.0375C61.0062 90.6575 60.5677 90.6328 60.3158 90.5354C60.0073 90.4299 59.9662 90.4301 59.9662 90.5354C59.9662 90.641 59.2672 90.6575 54.1976 90.6575C49.8592 90.6575 48.3237 90.6329 48.015 90.5598C47.7145 90.4786 47.5927 90.4792 47.5521 90.5442C47.5109 90.609 47.1439 90.6327 45.3421 90.6165V88.6262L53.3685 88.635H61.5746C61.7208 88.6269 61.8026 88.5049 62.0462 87.9202C62.2087 87.5221 62.4358 87.0018 62.5658 86.7581C62.6876 86.5144 62.9639 85.889 63.1752 85.3772C63.3863 84.8655 63.7436 84.0042 63.9711 83.468C64.1985 82.9319 64.5645 82.1682 64.7757 81.762C64.9557 81.4159 65.2101 80.9269 65.5736 80.2073C65.5753 80.2055 65.5777 80.2042 65.5794 80.2024L65.7777 79.9885L65.7992 80.9739ZM67.0101 77.3753C67.1076 77.1803 67.1726 77.1228 67.2132 77.1878C67.2456 77.2445 67.2775 77.3418 67.2777 77.3987C67.2777 77.4474 67.1968 77.6187 67.0912 77.7649C66.9938 77.9029 66.8717 78.0973 66.8148 78.1868C66.7661 78.2761 66.6848 78.3414 66.6361 78.3333C66.5793 78.3171 66.5714 78.3745 66.6039 78.4964C66.6091 78.5134 66.6115 78.5293 66.6146 78.5432C66.5975 78.5683 66.5805 78.593 66.5638 78.6175C66.5039 78.6354 66.3422 78.862 66.181 79.1624C66.1601 79.2013 66.1376 79.2381 66.1175 79.2747C65.9885 79.4654 65.8975 79.6044 65.8509 79.676C65.8904 79.5606 66.0205 79.2803 66.181 78.9592C66.3841 78.553 66.5958 78.236 66.6527 78.2522C66.7014 78.26 66.7582 78.1949 66.7582 78.1057C66.7663 78.0164 66.7745 77.8947 66.7826 77.846C66.7907 77.7891 66.8315 77.7487 66.8802 77.7649C66.9289 77.7727 66.9935 77.7241 67.0179 77.6594C67.0504 77.5783 67.034 77.5586 66.9691 77.6018C66.9123 77.6343 66.929 77.5376 67.0101 77.3753ZM19.3197 37.8186C19.3116 37.8267 19.1574 37.8509 18.9789 37.8753C18.8001 37.8915 18.4749 37.9571 18.2474 38.0139C18.0281 38.0627 17.7841 38.1273 17.7191 38.1516C17.6541 38.1841 17.5729 38.1926 17.5404 38.1926C17.4997 38.1845 17.3451 38.2247 17.1908 38.2815C17.0365 38.3303 16.9066 38.404 16.9066 38.4446C16.9064 38.4769 16.8824 38.4927 16.85 38.4846C16.8093 38.4765 16.6547 38.5176 16.5003 38.5745C16.3462 38.6394 16.1435 38.7046 16.0541 38.721C15.9647 38.7372 15.8665 38.794 15.8421 38.8508C15.8016 38.9155 15.753 38.9232 15.68 38.8665C15.5989 38.8097 15.5826 38.818 15.6312 38.8909C15.6637 38.9478 15.6471 38.9889 15.5902 38.9807C15.5334 38.9727 15.4445 38.9727 15.3959 38.9807C15.3471 38.9807 15.2248 39.0613 15.1273 39.1507C15.038 39.2399 14.9409 39.3136 14.9164 39.3137H14.8021C14.7613 39.3141 14.6722 39.3625 14.6156 39.4192C14.5586 39.4842 14.3636 39.6062 14.1849 39.6956C14.0064 39.7849 13.7469 39.9712 13.6087 40.093C13.4709 40.2228 13.3245 40.345 13.2835 40.3616C13.2429 40.3778 13.1366 40.4424 13.0472 40.4993C12.9581 40.5641 12.926 40.6133 12.9662 40.6135C13.0149 40.6135 12.8932 40.7187 12.7064 40.8567C12.5114 40.9867 12.1862 41.2718 11.975 41.4749C11.7558 41.6778 11.5853 41.8486 11.5853 41.8567C11.5761 41.864 11.4704 41.7988 11.3412 41.718C11.203 41.6369 10.9514 41.5562 10.7728 41.5481C10.5941 41.54 10.4153 41.5149 10.3666 41.4905C10.3255 41.4581 10.1229 41.4254 9.92027 41.4173C9.71739 41.401 9.44914 41.3367 9.31089 41.2717C9.18091 41.2068 8.97737 41.15 8.86363 41.1419C8.75008 41.1338 8.62836 41.1093 8.57945 41.093C8.53883 41.0687 8.40869 41.052 8.30308 41.052C8.12434 41.0601 8.10808 41.093 8.09996 41.4505C8.09183 41.6616 8.07549 41.8323 8.05113 41.8323C8.02671 41.8324 7.96214 41.9218 7.91343 42.0354C7.85668 42.1489 7.79965 42.2622 7.79136 42.303C7.79136 42.3355 7.72647 42.3929 7.66148 42.4417C7.59649 42.4904 7.56386 42.5713 7.58824 42.6282C7.62064 42.6769 7.61245 42.7258 7.56382 42.7258C7.51508 42.7258 7.48277 43.0425 7.48277 43.5217C7.47464 43.9523 7.51476 44.5861 7.57164 44.9192C7.62038 45.2523 7.67715 45.5857 7.70152 45.6507C7.73395 45.7156 7.74284 45.8051 7.73472 45.8538C7.7269 45.9032 7.78291 46.1381 7.85581 46.3811C7.9289 46.6247 8.04306 46.9092 8.09996 47.0149C8.16478 47.1121 8.19721 47.2257 8.1732 47.2747C8.14885 47.3234 8.18938 47.4128 8.25425 47.4778C8.31925 47.5428 8.37632 47.6247 8.37632 47.6653C8.37688 47.6985 8.48174 47.8771 8.61949 48.0716C8.74924 48.2581 8.86322 48.4443 8.86363 48.4934C8.86363 48.5421 8.90412 48.5744 8.94468 48.5745C8.99343 48.5745 9.01007 48.6078 8.9857 48.6565C8.96156 48.705 8.98539 48.7374 9.02574 48.7376C9.07447 48.7376 9.0911 48.7699 9.06675 48.8186C9.0424 48.8673 9.05065 48.9156 9.09117 48.9319C9.12366 48.9482 9.22969 49.1113 9.33531 49.2981C9.43277 49.4768 9.55447 49.6798 9.59507 49.7366C9.64387 49.7854 9.75771 49.9237 9.84703 50.0374C9.94447 50.1511 10.0744 50.3215 10.1312 50.427C10.1959 50.5241 10.2847 50.5892 10.3255 50.5657C10.3742 50.5413 10.4075 50.5734 10.4076 50.6301C10.4076 50.6789 10.5863 50.8981 10.8138 51.1175C11.0332 51.3287 11.301 51.5404 11.4066 51.5891C11.5041 51.6378 11.6506 51.6617 11.7318 51.6292C11.8048 51.6046 11.8695 51.5075 11.8695 51.4182C11.8694 51.3289 11.8048 51.1262 11.7318 50.9719C11.6505 50.8176 11.5687 50.695 11.5443 50.7112C11.5201 50.7192 11.5118 50.7111 11.5199 50.6868C11.5276 50.6615 11.4792 50.483 11.4144 50.2805C11.3494 50.0773 11.2362 49.6792 11.1712 49.387C11.1063 49.0945 11.0247 48.6965 11.0003 48.4934C10.9679 48.2901 10.9434 47.7457 10.9515 47.2747C10.9596 46.8038 10.9841 46.2925 11.0003 46.138C11.0166 45.9837 11.0492 45.7968 11.0736 45.7317C11.098 45.6667 11.1625 45.4061 11.2113 45.1624C11.2682 44.9186 11.4229 44.5372 11.5609 44.3098C11.6987 44.0911 11.8525 43.8803 11.9017 43.8469C11.9503 43.8145 11.967 43.7817 11.9349 43.7815C11.8943 43.7815 12.097 43.5625 12.3812 43.2864C12.6574 43.0183 13.1447 42.6197 13.4535 42.4085C13.7703 42.1972 14.2668 41.9297 14.5755 41.8079C14.876 41.6861 15.1766 41.5882 15.2416 41.5882C15.3144 41.588 15.3385 41.5473 15.306 41.4905C15.2629 41.4204 15.2767 41.4072 15.347 41.4505C15.3962 41.4828 15.6153 41.4747 15.8343 41.426C16.0456 41.3854 16.3056 41.328 16.4193 41.3118C16.533 41.2874 16.6224 41.2711 16.6224 41.263C16.6266 41.2545 16.7874 41.2302 16.9877 41.2141C17.1908 41.1898 17.5731 41.1741 17.8412 41.1741C18.1093 41.166 18.532 41.1904 18.7757 41.2229C19.0195 41.2554 19.4257 41.3282 19.6693 41.385C19.9129 41.4419 20.2131 41.5316 20.3431 41.5803C20.465 41.6291 20.6281 41.7668 20.7093 41.8967C20.7906 42.0186 20.953 42.3928 21.0668 42.7258C21.1804 43.0587 21.3422 43.5701 21.4154 43.8626C21.4966 44.155 21.708 44.7243 21.8949 45.1223C22.0736 45.5204 22.4236 46.1624 22.6673 46.5442C22.911 46.926 23.2442 47.3812 23.4066 47.5598C23.561 47.7305 23.8204 48.0069 23.9828 48.1692C24.1452 48.3235 24.4542 48.5989 24.6654 48.7776C24.8765 48.9563 25.1202 49.1275 25.2015 49.1682C25.3478 49.217 25.3564 49.1842 25.3158 48.6399C25.2995 48.315 25.2669 47.7542 25.2425 47.3967C25.2182 47.0392 25.194 46.1052 25.1859 45.3255C25.1778 44.5456 25.2022 43.4808 25.2347 42.969C25.2672 42.4577 25.3321 41.9546 25.3646 41.8567C25.4377 41.678 25.478 41.6699 26.3148 41.678C26.7941 41.6861 27.3875 41.7422 27.6312 41.7991C27.8748 41.8559 28.1345 41.9133 28.1996 41.9133C28.2889 41.9133 28.2645 41.8566 28.1185 41.7024C28.0048 41.5887 27.6473 41.271 27.3304 41.011C27.0069 40.7441 26.7399 40.5501 26.7377 40.5725C26.7377 40.5969 26.6398 40.5241 26.5179 40.4104C26.3879 40.2967 26.2415 40.2073 26.1927 40.2073C26.136 40.2072 26.079 40.183 26.0707 40.1507C26.0544 40.11 25.827 39.9717 25.5589 39.8255C25.2907 39.6873 24.5271 39.2893 23.8529 38.9563C23.1867 38.6151 22.4149 38.2576 22.1468 38.1682C21.8791 38.0709 21.5872 37.9893 21.4974 37.9729C21.4081 37.9567 21.1722 37.9244 20.9691 37.8919C20.7661 37.8675 20.3194 37.8346 19.9701 37.8264C19.6207 37.8183 19.3278 37.8186 19.3197 37.8186ZM36.1615 32.2053C35.9178 32.1891 35.5844 32.1973 35.43 32.2298C35.2675 32.2624 34.9755 32.3919 34.7806 32.5217C34.5775 32.6517 34.3335 32.8305 34.2279 32.928C34.1304 33.0174 34.0492 33.1393 34.0492 33.1799C34.0493 33.2287 34.9834 33.5289 36.1205 33.8538C38.0538 34.398 38.209 34.4313 38.3959 34.3176C38.5096 34.2527 38.6313 34.1219 38.68 34.0325C38.7448 33.9027 38.7121 33.805 38.5336 33.5696C38.4035 33.399 38.1604 33.1389 37.9818 32.9846C37.8112 32.8303 37.5264 32.6196 37.3558 32.5139C37.1933 32.4164 36.9575 32.3108 36.8275 32.2864C36.7055 32.262 36.4051 32.2297 36.1615 32.2053Z" fill="white" fill-opacity="0.99"/>
<path fill-rule="evenodd" clip-rule="evenodd" d="M61.2657 25.6973C61.6069 25.7298 61.68 25.7867 62.3381 26.4935C62.7199 26.9078 63.0611 27.3384 63.0774 27.4521C63.1018 27.5659 63.0774 27.6877 63.0205 27.7365C62.9636 27.7771 62.6468 27.8421 62.3137 27.8746C61.9806 27.9071 61.1844 28.0452 60.5345 28.1833C59.8845 28.3214 58.8608 28.5164 58.2596 28.622C57.6584 28.7276 56.9597 28.8657 56.716 28.9388C56.4723 29.0038 55.9929 29.1257 55.6598 29.2069C55.3267 29.28 54.9855 29.3206 54.9043 29.2963C54.8311 29.2638 54.7418 29.1825 54.7012 29.1175C54.6687 29.0363 54.7174 28.9226 54.8474 28.7845C54.9611 28.6626 55.4323 28.3133 55.9036 28.0045C56.3748 27.6958 57.3091 27.1678 57.9753 26.8347C58.6496 26.5097 59.5758 26.1035 60.047 25.9492C60.6888 25.7298 60.9894 25.6648 61.2657 25.6973ZM57.8128 35.5518C57.9022 35.568 58.2271 35.6817 58.544 35.7955C58.8608 35.9173 59.5189 36.1936 60.0064 36.4129C60.4938 36.6322 60.9163 36.8435 60.9407 36.876C60.965 36.9085 61.1275 37.0141 61.3063 37.1034C61.485 37.2009 61.7206 37.3228 61.8344 37.3797C61.9481 37.4365 62.0618 37.5178 62.0943 37.5665C62.1268 37.6071 62.1837 37.6477 62.2162 37.6477C62.2487 37.6559 62.4437 37.7615 62.6468 37.8833C62.8499 38.0133 63.2155 38.2489 63.4592 38.4114C63.703 38.5658 64.1742 38.8907 64.4992 39.1263C64.816 39.3619 65.1247 39.5569 65.1654 39.5569C65.206 39.5569 65.271 39.6056 65.3035 39.6625C65.3441 39.7194 65.6447 39.9712 65.9778 40.2231C66.3109 40.483 66.644 40.7349 66.709 40.7999C66.774 40.8567 67.692 41.6204 68.7401 42.4978C69.7881 43.3752 70.8118 44.2526 71.0149 44.4638C71.3074 44.7644 71.3643 44.8537 71.2749 44.935C71.1936 45.0243 71.0636 45.0081 70.6249 44.8619C70.3243 44.7563 69.845 44.545 69.5525 44.3907C69.26 44.2282 68.7482 43.9682 68.4151 43.8057C68.082 43.6433 67.7083 43.5133 67.5864 43.5052C67.4727 43.497 67.3914 43.4727 67.4077 43.4402C67.4239 43.3995 67.3671 43.3589 67.2777 43.3346C67.1883 43.3102 67.1152 43.3183 67.1152 43.3589C67.1233 43.3914 67.4321 43.7651 67.822 44.1876C68.2039 44.61 68.6507 45.1056 68.8132 45.2924C68.9757 45.4712 69.2519 45.7961 69.4306 46.0074C69.6094 46.2186 69.8369 46.4948 69.9425 46.6167C70.0481 46.7304 70.2918 47.0391 70.4949 47.2991C70.6899 47.5509 70.8118 47.7459 70.7712 47.7215C70.7305 47.6971 70.6899 47.7134 70.6899 47.7621C70.6899 47.8109 70.6493 47.8434 70.6006 47.8434C70.5518 47.8434 70.4624 47.9002 70.3974 47.9652C70.3325 48.0302 70.3081 48.1115 70.3406 48.1358C70.3812 48.1602 70.1862 48.079 69.9181 47.9571C69.65 47.8353 69.2275 47.5997 68.9838 47.4372C68.7401 47.2666 68.2607 46.9822 67.9276 46.7954C67.5945 46.6085 66.9121 46.2592 66.4246 46.0236C65.9372 45.788 64.9947 45.3737 64.3285 45.0975C63.6705 44.8212 63.1343 44.5613 63.1343 44.5125C63.1343 44.4638 63.2236 44.415 63.3374 44.3907C63.4592 44.3663 63.5405 44.2932 63.5405 44.2119C63.5405 44.1307 63.4267 43.9032 63.2805 43.7001C63.1424 43.497 62.8743 43.1315 62.6955 42.8877C62.5087 42.644 62.2487 42.3191 62.1187 42.1647C61.9887 42.0103 61.7206 41.7179 61.5256 41.5148C61.3388 41.3117 61.1844 41.1167 61.1844 41.0842C61.1844 41.0436 61.3469 40.9461 61.55 40.8567C61.7531 40.7674 61.9562 40.6943 61.9968 40.6943C62.0375 40.6943 62.0781 40.6455 62.0781 40.5968C62.0781 40.5399 61.8344 40.1418 61.55 39.7194C61.2575 39.2969 60.7701 38.6551 60.4695 38.3058C60.1689 37.9483 59.6327 37.404 59.2752 37.0953C58.9177 36.7866 58.3165 36.3317 57.9347 36.0798C57.301 35.6574 57.2603 35.6167 57.4472 35.568C57.5609 35.5355 57.7234 35.5274 57.8128 35.5518ZM63.4592 48.737C63.508 48.737 63.8086 48.8751 64.1336 49.0457C64.4504 49.2082 64.8972 49.4276 65.1247 49.525C65.3522 49.6144 65.8153 49.7931 66.1646 49.9069C66.5059 50.0206 67.1639 50.2075 67.6189 50.3212C68.082 50.4268 68.5451 50.5324 68.6588 50.5568C68.7726 50.5812 68.9351 50.6137 69.0244 50.638C69.1138 50.6543 69.455 50.7274 69.78 50.8005C70.0968 50.8736 70.365 50.963 70.365 51.0117C70.365 51.0605 70.4543 51.0767 70.5681 51.0524C70.6818 51.028 70.7712 51.0442 70.7712 51.093C70.7712 51.1417 70.8687 51.158 70.9905 51.1336C71.1611 51.1011 71.1368 51.1174 70.9093 51.2148C70.7062 51.2961 70.6249 51.3773 70.6493 51.4586C70.6737 51.5236 70.763 51.5804 70.8524 51.5804C71.0068 51.5804 71.0068 51.5885 70.8687 51.7754C70.7955 51.8891 70.4543 52.1085 70.1212 52.271C69.78 52.4416 69.065 52.6853 68.4801 52.8315C67.9195 52.9696 67.4239 53.1077 67.3833 53.1402C67.3508 53.1727 67.4727 53.5383 67.6595 53.9526C67.8545 54.367 68.0089 54.7325 68.0089 54.765C68.0089 54.8057 68.0576 54.9519 68.1226 55.09C68.1876 55.2362 68.3339 55.7399 68.4395 56.2111C68.5532 56.6823 68.7401 57.5759 68.8538 58.2015C68.9594 58.827 69.0732 59.4688 69.0975 59.6232C69.13 59.7775 69.1707 60.1269 69.2032 60.395C69.2438 60.6631 69.2682 61.4105 69.26 62.0604C69.26 62.7103 69.2438 63.3521 69.2194 63.4983C69.2032 63.6365 69.1625 63.7339 69.1219 63.7177C69.0894 63.7014 69.0651 63.7339 69.0732 63.7827C69.0813 63.8396 69.0569 63.9695 69.0326 64.067C69.0082 64.1726 68.9269 64.2539 68.8619 64.2539C68.7969 64.2539 68.7319 64.2051 68.7319 64.1483C68.7238 64.0995 68.7238 64.0264 68.7319 63.9858C68.7319 63.9533 68.7157 63.9289 68.6751 63.9289C68.6426 63.9289 68.5695 63.7746 68.5045 63.5877C68.4395 63.3927 68.3826 63.2221 68.3745 63.1978C68.3745 63.1734 68.2201 62.8647 68.0333 62.5072C67.8464 62.1498 67.5295 61.6298 67.3427 61.3536C67.1477 61.0774 66.6846 60.5412 66.3028 60.1512C65.9209 59.7694 65.5878 59.4526 65.5472 59.4607C65.5147 59.4607 65.4903 59.4688 65.4822 59.477C65.4822 59.4932 65.466 59.6638 65.4416 59.8669C65.4172 60.07 65.3278 60.5087 65.2385 60.8418C65.1491 61.1749 64.9297 61.7273 64.7591 62.0604C64.5804 62.3935 64.3042 62.9459 64.1417 63.279C63.9873 63.6121 63.4349 64.6032 62.9149 65.4725C62.3949 66.3417 61.9156 67.146 61.8344 67.2598C61.7612 67.3735 61.3875 68.1047 60.9975 68.8846C60.6157 69.6645 60.1851 70.615 60.0389 70.9968C59.9008 71.3786 59.7139 71.9067 59.6245 72.1748C59.5352 72.4429 59.4458 72.7516 59.4295 72.8653C59.4052 72.9791 59.3727 73.1253 59.3402 73.1903C59.3158 73.2553 59.2752 73.369 59.2589 73.434C59.2427 73.499 59.2102 73.7021 59.1858 73.8808C59.1614 74.0596 59.1208 74.2464 59.0964 74.287C59.0721 74.3276 59.0314 74.5714 59.0152 74.8151C58.999 75.0588 58.9665 75.3513 58.934 75.465C58.9096 75.5787 58.8771 76.188 58.8771 76.8217C58.869 77.4635 58.8933 77.9834 58.934 77.9834C58.9665 77.9834 58.9665 78.1947 58.9421 78.4465C58.9096 78.7065 58.8608 78.9583 58.8202 78.999C58.7877 79.0396 58.7715 78.9177 58.7958 78.7146C58.8283 78.4303 58.804 78.3165 58.6902 78.2109C58.609 78.1297 58.5684 78.0159 58.6009 77.9672C58.6334 77.9103 58.6334 77.8291 58.6009 77.7966C58.5684 77.756 58.5359 77.626 58.5277 77.5123C58.5196 77.3904 58.4871 76.7811 58.4465 76.1555C58.414 75.53 58.3896 74.4495 58.3977 73.759C58.414 73.0684 58.4546 71.728 58.4952 70.7937C58.544 69.7295 58.6171 68.9496 58.6902 68.7221C58.7552 68.519 58.9421 68.0803 59.1046 67.7472C59.2752 67.4141 59.722 66.5123 60.112 65.7406C60.502 64.9688 60.8594 64.2701 60.9001 64.1808C60.9407 64.0914 61.2981 63.3846 61.6881 62.6128C62.07 61.841 62.4274 61.0611 62.4762 60.8824C62.5168 60.7037 62.5737 60.4437 62.598 60.3137C62.6224 60.1837 62.663 59.8669 62.6955 59.6232C62.7199 59.3795 62.7037 58.9002 62.6549 58.5671C62.6143 58.234 62.5331 57.7384 62.4924 57.4703C62.4437 57.2022 62.3299 56.7473 62.2325 56.4548C62.135 56.1624 61.8994 55.5449 61.6962 55.0737C61.485 54.5863 61.3469 54.1314 61.3875 53.7902L61.7937 53.9445C62.0212 54.0339 62.4599 54.2938 62.7687 54.5294C63.0855 54.7569 63.6136 55.1712 63.9467 55.4393C64.2798 55.7074 64.5966 55.9593 64.6454 56.008C64.686 56.0567 65.076 56.3573 65.4985 56.6742C65.9209 56.9991 66.3109 57.2672 66.3678 57.2672C66.4246 57.2672 66.449 57.2022 66.4246 57.121C66.4084 57.0479 66.2946 56.5279 66.1728 55.9674C66.059 55.4068 65.929 54.9438 65.8884 54.9275C65.8478 54.9194 65.8315 54.8788 65.8559 54.83C65.8803 54.7813 65.7991 54.3913 65.6853 53.9526C65.5634 53.5221 65.4578 53.0752 65.4416 52.9615C65.4335 52.8478 65.2872 52.4497 65.1247 52.0679C64.9622 51.686 64.5885 50.9792 64.2879 50.4837C63.9954 49.9881 63.6542 49.4276 63.5242 49.2245C63.4024 49.0214 63.3211 48.8345 63.3455 48.7939C63.3699 48.7614 63.4186 48.737 63.4592 48.737Z" fill="white" fill-opacity="0.99"/>
<rect x="43.5605" y="88.7148" width="2.63736" height="1.97802" fill="white"/>
<rect x="67.6523" y="77.0703" width="3.02481" height="9.10426" transform="rotate(29.1203 67.6523 77.0703)" fill="white"/>
</svg>
