<svg width="109" height="114" viewBox="0 0 109 114" fill="none" xmlns="http://www.w3.org/2000/svg">
<path d="M81.5754 7.0004C83.1023 6.99478 84.2685 7.04886 85.051 7.16446C85.6978 7.25875 86.8833 7.50848 87.6848 7.71719C88.4862 7.92591 89.5459 8.24615 90.0393 8.42911C90.5325 8.61203 91.4149 8.97371 92.0012 9.23184C92.5875 9.4911 93.5711 9.98509 94.1877 10.3285C95.0227 10.7954 95.5386 11.186 96.2111 11.8627C96.8208 12.4754 97.2431 13.0243 97.5178 13.5551C97.7397 13.9871 98.009 14.6437 98.1144 15.0141C98.2647 15.5415 98.2951 15.9917 98.257 17.0902C98.2189 18.1732 98.154 18.6338 97.968 19.1107C97.8346 19.4508 97.0467 20.9144 96.216 22.3656C95.3853 23.8167 94.5262 25.2437 93.9074 26.0697L94.7482 27.0229C95.2112 27.548 95.7735 28.2678 96.0012 28.6225C96.2276 28.9771 96.5244 29.5209 96.6623 29.8295C96.7991 30.1382 96.9982 30.819 97.1047 31.3441C97.2403 32.0142 97.274 32.4984 97.218 32.9721C97.1731 33.3425 97.0424 33.9485 96.9269 34.3188C96.8102 34.6894 96.3362 35.661 95.8723 36.4789C95.4081 37.2971 95.0285 38.0168 95.0285 38.0785C95.0292 38.1409 95.2862 38.4821 95.6008 38.8363C95.9158 39.191 96.3788 39.7844 96.631 40.1547C96.8822 40.5251 97.2281 41.131 97.3996 41.5014C97.5711 41.8718 97.7947 42.5041 97.8967 42.9047C98.0334 43.4422 98.0669 43.9292 98.0266 44.7563C97.9884 45.5463 97.8954 46.0785 97.716 46.5522C97.5717 46.9278 92.5677 55.7134 86.591 66.0805C80.6136 76.4488 75.5145 85.2554 75.257 85.6537C75.0014 86.0488 74.5138 86.6305 74.173 86.9447C73.8322 87.2601 73.2651 87.6689 72.2707 88.1908L72.2727 88.8637C72.2727 89.234 72.1926 89.9675 72.0939 90.4916C71.9953 91.0158 71.7613 91.9 71.5764 92.4555C71.3914 93.011 70.9519 94.0712 70.5988 94.8119C70.2468 95.5527 69.5138 96.9426 68.9689 97.8988C68.4253 98.855 67.5107 100.345 66.9367 101.209C66.3627 102.074 65.5216 103.211 65.0676 103.735C64.6136 104.259 63.835 105.017 63.3361 105.418C62.8384 105.82 61.9838 106.381 61.4367 106.667C60.8909 106.954 60.1153 107.298 59.715 107.434C59.3149 107.569 58.6456 107.752 58.2297 107.84C57.7745 107.936 56.8244 107.999 55.8469 107.999C54.6553 107.999 53.9154 107.938 53.0725 107.77C52.4403 107.643 51.3182 107.338 50.5783 107.091C49.8385 106.844 48.5022 106.332 47.6076 105.953C46.713 105.572 44.6949 104.622 43.1232 103.84C41.5515 103.059 39.7594 102.128 39.1428 101.772C38.5262 101.415 37.5677 100.815 37.0129 100.439C36.4579 100.062 35.5467 99.2982 34.9885 98.7416C34.4291 98.1849 33.7777 97.4274 33.5412 97.057C33.3036 96.6867 33.1054 96.3721 33.0998 96.3598C33.091 96.346 32.5583 96.2787 31.9123 96.2094C31.2643 96.1409 30.307 95.9603 29.7824 95.81C29.2578 95.6596 28.1232 95.1868 27.26 94.7592C26.3967 94.3327 24.9474 93.5135 24.0383 92.9389C23.1302 92.3642 21.4428 91.2374 20.2893 90.435C19.1357 89.6325 17.483 88.4483 16.6164 87.8041C15.6423 87.0802 14.5042 86.094 13.6389 85.2221C12.6479 84.2244 12.0818 83.5486 11.7062 82.9145C11.4136 82.4217 10.9993 81.6133 10.7863 81.1195C10.5722 80.6258 10.3075 79.8944 10.1965 79.4926C10.0373 78.9123 9.99683 78.3498 10.0002 76.7426C10.0047 74.8684 10.0268 74.6494 10.3127 73.7123C10.4808 73.1568 10.9173 72.0966 11.2805 71.3559C11.6437 70.6152 12.2081 69.6046 12.5344 69.1107C12.8606 68.6169 13.4936 67.8339 13.9387 67.3715C14.6326 66.6499 14.7896 66.4095 15.0373 65.6879C15.1976 65.2255 15.5223 64.4415 15.76 63.9477C15.9977 63.4538 16.5454 62.5189 16.9758 61.8715C17.4052 61.2239 18.1301 60.3134 18.5852 59.85C19.0403 59.3865 19.7532 58.7804 20.9289 57.9994L20.9269 57.2426C20.9258 56.741 21.0173 56.2099 21.1955 55.6713C21.3659 55.155 22.2328 53.5214 23.5646 51.2094C24.7216 49.2037 29.7017 40.5678 34.632 32.018C39.5625 23.468 43.7925 16.2085 44.0324 15.8842C44.2723 15.5599 44.7329 15.0854 45.0568 14.8295C45.3807 14.5737 45.9476 14.2212 46.3176 14.0482C46.6875 13.8743 47.2933 13.6544 47.6633 13.559C48.0837 13.4512 48.8203 13.387 49.6252 13.3881C50.4367 13.3903 51.2886 13.4678 51.923 13.599C52.478 13.7146 52.937 13.8022 52.9426 13.7943L52.9455 13.7895C52.9817 13.726 53.3469 13.0867 53.7824 12.3207C54.2543 11.4925 54.8798 10.5758 55.2307 10.1986C55.5691 9.83286 56.0991 9.3738 56.4074 9.17618C56.7157 8.97977 57.2466 8.71413 57.5852 8.58731C57.9239 8.45939 58.6301 8.2968 59.1545 8.225C59.884 8.12518 60.3694 8.12586 61.2277 8.22793C61.8442 8.30087 62.8533 8.50224 63.4699 8.67618C64.0865 8.85125 65.3984 9.32044 66.385 9.7211C67.3715 10.1207 68.4312 10.5584 69.3 10.9389L71.5978 9.72793C72.8613 9.06239 74.2999 8.35848 74.7932 8.16543C75.2865 7.97128 76.0939 7.70605 76.5871 7.57364C77.0803 7.44123 77.8869 7.25996 78.3801 7.17129C78.9529 7.06804 80.1079 7.00601 81.5754 7.0004ZM82.2385 8.96036C81.3439 8.93457 80.1838 8.96143 79.6603 9.0209C79.1368 9.07927 78.2027 9.24874 77.5861 9.39688C76.9695 9.54505 76.0617 9.8276 75.5685 10.0229C75.0751 10.2183 73.4729 11.0044 72.009 11.7709L69.3469 13.1654C66.6107 11.9681 65.2351 11.4072 64.5266 11.1479C63.818 10.8886 62.8333 10.5811 62.34 10.4633C61.8468 10.3466 61.09 10.2192 60.6584 10.1811C60.2088 10.1418 59.5617 10.1682 59.1447 10.2445C58.7445 10.3175 58.1182 10.5376 57.7551 10.7328C57.3907 10.9281 56.8862 11.3236 56.634 11.6098C56.3805 11.8973 55.644 13.0494 54.9973 14.1703C54.1083 15.7124 53.7782 16.1931 53.6516 16.1381C53.559 16.0986 53.0048 15.9318 52.4191 15.767C51.4831 15.5044 51.1496 15.4683 49.6721 15.4672C48.0039 15.4661 47.9847 15.4691 47.2336 15.8305C46.8177 16.0314 46.2625 16.4131 46.0002 16.6791C45.6569 17.0284 42.4108 22.5602 34.5217 36.2357C28.4716 46.7238 23.4197 55.5066 23.2932 55.7572C23.1698 56.0041 23.0128 56.5099 22.9455 56.8803C22.8637 57.3335 22.8601 57.7541 22.9318 58.1703C22.9912 58.5091 23.0706 58.8885 23.1076 59.0121C23.1636 59.1984 23.0928 59.2646 22.6906 59.4037C22.4249 59.4969 21.8527 59.8034 21.4211 60.0873C20.9895 60.3701 20.3076 60.9517 19.9074 61.3793C19.5061 61.8058 18.9435 62.5088 18.6555 62.9408C18.3673 63.373 17.9254 64.1307 17.6721 64.6244C17.4187 65.1183 17.0618 65.9889 16.8791 66.56C16.5585 67.5577 16.51 67.632 15.6613 68.4682C15.1749 68.9462 14.4999 69.7673 14.1613 70.2914C13.8216 70.8155 13.3434 71.6501 13.0978 72.144C12.8512 72.6378 12.5154 73.446 12.3518 73.9398C12.1881 74.4337 11.9956 75.2674 11.925 75.7914C11.8275 76.5119 11.8273 76.9922 11.926 77.7553C11.9977 78.3108 12.1756 79.1191 12.3225 79.5512C12.4682 79.9833 12.7291 80.6155 12.9006 80.9545C13.0711 81.2935 13.4684 81.9451 13.7844 82.4027C14.1005 82.8595 14.7882 83.6367 15.3117 84.1283C15.8354 84.6211 17.0217 85.5894 17.9465 86.2807C18.8713 86.9731 20.4961 88.1403 21.5588 88.8754C22.6204 89.6116 24.1603 90.6398 24.9787 91.1606C25.7971 91.6813 27.0212 92.3976 27.6994 92.7533C28.3776 93.1091 29.3867 93.5516 29.9416 93.7367C30.4964 93.9218 31.3917 94.1267 31.9309 94.1918C32.4699 94.2569 33.2267 94.2794 33.6125 94.2436L34.3137 94.1762C34.613 94.9326 34.9111 95.4795 35.1701 95.8813C35.4291 96.2831 35.9776 96.9385 36.3879 97.3402C36.7993 97.742 37.5846 98.3781 38.135 98.7563C38.6843 99.1334 39.6385 99.7343 40.2551 100.091C40.8717 100.447 42.6121 101.352 44.1232 102.103C45.6344 102.854 47.5005 103.736 48.2707 104.063C49.0419 104.391 50.3275 104.877 51.1291 105.145C51.9307 105.412 52.9903 105.719 53.4836 105.827C54.0956 105.96 54.8602 106.019 55.8937 106.017C57.044 106.013 57.6092 105.957 58.2482 105.787C58.7112 105.662 59.4923 105.375 59.9855 105.147C60.4787 104.918 61.1848 104.515 61.5549 104.25C61.9248 103.984 62.6776 103.294 63.2258 102.714C63.8233 102.085 64.6417 101.031 65.2639 100.09C65.8344 99.2261 66.8105 97.6096 67.4338 96.4984C68.056 95.3873 68.7918 93.9605 69.0676 93.3275C69.3444 92.6947 69.704 91.7356 69.8654 91.1957C70.1087 90.3899 70.1639 89.972 70.174 88.8666C70.1819 88.1262 70.1613 87.3231 70.131 87.0824L70.0754 86.644C71.2244 86.406 71.7931 86.1805 72.1496 85.9594C72.4881 85.7483 72.9497 85.3564 73.175 85.0883C73.4026 84.8161 78.4781 76.1144 84.4553 65.7465C90.433 55.3776 95.4701 46.6152 95.6486 46.2738C95.9479 45.7026 95.9719 45.5657 95.9719 44.4223C95.9707 43.2573 95.9497 43.1425 95.5988 42.4018C95.3948 41.9697 95.0436 41.3637 94.8205 41.0551C94.5963 40.7464 93.9662 40.0394 93.4191 39.4838L92.425 38.474C94.3549 35.0832 94.9741 33.8952 95.0461 33.6479C95.1178 33.401 95.1733 32.8455 95.1711 32.4135C95.1677 31.9241 95.0826 31.3951 94.9435 31.0102C94.8213 30.6701 94.5295 30.0895 94.2941 29.7191C94.0599 29.3489 93.4824 28.6501 93.0139 28.1664C92.5441 27.6827 91.8194 27.0136 91.4035 26.6791C90.9878 26.3459 90.6463 26.0339 90.6437 25.9877C90.6415 25.9417 90.8541 25.8025 91.1174 25.6791C91.3797 25.5556 91.8749 25.1774 92.218 24.8373C92.6966 24.3614 93.1943 23.6003 94.3801 21.5268C95.2265 20.0453 96.0035 18.6048 96.1066 18.3275C96.2321 17.9898 96.2924 17.4882 96.2902 16.8129C96.288 16.0598 96.2261 15.6451 96.049 15.185C95.9189 14.8449 95.621 14.2931 95.3879 13.9565C95.1536 13.6198 94.6798 13.114 94.3322 12.8334C93.9858 12.5528 93.0265 11.9872 92.2014 11.5775C91.3776 11.1669 90.1988 10.6444 89.5822 10.4154C88.9657 10.1865 87.906 9.85435 87.2277 9.67813C86.5497 9.50085 85.5163 9.2786 84.9299 9.18204C84.3436 9.08664 83.1331 8.98617 82.2385 8.96036Z" fill="white"/>
<path d="M58.4727 16.4425C59.0523 15.4122 59.5826 14.5009 59.6499 14.4167C59.7418 14.3033 59.9761 14.2775 60.5602 14.3202C60.9985 14.3516 61.8158 14.5334 62.411 14.7321C62.9973 14.9262 64.207 15.3954 65.1016 15.7736C65.9962 16.1518 68.1139 17.1574 69.81 18.0082C71.5051 18.8578 74.2046 20.3056 75.8077 21.2259C77.4108 22.1451 79.6305 23.4661 80.7404 24.1619C81.8502 24.8589 83.4646 25.9094 84.3278 26.4986C85.191 27.0867 86.6013 28.1036 87.4612 28.7579C88.321 29.4111 89.4331 30.3505 89.9331 30.8443C90.4331 31.3381 90.9073 31.9184 90.9891 32.135C91.136 32.5256 91.1304 32.539 89.9746 34.5256C89.0564 36.1036 88.7526 36.5379 88.5318 36.5907C88.3771 36.6277 88.1248 36.6086 87.9712 36.5492C87.8165 36.4897 86.9343 35.9083 86.0094 35.2562C85.0845 34.6053 83.4444 33.493 82.3659 32.786C81.2863 32.0789 79.2942 30.8163 77.9377 29.9801C76.5813 29.144 74.2853 27.7792 72.8369 26.9476C71.3885 26.1148 69.1183 24.8522 67.7921 24.1417C66.467 23.4302 64.5993 22.456 63.6442 21.9767C62.6891 21.4964 60.9985 20.6827 59.8886 20.1687C58.762 19.6468 57.7597 19.1092 57.6185 18.9509C57.4795 18.7949 57.3775 18.5873 57.392 18.4908C57.4066 18.3931 57.892 17.4717 58.4727 16.4425Z" fill="white"/>
<path d="M37.8721 38.6165C43.8597 28.2304 48.8406 19.6703 48.9404 19.5929C49.039 19.5155 49.3495 19.4526 49.6276 19.4537C49.9067 19.4537 50.539 19.5514 51.0323 19.6715C51.5255 19.7904 52.5221 20.0923 53.2464 20.3437C53.9706 20.594 55.4593 21.1821 56.5535 21.6513C57.6476 22.1193 59.7541 23.0935 61.2339 23.8174C62.7137 24.5413 64.7574 25.5783 65.7742 26.1238C66.791 26.6681 68.402 27.5491 69.3515 28.0811C70.3022 28.6131 71.1475 29.1496 71.2304 29.273C71.3134 29.3965 71.3806 29.5862 71.3806 29.6939C71.3795 29.8017 68.6497 34.6255 65.3123 40.4122C60.0411 49.5537 59.2575 50.97 59.3427 51.2102C59.3965 51.3617 59.6162 51.603 59.8326 51.7456C60.049 51.8892 60.3382 52.0048 60.4772 52.0037C60.6162 52.0015 60.892 51.8612 61.0915 51.6917C61.2911 51.5222 65.6419 47.6771 70.7607 43.1485C79.7998 35.1507 80.079 34.9162 80.4601 34.9644C80.7191 34.997 81.4041 35.3887 82.478 36.1182C83.3726 36.7265 84.7336 37.6805 85.5049 38.2405C86.2751 38.7994 87.5116 39.7444 88.2515 40.3393C88.9914 40.9352 90.0519 41.896 90.6091 42.4751C91.1663 43.0531 91.7089 43.7164 91.8142 43.9476C91.979 44.3067 91.9858 44.4134 91.8602 44.6771C91.7795 44.8466 86.8804 53.3696 80.9724 63.6165C75.0656 73.8635 70.1497 82.3113 70.0488 82.3898C69.9479 82.4673 69.6396 82.5313 69.3616 82.5313C69.0836 82.5313 68.3527 82.4044 67.7361 82.2507C67.1195 82.0958 65.9659 81.7288 65.1722 81.4347C64.3 81.1115 63.6229 80.7894 63.4581 80.6199C63.309 80.4662 63.189 80.226 63.1913 80.0868C63.1935 79.9476 66.1464 74.7209 69.754 68.4706C73.3604 62.2203 76.3369 56.9936 76.3683 56.8545C76.4086 56.6704 76.3178 56.4953 76.0319 56.2091C75.7472 55.924 75.5398 55.8152 75.2752 55.8129C74.9501 55.8096 73.7304 56.8533 63.8684 65.5772C56.1869 72.373 52.7497 75.3461 52.5737 75.3449C52.4347 75.3449 52.0311 75.199 51.6769 75.0206C51.3226 74.8421 50.0737 74.1541 48.9022 73.4931C47.7307 72.832 45.7891 71.7041 44.5862 70.9869C43.3833 70.2697 42.2543 69.5548 42.0772 69.3988C41.853 69.2035 41.7544 69.0116 41.7555 68.7793C41.7566 68.5941 43.0503 62.1171 44.6299 54.3853C47.1489 42.0497 47.4841 40.2921 47.3608 40.0385C47.2834 39.8791 47.1198 39.685 46.9964 39.6053C46.8731 39.5256 46.6209 39.4268 46.4359 39.3864C46.2263 39.3393 46.0278 39.3651 45.9101 39.4549C45.8059 39.5334 42.8115 44.649 39.2544 50.8219C35.6984 56.9947 32.7063 62.135 32.6054 62.245C32.5045 62.355 32.296 62.4448 32.1424 62.4448C31.9877 62.4448 31.6603 62.3112 31.4137 62.1474C31.167 61.9846 30.6884 61.6199 30.3487 61.3371C30.009 61.0542 29.4294 60.5447 29.0595 60.2035C28.6895 59.8634 28.1222 59.2798 27.7994 58.9072C27.4765 58.5346 27.1615 58.0655 27.0987 57.8646C26.9888 57.5121 27.3543 56.8601 37.8721 38.6165Z" fill="white"/>
<path d="M47.8463 77.7532C48.6154 77.7813 49.1777 77.8778 49.8649 78.0989C50.3894 78.2673 50.9184 78.4594 51.0417 78.5267C51.1647 78.5939 51.3158 78.657 51.3776 78.6673C51.4393 78.6774 51.9195 78.8728 52.443 79.1029C52.9676 79.3318 54.2533 79.931 55.3014 80.4349C56.3496 80.9377 57.2449 81.4004 57.2897 81.4632C57.3356 81.526 57.3737 81.5395 57.3737 81.4935C57.3771 81.4487 58.0209 81.7237 58.8053 82.1058C59.5908 82.4872 60.2464 82.8403 60.2624 82.8909C60.278 82.9402 60.3405 82.9562 60.402 82.9251C60.4482 82.9024 60.4884 82.9102 60.5055 82.9417L60.5231 83.0198C60.5401 83.0519 60.5803 83.0601 60.6266 83.0364C60.6729 83.0138 60.7131 83.0224 60.7301 83.054L60.7477 83.1322C60.7648 83.164 60.805 83.1723 60.8512 83.1488C60.9127 83.1189 60.9619 83.1565 60.9596 83.2337C60.9586 83.3108 60.9829 83.3352 61.0153 83.2894C61.0478 83.2434 61.4158 83.3916 61.8317 83.6195C62.2464 83.8477 62.6121 84.0783 62.6442 84.1341C62.6755 84.1889 62.7294 84.2174 62.7653 84.1976C62.8 84.1763 63.1284 84.3458 63.4938 84.5736C63.8581 84.8014 64.4101 85.2102 64.7184 85.4818C65.0468 85.7713 65.4358 86.2727 65.6588 86.6947C65.8671 87.0903 66.0483 87.5139 66.0622 87.638C66.0767 87.7615 66.1229 88.0407 66.1667 88.2562C66.2136 88.4886 66.1793 88.9696 66.0807 89.4339C65.9899 89.866 65.8534 90.3718 65.776 90.557C65.6987 90.7421 65.6422 90.9192 65.6501 90.9495C65.6568 90.983 65.3166 91.7137 64.8913 92.5765C64.4664 93.4406 63.734 94.8043 63.2643 95.6068C62.7946 96.4092 62.3618 97.0784 62.3024 97.0941C62.2443 97.1098 62.1961 97.1848 62.196 97.262C62.1948 97.3395 61.9562 97.7449 61.6637 98.1634C61.3711 98.582 61.0925 98.9235 61.0465 98.9212C61.0008 98.9194 60.962 98.9809 60.9596 99.0579C60.9585 99.1354 60.8191 99.3452 60.651 99.5247C60.4829 99.7043 60.0941 100.095 59.7858 100.394C59.4775 100.692 58.935 101.087 58.5807 101.274C58.2269 101.46 57.8987 101.617 57.8522 101.625C57.8063 101.633 57.6426 101.69 57.4879 101.754C57.3344 101.818 56.7286 101.893 56.1422 101.921C55.2545 101.964 54.8734 101.922 53.8444 101.673C53.1661 101.508 51.9049 101.093 51.0417 100.75C50.1784 100.407 49.2317 100.006 48.9391 99.8587C48.6473 99.7121 48.3836 99.5917 48.3512 99.5911C48.321 99.5911 47.3244 99.1064 46.1374 98.515C44.9503 97.9236 43.3314 97.0773 42.5387 96.6351C41.7464 96.193 41.0141 95.7568 40.9127 95.6634C40.8108 95.5703 40.5813 95.4197 40.402 95.3265C40.2226 95.2333 39.7603 94.8551 39.3747 94.4847C38.9027 94.0313 38.5592 93.5718 38.3249 93.0814C38.1344 92.6797 37.9614 92.2264 37.9401 92.0716C37.9188 91.9179 37.863 91.6142 37.817 91.3988C37.77 91.1788 37.7927 90.66 37.8678 90.22C37.9418 89.7879 38.0567 89.3085 38.1217 89.1536C38.1866 89.0001 38.2566 88.7849 38.278 88.6771C38.2993 88.5693 38.426 88.2658 38.5583 88.0032C38.6894 87.7429 38.7822 87.5303 38.7663 87.5267C38.7483 87.5267 38.8477 87.2992 38.9889 87.0208C39.129 86.7437 39.2929 86.4917 39.3512 86.4603C39.4095 86.43 39.4543 86.3531 39.4499 86.2913C39.4465 86.2277 39.7574 85.6088 40.1413 84.9154C40.5234 84.2218 40.8757 83.6551 40.9235 83.6527C40.9695 83.6527 41.0085 83.5788 41.0085 83.4857C41.0085 83.3925 41.0743 83.2545 41.1549 83.1771C41.2345 83.0996 41.3401 82.9362 41.3883 82.8128C41.4365 82.6894 41.8119 82.0824 42.2233 81.4652C42.6336 80.8479 43.3737 79.9334 43.8668 79.4329C44.3959 78.8954 45.0047 78.4009 45.3522 78.2269C45.6761 78.0642 46.13 77.8821 46.361 77.8226C46.5919 77.7631 47.2612 77.7319 47.8463 77.7532ZM49.0514 82.9779C48.7891 82.979 48.4239 83.0708 48.2389 83.1829C48.0539 83.2952 47.6828 83.6366 47.4137 83.9407C47.1446 84.2439 46.473 85.2503 45.9215 86.1761C45.37 87.1019 44.6868 88.339 44.402 88.9261C44.012 89.7306 43.8725 90.1571 43.8366 90.6654C43.794 91.2703 43.8215 91.3855 44.1129 91.7884C44.2912 92.0353 44.7881 92.4725 45.2174 92.762C45.6457 93.0505 46.8548 93.7164 47.903 94.2406C48.9512 94.7658 50.4522 95.4763 51.2379 95.8197C52.0237 96.1642 53.0582 96.5526 53.5358 96.6839C54.1196 96.8432 54.5703 96.8993 54.9088 96.8568C55.1936 96.8208 55.5843 96.6671 55.8063 96.5032C56.0226 96.3428 56.4115 95.924 56.6715 95.5716C56.9316 95.2192 57.5703 94.1987 58.0905 93.3031C58.6118 92.4074 59.2546 91.2209 59.5192 90.6654C59.7837 90.1099 60.0217 89.4291 60.0475 89.1507C60.0778 88.8241 60.0305 88.5163 59.9127 88.2806C59.7984 88.0539 59.4222 87.7143 58.9167 87.3822C58.4692 87.0892 56.565 86.107 54.6852 85.2025C52.8053 84.2968 50.8748 83.4254 50.3971 83.2659C49.9195 83.1077 49.3137 82.9779 49.0514 82.9779ZM25.5377 63.0814C25.8158 63.1185 26.3204 63.243 26.6588 63.3597C26.9985 63.4764 27.5528 63.7295 27.8913 63.9202C28.23 64.1116 28.5324 64.2983 28.5641 64.3372C28.5955 64.3743 28.8157 64.5067 29.0534 64.6302C29.291 64.7536 29.5813 64.9434 29.6979 65.0511C29.8145 65.1588 29.9605 65.2484 30.0221 65.2484C30.0834 65.2486 30.1332 65.2983 30.1335 65.3597C30.1335 65.4213 30.2097 65.4718 30.3014 65.472C30.3943 65.472 30.4701 65.5227 30.4704 65.5843C30.4704 65.6459 30.5202 65.6963 30.5817 65.6966C30.6433 65.6966 32.3205 66.8151 34.3092 68.181C36.2977 69.5466 38.4043 71.0206 38.9899 71.4564C39.5762 71.8918 40.4619 72.6553 40.9596 73.1536C41.6488 73.8425 41.9202 74.2051 42.0973 74.6751C42.2251 75.0141 42.3661 75.5198 42.4098 75.7982C42.4546 76.0866 42.4295 76.5912 42.3522 76.9759C42.2782 77.3462 42.0563 78.0028 41.859 78.4349C41.6617 78.8669 41.2636 79.5867 40.9733 80.0345C40.6841 80.4823 40.2453 81.0503 39.9987 81.2972C39.7521 81.5441 39.3868 81.8308 39.1862 81.9329C38.9855 82.035 38.6456 82.1387 38.4293 82.1634C38.2142 82.1881 38.0125 82.2313 37.9811 82.2572C37.9512 82.2848 38.0143 82.5076 38.1217 82.7552C38.2371 83.0189 38.317 83.4834 38.317 83.8782C38.317 84.2968 38.2211 84.8178 38.0631 85.2532C37.9241 85.6393 37.5589 86.4021 37.2506 86.9476C36.9434 87.493 36.3765 88.2887 35.9909 88.7152C35.6057 89.1411 35.2162 89.4899 35.1227 89.4906C35.0308 89.4906 34.9547 89.5411 34.9547 89.6029C34.9541 89.6647 34.74 89.7971 34.4782 89.8968C34.2159 89.9967 33.6744 90.0986 33.2731 90.1234C32.8729 90.1481 32.2671 90.1126 31.9274 90.0452C31.5889 89.9768 30.8066 89.6799 30.1901 89.387C29.5735 89.093 28.7155 88.6363 28.2838 88.3714C27.8528 88.1069 27.4752 87.8559 27.443 87.8128C27.4128 87.7702 27.2987 87.7 27.1911 87.6585C27.0834 87.6159 26.3267 87.1356 25.5094 86.5902C24.6926 86.045 23.9497 85.5277 23.8561 85.4398C23.7642 85.3534 23.5616 85.2175 23.4069 85.139C23.2533 85.0614 22.9881 84.8717 22.819 84.7181C22.6497 84.5654 22.4724 84.4425 22.4264 84.4437C22.3804 84.4458 22.2031 84.3195 22.0338 84.1624C21.8646 84.0065 21.701 83.8782 21.6696 83.8782C21.6374 83.8767 21.0194 83.4391 20.2965 82.9036C19.5723 82.3672 18.5421 81.4957 18.0085 80.9671C17.1991 80.1658 16.9572 79.8381 16.5514 78.9964C16.0705 77.9987 16.0645 77.9718 16.069 76.8079C16.0712 76.0515 16.1285 75.5089 16.2272 75.2923C16.3123 75.1073 16.3876 74.93 16.3932 74.8997C16.3992 74.8684 16.4742 74.6662 16.5602 74.4515C16.6465 74.236 16.9475 73.6651 17.2311 73.1859C17.5129 72.7079 17.7828 72.3176 17.8297 72.3167C17.8757 72.3178 17.9127 72.2555 17.9127 72.1781C17.9122 72.1002 18.1526 71.8028 18.446 71.5169C18.7396 71.2297 19.1566 70.908 19.3717 70.7991C19.588 70.6915 19.9777 70.597 20.2389 70.5902C20.5012 70.5845 20.7155 70.5405 20.7155 70.4945C20.7163 70.4473 20.6606 70.1451 20.5924 69.8216C20.4994 69.3795 20.5012 69.0638 20.6032 68.5589C20.6772 68.1885 20.7711 67.8345 20.8092 67.7728C20.8473 67.7109 20.8896 67.5854 20.903 67.4925C20.9176 67.3993 21.0703 67.0327 21.2428 66.6771C21.416 66.3213 21.5946 66.0323 21.6413 66.0316C21.6871 66.0327 21.7024 65.9954 21.6735 65.9495C21.6443 65.9035 21.7204 65.7518 21.8415 65.6126C21.9625 65.4735 22.0622 65.3217 22.0622 65.2757C22.0629 65.2288 22.2906 64.9003 22.567 64.5462C22.845 64.1917 23.2826 63.7616 23.5426 63.5921C23.8027 63.4226 24.2438 63.2237 24.5241 63.1507C24.8043 63.0766 25.2608 63.0455 25.5377 63.0814ZM23.0075 75.2337C22.8203 75.2337 22.5845 75.3796 22.3278 75.6546C22.1126 75.8858 21.812 76.3275 21.6618 76.6361C21.5104 76.9447 21.3872 77.3113 21.3883 77.4505C21.3884 77.5897 21.4603 77.8417 21.5465 78.0111C21.6329 78.1805 22.0244 78.6274 22.4157 79.0023C22.807 79.3771 23.6565 80.0783 24.3043 80.5609C24.9512 81.0423 26.2885 81.9728 27.2751 82.6282C28.2616 83.2837 29.4468 84.0127 29.9098 84.2484C30.3715 84.4839 30.9842 84.7116 31.2702 84.7532C31.7533 84.8239 31.814 84.8046 32.111 84.4837C32.2869 84.293 32.5706 83.8512 32.7399 83.5023C32.9092 83.1521 33.0485 82.7138 33.0485 82.5286C33.0484 82.3435 32.9355 82.0317 32.7965 81.8353C32.6575 81.64 32.2659 81.2699 31.9274 81.014C31.5877 80.7581 29.7713 79.4938 27.8913 78.2054C26.0102 76.9182 24.2074 75.7231 23.8835 75.5491C23.5597 75.3753 23.1668 75.2339 23.0075 75.2337ZM27.1071 68.6712C26.9524 68.6375 26.7054 68.6739 26.5563 68.7513C26.4082 68.829 26.1178 69.1956 25.9127 69.5657C25.6975 69.9552 25.5371 70.4043 25.5348 70.6322C25.5304 70.9384 25.6362 71.1459 26.0104 71.5755C26.2739 71.8785 27.1463 72.6176 27.9479 73.2181C28.7495 73.8186 30.2124 74.8502 31.1989 75.5101C32.1852 76.1699 33.434 76.9325 33.9733 77.2064C34.5122 77.4789 35.0927 77.705 35.2624 77.7064C35.4316 77.7086 35.7168 77.5949 35.8961 77.4534C36.0744 77.3131 36.3393 76.9572 36.485 76.6644C36.6295 76.3716 36.7476 75.9298 36.7477 75.6829C36.7477 75.3115 36.6764 75.164 36.3278 74.8284C36.0968 74.6051 35.1501 73.8814 34.2252 73.2181C33.3003 72.5559 31.6865 71.4296 30.6383 70.7181C29.5904 70.0056 28.4304 69.2674 28.0602 69.0775C27.6904 68.8867 27.2608 68.7038 27.1071 68.6712ZM81.6461 13.0804C82.4477 13.0759 83.4071 13.1198 83.777 13.1771C84.1467 13.2343 84.6504 13.312 84.8971 13.348C85.1433 13.3849 85.3954 13.443 85.4577 13.4779C85.5193 13.5138 85.7219 13.5584 85.9069 13.5775C86.0923 13.5978 86.7983 13.7966 87.4762 14.0198C88.1545 14.2432 89.3145 14.7152 90.0543 15.0687C90.7942 15.4222 91.5942 15.8839 91.8307 16.096C92.1769 16.4067 92.2523 16.5473 92.2233 16.8187C92.2042 17.0039 91.6373 18.1156 90.9635 19.2884C90.2901 20.4606 89.6962 21.432 89.6442 21.4486C89.5926 21.4643 89.5504 21.5275 89.5504 21.5892C89.5503 21.651 89.4616 21.7867 89.3542 21.8909C89.2465 21.9953 89.0566 22.0762 88.9333 22.0706C88.81 22.065 88.6083 22.0338 88.485 22.0013C88.3617 21.9699 88.2224 21.9394 88.1764 21.9349C88.1303 21.9287 88.0173 21.774 87.9245 21.5892C87.8314 21.404 87.7945 21.2514 87.8405 21.2503C87.8863 21.2503 87.8737 21.2123 87.8122 21.1663C87.7505 21.1214 87.4308 20.528 87.1012 19.8489C86.7718 19.1701 86.5119 18.564 86.5231 18.5023C86.533 18.4406 86.4992 18.3657 86.4489 18.3343C86.397 18.3021 86.1776 17.9046 85.9626 17.4505C85.6846 16.8638 85.4881 16.5947 85.2897 16.5218C85.1362 16.4669 84.9724 16.46 84.9264 16.5072C84.8805 16.5571 84.8391 17.2526 84.8346 18.054C84.8302 18.8564 84.8682 19.8296 85.0094 20.9193L84.5895 20.9163C84.3586 20.9163 83.9047 20.9752 83.5807 21.0482C83.2568 21.1211 82.7523 21.3477 82.4596 21.5531C82.0717 21.8247 81.8044 21.9261 81.4782 21.9261C81.232 21.9261 80.9681 21.8585 80.8903 21.7757C80.813 21.6927 80.6367 21.5916 80.4977 21.5511C80.3587 21.5107 80.2448 21.4263 80.2448 21.3646C80.2448 21.3028 80.1192 21.228 79.9645 21.1966C79.8111 21.1651 79.6842 21.0893 79.6842 21.0277C79.6841 20.966 79.6092 20.9154 79.5163 20.9154C79.4233 20.9152 79.2832 20.853 79.2047 20.7757C79.1251 20.6983 78.7708 20.4834 78.4176 20.2982C78.0646 20.113 77.7769 19.9233 77.778 19.8773C77.7778 19.8313 77.7156 19.7926 77.6383 19.7904C77.5597 19.7873 77.0439 19.5254 76.4899 19.2083C75.9355 18.8899 75.4555 18.6021 75.4245 18.5657C75.3942 18.531 75.0659 18.3513 74.696 18.1673C74.326 17.9832 73.8595 17.6661 73.6588 17.4652C73.4585 17.2645 73.2943 17.0116 73.2917 16.9036C73.2905 16.7959 73.4415 16.4924 73.6276 16.2298C73.8148 15.9672 74.0561 15.7204 74.1637 15.68C74.2804 15.6364 74.5552 15.717 74.8376 15.8763C75.0997 16.0243 75.314 16.1837 75.3141 16.2298C75.313 16.2758 75.3754 16.3155 75.4528 16.3177C75.5308 16.3192 76.1733 16.6545 76.8825 17.0628C77.5902 17.4702 78.1804 17.8465 78.1989 17.9007C78.2146 17.9535 78.2905 17.9967 78.3678 17.9945C78.4456 17.9926 78.6852 18.1104 78.9001 18.2572C79.1925 18.4545 79.3563 18.4976 79.5446 18.4281C79.6835 18.3764 79.7965 18.2837 79.7965 18.222C79.7965 18.1602 79.4058 17.6956 78.9284 17.1907C78.4508 16.6846 77.6054 15.8312 76.0417 14.3206L76.4899 14.095C76.7355 13.971 76.9622 13.8685 76.9938 13.8656C77.0241 13.8633 77.2014 13.8033 77.3864 13.7337C77.5714 13.6641 77.7982 13.5925 77.8913 13.5745C77.9843 13.5565 78.1342 13.5066 78.2272 13.4652C78.3204 13.4225 78.7995 13.3205 79.2926 13.2386C79.786 13.1556 80.8448 13.0849 81.6461 13.0804Z" fill="white"/>
</svg>
