<svg width="109" height="114" viewBox="0 0 109 114" fill="none" xmlns="http://www.w3.org/2000/svg">
<path d="M57.7275 25C57.8015 25.0003 57.9194 25.2311 57.9893 25.5127C58.0592 25.7946 58.8074 29.1357 59.6533 32.9375C60.4979 36.7394 61.2278 39.8929 61.2744 39.9463C61.3477 39.9973 71.8633 39.182 84.665 38.1338C97.4842 37.0827 108.205 36.2236 108.487 36.2236C108.77 36.2223 109.001 36.2691 109 36.3252C108.961 36.4006 99.1048 41.3812 87.0635 47.4102C75.0174 53.4421 65.16 58.4246 65.1338 58.4951C65.1365 58.5512 66.1495 62.5393 67.3848 67.3564C68.6187 72.1738 69.5878 76.1568 69.5371 76.2061C69.4709 76.249 64.6521 74.1648 48.2646 66.8779L26.9795 77.5625C15.2722 83.4377 5.63205 88.2578 5.55664 88.2715C5.48133 88.285 5.41992 88.2242 5.41992 88.1367C5.43222 88.0344 10.8727 81.389 17.5215 73.3564C24.1779 65.3148 29.5775 58.6948 29.5186 58.6455C29.4542 58.5946 22.7904 55.5789 14.7041 51.9404C6.62895 48.3077 0.0213743 45.2869 0 45.2207C0.00274188 45.1646 0.142526 45.0903 0.3125 45.0547C0.482508 45.0205 10.184 44.2201 21.8721 43.2744C33.5557 42.3291 43.3008 41.5285 43.5342 41.4951C43.8838 41.4445 44.6741 40.5573 48.8105 35.5771C51.4854 32.357 54.5548 28.6591 55.6338 27.3604C56.7114 26.0617 57.6535 25 57.7275 25ZM55.0693 36.126C55.0457 36.1133 54.7254 36.4821 54.3564 36.9473C53.9863 37.4139 53.0973 38.5036 52.3789 39.3672C51.6621 40.2305 50.9745 41.0627 50.8496 41.2148C50.7249 41.3667 50.0778 42.1467 49.4102 42.9473C48.7425 43.7478 47.5179 45.2256 46.6885 46.2314C45.8592 47.2371 45.0792 48.1831 44.9541 48.334C44.8294 48.4845 44.1822 49.263 43.5146 50.0635C42.847 50.8641 41.6224 52.3427 40.793 53.3486C39.964 54.3539 39.184 55.2988 39.0586 55.4502C38.9338 55.6007 38.2868 56.3801 37.6191 57.1807C36.9515 57.9813 35.7269 59.459 34.8975 60.4648C34.068 61.4707 33.2879 62.4168 33.1631 62.5674C33.038 62.7183 32.391 63.4966 31.7236 64.2969C31.056 65.0974 29.8314 66.5752 29.002 67.5811C28.1725 68.5869 27.3919 69.5331 27.2686 69.6836C27.1434 69.8346 26.5115 70.5889 25.8633 71.3604C25.2136 72.1321 24.7136 72.7941 24.752 72.8311C24.8227 72.851 37.9361 66.3225 53.9209 58.3076C69.9261 50.2811 83.0801 43.6614 83.1514 43.5957C83.2272 43.5248 83.1012 43.4756 82.8428 43.4756C82.6015 43.4756 76.7425 43.9377 69.8242 44.5029C62.9061 45.0681 57.2344 45.5143 57.2207 45.4951C57.2036 45.4605 56.7247 43.3563 56.1523 40.8066C55.5793 38.2476 55.0926 36.141 55.0693 36.126ZM60.2959 60.8643C60.2013 60.8684 58.8013 61.5293 57.1836 62.334C55.5658 63.1373 54.2554 63.8279 54.2705 63.8662C54.3005 63.9109 56.0196 64.6955 58.1025 65.6152C60.1945 66.5389 61.9536 67.2924 62.0098 67.291C62.0648 67.2854 61.7418 65.8692 61.29 64.1406C60.8379 62.4105 60.4672 60.9634 60.4668 60.9248C60.4668 60.8879 60.3904 60.8602 60.2959 60.8643ZM38.7705 47.0498C38.4497 47.0594 34.3012 47.3949 29.5508 47.7959C24.8031 48.1966 20.7479 48.5277 20.5361 48.5322C20.3295 48.5363 20.1576 48.5856 20.1543 48.6416C20.1516 48.6977 23.0518 50.0525 26.5986 51.6523C30.1446 53.2518 33.0918 54.5375 33.1494 54.5107C33.2056 54.482 34.5474 52.901 36.1309 50.9961C37.7134 49.0923 39.0855 47.4233 39.1816 47.2832C39.3393 47.0533 39.3066 47.0348 38.7705 47.0498Z" fill="white"/>
</svg>
