<svg width="109" height="114" viewBox="0 0 109 114" fill="none" xmlns="http://www.w3.org/2000/svg">
<path fill-rule="evenodd" clip-rule="evenodd" d="M45.8093 37H50.7718C55.1074 37 55.682 37.1051 55.682 37.9459C55.682 38.4188 55.3163 40.0479 54.8462 41.4667C54.3761 42.9381 53.697 44.4095 53.3836 44.7774C53.0179 45.1978 51.712 45.4605 49.936 45.4079C47.7943 45.3554 46.6973 45.0927 44.1378 43.0432L45.8093 37ZM61.0623 37H65.9203C69.4724 37 70.8305 37.1576 70.8305 37.6831C70.7783 37.9984 70.0992 40.6785 69.2635 43.5687C68.3754 46.4589 67.6964 48.8762 67.6964 48.9813C67.6964 49.0339 69.5246 49.0864 71.7186 49.0864C75.7408 49.0864 75.793 49.139 81.0166 53.6583L77.7257 64.9039C75.2706 73.522 74.2259 76.3597 73.2857 77.0954C72.2409 77.9362 70.935 78.0413 61.0101 77.9888C52.4956 77.9888 49.936 77.8311 49.8838 77.3582C49.8838 76.9903 52.3911 67.7416 55.4731 56.8638L61.0623 37ZM63.6219 63.3274C62.7861 66.4278 62.1071 69.1604 62.0548 69.4757C61.9504 69.8436 62.7861 70.0538 64.1443 69.9487L66.3382 69.8436C68.95 60.8576 69.7336 57.8622 69.7336 57.3367C69.7858 56.601 69.3157 56.4434 67.6964 56.4434C66.4427 56.4434 65.4502 56.7061 65.3457 57.074C65.2413 57.4418 64.4577 60.227 63.6219 63.3274ZM45.7571 49.0864L48.3167 51.0308C49.7793 52.1343 50.9285 53.343 50.9807 53.8159C50.9807 54.2363 49.5181 59.8591 44.4512 77.9362H39.5932C36.9291 77.9362 34.683 77.7786 34.5785 77.5684C34.4218 77.3582 35.6232 72.6812 37.1903 67.2161C38.7052 61.6984 40.0111 57.0214 40.0111 56.8112C40.0111 56.601 39.0186 56.4434 35.571 56.4434L33.2204 64.6937C31.9667 69.2655 30.6086 74.1001 29.5638 77.9888H24.8626C22.2507 77.9888 20.0568 77.7786 19.9523 77.5684C19.8479 77.3582 20.9971 72.7863 22.5642 67.4788C24.079 62.1187 25.3327 57.4418 25.3327 57.074C25.3849 56.6536 24.6014 56.3908 20.9448 56.3908L14.6765 77.9888H9.97519C7.36337 77.9888 5.16945 77.8837 5.01274 77.726C4.85603 77.5684 6.1097 72.5761 10.7587 55.6551L9.97519 52.87C9.5573 51.3461 9.19165 49.8747 9.19165 49.6119C9.19165 49.2441 15.6167 49.0864 45.7571 49.0864ZM92.5086 49.0864H98.6203C102.016 49.0864 104.889 49.2441 104.993 49.4543C105.098 49.6645 104.001 51.3461 102.486 53.1328C99.9784 56.2332 99.665 56.4434 97.5756 56.4434C95.5906 56.4434 95.2772 56.601 94.6503 58.125C94.2847 59.0709 92.7698 63.9054 88.8521 77.9362H83.9941C81.1211 77.9362 79.1884 77.726 79.1884 77.4633C79.1884 77.148 80.3376 72.7338 81.8002 67.5839C83.2628 62.434 84.7776 57.1265 85.1955 55.7602C85.8746 53.5532 86.397 52.9751 89.2177 51.1884L92.5086 49.0864Z" fill="white"/>
</svg>
