<svg width="109" height="114" viewBox="0 0 109 114" fill="none" xmlns="http://www.w3.org/2000/svg">
<path fill-rule="evenodd" clip-rule="evenodd" d="M54.0114 7C54.3762 7 54.846 7.07841 55.0544 7.18262C55.2498 7.28691 55.5362 7.50851 55.6794 7.67773C55.8359 7.83462 56.2393 8.68079 56.5779 9.54004C56.9165 10.3997 57.4774 11.6888 57.8161 12.4053C58.1418 13.1216 58.7931 14.3591 59.2361 15.1406C59.692 15.9221 60.4868 17.1856 60.9948 17.915C61.9068 19.2437 61.9196 19.2832 61.9196 20.0908C61.9196 20.7291 61.8544 21.003 61.3855 21.6543L61.8152 22.4746C62.0496 22.9175 62.2448 23.4514 62.2448 23.6729C62.2448 23.8943 62.1801 24.2203 62.115 24.4287C62.0109 24.6761 62.0105 24.9496 62.1277 25.3662C62.2709 25.861 62.2581 26.0434 62.0759 26.5381C61.9717 26.8637 61.6716 27.294 60.9812 27.9062L61.3464 28.3623C61.5548 28.6098 61.7758 28.9876 61.8279 29.209C61.906 29.4954 62.0367 29.6253 62.323 29.6904C62.5314 29.7425 63.4957 30.0032 64.4597 30.2637C65.4237 30.5242 66.9221 30.9937 67.782 31.3193C68.6418 31.645 70.0228 32.2304 70.8435 32.6211C71.6641 33.0118 73.0706 33.7677 73.9695 34.3018C74.8681 34.8357 76.1057 35.643 76.7312 36.0859C77.3565 36.5288 78.4125 37.3367 79.0769 37.8838C79.7413 38.444 81.0826 39.6947 82.0466 40.6846C83.0106 41.6875 84.2351 43.0551 84.7693 43.7324C85.2904 44.4098 86.0594 45.4649 86.4763 46.0771C86.8801 46.6894 87.5048 47.6535 87.8435 48.2266C88.1822 48.7997 88.743 49.8285 89.0818 50.5059C89.4204 51.1832 90.0328 52.5635 90.4236 53.5664C90.8274 54.5694 91.3612 56.1198 91.6218 57.0186C91.8823 57.9173 92.2337 59.3503 92.403 60.21C92.5724 61.0696 92.82 62.5673 92.9372 63.5312C93.1066 64.925 93.1329 66.0325 93.0808 68.8721C93.0287 71.9721 92.9641 72.7146 92.6775 74.3428C92.482 75.3848 92.1301 77.013 91.8825 77.9639C91.635 78.9017 91.1526 80.4258 90.8269 81.3506C90.5012 82.2623 89.8765 83.7341 89.4597 84.6328C89.0298 85.5316 88.4045 86.7306 88.0788 87.3037C87.7531 87.8769 87.0751 88.9575 86.5671 89.7129C86.0721 90.4683 85.2386 91.6016 84.7175 92.2529C84.2094 92.9042 83.7016 93.5169 83.5974 93.6211C83.4932 93.7253 83.0367 94.2326 82.5808 94.7275C82.1249 95.2355 81.1872 96.1606 80.4968 96.7988C79.8064 97.424 78.4774 98.5183 77.5525 99.2217C76.6276 99.912 75.2729 100.85 74.5564 101.293C73.8399 101.749 72.3151 102.57 71.1687 103.13C70.0223 103.69 68.3423 104.419 67.4304 104.745C66.5054 105.071 64.9807 105.552 64.0427 105.8C63.0917 106.047 61.4374 106.412 60.3562 106.607C58.5584 106.92 58.0761 106.959 54.4284 106.985C51.0155 107.024 50.2208 106.998 48.8269 106.776C47.9281 106.633 46.4953 106.373 45.6355 106.178C44.7757 105.995 43.4077 105.643 42.613 105.396C41.8053 105.148 40.5935 104.745 39.9421 104.484C39.2777 104.237 37.7926 103.559 36.6462 102.999C35.4998 102.439 33.7674 101.449 32.8034 100.811C31.8396 100.172 30.4849 99.2223 29.8073 98.7012C29.1299 98.1801 27.6318 96.7986 26.4724 95.6523C25.326 94.4931 23.9837 93.0604 23.5017 92.4482C23.0196 91.836 22.1341 90.6116 21.5349 89.7129C20.9357 88.8143 20.0889 87.4339 19.6589 86.6523C19.216 85.8708 18.5126 84.3985 18.0827 83.3955C17.6659 82.3925 17.079 80.8685 16.8054 80.0088C16.5188 79.1492 16.1411 77.7688 15.9587 76.9482C15.7633 76.1276 15.49 74.7201 15.3337 73.8213C15.0993 72.4538 15.0466 71.581 15.0075 68.416C14.9815 65.5765 15.0205 64.2995 15.1638 63.2705C15.268 62.5151 15.5029 61.174 15.6853 60.2754C15.8677 59.3766 16.1933 58.0084 16.4148 57.2139C16.6362 56.4193 17.04 55.1949 17.3005 54.4785C17.5741 53.7621 18.0562 52.5895 18.3689 51.873C18.6816 51.1566 19.2811 49.9585 19.698 49.2031C20.1148 48.4477 20.896 47.1585 21.4431 46.3379C21.9902 45.5174 22.9021 44.2536 23.4753 43.5371C24.0485 42.8207 25.1956 41.5443 26.0163 40.6846C26.8499 39.838 28.0869 38.6787 28.7644 38.1055C29.4418 37.5323 30.5889 36.646 31.3054 36.125C32.0218 35.6171 33.2198 34.8227 33.9753 34.3799C34.7308 33.924 36.1119 33.1815 37.0368 32.7256C37.9746 32.2828 39.4338 31.645 40.2937 31.3193C41.1535 30.9937 42.5091 30.5505 43.2907 30.3291C44.0855 30.1077 45.4272 29.7816 46.2868 29.6123C47.1466 29.443 48.163 29.2608 48.5407 29.2217C48.9049 29.1826 49.2167 29.0917 49.2175 29.0137C49.2175 28.9355 49.3874 28.6882 49.5827 28.4668C49.7912 28.2323 50.1432 27.945 50.3777 27.8408C50.703 27.6846 50.7937 27.5674 50.7937 27.2549C50.7937 26.9293 50.6894 26.7993 50.1814 26.4736C49.8556 26.2521 49.2567 25.6658 48.8659 25.1709C48.4751 24.676 47.9803 23.9074 47.7849 23.4775C47.5765 23.0478 47.2899 22.2274 47.1335 21.6543C46.9642 20.9639 46.8728 20.2077 46.8728 19.4131C46.8728 18.749 46.9639 17.7727 47.0681 17.2646C47.1723 16.7436 47.4072 15.8963 47.5896 15.4014C47.785 14.9063 48.2411 13.9038 48.6189 13.1875C48.9967 12.4711 49.6606 11.3632 50.0905 10.7119C50.5205 10.0606 51.2238 9.0838 51.6667 8.51074C52.0966 7.95065 52.6568 7.37732 52.8913 7.24707C53.1648 7.09083 53.5817 7.00006 54.0114 7ZM59.1452 31.4102C59.1322 31.4102 59.1969 31.7619 59.3142 32.1787C59.4183 32.5819 59.5875 32.946 59.6657 32.9727C59.7569 32.9987 60.513 33.1552 61.3337 33.3115C62.1544 33.4678 63.5609 33.8326 64.4597 34.1191C65.3586 34.4187 66.7012 34.9139 67.4568 35.2266C68.2124 35.5392 69.4367 36.1249 70.1921 36.5156C70.9477 36.9194 72.1982 37.6753 72.9929 38.1963C73.7745 38.7173 74.9206 39.5509 75.5329 40.0459C76.1452 40.5278 77.3183 41.596 78.1521 42.4297C78.9727 43.2502 80.0014 44.3703 80.4314 44.9043C80.8743 45.4383 81.5129 46.285 81.8777 46.793C82.2293 47.3009 82.8934 48.3168 83.3493 49.0723C83.8053 49.8277 84.5096 51.1432 84.9265 52.0029C85.3303 52.8626 85.8896 54.1791 86.1501 54.9346C86.4106 55.69 86.7894 56.9399 86.9978 57.7344C87.2062 58.5289 87.4668 59.7016 87.571 60.3398C87.6882 60.978 87.8307 62.0717 87.9089 62.749C87.9871 63.4263 88.0525 65.159 88.0525 66.5918C88.0525 68.0244 87.9871 69.7306 87.9089 70.3691C87.8307 71.0074 87.6225 72.2712 87.4402 73.1699C87.2578 74.0687 87.0109 75.1502 86.8806 75.5801C86.7503 76.0099 86.5151 76.5963 86.3718 76.8828C86.2284 77.1693 85.9678 77.5336 85.7986 77.6768C85.6422 77.8331 85.2648 78.081 84.9782 78.2373C84.6917 78.3805 84.2229 78.5367 83.9362 78.5889C83.4412 78.654 83.3625 78.7323 82.5027 80.0479C81.9946 80.8034 81.096 82.1323 80.4968 83.0049C79.8975 83.8645 78.9336 85.1538 78.3474 85.8701C77.7743 86.5864 76.6931 87.7845 75.9245 88.54C75.1689 89.3086 74.191 90.1945 73.7351 90.5332C73.2931 90.8711 72.9033 91.1311 72.863 91.1191C72.837 91.0931 72.8887 90.7417 72.9929 90.3379C73.0971 89.9211 73.332 89.2954 73.5144 88.9307C73.7102 88.5396 74.4918 87.6022 75.5075 86.5605C76.4194 85.6097 77.5268 84.3857 77.9568 83.8516C78.3866 83.3175 79.103 82.3534 79.5329 81.7021C79.9628 81.0509 80.6271 79.9693 80.9919 79.292L81.656 78.0547C81.1219 77.5467 80.77 76.9992 80.5486 76.4912C80.3141 75.9832 80.0147 75.2146 79.8845 74.7588C79.7415 74.3168 79.6113 73.9524 79.572 73.9512C79.5329 73.9512 79.2196 74.2905 78.8679 74.6943C78.5291 75.1112 77.9044 75.8017 77.5007 76.2314C77.0838 76.6613 76.3414 77.3648 75.8464 77.8076C75.3514 78.2375 74.4125 79.006 73.7741 79.501C73.1229 79.9958 72.1334 80.6988 71.5603 81.0635C70.9871 81.4282 70.257 81.8714 69.9314 82.0537C69.6058 82.2361 69.1503 82.6396 68.9157 82.9521C68.6812 83.2648 68.368 83.9031 68.2116 84.3721C67.9772 85.1145 67.9255 85.6749 67.8474 89.0615C67.7953 91.1716 67.6912 93.0865 67.613 93.2949C67.5479 93.5032 67.4044 93.8544 67.3132 94.0498C67.209 94.2452 67.0912 94.4023 67.0261 94.4023C66.9743 94.4012 66.9744 94.1279 67.0134 93.79C67.0655 93.4383 67.0392 92.7863 66.948 92.3174C66.8697 91.8484 66.6091 91.0414 66.3747 90.5205C66.1406 90.0003 65.9198 89.5705 65.8542 89.582C65.8021 89.582 65.7624 89.5173 65.7624 89.4521C65.7624 89.387 65.5672 89.074 65.3327 88.7744C65.1111 88.4878 64.5642 87.9928 64.1345 87.6934C63.7046 87.3808 63.0526 86.9906 62.7009 86.8213C62.3361 86.6389 61.5806 86.3386 61.0075 86.1562C60.4343 85.9609 59.4055 85.7266 58.7282 85.6094C58.0509 85.5052 57.2562 85.4011 56.9695 85.375C56.6701 85.349 56.5265 85.2969 56.6433 85.2578C56.7475 85.2057 57.425 85.0235 58.1413 84.8281C58.8576 84.6328 59.5742 84.4112 59.7439 84.333C59.9002 84.2418 60.031 84.0593 60.031 83.916C60.0309 83.7725 59.9135 83.3167 59.7702 82.9131C59.627 82.4963 59.5358 82.1582 59.5749 82.1582C59.6156 82.1591 60.2401 82.4836 60.9685 82.8867C61.711 83.2905 62.6362 83.8508 63.0271 84.1113C63.4179 84.3849 64.1086 84.9321 64.5515 85.3359C65.0204 85.7527 65.5026 86.0654 65.6589 86.0654C65.8282 86.0783 66.0238 86.0003 66.115 85.9092C66.1931 85.8176 66.31 85.4139 66.362 85.0234C66.4141 84.6327 66.597 83.9289 66.7663 83.46C66.9357 82.9911 67.2484 82.3529 67.4568 82.0273C67.6652 81.7018 68.1465 81.142 68.5241 80.7773C68.9018 80.3997 69.7098 79.7876 70.322 79.4229C70.9343 79.0451 71.9245 78.341 72.5368 77.8721C73.1491 77.4032 73.8528 76.8432 74.1003 76.6348C74.3479 76.4263 75.143 75.6577 75.8464 74.9414C76.5498 74.2121 77.5002 73.1571 77.9431 72.584C78.3854 72.0116 78.7888 71.4651 78.8288 71.3857C78.8809 71.2946 78.7775 70.3822 78.6081 69.3662C78.4258 68.3372 78.2426 67.048 78.1775 66.501L78.0739 65.498C76.1589 67.3607 75.3635 68.1028 75.0769 68.3633C74.7902 68.6108 74.1129 69.1451 73.5788 69.5488C73.0447 69.9396 72.1071 70.5907 71.4948 70.9814C70.8826 71.3852 69.9577 71.9325 69.4236 72.2061L68.4597 72.7139C68.5899 73.9251 68.655 74.6287 68.6941 75.0586C68.7331 75.4884 68.7852 76.1922 68.8112 76.6221C68.8633 77.221 68.7982 77.6248 68.5378 78.3799C68.3424 78.9659 67.9904 79.6434 67.6648 80.0732C67.3521 80.464 66.9094 80.9595 66.6618 81.168C66.4143 81.3764 65.9188 81.6891 65.5671 81.8584C65.1633 82.0667 64.59 82.2096 64.0691 82.2617C63.4308 82.3138 63.0007 82.2624 62.2712 82.041C61.6589 81.8717 60.9815 81.519 60.3171 81.0762C59.77 80.6984 58.9751 80.0342 58.5583 79.6045L57.8034 78.8359C56.9049 79.7994 56.6435 80.1906 56.6433 80.334C56.6433 80.5684 56.7087 80.5817 57.2556 80.5166L57.8816 80.4258C58.2591 81.4152 58.3893 81.9361 58.4284 82.2227C58.4675 82.5613 58.4285 82.7962 58.3112 82.9004C58.2201 82.9785 57.3081 83.2522 56.279 83.5127C55.2629 83.7732 54.2856 83.9814 54.1032 83.9814C53.9208 83.9814 53.1524 83.8249 52.3708 83.6426C51.6022 83.4602 50.703 83.2263 50.3513 83.1221C49.9084 82.9918 49.713 82.8608 49.6609 82.6523C49.622 82.4826 49.7261 81.9232 49.8952 81.3896L50.195 80.4385C51.3675 80.5818 51.4323 80.5684 51.4323 80.334C51.4321 80.1906 51.1716 79.8004 50.8591 79.4619L50.2732 78.8359C49.1007 80.0343 48.3584 80.66 47.8503 81.0117C47.3422 81.3634 46.6122 81.7665 46.2214 81.9229C45.7264 82.1182 45.1921 82.21 44.4626 82.21C43.7203 82.223 43.2382 82.1449 42.7693 81.9756C42.4045 81.8323 42.0004 81.6237 41.8571 81.5195C41.7137 81.4021 41.3099 81.0247 40.9714 80.6602C40.6197 80.3085 40.1379 79.6047 39.8903 79.0967C39.6299 78.5888 39.3956 77.8596 39.3435 77.4688C39.2914 77.078 39.3167 76.0228 39.4079 75.124C39.4861 74.2256 39.5651 73.301 39.5652 73.0791C39.5782 72.6623 39.5259 72.6225 38.3015 71.9844C37.611 71.6197 36.477 70.9299 35.7995 70.4609C35.1221 69.992 34.1188 69.2492 33.5847 68.8193C33.0505 68.3764 32.0087 67.4389 31.2663 66.7227L29.9245 65.4199C29.9245 66.3316 29.8982 66.8267 29.8591 67.1133C29.82 67.4001 29.6508 68.4553 29.4685 69.458L29.156 71.2812C29.5989 71.8804 29.7816 72.1152 29.8337 72.1934C29.8874 72.2733 30.4858 72.9626 31.1491 73.7559C31.8264 74.5373 32.8291 75.5925 33.3894 76.1006C33.9495 76.6086 35.0703 77.5079 35.865 78.1201C36.6726 78.7323 37.6109 79.3707 37.9626 79.54C38.3144 79.7226 39.0436 80.308 39.5905 80.8418C40.281 81.5322 40.6985 82.0795 40.9851 82.6787C41.1935 83.1477 41.4798 84.0206 41.6101 84.6328C41.7402 85.2445 41.8961 85.8174 41.9743 85.9092C42.0525 86.0004 42.2483 86.0784 42.4177 86.0654C42.574 86.0654 42.8089 85.961 42.9392 85.8438C43.0568 85.7132 43.4863 85.3361 43.8767 85.0107C44.2675 84.6721 44.9194 84.2026 45.3103 83.9551C45.7012 83.6945 46.5733 83.1998 47.2243 82.8223C47.8887 82.4576 48.4626 82.1582 48.5017 82.1582C48.5402 82.1593 48.4494 82.4971 48.3064 82.9131C48.1631 83.3167 48.0457 83.7856 48.0456 83.9551C48.0456 84.1243 48.1625 84.2812 48.3318 84.3594C48.5011 84.4245 49.075 84.5937 49.6091 84.75C50.1432 84.8933 50.847 85.0885 51.1726 85.1797L51.7585 85.3359C50.3385 85.4792 49.6347 85.5573 49.2829 85.6094C48.9181 85.6615 48.1363 85.844 47.5241 86.0264C46.9119 86.1957 46.0389 86.5211 45.57 86.7295C45.1011 86.9509 44.372 87.3811 43.9421 87.6807C43.5122 87.9933 42.9123 88.5536 42.6257 88.9443C42.3261 89.3351 41.9613 89.8825 41.8181 90.1689C41.6878 90.4555 41.5056 90.8982 41.4275 91.1455C41.3363 91.3929 41.2325 91.8355 41.1804 92.1221C41.1153 92.4086 41.0759 93.0347 41.0759 93.5166C41.0759 93.9853 41.0365 94.3503 40.9714 94.3242C40.9193 94.2981 40.7888 94.0505 40.6716 93.79C40.5544 93.5165 40.4115 92.9689 40.3464 92.5781C40.2813 92.1871 40.2292 90.572 40.2292 88.9961C40.2162 87.4203 40.1638 85.7534 40.0857 85.2842C40.0075 84.8153 39.8126 84.1115 39.6433 83.7207C39.4609 83.3299 39.161 82.8477 38.9655 82.6523C38.7569 82.4569 38.0403 81.9623 37.363 81.5586C36.6856 81.1418 35.7087 80.5167 35.2136 80.165C34.7055 79.8003 33.9755 79.253 33.5847 78.9404C33.1938 78.6277 32.3215 77.8594 31.6443 77.2344C30.9668 76.6092 30.0029 75.6187 29.4948 75.0195C28.9871 74.4338 28.5312 73.9519 28.4655 73.9512C28.4134 73.9512 28.3347 74.1474 28.2956 74.3818C28.2434 74.6037 28.0488 75.2673 27.8405 75.8398C27.593 76.5302 27.2925 77.078 26.9538 77.4688L26.4333 78.0547C27.5924 80.1773 28.2306 81.2324 28.5954 81.7666C28.9602 82.3007 29.3642 82.8873 29.5075 83.0566C29.6378 83.226 30.0552 83.7466 30.446 84.2285C30.8369 84.6975 31.8398 85.7917 32.6736 86.6514C33.7288 87.7325 34.315 88.449 34.5886 88.9961C34.81 89.4258 35.0442 90.077 35.1355 90.4287C35.2134 90.7924 35.2653 91.0916 35.2527 91.1191C35.2266 91.1322 34.7965 90.8455 34.3015 90.4678C33.7933 90.0899 32.7382 89.1391 31.9568 88.3447C31.1621 87.5371 30.1328 86.3911 29.6638 85.792C29.1818 85.1928 28.3353 84.0462 27.7751 83.2646C27.2019 82.4831 26.277 81.1152 25.7038 80.2295C24.7009 78.7057 24.6354 78.6406 24.1403 78.5625C23.8537 78.5104 23.3456 78.3412 22.9939 78.1719C22.6292 77.9896 22.2254 77.6381 21.9909 77.3125C21.7695 76.9999 21.4829 76.4005 21.3396 75.9707C21.1963 75.5409 20.9357 74.5768 20.7663 73.8213C20.584 73.0659 20.3497 71.6856 20.2194 70.7607C20.0501 69.4061 20.0238 68.4027 20.0759 65.8105C20.115 63.7785 20.2191 62.0719 20.3493 61.2773C20.4666 60.587 20.6755 59.4413 20.8318 58.751C20.975 58.0477 21.3912 56.6016 21.7429 55.5205C22.1077 54.4524 22.825 52.6934 23.3591 51.6123C23.8802 50.5442 24.8439 48.8642 25.4821 47.9004C26.1335 46.9365 27.0587 45.6464 27.5407 45.0342C28.0359 44.4219 29.0783 43.2755 29.8728 42.4941C30.6544 41.6996 31.8654 40.6056 32.5427 40.0586C33.2201 39.5245 34.4189 38.6519 35.2136 38.1309C35.9952 37.6229 37.116 36.9454 37.6892 36.6328C38.2624 36.3202 39.3299 35.7992 40.0593 35.4736C40.8018 35.135 42.2092 34.6014 43.1862 34.2627C44.1763 33.9371 45.7789 33.5069 46.7429 33.3115L48.5017 32.96C48.8664 31.97 48.9447 31.6179 48.9187 31.5527C48.8795 31.4747 48.749 31.4359 48.6189 31.4619C48.4756 31.4749 47.5769 31.6445 46.613 31.8398C45.649 32.0222 44.0848 32.4 43.1599 32.6865C42.222 32.9731 40.8936 33.4413 40.1902 33.7148C39.4997 33.9884 38.2615 34.5493 37.4538 34.9531C36.6592 35.3569 35.4996 35.982 34.8874 36.3467C34.2751 36.7115 33.22 37.402 32.5427 37.8838C31.8654 38.3657 30.7454 39.2248 30.0681 39.7979C29.3907 40.371 28.1525 41.5303 27.3318 42.377C26.498 43.2366 25.3909 44.4877 24.8698 45.165C24.3357 45.8424 23.4368 47.1062 22.8767 47.9658C22.3035 48.8256 21.3528 50.5189 20.7536 51.7432C20.1674 52.9675 19.4377 54.6344 19.1511 55.4551C18.8515 56.2757 18.4995 57.3572 18.3562 57.8652C18.1998 58.3733 17.9396 59.454 17.7702 60.2744C17.5879 61.0949 17.353 62.5016 17.2487 63.4004C17.1445 64.2992 17.0147 65.7585 16.9626 66.6572C16.9235 67.556 16.9489 69.1975 17.0271 70.3047C17.1183 71.4117 17.3008 73.0524 17.4441 73.9512C17.5874 74.8499 17.9006 76.3486 18.1482 77.2734C18.3827 78.1983 18.8118 79.618 19.0984 80.3994C19.3849 81.1809 19.9458 82.5612 20.3366 83.46C20.7405 84.3587 21.5346 85.8574 22.0818 86.7822C22.6419 87.7071 23.6062 89.1531 24.2185 89.9736C24.8308 90.7943 25.8341 92.0317 26.4333 92.709C27.0456 93.3863 28.1788 94.5321 28.9734 95.2354C29.755 95.9387 30.8367 96.8638 31.3708 97.2676C31.905 97.6714 32.9337 98.4013 33.6501 98.8701C34.3666 99.339 35.3569 99.9377 35.865 100.198C36.3599 100.472 37.2846 100.94 37.9099 101.253C38.5482 101.566 39.6296 102.048 40.32 102.335C41.0235 102.608 41.9751 102.96 42.4441 103.104C42.9132 103.26 43.8508 103.52 44.528 103.702C45.2052 103.871 45.9735 104.054 46.2214 104.093C46.3453 104.112 46.4956 104.139 46.6374 104.165L47.3698 104.308C47.5115 104.334 47.6611 104.36 47.7849 104.38C48.0321 104.419 48.2923 104.471 48.3708 104.497C48.436 104.523 48.9968 104.588 49.6091 104.653C50.2218 104.705 52.3318 104.757 54.2986 104.757C56.5651 104.757 58.3108 104.692 59.0534 104.588C59.6917 104.497 60.6951 104.328 61.2683 104.224C61.8415 104.106 62.8711 103.871 63.5486 103.702C64.226 103.52 65.3986 103.168 66.154 102.921C66.9093 102.66 67.5997 102.387 67.6911 102.296C67.7822 102.218 67.8601 102.191 67.8474 102.243C67.8474 102.308 68.5117 102.048 69.3064 101.684C70.1141 101.319 71.2995 100.732 71.9509 100.367C72.5891 100.003 73.618 99.378 74.2302 98.9873C74.8425 98.5965 75.781 97.9448 76.3152 97.541C76.8492 97.1503 77.4095 96.7204 77.5398 96.6162C77.6702 96.5119 78.0215 96.2122 78.321 95.9648C78.6206 95.7174 79.5586 94.8059 80.4314 93.9463C81.291 93.0867 82.4896 91.7712 83.0759 91.0156C83.6751 90.2602 84.587 88.9964 85.1081 88.2148C85.6292 87.4333 86.437 86.0521 86.906 85.1533C87.375 84.2545 88.0399 82.8479 88.3786 82.0273C88.7173 81.2068 89.1341 80.0867 89.3034 79.5527C89.4728 79.0188 89.7981 77.8987 90.0066 77.0781C90.215 76.2576 90.5019 74.9027 90.6452 74.082C90.7755 73.2615 90.9577 71.7374 91.0359 70.6953C91.1401 69.5751 91.1658 67.9855 91.1267 66.7871C91.0746 65.6799 90.9578 64.0647 90.8405 63.2051C90.7233 62.3454 90.4887 60.9651 90.3064 60.1445C90.124 59.324 89.7726 57.9824 89.5251 57.1748C89.2776 56.3802 88.8472 55.1162 88.5476 54.3867C88.2609 53.6442 87.5705 52.1597 87.0105 51.0918C86.4633 50.0237 85.5645 48.4603 85.0173 47.6396C84.4702 46.819 83.6233 45.6464 83.1413 45.0342C82.6592 44.4219 81.3695 43.0419 80.3015 41.9609C79.2204 40.88 77.9178 39.6813 77.4226 39.2773C76.9145 38.8866 76.0153 38.2091 75.403 37.7793C74.7908 37.3494 73.8005 36.7114 73.1882 36.3467C72.576 35.969 71.2343 35.2658 70.1921 34.7578C69.1501 34.2629 67.7173 33.6376 67.0007 33.377C66.2842 33.1034 64.9286 32.686 64.0036 32.4385C63.0656 32.178 61.6065 31.8399 60.7468 31.6836C59.8888 31.5276 59.1739 31.3977 59.1452 31.4102ZM33.781 56.5752C32.2698 56.5491 30.732 56.5491 30.3542 56.5752C29.9895 56.6013 29.6374 56.706 29.5984 56.7842C29.5596 56.8767 29.5858 57.3582 29.6638 57.8652C29.742 58.3734 29.8591 59.5978 29.9372 60.6006L30.0808 62.4238C30.8233 63.3356 31.5398 64.1176 32.1521 64.7559C32.7643 65.3941 33.8458 66.3963 34.5622 66.9824C35.2786 67.5684 36.3073 68.3503 36.8415 68.7021C37.3756 69.0538 38.3789 69.6662 39.0564 70.0439C39.7337 70.4216 40.9973 71.0597 41.8571 71.4375L43.4206 72.1406C40.9746 72.0756 40.6207 72.1019 40.6198 72.2188C40.6198 72.3099 40.9458 72.6753 41.3366 73.04C41.7274 73.3916 42.1445 73.6914 42.2487 73.6914C42.3526 73.6915 42.456 73.743 42.4694 73.7949C42.4955 73.86 42.9126 74.0689 43.4206 74.2773C43.9156 74.4727 44.8015 74.7457 45.3747 74.876C45.9478 75.0192 47.003 75.2538 47.7195 75.4102C48.436 75.5795 49.4526 75.9185 49.9607 76.166C50.4803 76.4128 50.9095 76.6078 50.9118 76.583C50.9118 76.57 50.7686 76.2832 50.5993 75.9316C50.43 75.593 50.1173 75.1365 49.9089 74.915C49.7135 74.6936 49.4262 74.46 49.2829 74.3818C49.0484 74.2516 49.0491 74.2117 49.2185 74.0293C49.3227 73.9123 49.492 73.8083 49.57 73.8213C49.6617 73.821 50.0261 73.6782 50.3904 73.4961C50.7421 73.3138 51.3156 72.923 51.6413 72.6104L52.2273 72.0625C52.084 72.7659 51.9275 73.2616 51.7712 73.6133C51.628 73.9646 51.4201 74.29 51.3288 74.3555C51.2116 74.4466 51.3416 74.6678 51.8366 75.2148C52.1884 75.6317 52.6832 76.2574 52.9177 76.6221C53.1652 76.9738 53.4905 77.5471 53.6599 77.8857C53.8288 78.2235 53.9982 78.5093 54.0378 78.5107C54.0769 78.5107 54.3118 78.1199 54.5593 77.625C54.8068 77.1431 55.341 76.3478 55.7448 75.8398C56.1356 75.332 56.5658 74.8376 56.696 74.7334C56.8784 74.5641 56.8907 74.5121 56.7214 74.3428C56.6172 74.2386 56.4223 73.8862 56.279 73.5605C56.1358 73.235 55.9923 72.7794 55.9402 72.5449C55.9011 72.3235 55.8754 72.1279 55.8884 72.1279C55.9166 72.1302 56.1891 72.3767 56.5261 72.6748C56.8517 72.9874 57.5551 73.4439 58.1023 73.6914L59.0925 74.1465C58.0764 75.0583 57.6466 75.593 57.4773 75.9316C57.3079 76.2833 57.1648 76.57 57.1648 76.583C57.1677 76.6075 57.6221 76.3993 58.1804 76.1396C58.8839 75.788 59.7311 75.5274 61.073 75.2539C62.1149 75.0325 63.3391 74.7332 63.8083 74.5898C64.2773 74.4335 65.0337 74.1078 65.5027 73.8604C65.9715 73.5998 66.5963 73.1569 66.9089 72.8574C67.2082 72.5711 67.4563 72.2719 67.4568 72.1934C67.4568 72.1152 66.9223 72.0755 66.0495 72.1016L64.655 72.1406C67.0781 71.0465 68.0685 70.5649 68.4333 70.3564C68.7851 70.1611 69.5798 69.7052 70.1921 69.3535C70.8044 68.9888 71.8594 68.2853 72.5368 67.7773C73.2142 67.2694 74.5169 66.1233 75.4157 65.2246C76.3146 64.3259 77.2655 63.3354 77.5261 63.0098C78.0081 62.4236 78.0085 62.4108 78.1257 60.7959C78.2039 59.8971 78.321 58.6334 78.3991 57.9951C78.4773 57.3569 78.5033 56.7709 78.4382 56.7188C78.3859 56.6536 77.0964 56.6009 75.5984 56.5879C74.0872 56.5749 72.3932 56.6012 71.82 56.6533C71.2469 56.7054 70.2444 56.8489 69.6062 56.9531C68.9549 57.0703 67.991 57.2659 67.4568 57.4092C66.9227 57.5394 66.2971 57.7216 66.0886 57.7998C65.8672 57.8909 65.5806 57.9817 65.4372 58.0078C65.2939 58.0339 64.7594 58.2171 64.2644 58.3994C63.7562 58.5949 62.7011 59.0501 61.9196 59.4277C61.125 59.7925 59.9262 60.4439 59.2487 60.8477C58.5713 61.2645 57.4769 62.0074 56.8386 62.4893C56.1873 62.9712 55.3276 63.6614 54.9109 64.0391C54.507 64.4038 54.1029 64.7031 54.0378 64.7031C53.9585 64.702 53.4116 64.2732 52.8132 63.7529C52.214 63.245 51.3288 62.5282 50.8337 62.1895C50.3387 61.8508 49.5172 61.3032 49.0222 60.9775C48.514 60.6518 47.4982 60.0658 46.7429 59.7012C45.9873 59.3234 44.9576 58.8419 44.4626 58.6465C43.9547 58.4511 43.4857 58.2689 43.4206 58.2559C43.3424 58.2428 43.1468 58.1647 42.9646 58.0996C42.7819 58.0214 42.0783 57.8125 41.4011 57.6172C40.7239 57.4349 39.9816 57.253 39.7732 57.2139C39.5518 57.1878 39.2915 57.1221 39.1872 57.083C39.083 57.057 38.7833 56.9919 38.5359 56.9658C38.2883 56.9267 37.7275 56.836 37.2976 56.7578C36.8672 56.6927 35.2786 56.6012 33.781 56.5752ZM54.6247 34.4316C53.257 34.4056 51.6935 34.4189 51.1462 34.458C50.6002 34.51 50.0929 34.6007 50.0261 34.6787C49.961 34.7569 49.661 35.4477 49.3484 36.2422C49.0487 37.0368 48.4888 38.2875 48.1111 39.043C47.7333 39.7985 47.1203 40.9054 46.7556 41.5176C46.3913 42.129 46.0923 42.6626 46.0915 42.7158C46.0915 42.7809 46.0391 42.8337 45.987 42.8467C45.9337 42.8745 45.5561 43.3557 45.153 43.9277C44.7492 44.5008 44.0851 45.3729 43.6814 45.8809C43.2645 46.3888 42.5485 47.1971 42.0925 47.7051C41.6365 48.2131 40.6853 49.1381 39.9948 49.7764C39.3045 50.4015 38.2624 51.2869 37.6892 51.7168C37.116 52.1596 35.9952 52.9409 35.2136 53.4619L33.781 54.4004C34.8877 54.5045 35.6561 54.5693 36.1902 54.6084C36.7243 54.6475 37.6892 54.7776 38.3405 54.8818C38.9788 54.999 39.6562 55.1038 39.8386 55.1299C40.021 55.156 40.2813 55.208 40.4245 55.2471C40.568 55.2862 41.2972 55.4808 42.0525 55.7021C42.808 55.9106 43.9421 56.2886 44.5935 56.5361C45.2318 56.7836 46.2869 57.2268 46.9382 57.5264C47.5766 57.826 48.7884 58.4767 49.6091 58.9717C50.4298 59.4536 51.667 60.2746 52.3445 60.7695C53.0215 61.2773 53.6857 61.7981 53.8034 61.9287C54.0249 62.1501 54.0511 62.1501 54.2595 61.9287C54.3899 61.7984 55.0548 61.2772 55.7321 60.7822C56.4091 60.2876 57.0471 59.8324 57.1257 59.7539C57.2169 59.6888 57.321 59.6231 57.3601 59.623C57.3992 59.623 57.5817 59.5062 57.7771 59.376C57.9855 59.2457 58.7803 58.7638 59.5749 58.334C60.3565 57.8911 61.0209 57.5391 61.0339 57.5391C61.0606 57.5388 61.3993 57.396 61.7898 57.2139C62.1803 57.0316 62.5186 56.8878 62.532 56.8877C62.558 56.8877 62.8059 56.7972 63.0925 56.667C63.379 56.5498 63.6394 56.4447 63.6784 56.4316C63.7179 56.4315 64.1474 56.2756 64.655 56.1064C65.15 55.9371 65.5935 55.7812 65.6325 55.7812C65.6716 55.7682 65.7891 55.7285 65.8933 55.6895C65.9983 55.6502 66.6491 55.481 67.3259 55.3379C68.0033 55.1816 69.3196 54.934 70.2575 54.8037C71.1824 54.6605 72.2375 54.5433 72.6023 54.5303C72.9538 54.5303 73.4875 54.4915 73.7741 54.4395L74.2956 54.3477C73.2796 53.7616 72.4066 53.1759 71.6902 52.668C70.9736 52.16 69.8923 51.3391 69.28 50.8311C68.6677 50.3231 67.6127 49.3462 66.9353 48.6689C66.2579 48.0047 65.2546 46.9107 64.7204 46.2725C64.1863 45.6342 63.3915 44.6044 62.9616 43.9922C62.5449 43.3801 62.154 42.8594 62.115 42.8203C62.0758 42.7812 61.933 42.5332 61.7898 42.2598C61.6465 41.9993 61.4897 41.7783 61.4245 41.7783C61.3725 41.7782 61.3337 41.7256 61.3337 41.6475C61.3328 41.5679 61.0849 41.0864 60.7859 40.5664C60.4863 40.0584 60.0307 39.1863 59.7702 38.6523C59.5097 38.1183 59.0409 37.0368 58.7282 36.2422C58.4156 35.4476 58.1287 34.7699 58.0896 34.7178C58.0498 34.6528 57.8024 34.5878 57.5554 34.5488C57.3075 34.5098 55.9792 34.4577 54.6247 34.4316ZM54.0515 9.30469C53.9991 9.25303 53.6084 9.65711 53.1657 10.2168C52.7359 10.7769 52.0579 11.7276 51.654 12.3398C51.2632 12.9521 50.6379 14.0599 50.2732 14.8154C49.9085 15.5708 49.4917 16.6515 49.3484 17.2246C49.179 17.8759 49.0876 18.6837 49.0876 19.374C49.0876 19.9862 49.166 20.7681 49.2702 21.1328C49.3614 21.4844 49.57 22.0699 49.7263 22.4346C49.8826 22.7863 50.2606 23.3986 50.5603 23.7764C50.8595 24.1536 51.1453 24.4663 51.198 24.4541C51.2631 24.4541 51.2634 24.2588 51.2243 24.0244C51.1722 23.8031 51.185 23.4383 51.237 23.2168C51.3282 22.8391 51.3415 22.8649 51.654 23.7373C51.8364 24.2322 52.1227 24.8579 52.279 25.1055C52.4354 25.353 52.6706 25.6526 52.7878 25.7568C52.9569 25.9132 53.0085 26.174 53.0085 26.9941C52.9955 27.8145 52.931 28.1663 52.7097 28.6221C52.5404 28.9477 52.2013 29.3384 51.9538 29.5078C51.7063 29.6641 51.4454 29.821 51.3933 29.834C51.3406 29.8498 51.1455 30.4608 50.9636 31.1885C50.7954 31.926 50.653 32.5349 50.6511 32.5557C50.6511 32.5817 52.175 32.5947 54.0378 32.5947C56.2131 32.5947 57.4252 32.543 57.4255 32.4648C57.4255 32.3867 57.3081 31.8915 57.1648 31.3574C57.0216 30.8238 56.9042 30.2772 56.904 30.1465C56.904 30.0162 56.6955 29.821 56.4089 29.6777C56.1484 29.5475 55.8231 29.3256 55.7058 29.1953C55.5886 29.0521 55.393 28.7266 55.2888 28.4531C55.1715 28.1926 55.0808 27.8402 55.0808 27.6709C55.0678 27.3978 55.1068 27.4109 55.6277 27.8535C55.9403 28.114 56.5913 28.5966 57.0993 28.9092C57.6074 29.2348 58.285 29.5996 58.6237 29.7168C58.975 29.8339 59.3393 29.9246 59.4441 29.9248C59.5483 29.9248 59.6404 29.8985 59.6404 29.8594C59.6386 29.8182 59.2742 29.3115 58.8454 28.7139C58.4026 28.1278 57.8554 27.2678 57.6208 26.7988C57.3864 26.3301 57.1262 25.692 57.0349 25.3662C56.9437 25.0406 56.839 24.4673 56.7868 24.1025C56.7478 23.7248 56.7351 23.4121 56.7741 23.4121C56.8134 23.3998 56.9308 23.595 57.0349 23.8291C57.1392 24.0636 57.3865 24.4799 57.5818 24.7402C57.8032 25.0398 58.2199 25.3661 58.6237 25.5615C59.0015 25.7439 59.458 25.8867 59.6404 25.8867C59.9395 25.8997 59.9131 25.8342 59.2361 25.0791C58.8323 24.6233 58.2984 23.9591 58.0378 23.6074C57.7903 23.2427 57.4253 22.63 57.2429 22.2393C57.0606 21.8486 56.904 21.4447 56.904 21.3535C56.9048 21.2764 57.1261 21.4716 57.3991 21.8096C57.6727 22.1612 58.1028 22.6041 58.3503 22.8125C58.5978 23.0209 59.0276 23.2945 59.3142 23.4248C59.5997 23.5546 59.8462 23.6327 59.8611 23.5947C59.8871 23.5687 59.3793 22.6173 58.7409 21.4971C58.1026 20.3639 57.5948 19.4131 57.6208 19.374C57.6471 19.3352 57.8425 19.4652 58.0378 19.6475C58.2463 19.8298 58.6373 20.0124 58.9499 20.0645C59.2624 20.1165 59.5622 20.1299 59.6404 20.0908C59.7048 20.0508 59.3397 19.3997 58.8191 18.6318C58.298 17.8504 57.4906 16.5218 57.0085 15.6621C56.5395 14.8024 55.8746 13.486 55.5359 12.7305C55.1972 11.9752 54.7414 10.9207 54.5329 10.3867C54.3245 9.85267 54.1036 9.35679 54.0515 9.30469Z" fill="white" fill-opacity="0.99"/>
<path fill-rule="evenodd" clip-rule="evenodd" d="M57.2305 88.4208C57.973 88.4468 58.8073 88.5769 59.5107 88.7723C60.123 88.9417 60.8785 89.2153 61.2041 89.3846C61.5298 89.541 62.103 90.0102 62.4678 90.4139C62.9887 90.9608 63.2106 91.3384 63.3799 91.8983C63.4971 92.3021 63.5882 93.0059 63.5752 93.4618C63.5622 93.9047 63.4704 94.6995 63.3662 95.2206C63.262 95.7285 63.0274 96.5095 62.832 96.9393C62.6496 97.3692 62.2459 98.0339 61.9463 98.4247C61.6466 98.8154 61.0734 99.3497 60.6826 99.6102C60.2917 99.8577 59.588 100.183 59.1191 100.313C58.5072 100.483 58.0775 100.535 57.5566 100.47C57.1658 100.417 56.6183 100.261 56.3447 100.092C56.0321 99.9093 55.7842 99.6357 55.667 99.3231C55.5628 99.0497 55.4717 98.7368 55.4717 98.6327C55.4719 98.528 55.5636 98.1633 55.6807 97.8251C55.798 97.4734 56.0586 96.966 56.2539 96.6796C56.4493 96.393 56.9308 95.8327 57.3086 95.4549C57.6994 95.0642 57.9599 94.7773 57.8818 94.8163C57.8037 94.8423 57.6345 94.9341 57.4912 94.9862C57.3481 95.0382 57.1789 95.1026 57.1006 95.1288C57.0224 95.1418 56.579 95.2459 56.084 95.3632C55.602 95.4804 54.7551 95.5718 54.208 95.5848C53.6478 95.5848 52.84 95.5331 52.4102 95.4549C51.9804 95.3768 51.3687 95.2203 51.043 95.1161C50.718 95.0121 50.4185 94.9212 50.3525 94.9208C50.3004 94.9208 50.5083 95.1687 50.7949 95.4813C51.0946 95.7809 51.5507 96.3279 51.8242 96.6796C52.0846 97.0441 52.3713 97.6297 52.4756 97.9813C52.6058 98.4893 52.6055 98.7371 52.4883 99.1278C52.4101 99.3883 52.1625 99.7531 51.9541 99.9354C51.7456 100.118 51.3419 100.313 51.0684 100.391C50.8079 100.457 50.3783 100.521 50.1309 100.521C49.8833 100.521 49.3488 100.431 48.958 100.313C48.5672 100.196 47.9552 99.9224 47.6035 99.701C47.2518 99.4666 46.6782 98.959 46.3135 98.5682C45.9617 98.1775 45.5323 97.5254 45.3369 97.1346C45.1546 96.7439 44.9847 96.3531 44.9717 96.288C44.9453 96.2207 44.8409 95.6614 44.7109 95.0507C44.5807 94.3604 44.5156 93.5788 44.5547 92.9667C44.5938 92.3027 44.698 91.8078 44.9062 91.4042C45.0626 91.0785 45.4019 90.5963 45.6494 90.3358C45.8969 90.0623 46.3137 89.7105 46.5742 89.5673C46.8478 89.4109 47.3559 89.1764 47.7207 89.0331C48.0725 88.8898 48.7498 88.6946 49.2188 88.6034C49.6877 88.5122 50.5212 88.4208 51.0684 88.4208C51.8109 88.4077 52.267 88.4731 52.749 88.6815C53.1789 88.8508 53.6479 88.9289 54.0908 88.9159C54.4554 88.9029 55.0415 88.7727 55.4062 88.6424C55.9143 88.4471 56.3186 88.3947 57.2305 88.4208ZM56.5146 90.2196C56.4104 90.2326 56.0318 90.3494 55.667 90.5057C55.1851 90.714 54.7554 90.7922 54.0391 90.7792C53.3356 90.7792 52.8791 90.7011 52.4102 90.5057C52.0588 90.3496 51.6426 90.2325 51.499 90.2323C51.3557 90.2323 51.0164 90.3761 50.7559 90.5585H50.7432C50.4834 90.7403 50.2364 90.8829 50.1963 90.8837C50.1572 90.8837 49.8834 91.0005 49.584 91.1307C49.2713 91.274 48.5546 91.5219 47.9814 91.6913C47.4082 91.8606 46.7439 92.1346 46.5225 92.2909C46.2885 92.4469 46.1191 92.6414 46.1572 92.7069C46.2007 92.7937 46.3877 92.7937 46.7178 92.7069C46.9786 92.6287 47.8777 92.4465 48.6982 92.3163C49.5186 92.1731 50.5211 92.0302 50.9121 91.9911C51.3029 91.952 52.7496 91.9257 54.1045 91.9257C55.4593 91.9257 57.14 91.9911 57.8174 92.0692C58.4942 92.1343 59.197 92.2254 59.3799 92.2645C59.5622 92.2906 60.1879 92.4204 60.7871 92.5507C61.3864 92.6679 61.8945 92.733 61.9336 92.6678C61.959 92.6154 61.8288 92.46 61.6338 92.3299C61.4254 92.1867 60.7743 91.9257 60.1621 91.7303C59.5498 91.535 58.5202 91.1182 57.8818 90.8055C57.2444 90.4804 56.62 90.2203 56.5146 90.2196ZM64.3955 62.5389C64.7472 62.565 65.3075 62.6694 65.6201 62.7606C65.9327 62.8648 66.4536 63.1772 66.7793 63.4637C67.105 63.7503 67.4957 64.2585 67.665 64.6102C67.8344 64.9489 68.0559 65.5869 68.1602 66.0428C68.2644 66.4857 68.3948 67.3323 68.46 67.9315C68.5121 68.5177 68.5251 68.9999 68.46 68.9999C68.4072 68.9995 68.056 68.8431 67.6787 68.661C67.3141 68.4657 66.7672 68.3096 66.4805 68.3094C66.0636 68.2964 65.5941 68.4915 64.2002 69.2469C63.2362 69.781 62.4151 70.2368 62.376 70.2889C62.3364 70.3282 61.8678 70.5755 61.334 70.8358C60.7999 71.0963 60.0315 71.4223 59.6406 71.5526C59.1847 71.7089 58.5462 71.8006 57.8818 71.8006C57.3087 71.8006 56.6054 71.7482 55.7979 71.579L55.876 70.1981C55.9281 69.2342 56.0448 68.5827 56.2402 68.0878C56.3835 67.697 56.7355 67.0196 56.9961 66.5897C57.2697 66.1599 57.7131 65.5735 58.0127 65.287C58.2993 65.0004 58.7419 64.5835 58.9893 64.3622C59.2369 64.1537 59.9143 63.7375 60.4873 63.451C61.0475 63.1775 61.582 62.9299 61.6602 62.9169C61.7263 62.9036 62.2341 62.7993 62.7676 62.6952C63.3016 62.578 64.0308 62.5129 64.3955 62.5389ZM44.5293 62.578C44.855 62.6171 45.4668 62.7209 45.8965 62.8251C46.3264 62.9293 47.0301 63.1772 47.46 63.3856C47.8898 63.581 48.6192 64.0369 49.0752 64.3885C49.5312 64.7402 50.1701 65.3523 50.4697 65.743C50.7822 66.1336 51.2114 66.7848 51.4199 67.1756C51.6284 67.5664 51.9156 68.3096 52.0459 68.8046C52.1891 69.3776 52.2669 70.0679 52.2148 71.6044L51.7197 71.7089C51.459 71.7609 50.7683 71.8 50.1953 71.787C49.5573 71.7869 48.8803 71.6958 48.4375 71.5526C48.0468 71.4094 47.4211 71.1624 47.0693 70.993C46.7176 70.8107 45.4794 70.1329 44.333 69.4686C42.5227 68.4399 42.171 68.2838 41.6631 68.2967C41.2983 68.2967 40.8162 68.4398 39.709 68.9999V67.9969C39.709 67.4368 39.7874 66.6026 39.8916 66.1337C39.9828 65.6648 40.2041 65.0266 40.3604 64.701C40.5167 64.3755 40.8291 63.9199 41.0635 63.6854C41.2849 63.4379 41.7017 63.1246 41.9883 62.9813C42.2749 62.825 42.8357 62.6692 43.2266 62.6171C43.6174 62.565 44.2037 62.552 44.5293 62.578ZM54.3125 44.0292C55.3155 44.0552 55.5238 44.1079 56.3965 44.5507C57.1 44.9154 57.5307 45.2542 58.0127 45.8143C58.3644 46.2442 58.7809 46.8957 58.9111 47.2733C59.0934 47.7682 59.1719 48.3286 59.1719 49.201C59.1849 50.3339 59.1457 50.5036 58.7549 51.3241C58.5334 51.806 58.0643 52.4705 57.7256 52.8221C57.3738 53.1608 56.7745 53.5907 56.3838 53.786C55.9929 53.9814 55.2892 54.203 54.8203 54.2811C54.1302 54.3983 53.7913 54.3849 52.9971 54.2157C52.4631 54.1115 51.7594 53.8642 51.4336 53.6688C51.108 53.4735 50.5871 53.0563 50.2744 52.7176C49.9618 52.392 49.5837 51.8968 49.4404 51.6102C49.2972 51.3237 49.102 50.803 49.0107 50.4383C48.9065 50.0867 48.8281 49.5003 48.8281 49.1356C48.8281 48.7839 48.8935 48.2493 48.9717 47.9628C49.0499 47.6761 49.2709 47.1296 49.4531 46.7391C49.6616 46.3093 50.1179 45.7491 50.5869 45.3192C51.0168 44.9284 51.512 44.5507 51.6943 44.4725C51.8768 44.4074 52.28 44.2639 52.6055 44.1727C52.9442 44.0685 53.6611 44.0031 54.3125 44.0292ZM53.9736 45.9452C53.83 45.9453 53.3876 46.0628 52.9971 46.2059C52.6064 46.3492 52.0852 46.6483 51.8506 46.8827C51.6161 47.1171 51.3292 47.5209 51.2119 47.7684C51.0947 48.0158 50.9773 48.5759 50.9512 49.0057C50.9121 49.5267 50.9518 49.9698 51.082 50.3085C51.1993 50.595 51.538 51.0769 51.8506 51.3895C52.1763 51.7152 52.6584 52.0281 52.9971 52.1454C53.3227 52.2495 53.7916 52.328 54.0391 52.328C54.2865 52.328 54.7554 52.2499 55.0811 52.1327C55.4067 52.0285 55.9022 51.7285 56.1758 51.4549C56.4622 51.1815 56.8003 50.7259 56.9307 50.4393C57.0609 50.1267 57.166 49.6055 57.166 49.1366C57.166 48.6546 57.0613 48.1465 56.918 47.8339C56.7877 47.5473 56.436 47.0918 56.1494 46.8182C55.8107 46.5317 55.3287 46.2577 54.9248 46.1405C54.547 46.0363 54.1169 45.9452 53.9736 45.9452Z" fill="white" fill-opacity="0.99"/>
</svg>
