<svg width="109" height="114" viewBox="0 0 109 114" fill="none" xmlns="http://www.w3.org/2000/svg">
<path fill-rule="evenodd" clip-rule="evenodd" d="M13 13L44.4039 13.1233L49.3585 20.2034C52.07 24.1012 54.3378 27.2835 54.4118 27.3082C54.4857 27.3082 56.8028 24.1012 64.6415 13L95.9468 13.1233L96.07 59.7484L78.9137 80.224C69.4728 91.4732 61.6095 100.774 61.4123 100.897C61.2151 100.996 57.986 101.045 47.4112 100.946L13.0246 59.9951L13 13ZM28.2829 48.5239C38.9317 48.5239 39.3753 48.5485 39.3753 48.9679C39.3753 49.1899 38.5373 52.4956 37.5266 56.2947C36.4913 60.0938 35.6779 63.2268 35.6779 63.2761C35.6779 63.3008 39.8437 68.3087 44.9462 74.3773C50.0487 80.446 54.3378 85.4045 54.4611 85.4045C54.609 85.4045 58.898 80.4213 64.0006 74.3527L73.2689 63.2761C70.5081 52.8903 69.6454 49.5846 69.5714 49.2146L69.4482 48.5239H80.7871V28.295H72.4062L61.1412 44.4534L47.8796 44.6014L36.5406 28.3197L28.2829 28.295V48.5239Z" fill="white"/>
</svg>
