<svg width="109" height="114" viewBox="0 0 109 114" fill="none" xmlns="http://www.w3.org/2000/svg">
<path d="M104.55 17.6157C104.5 17.6335 104.18 17.7137 103.85 17.8028C103.52 17.8919 103.23 17.9899 103.2 18.0167C103.17 18.0523 102.82 18.1503 102.43 18.2394C102.03 18.3285 101.7 18.4354 101.7 18.4711C101.7 18.4978 101.42 18.5958 101.08 18.6849C100.73 18.7651 100.41 18.8631 100.35 18.8988C100.3 18.9344 99.98 19.0414 99.65 19.1305C99.32 19.2196 99.01 19.3176 98.95 19.3532C98.9 19.3978 98.58 19.4869 98.26 19.5671C97.93 19.6383 97.64 19.7364 97.61 19.7809C97.58 19.8255 97.22 19.9324 96.83 20.0215C96.43 20.1106 96.1 20.2175 96.1 20.2532C96.1 20.2799 95.79 20.3868 95.4 20.4759C95.02 20.565 94.7 20.663 94.7 20.7076C94.7 20.7432 94.64 20.7789 94.56 20.7789C94.37 20.7789 93.36 21.064 93.3 21.1353C93.27 21.1709 92.95 21.2689 92.58 21.358C92.2 21.4471 91.9 21.5452 91.9 21.5808C91.9 21.6164 91.6 21.7145 91.23 21.7946C90.86 21.8838 90.51 21.9818 90.45 22.0263C90.4 22.062 90.08 22.1689 89.75 22.2491C89.42 22.3382 89.13 22.4362 89.1 22.4629C89.07 22.4986 88.75 22.5966 88.38 22.6857C88 22.7748 87.7 22.8728 87.7 22.9084C87.7 22.9441 87.36 23.0421 86.95 23.1401C86.54 23.2292 86.2 23.3361 86.2 23.3629C86.2 23.3985 85.92 23.4965 85.58 23.5856C85.23 23.6658 84.91 23.7638 84.85 23.7995C84.8 23.8351 84.46 23.942 84.1 24.0311C83.74 24.1292 83.43 24.2272 83.4 24.2628C83.37 24.2985 83.08 24.3876 82.76 24.4678C82.43 24.539 82.14 24.637 82.11 24.6816C82.08 24.7262 81.72 24.8331 81.33 24.9222C80.93 25.0113 80.6 25.1182 80.6 25.1449C80.6 25.1717 80.29 25.2697 79.9 25.3677C79.52 25.4657 79.2 25.5726 79.2 25.6083C79.2 25.6439 79.14 25.6796 79.06 25.6796C78.88 25.6796 77.86 25.9647 77.8 26.036C77.77 26.0716 77.46 26.1607 77.11 26.2498C76.75 26.3389 76.37 26.4637 76.26 26.526C76.14 26.5884 75.83 26.6864 75.55 26.7399C75.28 26.8023 75.01 26.8825 74.95 26.927C74.9 26.9626 74.58 27.0696 74.25 27.1498C73.92 27.2389 73.63 27.3369 73.6 27.3636C73.57 27.3993 73.25 27.4973 72.88 27.5864C72.5 27.6755 72.2 27.7735 72.2 27.8091C72.2 27.8448 71.87 27.9428 71.48 28.0319C71.08 28.121 70.73 28.2279 70.7 28.2546C70.67 28.2903 70.38 28.3883 70.05 28.4774C69.72 28.5754 69.41 28.6734 69.35 28.7091C69.3 28.7358 68.96 28.8427 68.6 28.9318C68.24 29.0298 67.93 29.1279 67.9 29.1635C67.87 29.1991 67.56 29.2972 67.21 29.3773C66.86 29.4575 66.48 29.5734 66.36 29.6357C66.25 29.6981 65.93 29.805 65.65 29.8674C65.38 29.9387 65.13 30.01 65.1 30.0456C65.07 30.0724 64.76 30.1793 64.4 30.2684C64.04 30.3575 63.73 30.4644 63.7 30.4911C63.67 30.5179 63.35 30.6159 62.98 30.705C62.6 30.7941 62.3 30.8921 62.3 30.9277C62.3 30.9634 62.06 31.0436 61.78 31.106C61.49 31.1683 61.09 31.2931 60.9 31.3733C60.71 31.4624 60.33 31.5782 60.05 31.6406C59.78 31.7029 59.51 31.7831 59.45 31.8277C59.4 31.8633 59.07 31.9703 58.73 32.0505C58.38 32.1396 58.1 32.2376 58.1 32.2643C58.1 32.2999 57.76 32.398 57.35 32.496C56.94 32.5851 56.6 32.6831 56.6 32.7187C56.6 32.7544 56.3 32.8524 55.93 32.9415C55.55 33.0306 55.23 33.1286 55.2 33.1642C55.14 33.2355 54.13 33.5207 53.94 33.5207C53.86 33.5207 53.8 33.5563 53.8 33.5919C53.8 33.6365 53.48 33.7345 53.1 33.8236C52.71 33.9127 52.4 34.0196 52.4 34.0553C52.4 34.0909 52.1 34.1889 51.74 34.2691C51.38 34.3493 50.99 34.4741 50.87 34.5364C50.75 34.6077 50.41 34.7057 50.13 34.7681C49.84 34.8305 49.6 34.9107 49.6 34.9552C49.6 34.9998 49.54 35.0354 49.46 35.0354C49.28 35.0354 48.26 35.3206 48.2 35.3918C48.17 35.4186 47.85 35.5166 47.48 35.6057C47.1 35.6948 46.8 35.7928 46.8 35.8284C46.8 35.8641 46.56 35.9443 46.27 36.0066C45.99 36.069 45.62 36.1759 45.45 36.2472C45.29 36.3096 44.9 36.4343 44.6 36.5145C44.3 36.5947 44.01 36.6927 43.95 36.7284C43.9 36.7729 43.57 36.871 43.23 36.9511C42.88 37.0402 42.6 37.1383 42.6 37.165C42.6 37.2006 42.26 37.2986 41.85 37.3967C41.44 37.4858 41.1 37.5927 41.1 37.6194C41.1 37.6551 40.78 37.762 40.4 37.8511C40.01 37.9402 39.7 38.0382 39.7 38.0828C39.7 38.1184 39.64 38.154 39.56 38.154C39.37 38.154 38.36 38.4392 38.3 38.5105C38.27 38.5461 37.95 38.6441 37.58 38.7332C37.2 38.8223 36.9 38.9203 36.9 38.956C36.9 39.0005 36.66 39.0807 36.38 39.1342C36.09 39.1966 35.67 39.3213 35.44 39.4104C35.22 39.4995 34.83 39.6153 34.57 39.6777C34.31 39.7312 34.1 39.8114 34.1 39.8559C34.1 39.9005 34.04 39.9361 33.96 39.9361C33.78 39.9361 32.76 40.2212 32.7 40.2925C32.67 40.3282 32.32 40.4262 31.92 40.5153C31.53 40.6044 31.2 40.7113 31.2 40.747C31.2 40.7737 30.99 40.8539 30.73 40.9162C30.46 40.9786 30.12 41.0855 29.95 41.1479C29.5 41.3172 28.71 41.54 28.55 41.54C28.47 41.54 28.4 41.5756 28.4 41.6202C28.4 41.6647 28.15 41.7538 27.84 41.8162C27.53 41.8786 27.23 41.9766 27.16 42.03C27.1 42.0835 26.72 42.2082 26.32 42.2974C25.93 42.3865 25.6 42.4934 25.6 42.529C25.6 42.5558 25.28 42.6627 24.9 42.7518C24.51 42.8409 24.2 42.9389 24.2 42.9834C24.2 43.0191 24.14 43.0547 24.06 43.0547C23.88 43.0547 22.86 43.3399 22.8 43.4111C22.77 43.4468 22.46 43.5359 22.11 43.625C21.75 43.7141 21.37 43.8388 21.26 43.9012C21.14 43.9636 20.83 44.0616 20.55 44.1151C20.28 44.1774 20.01 44.2576 19.95 44.3022C19.9 44.3378 19.58 44.4447 19.25 44.5249C18.92 44.614 18.63 44.7121 18.6 44.7388C18.57 44.7744 18.25 44.8724 17.88 44.9615C17.5 45.0506 17.2 45.1487 17.2 45.1843C17.2 45.2199 16.86 45.318 16.45 45.416C16.04 45.5051 15.7 45.612 15.7 45.6387C15.7 45.6744 15.42 45.7724 15.08 45.8615C14.73 45.9417 14.41 46.0397 14.35 46.0753C14.3 46.111 13.96 46.2179 13.6 46.307C13.24 46.405 12.93 46.503 12.9 46.5387C12.87 46.5743 12.58 46.6634 12.26 46.7436C11.93 46.8149 11.64 46.9129 11.61 46.9575C11.58 46.9931 11.24 47.1089 10.85 47.198C10.47 47.2871 10.13 47.3852 10.1 47.4208C10.07 47.4475 9.76 47.5545 9.4 47.6436C9.04 47.7327 8.73 47.8396 8.7 47.8663C8.67 47.893 8.35 47.9911 7.98 48.0802C7.6 48.1693 7.3 48.2673 7.3 48.3029C7.3 48.3386 6.98 48.4366 6.6 48.5257C6.21 48.6148 5.87 48.7217 5.84 48.7663C5.82 48.8108 5.61 48.8821 5.4 48.9356L5 49.0336V72.5212V96L5.33 95.9465C5.8 95.8663 6.74 95.599 6.8 95.5367C6.83 95.501 7.18 95.403 7.57 95.3139C7.97 95.2248 8.3 95.1179 8.3 95.0822C8.3 95.0555 8.58 94.9575 8.93 94.8684C9.27 94.7882 9.6 94.6902 9.65 94.6545C9.71 94.6189 10.02 94.512 10.35 94.4229C10.68 94.3338 11 94.2358 11.05 94.2001C11.11 94.1556 11.42 94.0665 11.74 93.9863C12.07 93.915 12.36 93.817 12.39 93.7724C12.42 93.7279 12.78 93.6209 13.17 93.5318C13.57 93.4427 13.9 93.3358 13.9 93.3002C13.9 93.2734 14.21 93.1665 14.6 93.0774C14.98 92.9883 15.3 92.8903 15.3 92.8457C15.3 92.8101 15.36 92.7745 15.44 92.7745C15.63 92.7745 16.64 92.4893 16.7 92.418C16.73 92.3824 17.05 92.2844 17.43 92.1953C17.8 92.1062 18.1 92.0082 18.1 91.9725C18.1 91.9369 18.4 91.8389 18.77 91.7587C19.14 91.6696 19.49 91.5716 19.55 91.527C19.6 91.4914 19.92 91.3844 20.25 91.3042C20.58 91.2151 20.87 91.1171 20.9 91.0904C20.93 91.0548 21.25 90.9567 21.63 90.8676C22 90.7785 22.3 90.6805 22.3 90.6449C22.3 90.6092 22.64 90.5112 23.05 90.4132C23.46 90.3241 23.8 90.2172 23.8 90.1905C23.8 90.1548 24.08 90.0568 24.43 89.9677C24.77 89.8875 25.1 89.7895 25.15 89.7538C25.21 89.7182 25.54 89.6113 25.9 89.5222C26.26 89.4242 26.57 89.3262 26.6 89.2905C26.63 89.2549 26.92 89.1658 27.24 89.0856C27.57 89.0143 27.86 88.9163 27.89 88.8717C27.92 88.8272 28.28 88.7202 28.67 88.6311C29.07 88.542 29.4 88.4351 29.4 88.4084C29.4 88.3817 29.71 88.2836 30.1 88.1856C30.48 88.0876 30.8 87.9807 30.8 87.945C30.8 87.9094 30.86 87.8738 30.94 87.8738C31.12 87.8738 32.14 87.5886 32.2 87.5174C32.23 87.4817 32.54 87.3926 32.89 87.3035C33.25 87.2144 33.63 87.0897 33.74 87.0273C33.86 86.9649 34.17 86.8669 34.45 86.8134C34.72 86.7511 34.99 86.6709 35.05 86.6263C35.1 86.5907 35.42 86.4838 35.75 86.4036C36.08 86.3145 36.37 86.2164 36.4 86.1897C36.43 86.1541 36.75 86.0561 37.13 85.967C37.5 85.8778 37.8 85.7798 37.8 85.7442C37.8 85.7086 38.13 85.6105 38.52 85.5214C38.92 85.4323 39.27 85.3254 39.3 85.2987C39.33 85.263 39.62 85.165 39.95 85.0759C40.28 84.9779 40.6 84.8799 40.65 84.8442C40.71 84.8175 41.04 84.7106 41.4 84.6215C41.76 84.5235 42.07 84.4255 42.1 84.3898C42.13 84.3542 42.44 84.2562 42.79 84.176C43.14 84.0958 43.52 83.9799 43.64 83.9176C43.75 83.8552 44.08 83.7483 44.35 83.6859C44.63 83.6146 44.87 83.5433 44.9 83.5077C44.93 83.481 45.24 83.374 45.6 83.2849C45.96 83.1958 46.27 83.0889 46.3 83.0622C46.33 83.0354 46.65 82.9374 47.03 82.8483C47.4 82.7592 47.7 82.6612 47.7 82.6256C47.7 82.5899 47.94 82.5097 48.23 82.4474C48.51 82.385 48.91 82.2602 49.1 82.1801C49.29 82.091 49.67 81.9751 49.95 81.9127C50.22 81.8504 50.49 81.7702 50.55 81.7256C50.6 81.69 50.93 81.5831 51.28 81.5029C51.62 81.4138 51.9 81.3158 51.9 81.289C51.9 81.2534 52.24 81.1554 52.65 81.0574C53.06 80.9682 53.4 80.8702 53.4 80.8346C53.4 80.799 53.7 80.7009 54.08 80.6118C54.45 80.5227 54.77 80.4247 54.8 80.3891C54.86 80.3178 55.87 80.0327 56.06 80.0327C56.14 80.0327 56.2 79.997 56.2 79.9614C56.2 79.9168 56.52 79.8188 56.9 79.7297C57.29 79.6406 57.6 79.5337 57.6 79.498C57.6 79.4624 57.9 79.3644 58.26 79.2842C58.62 79.204 59.01 79.0793 59.13 79.0169C59.25 78.9456 59.59 78.8476 59.88 78.7852C60.16 78.7228 60.4 78.6426 60.4 78.5981C60.4 78.5535 60.46 78.5179 60.54 78.5179C60.72 78.5179 61.74 78.2328 61.8 78.1615C61.83 78.1348 62.15 78.0367 62.53 77.9476C62.9 77.8585 63.2 77.7605 63.2 77.7249C63.2 77.6892 63.44 77.609 63.73 77.5467C64.01 77.4843 64.39 77.3774 64.55 77.3061C64.72 77.2437 65.1 77.119 65.4 77.0388C65.7 76.9586 66 76.8606 66.05 76.8249C66.11 76.7804 66.43 76.6824 66.78 76.6022C67.12 76.5131 67.4 76.4151 67.4 76.3883C67.4 76.3527 67.74 76.2547 68.15 76.1567C68.56 76.0676 68.9 75.9606 68.9 75.9339C68.9 75.8983 69.22 75.7913 69.6 75.7022C69.99 75.6131 70.3 75.5151 70.3 75.4706C70.3 75.4349 70.36 75.3993 70.44 75.3993C70.63 75.3993 71.64 75.1142 71.7 75.0429C71.73 75.0072 72.05 74.9092 72.43 74.8201C72.8 74.731 73.1 74.633 73.1 74.5974C73.1 74.5528 73.34 74.4726 73.63 74.4191C73.91 74.3568 74.33 74.232 74.56 74.1429C74.78 74.0538 75.17 73.938 75.43 73.8756C75.69 73.8222 75.9 73.742 75.9 73.6974C75.9 73.6529 75.96 73.6172 76.04 73.6172C76.22 73.6172 77.24 73.3321 77.3 73.2608C77.33 73.2252 77.68 73.1271 78.08 73.038C78.47 72.9489 78.8 72.842 78.8 72.8064C78.8 72.7796 79.01 72.6994 79.28 72.6371C79.54 72.5747 79.89 72.4678 80.05 72.4054C80.5 72.2361 81.29 72.0134 81.45 72.0134C81.53 72.0134 81.6 71.9777 81.6 71.9332C81.6 71.8886 81.85 71.7995 82.16 71.7371C82.47 71.6748 82.77 71.5767 82.84 71.5233C82.9 71.4698 83.28 71.3451 83.68 71.256C84.07 71.1669 84.4 71.0599 84.4 71.0243C84.4 70.9976 84.72 70.8906 85.1 70.8015C85.49 70.7124 85.8 70.6144 85.8 70.5699C85.8 70.5342 85.86 70.4986 85.94 70.4986C86.12 70.4986 87.14 70.2135 87.2 70.1422C87.23 70.1065 87.54 70.0174 87.89 69.9283C88.25 69.8392 88.63 69.7145 88.74 69.6521C88.86 69.5897 89.17 69.4917 89.45 69.4383C89.72 69.3759 89.99 69.2957 90.05 69.2511C90.1 69.2155 90.42 69.1086 90.75 69.0284C91.08 68.9393 91.37 68.8413 91.4 68.8145C91.43 68.7789 91.75 68.6809 92.13 68.5918C92.5 68.5027 92.8 68.4047 92.8 68.369C92.8 68.3334 93.14 68.2354 93.55 68.1374C93.96 68.0482 94.3 67.9413 94.3 67.9146C94.3 67.879 94.58 67.7809 94.93 67.6918C95.27 67.6116 95.6 67.5136 95.65 67.478C95.71 67.4423 96.04 67.3354 96.4 67.2463C96.76 67.1483 97.07 67.0503 97.1 67.0146C97.13 66.979 97.42 66.8899 97.74 66.8097C98.07 66.7384 98.36 66.6404 98.39 66.5959C98.42 66.5602 98.77 66.4444 99.15 66.3553C99.54 66.2662 99.87 66.1682 99.9 66.1325C99.93 66.1058 100.24 65.9989 100.6 65.9098C100.96 65.8207 101.27 65.7137 101.3 65.687C101.33 65.6603 101.65 65.5623 102.03 65.4732C102.4 65.3841 102.7 65.286 102.7 65.2504C102.7 65.2148 103.02 65.1167 103.4 65.0276C103.79 64.9385 104.13 64.8316 104.16 64.7871C104.18 64.7425 104.39 64.6712 104.6 64.6178L105 64.5198V41.0499C105 18.7473 104.99 17.5711 104.83 17.5801C104.73 17.5801 104.61 17.5979 104.55 17.6157ZM97.8 43.3131V59.6993L97.53 59.7884C97.28 59.8686 84.92 63.7713 84.63 63.8604C84.44 63.9138 84.44 31.1772 84.63 31.0525C84.69 31.0079 85.65 30.6872 86.75 30.3397C87.85 29.9922 90.71 29.0922 93.1 28.3259C95.49 27.5686 97.53 26.9359 97.63 26.9359C97.79 26.927 97.8 27.7646 97.8 43.3131ZM82.2 47.207C82.2 57.0974 82.17 62.5684 82.1 62.5506C82.01 62.5238 81.11 61.517 73 52.366C71.35 50.5038 69.75 48.7039 69.45 48.3653L68.9 47.7505V41.8518V35.9532L69.98 35.6324C70.57 35.4453 73.48 34.5186 76.45 33.5741C79.42 32.6207 81.93 31.8455 82.03 31.8366C82.19 31.8277 82.2 32.6118 82.2 47.207ZM60.02 41.1568C60.93 42.1815 63.66 45.2556 66.1 48C73.13 55.9213 79.38 62.9515 80.27 63.9495C81.02 64.796 81.08 64.8851 80.91 64.9653C80.81 65.0187 79.7 65.3841 78.44 65.7761C77.18 66.1771 74.24 67.1038 71.91 67.8344C68.42 68.9393 67.65 69.1531 67.55 69.0551C67.48 68.9927 66.81 68.2354 66.05 67.38C65.3 66.5246 64.66 65.8118 64.65 65.7939C64.62 65.7672 58.34 67.7453 54.32 69.0373L53.4 69.3313L53.42 65.0009L53.45 60.6616L55.97 59.8596C57.36 59.4141 58.51 59.031 58.54 58.9953C58.57 58.9686 57.43 57.6499 56 56.0638L53.4 53.1769V47.0109V40.845L54.48 40.5064C55.07 40.3193 56.14 39.9807 56.85 39.749C57.57 39.5173 58.2 39.3213 58.26 39.3213C58.32 39.3124 59.11 40.141 60.02 41.1568ZM51 57.0618C51 65.9454 50.96 72.4589 50.91 72.4143C50.84 72.343 43.48 64.0297 41.7 62.007C40.95 61.1606 40.01 60.0913 38.82 58.7458L37.7 57.4717L37.72 51.6354L37.75 45.7991L40.85 44.8279C42.56 44.2844 44.24 43.7586 44.6 43.6339C46.17 43.126 50.86 41.6469 50.93 41.638C50.97 41.6291 51 48.5702 51 57.0618ZM25.7 66.0434C25.7 80.7366 25.68 82.3494 25.54 82.4741C25.46 82.5543 25.34 82.6167 25.27 82.6167C25.2 82.6167 13.89 86.1808 12.33 86.6976C12.23 86.7243 12.2 83.4186 12.2 70.3293V53.9254L12.53 53.8006C12.94 53.6402 13.14 53.5778 19.75 51.4928C26.13 49.4791 25.53 49.6662 25.63 49.7108C25.67 49.7286 25.7 57.0796 25.7 66.0434ZM32.22 54.8788C34.16 57.0618 35.86 58.9775 36 59.1379C36.14 59.2983 37.18 60.4655 38.31 61.7397C39.44 63.005 41.84 65.7048 43.65 67.7364C45.46 69.7679 47.06 71.5767 47.22 71.746C48.69 73.3499 49.87 74.7399 49.82 74.7934C49.76 74.8379 45.26 76.2903 41.85 77.3596C39.74 78.0189 37.28 78.7941 36.94 78.901L36.54 79.0347L32.27 74.2231L28 69.4026V59.8151L28.01 50.2276L28.35 50.5751C28.54 50.7622 30.28 52.6957 32.22 54.8788Z" fill="white"/>
</svg>
