<svg width="109" height="114" viewBox="0 0 109 114" fill="none" xmlns="http://www.w3.org/2000/svg">
<path d="M23.3405 58.5377C23.3062 59.2324 23.2773 58.7056 23.2773 57.3649C23.2773 56.0243 23.3062 55.4577 23.3405 56.1019C23.3747 56.746 23.3747 57.8431 23.3405 58.5377Z" fill="#F1F1F1"/>
<path d="M23.3423 71.2585C23.308 72.2022 23.2828 71.4715 23.2828 69.6346C23.2828 67.7978 23.308 67.0273 23.3423 67.9205C23.3747 68.8136 23.3747 70.3149 23.3423 71.2585Z" fill="#F1F1F1"/>
<path d="M86.683 9.00021C86.7317 8.99479 86.8727 9.09588 86.9935 9.22579C87.1612 9.40474 87.2237 13.3 87.3138 42.257L97.8959 49.674C103.715 53.7555 108.544 57.1536 108.625 57.2258C108.706 57.298 108.652 57.4838 108.502 57.6389C108.262 57.8896 107.036 57.9209 87.224 57.9065V81.1828C87.224 93.9846 87.1828 104.58 87.1341 104.73C87.0535 104.968 85.1762 105 71.7162 105C58.2573 105 56.3791 104.968 56.2982 104.73C56.2495 104.58 56.2098 102.773 56.2152 96.9709L53.9574 95.3918C52.7152 94.5241 51.6588 93.813 51.6097 93.8127C51.561 93.8127 51.5199 96.2075 51.5199 99.1359C51.5199 102.064 51.4778 104.58 51.4291 104.73C51.3477 104.968 49.4683 105 36.0111 105C22.5497 105 20.6733 104.968 20.5931 104.73C20.5426 104.58 20.5033 93.9844 20.5033 57.9065L10.9007 57.9133C2.30014 57.9205 1.27097 57.8915 1.02868 57.632C0.783433 57.3686 1.70068 56.3973 20.5033 37.6067V24.3C20.5033 16.9853 20.5427 10.876 20.5931 10.7219C20.6436 10.5739 20.8048 10.4514 20.9545 10.4514C21.1096 10.4565 29.6965 16.3891 58.8226 36.802L72.7074 22.9045C80.3391 15.2663 86.6241 9.01222 86.683 9.00021ZM23.6576 15.8635C23.609 15.8746 23.5676 21.0474 23.5658 27.3664L23.5638 38.8693C11.4167 51.0185 7.94023 54.6205 8.00915 54.7082C8.0906 54.7857 11.5798 54.8458 15.7679 54.844L23.3871 54.8381C23.5728 55.6067 23.5763 61.2712 23.515 67.9201C23.4537 74.569 23.4613 84.9818 23.5316 91.0608L23.6576 102.113H48.4525C48.4525 91.3546 48.5134 88.1923 48.5873 88.1486C48.6612 88.109 51.0962 89.7327 53.9974 91.757L59.2718 95.4367V102.113H84.1566V54.8381C96.0227 54.8381 99.5128 54.7772 99.5658 54.7033C99.6038 54.6245 96.1782 52.1266 91.9466 49.1506L84.2474 43.7326C84.1717 22.4847 84.0901 16.255 84.0179 16.1828C83.9198 16.1353 78.3524 21.5872 71.6244 28.3176C64.8861 35.0582 59.2908 40.5724 59.182 40.5803C59.0679 40.5662 51.0595 35.0068 41.3744 28.218C31.6849 21.4261 23.7155 15.8687 23.6576 15.8635ZM66.9007 55.425C67.0306 55.7479 67.4165 56.226 67.7572 56.4895C68.0979 56.7528 68.7023 57.0579 69.099 57.1662C69.4956 57.2744 70.1841 57.3645 70.6312 57.3664C71.0784 57.3682 71.807 57.2468 72.2543 57.0988C72.7015 56.9491 73.3222 56.5633 73.6341 56.2385C73.9478 55.9155 74.2327 55.4877 74.267 55.2893C74.3104 55.0462 74.4926 54.9147 74.8256 54.884C75.2563 54.8443 75.3195 54.9037 75.3177 55.3342C75.3159 55.6066 75.1592 56.156 74.9681 56.5529C74.7786 56.9499 74.2329 57.6374 73.7552 58.0793C73.2775 58.5212 72.3991 59.098 71.8041 59.3615C71.209 59.6268 70.2744 59.9462 69.7298 60.0725C69.1852 60.2006 67.9678 60.3004 67.0248 60.2932C66.0818 60.2859 64.7838 60.1597 64.14 60.01C63.4945 59.862 62.5204 59.546 61.9759 59.3078C61.4313 59.0696 60.4555 58.5191 59.8119 58.0861C59.1663 57.653 58.1344 56.8049 57.516 56.2024C56.8978 55.6018 56.4364 55.0478 56.4886 54.9738C56.5439 54.8999 58.858 54.8381 66.6644 54.8381L66.9007 55.425ZM43.3119 55.6125C43.5642 56.1464 43.9143 56.506 44.4838 56.8234C45.1708 57.206 45.5303 57.2746 46.8285 57.2746C48.1265 57.2746 48.4855 57.2057 49.1722 56.8234C49.7474 56.5041 50.089 56.1487 50.3451 55.6057C50.6425 54.9745 50.7854 54.848 51.1566 54.884C51.5421 54.9219 51.5978 55.0067 51.5492 55.4699C51.5167 55.7676 51.3547 56.2945 51.1888 56.6428C51.0247 56.991 50.5631 57.5885 50.1664 57.9729C49.7679 58.3553 48.9764 58.9037 48.4066 59.1906C47.8368 59.4757 46.9022 59.8362 46.3324 59.9914C45.6832 60.1682 44.5524 60.2735 43.3119 60.2717C42.0804 60.2699 40.9172 60.1612 40.2465 59.9826C39.6513 59.8256 38.6773 59.4697 38.0824 59.1955C37.4872 58.9193 36.5132 58.3674 35.9183 57.967C35.3232 57.5663 34.3294 56.7799 33.7093 56.219C33.0893 55.6579 32.6279 55.118 32.682 55.0188C32.7486 54.9053 34.6629 54.84 42.9515 54.8508L43.3119 55.6125Z" fill="white"/>
</svg>
