<svg width="109" height="114" viewBox="0 0 109 114" fill="none" xmlns="http://www.w3.org/2000/svg">
<path d="M54.5771 11C54.619 11 58.5968 14.9393 72.1699 28.5117H83.5625L83.5732 39.9023L98.8047 55.1729C98.7739 55.1786 98.7513 55.1898 98.75 55.2061C98.75 55.2278 99.2893 55.7687 99.9512 56.4072L101.134 57.5498L83.5596 75.082L83.5625 86.4727L72.1699 86.4814L54.5 104L36.9854 86.4727H25.5928L25.5938 75.082L8 57.4941L25.5195 39.9014L25.5928 28.5117H36.9854L45.7422 19.7559C50.5467 14.9521 54.5154 11.0185 54.5771 11ZM54.5762 15.3408C54.5209 15.3513 50.9326 18.9035 46.5938 23.2432L38.6885 31.1465H28.2266L28.1533 41.6055L12.3389 57.4922L28.2266 73.377V83.8379L38.6885 83.8301L54.5859 99.7227L70.4639 83.8418L80.9268 83.8379V73.377L96.7314 57.5693L80.8486 41.6074V31.2236L70.2314 31.1465C58.1585 18.8973 54.618 15.3408 54.5762 15.3408ZM101.155 57.5293L101.135 57.5488C100.915 57.312 100.713 57.0977 100.53 56.9023L101.155 57.5293Z" fill="white"/>
<path d="M46.2088 30.7691C46.2522 30.7241 48.1339 28.8366 50.3938 26.5755L54.5013 22.4609L62.8713 30.8373L58.7638 34.9441C56.5054 37.2036 54.5865 39.0509 54.5013 39.0509C54.416 39.0509 52.4971 37.2067 50.2388 34.9503C47.9804 32.6954 46.1654 30.8125 46.2088 30.7691Z" fill="white"/>
<path d="M32.2588 79.0357V56.7195V34.4032L36.1725 34.4048C39.0896 34.4063 40.3327 34.4668 41.055 34.6372C41.5882 34.7643 42.3896 35.051 42.8375 35.2742C43.2855 35.4973 44.1039 36.0134 44.6588 36.421C45.2121 36.8286 46.4676 37.9893 47.4488 38.9998C48.4284 40.0117 49.6482 41.3275 50.1582 41.9226C50.6681 42.5177 51.6849 43.666 52.4165 44.4765C53.1481 45.2855 55.1306 47.5171 56.8201 49.4357C58.5111 51.3527 59.9542 52.9397 60.027 52.9614C60.0983 52.9831 60.1417 51.0645 60.0813 44.399L56.2838 44.3216L56.2698 40.5247L58.6413 38.2683C59.9449 37.0285 61.3941 35.6539 62.7163 34.4125L76.2788 34.4032V79.0357L72.5201 79.0326C69.9548 79.0311 68.4405 78.9629 67.7538 78.8188C67.1989 78.7025 66.3278 78.3988 65.8163 78.1446C65.3048 77.8889 64.3624 77.2628 63.7238 76.7545C63.0837 76.2446 62.1738 75.4155 61.7026 74.9134C61.2299 74.4098 59.7666 72.7081 58.4522 71.1321C57.1378 69.5544 55.9893 68.1875 55.9009 68.093C55.8126 67.9969 55.5196 67.6482 55.2484 67.3181C54.9771 66.9865 53.4535 65.1454 51.8632 63.2284C50.2744 61.3098 48.8391 59.602 48.6748 59.4315C48.3788 59.1247 48.3757 59.1681 48.3788 67.2577H52.2538L52.2522 72.6043L45.8213 79.0373L32.2588 79.0357Z" fill="white"/>
<path d="M19.7812 57.0294L23.8826 52.8901L27.9854 48.7507L28.0288 51.689C28.0536 53.3054 28.0908 57.0511 28.1513 65.398L19.7812 57.0294Z" fill="white"/>
<path d="M80.7723 65.3205L80.7692 57.0294L80.7645 48.7383L81.1598 49.1258C81.3783 49.3381 81.5535 49.6 81.5519 49.7069C81.5488 49.8123 81.6356 49.8991 81.741 49.8991C81.848 49.8991 83.539 51.5031 89.0648 57.0294L80.7723 65.3205Z" fill="white"/>
<path d="M46.1313 83.375L50.3163 79.1891L54.4997 75.0049L62.8713 83.3734L58.7638 87.4818C56.5039 89.7398 54.5865 91.5886 54.5013 91.5886C54.416 91.5886 52.4971 89.7398 46.1313 83.375Z" fill="white"/>
</svg>
