<svg width="109" height="114" viewBox="0 0 109 114" fill="none" xmlns="http://www.w3.org/2000/svg">
<path fill-rule="evenodd" clip-rule="evenodd" d="M10.5231 7C10.8327 7 26.467 14.1162 45.3005 22.7794C64.0824 31.4426 79.5103 38.6104 79.5619 38.662C79.6651 38.662 78.014 42.4264 72.1317 55.2149L59.8513 63.2593L45.9197 57.0197L44.1137 58.1542C43.1334 58.773 40.9662 60.1653 39.3151 61.2482C37.7155 62.3311 36.374 62.9499 36.374 62.6921C36.374 62.3827 37.6639 59.4434 42.0498 50.0582L47.0549 46.9642C51.8535 43.9734 52.0599 43.7671 53.8659 40.1059C54.8978 38.0432 55.6202 36.2899 55.4654 36.1868C55.3106 36.0836 51.0279 34.1241 45.9197 31.752C38.2831 28.2455 36.1676 27.472 34.052 27.472C32.6073 27.472 30.9045 27.7814 30.1821 28.1424C29.4597 28.5033 28.273 29.38 26.1058 31.4942L19.5528 21.4387C15.9409 15.921 12.329 10.4034 11.5035 9.1658C10.6779 7.97977 10.2135 7 10.5231 7V7ZM61.3476 42.4779C60.6253 44.0765 59.6965 46.2423 59.2837 47.2221C58.8709 48.305 57.7357 49.5426 56.4974 50.3161C55.3622 51.038 54.4334 51.7084 54.4334 51.8631C54.4334 52.0178 55.4138 52.6366 56.6006 53.2554L58.8193 54.3383C65.2691 50.3161 65.9399 49.6457 67.2815 46.8611C68.1587 45.0563 68.881 43.303 68.881 42.9936C68.8294 42.6326 67.4363 41.7044 65.7335 40.9309L62.6376 39.5386L61.3476 42.4779ZM54.5882 10.6612C57.7873 10.6612 61.812 10.9706 64.134 11.4347C66.3527 11.8988 69.7582 12.8786 71.7189 13.6521C73.7313 14.4256 77.1368 16.1273 79.3555 17.4681C81.5743 18.8088 83.4834 20.1495 83.5866 20.4074C83.7414 20.7168 82.3483 21.9028 80.4907 23.1404C77.0852 25.3062 77.0852 25.3062 75.692 24.378C74.9181 23.8623 72.9057 22.7794 71.203 22.0059C69.5002 21.1809 66.6107 20.098 64.7532 19.5823C62.328 18.9119 59.4385 18.6541 46.4357 18.551L41.9466 16.3851C39.4699 15.1991 37.4059 14.1162 37.4059 13.9615C37.4059 13.8068 38.5411 13.3427 39.8827 12.9302C41.2242 12.5176 43.8557 11.8473 45.6617 11.4347C47.5192 11.0222 51.5439 10.6612 54.5882 10.6612ZM104.639 12.6723C104.845 12.6723 105 12.7755 105 12.9302C105 13.0849 102.007 19.737 98.2922 27.7814C94.5771 35.7742 91.2748 42.6326 90.9136 43.0452C90.604 43.4061 87.9209 45.2625 85.0314 47.1705C82.0903 49.0269 79.6135 50.4708 79.5103 50.3161C79.3555 50.1614 80.4907 47.5315 81.9355 44.3859C84.051 39.8996 84.567 38.1979 84.567 36.1352C84.567 34.7429 84.2574 32.9896 83.8962 32.2677C83.535 31.5458 82.6062 30.3597 80.4907 28.2455L92.3584 20.4589C98.9114 16.1789 104.432 12.7239 104.639 12.6723ZM18.6757 28.1424C18.8821 28.1424 19.914 29.5862 23.0099 34.5882L20.7912 38.9714C19.5528 41.395 18.1081 45.0047 17.5405 46.9642C16.8181 49.6973 16.5601 52.4303 16.4569 65.5283L14.2898 70.1693C12.6386 73.6242 11.9678 74.604 11.6583 74.0368C11.4003 73.6242 10.6779 71.51 10.0587 69.3958C9.33632 66.7659 8.87193 63.4656 8.66554 59.0824C8.45915 54.1836 8.61394 51.6052 9.28472 48.2534C9.74911 45.8298 10.8327 42.117 11.6583 40.0027C12.4838 37.8885 14.3414 34.3304 15.7345 32.1646C17.1277 29.9472 18.4693 28.1424 18.6757 28.1424ZM42.0498 34.9492L46.1777 36.8571C48.448 37.8885 50.3056 38.8167 50.3056 38.9714C50.3056 39.1261 45.7133 42.117 40.1406 45.6751C34.568 49.2332 29.4082 52.4303 28.6858 52.7913C27.9634 53.1522 27.2926 53.4616 27.241 53.4616C27.1894 53.4101 27.4474 52.6881 27.8602 51.7599C28.2214 50.8317 29.4082 48.0987 32.3493 41.2919L42.0498 34.9492ZM97.8794 39.2292L99.1178 42.8389C99.8402 44.85 100.614 48.305 100.975 50.5739C101.285 52.8944 101.44 56.9166 101.233 59.8559C101.079 63.1046 100.459 66.7143 99.5822 69.6536C98.8598 72.2319 97.2086 76.2541 95.9187 78.6778C94.6803 81.1014 93.0807 83.7829 91.2232 86.155L89.1077 82.9578C87.9209 81.153 86.9405 79.5029 86.9405 79.1935C86.9405 78.9356 87.5597 77.7496 88.2305 76.6151C88.9529 75.4806 90.0364 73.3148 90.6556 71.871C91.2232 70.3755 92.1004 68.0035 92.5132 66.5596C93.0291 64.8579 93.3387 61.4029 93.4935 48.5112L97.8794 39.2292ZM86.5277 51.9146C86.7341 51.8631 86.9405 51.9662 86.9405 52.1209C86.9405 52.2756 85.7022 55.1118 81.3679 64.4969L62.4312 76.7182L58.6129 74.965C56.4974 74.0368 54.6914 73.057 54.6398 72.7476C54.5366 72.4898 61.6056 67.6941 70.3258 62.1249C79.0459 56.5041 86.3213 51.9662 86.5277 51.9146ZM33.8972 55.5243C34.1036 55.4727 34.31 55.5759 34.31 55.7306C34.31 55.8853 32.2977 60.32 29.8209 65.683C26.1058 73.7789 25.3319 75.7385 25.3835 77.9043C25.3835 79.3482 25.7447 81.2046 26.1574 82.0296C26.6218 82.9063 27.4474 84.0923 29.1502 85.8971L17.1277 93.7868C10.5231 98.17 5.05364 101.573 5.00204 101.419C4.89885 101.264 8.71714 92.6524 13.4642 82.2875C18.2113 71.9225 22.3392 63.1562 22.6487 62.8468C22.9583 62.4858 25.5383 60.681 28.3762 58.8761C31.2141 57.0197 33.6908 55.5243 33.8972 55.5243ZM46.9517 62.4343C47.2096 62.4858 49.1188 63.3625 51.1827 64.2907C53.2467 65.2704 54.7946 66.1471 54.6914 66.3018C54.5882 66.4565 52.1631 68.055 44.1137 73.2633L53.5047 77.5433C58.7161 79.9154 63.1536 81.7202 63.4632 81.5655C63.7212 81.4624 66.8687 79.5028 70.429 77.2339C73.9377 74.965 76.9304 73.1086 77.0336 73.1601C77.0852 73.2117 75.8984 76.0479 74.3505 79.4513C72.4929 83.5766 71.7533 85.7424 72.1317 85.9487C72.4929 86.155 73.4217 86.4644 74.2989 86.6706C75.1245 86.8253 76.8272 86.7738 78.014 86.4644C79.2523 86.155 81.0067 85.2268 83.8446 82.8031L85.2894 85.0205C86.1149 86.2065 89.572 91.5179 93.0291 96.8808C96.4863 102.192 99.221 106.679 99.0662 106.936C98.9114 107.143 98.0858 106.833 97.157 106.214C96.1767 105.647 94.7319 104.925 93.9063 104.616C93.0291 104.306 78.6332 97.7575 61.9152 90.0225C45.1457 82.339 31.2141 75.79 30.9561 75.5322C30.5949 75.1712 30.7497 74.3977 31.4721 73.1601C32.2461 71.7678 34.2584 70.1177 39.4699 66.7659C43.2882 64.2907 46.6421 62.3311 46.9517 62.4343ZM32.5041 88.9911C32.5041 88.9911 34.4648 89.9709 36.8899 91.2085C39.2635 92.4461 42.8754 93.89 44.8877 94.4056C47.5708 95.1791 50.3572 95.437 63.4632 95.5401L68.1071 97.7059C71.5126 99.3045 72.5445 99.9749 71.9769 100.336C71.5126 100.594 69.4486 101.264 67.3331 101.883C64.7016 102.656 61.3476 103.12 57.0134 103.275C52.0599 103.481 49.5316 103.378 46.1777 102.708C43.7525 102.192 40.0374 101.109 37.9219 100.284C35.7548 99.4592 32.1945 97.6028 29.9241 96.2105C27.4474 94.6635 26.0026 93.4259 26.3122 93.168C26.5702 92.9102 28.0666 91.8789 29.6661 90.8475C31.2141 89.8162 32.5041 88.9911 32.5041 88.9911Z" fill="white" fill-opacity="0.94"/>
</svg>
