<svg width="109" height="114" viewBox="0 0 109 114" fill="none" xmlns="http://www.w3.org/2000/svg">
<path d="M21.8271 16.0057C21.9902 16.06 26.6111 17.5094 42.0615 22.3572L43.9014 21.6756C44.9138 21.3022 46.6556 20.7666 47.7724 20.4842C48.8894 20.2017 50.6321 19.846 51.6445 19.6912C52.6571 19.5384 54.703 19.3586 56.1933 19.2928C57.7807 19.2232 59.8657 19.2657 61.2266 19.3973C62.5042 19.5211 64.5946 19.8383 65.8721 20.1033C67.1497 20.3665 69.3491 20.9737 73.3252 22.3201L83.2461 19.2088C88.7005 17.4975 93.3291 16.0839 93.5342 16.0653C93.8226 16.0401 94.1848 16.5821 95.1914 18.5477C96.0644 20.252 96.585 21.5467 96.8076 22.5623C96.9876 23.3865 97.1328 24.7789 97.1308 25.657C97.1289 26.5352 97.0074 27.8179 96.8584 28.5106C96.7113 29.2011 96.4437 30.2031 96.2656 30.7352C96.0894 31.2672 95.5829 32.4421 95.1396 33.3475C94.6963 34.2509 93.786 35.7539 93.1201 36.6844C92.4542 37.6149 91.9082 38.4203 91.9082 38.4744C91.9094 38.5306 92.1973 39.0734 92.5488 39.6834C92.9011 40.2948 93.5923 41.6663 94.082 42.7303C94.5718 43.7943 95.2866 45.6224 95.668 46.7928C96.0493 47.9632 96.5736 49.9662 96.831 51.243C97.0904 52.5198 97.4005 54.8272 97.5224 56.369C97.6425 57.9108 97.6849 60.0451 97.6152 61.1092C97.5475 62.1732 97.3619 63.9568 97.2051 65.075C97.0463 66.1913 96.7557 67.7587 96.1904 70.0086L97.4853 71.4344C98.1977 72.2198 99.2157 73.377 99.748 74.0076C100.414 74.7966 100.851 75.1508 101.151 75.1453C101.391 75.1395 102.044 75.3036 102.604 75.5106C103.242 75.7466 103.913 76.1953 104.408 76.7195C104.842 77.1779 105.316 77.9014 105.461 78.327C105.606 78.7525 105.724 79.5362 105.724 80.0682C105.722 80.6 105.616 81.2967 105.488 81.616C105.281 82.1286 105.321 82.365 105.852 83.6473C106.181 84.4443 106.574 85.6212 106.725 86.2596C106.877 86.898 107.002 88.2035 107 89.161C106.998 90.5132 106.901 91.1406 106.566 91.9666C106.328 92.5509 105.863 93.3789 105.536 93.8045C105.207 94.2301 104.51 94.8646 103.987 95.2147C103.467 95.5648 102.474 96.0292 101.781 96.2459C101.088 96.4626 99.696 96.6869 98.6836 96.743C97.3169 96.8223 96.2462 96.747 94.5215 96.451C93.2439 96.2324 91.2404 95.7432 90.0693 95.3621C88.8983 94.981 86.8079 94.1085 85.4238 93.4217C84.0399 92.7369 82.6906 91.9898 81.9394 91.3572L82.4228 91.4461C82.69 91.4945 83.7337 91.7633 84.7461 92.0438C85.7584 92.3223 87.5427 92.7284 88.7139 92.9451C89.885 93.1599 91.8894 93.3901 93.167 93.4539C94.6322 93.5274 95.9892 93.4828 96.8447 93.3358C97.59 93.2081 98.6801 92.8869 99.2646 92.6199C99.8491 92.3549 100.534 91.9448 100.784 91.7127C101.034 91.4804 101.421 90.9409 101.645 90.5154C101.926 89.9854 102.056 89.3759 102.062 88.5809C102.065 87.9328 101.897 86.8881 101.297 85.0154L100.232 84.8397C99.6478 84.7429 98.7977 84.4347 98.3447 84.1561C97.8918 83.8755 97.2588 83.2776 96.9375 82.825C96.6162 82.3723 96.2617 81.5679 96.1494 81.036C95.9926 80.2853 96.0104 79.8072 96.5156 77.7469L95.7822 76.8768C95.3796 76.397 94.8879 75.8546 94.6885 75.6727C94.3439 75.3516 94.3086 75.3774 93.8789 76.2537C93.631 76.7549 92.9556 78.0159 92.3789 79.0526C91.8001 80.0895 91.2827 80.9393 91.2305 80.9393C91.1762 80.9353 90.6762 80.1067 90.1182 79.0955C89.5587 78.0837 89.0354 77.2557 88.956 77.2576C88.8763 77.2624 88.5782 77.6781 88.2959 78.1824C88.0131 78.6876 87.1659 79.9277 86.4092 80.9393C85.6542 81.9511 84.1652 83.6477 83.1006 84.7117C82.036 85.7757 80.3811 87.2342 79.4228 87.952C78.4671 88.6678 77.6401 89.2566 77.584 89.2615C77.5448 89.263 77.4004 89.0067 77.2305 88.6414L76.9531 88.0174C76.6855 87.4394 76.1976 86.5405 75.3017 85.0985L74.1631 87.4197C73.5378 88.6966 72.4793 90.657 71.8076 91.7733C71.1378 92.8895 69.8984 94.7832 67.5176 98.157L66.5976 97.6932C66.0925 97.436 65.1988 97.0376 64.6142 96.8035C64.0296 96.5714 62.7648 96.2088 61.8066 95.9998C60.5873 95.7349 59.3389 95.621 57.6455 95.6229C56.184 95.6229 54.6503 95.7467 53.7734 95.9324C52.9759 96.1008 51.7545 96.4416 51.0635 96.6893C50.3724 96.9388 49.3481 97.3697 47.7724 98.157L46.4502 96.2713C45.7243 95.2344 44.7063 93.7305 44.1914 92.9334C43.6745 92.1342 42.5262 90.0679 40.0293 85.1951L39.5586 85.824C39.2991 86.1705 38.8064 87.0628 38.4619 87.8074C38.1201 88.5505 37.8104 89.2028 37.7744 89.2576C37.739 89.3094 36.8622 88.7007 35.8271 87.9041C34.7896 87.1051 33.1337 85.6476 32.1465 84.6629C31.1573 83.6781 29.686 81.9814 28.875 80.8904C28.0641 79.7995 27.1931 78.5385 26.9394 78.0858C26.6861 77.6335 26.4136 77.2642 26.334 77.2635C26.2546 77.2635 25.7199 78.1127 24.1055 81.036L23.6387 80.2625C23.3831 79.8369 22.7897 78.7915 22.3213 77.9403C21.8528 77.089 21.0669 75.3905 20.5752 74.1678C20.0835 72.9451 19.4773 71.2041 19.2295 70.2987C18.9798 69.3933 18.6411 68 18.4726 67.2029C18.3062 66.4039 18.0791 65.0768 17.9687 64.2528C17.8584 63.4287 17.7656 62.2525 17.7598 60.5291L14.5215 57.2996C11.5019 54.2876 11.2441 54.077 10.7021 54.1795C10.3827 54.2394 9.68555 54.193 9.15331 54.0731C8.62108 53.955 7.8162 53.5953 7.36327 53.2762C6.91051 52.9552 6.33581 52.3671 6.08397 51.9686C5.83234 51.5701 5.55885 50.9386 5.47753 50.5653C5.39823 50.192 5.33407 49.5851 5.33788 49.2117C5.34175 48.8384 5.45238 48.1862 5.58397 47.7606C5.81045 47.0216 5.79088 46.9325 5.1328 45.826C4.7534 45.1876 4.08396 43.9257 3.64647 43.0203C3.20908 42.1151 2.66108 40.7672 2.43065 40.0223C2.11514 39.0067 2.00679 38.1589 2.00096 36.6365C1.99129 34.8239 2.04715 34.4906 2.50585 33.5408C2.78846 32.9547 3.48556 32.0179 4.05468 31.4569C4.65085 30.8669 5.65945 30.1573 6.44335 29.7723C7.1886 29.4067 8.32113 28.9729 8.95995 28.8065C9.59875 28.6401 10.6888 28.4158 11.3799 28.3055C12.071 28.1972 13.9024 28.1082 18.2519 28.1102V25.6512C18.2519 23.6222 18.3315 22.9373 18.7012 21.7401C18.9489 20.9411 19.6865 19.3037 20.3408 18.0985C21.2079 16.4988 21.6084 15.9361 21.8271 16.0057ZM57.4541 85.6043C56.976 85.6159 56.1476 85.7088 55.6152 85.8113C55.0829 85.9119 54.1241 86.241 53.4853 86.5428C52.8466 86.8427 51.8462 87.5216 51.2598 88.0477L50.1943 89.0076C48.2453 88.4389 47.657 88.3207 47.6299 88.3787C47.6039 88.4381 48.1702 89.2291 48.8877 90.1356C49.6051 91.0419 50.2148 91.7824 50.2432 91.7801C50.2703 91.7762 51.0098 91.6013 51.8887 91.3904C52.7675 91.1796 54.4016 90.9286 55.5185 90.8299C56.6644 90.7293 58.4371 90.7195 59.583 90.8084C60.7019 90.8955 62.4002 91.1494 63.3584 91.3719C64.3165 91.5963 65.1588 91.7119 65.2285 91.6307C65.2989 91.5486 65.8852 90.8295 66.5351 90.033C67.1836 89.234 67.7139 88.5157 67.7139 88.4363C67.7137 88.3571 67.6476 88.2918 67.5683 88.2938C67.4885 88.2939 66.9002 88.4598 66.2617 88.661L65.1006 89.0281C63.7514 87.6875 62.7482 87.0052 62.0029 86.6492C61.2576 86.2913 60.1251 85.904 59.4863 85.7899C58.8476 85.6738 57.9341 85.5908 57.4541 85.6043ZM23.5674 20.7742C23.4549 20.7751 23.1547 21.2313 22.8974 21.7899C22.642 22.3491 22.3269 23.4598 22.1973 24.2567C22.0212 25.3475 22.0171 26.0439 22.1758 27.0613C22.2938 27.806 22.5358 28.8505 22.7119 29.3826C22.89 29.9147 23.3156 30.9157 23.6601 31.6082C24.0028 32.3008 24.5399 33.2327 24.8496 33.6815C25.1608 34.1296 25.4559 34.4582 25.5107 34.4129C25.5649 34.3645 25.4958 33.8249 25.3564 33.2098C25.219 32.5946 25.0966 31.3506 25.0869 30.4471C25.0753 29.5437 25.1236 28.3461 25.1914 27.7869C25.2611 27.2278 25.3835 26.7772 25.4629 26.783C25.5433 26.7921 26.9756 28.4665 28.6474 30.5067L31.6865 34.2195C31.2084 35.2681 30.8156 36.2707 30.5078 37.1219C30.1981 37.9732 29.7695 39.5404 29.5547 40.6043C29.3418 41.6684 29.0939 43.4966 29.0068 44.6668C28.9197 45.8372 28.9217 47.8818 29.0127 49.2127C29.1017 50.5416 29.313 52.2827 29.4775 53.0819C29.6421 53.8789 29.962 55.1002 30.1865 55.7908C30.4092 56.4815 30.9513 57.7444 31.3887 58.5955C31.9345 59.6576 32.6099 60.5752 33.543 61.5154C34.3598 62.3395 35.3242 63.0897 35.9648 63.3992C36.5495 63.6836 37.684 64.0532 38.4814 64.2215C39.4375 64.4246 40.3302 64.4863 41.0947 64.4051C41.7335 64.3374 42.6045 64.2297 43.0303 64.1658L43.8047 64.0477C42.7458 65.22 42.1492 65.9961 41.7949 66.5281C41.4408 67.06 41.2245 67.5453 41.3154 67.6053C41.3429 67.6231 41.515 67.7508 41.8008 67.9598C41.4656 67.7296 41.2521 67.5909 41.2148 67.5906C41.12 67.5906 40.8544 68.0473 40.626 68.6063C40.3975 69.1654 40.1616 69.9262 40.1016 70.2996C39.999 70.9398 40.0727 71.0523 41.416 72.3367C42.198 73.0854 43.7542 74.3038 44.873 75.0447C45.99 75.7857 47.4039 76.6117 48.0137 76.8768C48.6208 77.1434 49.1636 77.4686 49.2207 77.6024C49.2923 77.7726 49.1935 77.8096 48.8877 77.7264C48.647 77.6604 47.7554 77.3995 46.9043 77.1444C46.0525 76.887 44.6584 76.3564 43.8066 75.9656C42.955 75.573 41.7355 74.9237 41.0967 74.5213C40.3343 74.0418 39.9101 73.8709 39.8633 74.0272C39.8226 74.1587 39.8483 74.7012 39.9199 75.2332C39.9896 75.7648 40.1091 76.2925 40.1846 76.4051C40.26 76.5173 40.8447 76.9235 41.4834 77.3065C42.1222 77.6895 43.1253 78.2142 43.7099 78.4735C44.2965 78.7308 45.4715 79.1675 46.3232 79.4422C47.175 79.7189 48.1781 80.0014 48.5498 80.0692C48.9233 80.1388 49.4014 80.2396 49.6142 80.2957C49.9373 80.3808 49.9546 80.4251 49.7109 80.5682C49.5522 80.663 48.942 80.741 48.3555 80.7391C47.7709 80.739 46.6816 80.6531 45.9365 80.5487C45.1912 80.4422 43.884 80.1349 43.0322 79.8641C42.1829 79.594 41.4644 79.3989 41.4316 79.4305C41.4026 79.4614 41.7571 80.0109 42.2158 80.6492C42.6765 81.2876 43.3983 82.0811 43.8183 82.4139C44.2384 82.7447 45.0165 83.2387 45.5488 83.5076C46.0812 83.7765 47.0399 84.1343 47.6787 84.3026C48.3176 84.4708 49.5815 84.6122 50.4853 84.616C51.5403 84.6199 52.5159 84.4997 53.2031 84.2791C53.7934 84.0915 54.6525 83.6774 55.1113 83.3582C55.5701 83.039 56.1062 82.5163 56.3037 82.1971C56.5011 81.878 56.7203 81.3562 56.79 81.0369C56.8616 80.7177 56.8232 80.1525 56.707 79.7791C56.5909 79.4057 56.1663 78.7872 55.7637 78.4022C55.363 78.0172 53.1621 76.3236 50.8721 74.6385C49.5903 73.6956 48.0631 72.5662 46.7099 71.5633C48.4625 72.8385 49.8139 73.783 49.9023 73.783C50.0084 73.7829 50.0509 73.6958 49.999 73.5897C49.9467 73.4833 49.8925 72.9388 49.8808 72.3797C49.8674 71.7685 50.0069 71.0181 50.2295 70.494C50.4326 70.0145 50.7032 69.5581 50.831 69.4783C50.9936 69.3777 51.1003 69.5826 51.1836 70.1551C51.2494 70.6078 51.3788 71.1305 51.4736 71.3162C51.6246 71.616 51.9814 71.6541 54.6445 71.6541H57.6455V39.3465C56.2209 39.3465 55.1095 39.474 54.2578 39.6287C53.4061 39.7835 52.3604 40.0118 51.9346 40.1375C51.5087 40.2613 50.7691 40.5281 50.2891 40.7274C49.8103 40.928 49.3991 41.048 49.3701 40.993C49.343 40.9388 49.6176 40.4802 49.9814 39.9754C50.3434 39.4705 51.236 38.4834 51.9658 37.785C52.6937 37.0866 53.8124 36.1637 54.4512 35.7342C55.0899 35.3047 55.8957 34.8097 56.2422 34.6336C56.5884 34.4596 56.8709 34.2293 56.8711 34.1229C56.8711 34.0029 56.4122 33.9722 55.6611 34.0399C54.9952 34.1018 53.7541 34.2737 52.9023 34.4227C52.0506 34.5717 50.6139 34.9471 49.708 35.2547C48.8022 35.5642 47.7356 35.9566 47.3369 36.1307C46.7974 36.3645 46.6136 36.3824 46.6172 36.2029C46.621 36.0695 47.2964 35.3066 48.1172 34.5076C48.9399 33.7106 50.2215 32.5999 50.9668 32.0408C51.7121 31.4817 53.3038 30.5261 54.5019 29.9149C55.6992 29.305 56.6772 28.7394 56.6797 28.658C56.6797 28.5787 56.1761 28.5609 55.5644 28.619C54.9527 28.6789 53.841 28.8104 53.0957 28.9149C52.3504 29.0174 51.0015 29.2842 50.0957 29.5086C49.1897 29.733 47.7106 30.1975 46.8047 30.5418C45.8988 30.8842 44.8767 31.3101 44.5303 31.4842C44.1843 31.658 43.9022 31.714 43.9014 31.6082C43.9014 31.5018 44.5807 30.7834 45.4131 30.0115C46.2435 29.2397 47.7454 28.046 48.7519 27.3592C49.7566 26.6724 51.4065 25.7031 52.4189 25.2059C53.4313 24.7107 54.8059 24.098 55.4736 23.8445C56.1429 23.5932 56.6859 23.3413 56.6846 23.2889C56.6792 23.2368 55.786 23.2526 54.6953 23.3279C53.6035 23.4015 52.0119 23.5961 51.1601 23.7606C50.3084 23.925 48.7848 24.2926 47.7724 24.575C46.7601 24.8594 45.1071 25.4226 44.0947 25.825L42.2558 26.5604C27.9291 22.0759 23.6777 20.7742 23.5674 20.7742ZM74.0762 67.5848C73.999 67.5957 70.8242 69.9111 67.0107 72.7371C63.1915 75.5674 59.781 78.1583 59.4307 78.493C59.0822 78.8277 58.71 79.4294 58.6074 79.8279C58.4895 80.2939 58.4895 80.8122 58.6094 81.2781C58.7139 81.6767 59.1266 82.3407 59.5293 82.7528C59.9319 83.1629 60.5224 83.6332 60.8418 83.7957C61.1613 83.9563 61.8159 84.2054 62.2939 84.3504C62.7742 84.4935 63.9059 84.6121 64.8096 84.6141C65.8877 84.616 66.9568 84.4787 67.9072 84.2156C68.7067 83.9932 69.8392 83.5248 70.4238 83.1727C71.0104 82.8206 71.9128 82.0657 72.4316 81.4949C72.9481 80.9227 73.4912 80.217 73.6406 79.9246C73.7877 79.6325 73.8421 79.3924 73.7627 79.3944C73.682 79.3948 73.0071 79.6031 72.2627 79.8582C71.5174 80.1117 70.2319 80.416 69.4072 80.534C68.5826 80.6501 67.45 80.7449 66.8906 80.743C66.3313 80.743 65.7446 80.659 65.584 80.5623C65.3579 80.4213 65.4203 80.3593 65.875 80.2684C66.1948 80.2063 67.2839 79.9297 68.2939 79.657C69.3063 79.3823 71.0915 78.6936 72.2627 78.1248C73.4338 77.556 74.5881 76.9137 74.8281 76.6951C75.1279 76.4204 75.3016 75.9811 75.3848 75.2811C75.4506 74.722 75.4723 74.1607 75.4336 74.033C75.3868 73.8864 74.9759 74.0492 74.2949 74.4862C73.7102 74.8634 72.5776 75.4761 71.7783 75.8494C70.981 76.2227 69.8493 76.699 69.2627 76.9061C68.6782 77.113 67.6967 77.4095 67.0849 77.5643C66.4424 77.7268 66.0124 77.7633 66.0683 77.6512C66.1226 77.5448 66.9707 77.0458 67.956 76.5408C68.9414 76.0359 70.4531 75.0991 71.3144 74.4608C72.1759 73.8204 73.4575 72.7759 74.1601 72.1375L75.4375 70.9764C74.8916 69.1773 74.6129 68.413 74.4658 68.117C74.3187 67.8211 74.1439 67.5828 74.0762 67.5848ZM26.4873 41.4735C26.3847 41.4735 26.0826 41.843 25.8174 42.2957C25.5502 42.7484 24.8995 44.1625 24.3691 45.4393C23.8387 46.7161 23.1831 48.5896 22.9121 49.5994C22.6411 50.6092 22.2846 52.1755 22.1182 53.0809C21.9536 53.9863 21.77 55.8153 21.7099 57.1444L21.6016 59.5623C26.9597 64.8244 29.343 67.1112 30.3535 68.0399C31.3658 68.9664 32.1262 69.7679 32.0469 69.8201C31.9659 69.8695 30.7895 69.2888 29.4336 68.5272C28.0766 67.7649 25.854 66.4171 24.4971 65.5291C22.0698 63.9429 22.0293 63.9249 22.0332 64.4471C22.0332 64.7392 22.2109 65.8054 22.4258 66.8172C22.6406 67.829 23.1265 69.6126 23.5078 70.783L24.1973 72.911C25.8141 70.4417 26.3515 69.7205 26.4326 69.7156C26.512 69.7137 26.9829 70.2572 27.4785 70.9246C27.9742 71.5922 29.0988 72.9637 29.9795 73.9754C30.8583 74.9872 32.2831 76.4576 33.1426 77.243C34.004 78.0284 35.493 79.228 36.4512 79.909C37.4082 80.5872 38.257 81.1402 38.3379 81.1395C38.4172 81.1356 38.2217 80.437 37.9023 79.5858C37.583 78.7346 37.1821 77.2336 37.0117 76.2488C36.8433 75.2641 36.6912 73.2553 36.6738 71.785L36.6445 69.1131C34.5638 68.0086 33.3093 67.0786 32.5137 66.3338C31.7181 65.589 30.7149 64.5011 30.2851 63.9149C29.8554 63.3286 29.1701 62.1971 28.7617 61.4002C28.3533 60.6012 27.7687 59.1655 27.4609 58.2078C27.1551 57.2504 26.7681 55.8135 26.6055 55.0164C26.4409 54.2174 26.2148 52.4754 26.0986 51.1463C25.9496 49.4246 25.9476 47.892 26.0947 45.826C26.207 44.2301 26.3847 42.5975 26.4873 42.199C26.6073 41.7328 26.6073 41.4735 26.4873 41.4735ZM89.0381 41.5916C88.8485 41.4563 88.8172 41.6071 88.8984 42.2684C88.9565 42.7346 89.1016 43.9885 89.2197 45.0526C89.3494 46.2211 89.3831 48.0594 89.3037 49.6961C89.2321 51.1857 89.0445 53.1433 88.8896 54.0487C88.7348 54.9541 88.4247 56.3454 88.2002 57.1444C87.9776 57.9413 87.5441 59.2043 87.2383 59.949C86.9305 60.6939 86.34 61.8707 85.9258 62.5613C85.5115 63.252 84.7137 64.3409 84.1562 64.9793C83.5968 65.6177 82.6075 66.5634 81.959 67.0838C81.3105 67.6023 80.2787 68.2781 79.667 68.5838L78.5537 69.1385C78.7376 71.0131 78.6913 72.6444 78.5693 73.9754C78.4474 75.3044 78.1808 77.0456 77.9756 77.8445C77.7723 78.6415 77.4643 79.6434 77.2939 80.0692C77.1236 80.4946 77.0092 80.9165 77.042 81.0037C77.0749 81.0927 77.8421 80.6382 78.748 79.992C79.652 79.3458 80.989 78.3142 81.7187 77.701C82.4485 77.0877 83.8871 75.6293 84.9131 74.4588C85.9409 73.2884 87.2166 71.741 87.749 71.0213C88.2806 70.3027 88.76 69.7134 88.8135 69.7098C88.8657 69.7098 89.1758 70.036 89.501 70.4383C89.8261 70.8407 90.3041 71.5027 90.5654 71.907C90.8267 72.3133 91.0923 72.5742 91.1543 72.4871C91.2187 72.4002 91.495 71.6756 91.7695 70.8797C92.0444 70.0808 92.4452 68.7329 92.6582 67.8817C92.8711 67.0304 93.192 65.3309 93.3701 64.1082C93.6275 62.3615 93.6741 61.0709 93.5928 58.1112C93.5095 55.1166 93.3861 53.859 92.999 52.0174C92.7299 50.7405 92.1957 48.7821 91.8086 47.6639C91.4233 46.5456 90.6976 44.762 90.1963 43.6981C89.6949 42.6341 89.1736 41.6864 89.0381 41.5916ZM53.0058 73.199C52.7523 73.201 52.7523 73.2379 53.0058 73.5145C53.1626 73.6886 53.8144 74.2212 54.4531 74.6971C55.0919 75.1749 56.0289 75.7747 56.5342 76.0281C57.0394 76.2835 57.4984 76.49 57.5508 76.4901C57.605 76.4901 57.6494 75.9891 57.6514 75.3778L57.6572 74.2654C54.2755 73.4379 53.1637 73.1993 53.0058 73.199ZM76.6201 50.3729C76.5387 50.3732 76.1655 50.8741 75.7939 51.4852C75.4223 52.0965 74.6047 53.0639 73.9795 53.6346C73.3542 54.2053 72.2335 54.9661 71.4883 55.3221C70.712 55.6954 69.5139 56.0724 68.6816 56.2078L67.2295 56.4422C67.3204 59.3106 67.3862 60.2509 67.4326 60.3846C67.4849 60.5316 67.8433 60.2759 68.3428 59.7381C68.7959 59.2505 70.2473 58.0954 71.5713 57.1746C72.8934 56.2538 74.3646 55.1066 74.8408 54.6287C75.3151 54.1509 75.8996 53.3229 76.1396 52.7908C76.3816 52.2589 76.6225 51.497 76.6748 51.0985C76.7271 50.6999 76.7033 50.3729 76.6201 50.3729ZM14.9609 33.3768C13.8965 33.3768 12.5033 33.4904 11.8642 33.6278C11.2254 33.7651 10.3536 34.0536 9.92772 34.2684C9.50187 34.4832 8.90345 34.909 8.5996 35.2127C8.29577 35.5165 7.93422 35.983 7.79491 36.2498C7.65558 36.5151 7.47877 37.1683 7.40136 37.7C7.30652 38.3674 7.36529 39.0879 7.58983 40.0223C7.76993 40.7671 8.23804 42.0588 8.6328 42.8944L9.34764 44.4139C10.9985 44.5416 11.8251 44.744 12.251 44.9471C12.6768 45.1483 13.3522 45.669 13.751 46.1024C14.1671 46.5531 14.6149 47.3228 14.7988 47.9051C15.0582 48.7253 15.0806 49.1262 14.9219 49.9852C14.8154 50.5694 14.6683 51.1791 14.5986 51.3397C14.5144 51.5338 15.0197 52.2553 16.1201 53.5154C17.2421 54.7991 17.7978 55.3084 17.8642 55.1121C17.9184 54.9516 17.9638 54.582 17.9639 54.2899C17.9658 53.9978 18.188 52.6686 18.457 51.3397C18.728 50.0087 19.3106 47.8318 19.7519 46.5028C20.1933 45.1718 21.1906 42.8002 21.9687 41.2313C23.2983 38.5467 23.3645 38.3521 23.0898 37.9422C22.9292 37.7024 22.3406 36.8415 21.7832 36.0291C21.2257 35.2147 20.6817 34.3976 20.5752 34.2117C20.4337 33.9642 19.9121 33.8056 18.6387 33.6219C17.6804 33.4846 16.0255 33.3748 14.9609 33.3768ZM75.4199 42.7313C75.0269 43.3697 74.3723 44.2324 73.9678 44.6483C73.5612 45.0642 72.7949 45.6818 72.2627 46.0184C71.7302 46.357 70.2491 47.1831 68.9717 47.8543C67.6942 48.5275 66.2792 49.3684 65.8262 49.7244C65.3732 50.0804 64.8677 50.6999 64.7031 51.0985C64.5387 51.4969 64.431 52.166 64.4619 52.5838L64.5195 53.3445C65.5513 51.7505 65.952 51.5104 70.4756 49.2664C73.1577 47.9349 75.419 46.7478 75.501 46.6258C75.5784 46.5059 75.7779 45.7974 75.9463 45.0526C76.1147 44.3078 76.2252 43.2208 76.1924 42.6346L76.1348 41.5701L75.4199 42.7313ZM73.9267 49.6092C73.8572 49.617 72.413 50.3286 70.7119 51.1903L67.6142 52.7606C68.9848 53.1823 69.7093 53.2522 70.1797 53.1903C70.6325 53.1302 71.3288 52.9158 71.7275 52.7147C72.1263 52.5116 72.6377 52.142 72.8642 51.8924C73.0888 51.6429 73.4067 51.2209 73.5693 50.9539C73.7319 50.6889 73.9057 50.2748 73.9541 50.035C74.0044 49.7952 73.9906 49.6034 73.9267 49.6092Z" fill="white"/>
<path d="M38.8643 42.0547C38.9591 42.0547 39.0796 42.6851 39.1358 43.457C39.19 44.2289 39.3675 45.2948 39.8242 46.7939L44.6934 49.2119C49.0061 51.3535 49.6308 51.7237 50.169 52.4473C50.5019 52.8961 50.8357 53.2014 50.9092 53.124C50.9825 53.046 51.0015 52.6805 50.9512 52.3076C50.8661 51.6886 50.998 51.462 52.5098 49.6475C53.4191 48.557 54.1644 47.7737 54.167 47.9062C54.169 48.0397 52.7629 52.7176 51.044 58.3047C49.325 63.8899 47.7995 68.5933 47.6524 68.752C47.426 69.0013 47.4012 68.9473 47.4805 68.3652C47.5308 67.9919 47.6622 65.6431 47.7725 63.1416C47.8828 60.6401 48.0201 58.117 48.1866 56.4668L46.5762 56.1611C45.6799 55.9889 44.3712 55.5619 43.6221 55.1943C42.7976 54.7881 41.8206 54.0838 41.0948 53.3721C40.2508 52.5421 39.6814 51.7427 39.1006 50.5664C38.6535 49.6612 38.2003 48.4447 38.0918 47.8584C37.9854 47.2724 37.9005 46.3592 37.9024 45.8271C37.9062 45.2951 38.0435 44.2922 38.208 43.6016C38.3744 42.9114 38.5502 42.279 38.6026 42.1992C38.6529 42.1199 38.7714 42.0547 38.8643 42.0547ZM41.2881 49.5986C41.2359 49.5987 41.1895 49.6204 41.1875 49.6475C41.1839 49.675 41.3081 50 41.459 50.373C41.612 50.7464 41.9408 51.3019 42.1905 51.6113C42.4403 51.9189 42.9922 52.3735 43.418 52.6191C43.8439 52.8667 44.5836 53.1198 45.0635 53.1836C45.5842 53.2512 46.2851 53.1898 46.8057 53.0293L47.6768 52.7598C42.8006 50.3105 41.3404 49.5986 41.2881 49.5986Z" fill="white"/>
</svg>
