<svg width="109" height="114" viewBox="0 0 109 114" fill="none" xmlns="http://www.w3.org/2000/svg">
<path d="M54.2441 7.00104C54.3429 7.02514 55.6179 7.76782 57.0752 8.6524C58.5326 9.53584 61.2153 11.1643 63.0361 12.2706C64.8584 13.3769 67.8794 15.211 69.751 16.3487C71.6226 17.4852 74.6841 19.3461 76.5557 20.4825L76.8633 20.669C78.6177 21.7343 80.2176 22.7055 80.5 22.8741C80.7987 23.0537 82.4247 24.0426 84.1133 25.0694C85.8018 26.0974 87.877 27.3661 90.2627 28.8399L90.2588 56.5889C90.2552 82.8952 90.2446 84.3398 90.0449 84.4073C89.9293 84.4459 88.4244 85.3339 86.7021 86.3799C84.9799 87.4272 81.6199 89.4651 79.2354 90.9112C76.8507 92.3562 73.2734 94.5246 71.2861 95.7286C69.2989 96.9326 65.8583 99.0202 63.6387 100.366C61.4191 101.712 58.4382 103.517 57.0146 104.378C55.5911 105.24 54.3429 105.969 54.2441 105.999C54.1434 106.028 53.0865 105.458 51.8955 104.732C50.703 104.006 47.2344 101.905 44.1875 100.064C41.1405 98.2233 37.3466 95.9285 35.7568 94.9669C34.1671 94.004 32.0799 92.7458 31.1201 92.171C30.1601 91.596 27.1521 89.7789 24.4365 88.1329C21.7208 86.4867 19.1611 84.9451 18 84.2774L18.0527 28.7588L21.5459 26.6426C23.4668 25.4785 26.4736 23.6565 28.2295 22.5948C29.9854 21.5331 32.6678 19.9063 34.1914 18.9796C35.7147 18.0541 37.3946 17.0416 37.9248 16.7305C38.4547 16.4208 40.0269 15.4708 41.418 14.6212C42.8089 13.7704 44.1099 12.9835 44.3086 12.8702C44.5084 12.7562 46.0793 11.8064 47.8008 10.7608C49.523 9.71473 51.6369 8.43032 52.498 7.90729C53.3582 7.38482 54.144 6.97669 54.2441 7.00104ZM54.1533 9.38287C54.1039 9.38528 52.3826 10.4082 50.3291 11.6544C48.2756 12.9005 44.401 15.2496 41.7178 16.8741C39.0344 18.4974 34.7539 21.0901 32.2031 22.6338C29.6523 24.1776 26.1579 26.2922 24.4355 27.3311C22.7137 28.3709 21.0205 29.3925 20.6719 29.6026L20.0391 29.9844L20.0479 83.0713C24.7545 85.8962 28.6141 88.224 31.6611 90.0655C34.7082 91.907 37.5812 93.6426 38.0449 93.921C38.5097 94.2 41.4901 95.9984 44.6689 97.919C47.8482 99.8386 51.2753 101.908 52.2861 102.516C53.2966 103.123 54.1511 103.62 54.1836 103.62C54.2203 103.618 55.2629 103.002 56.502 102.252C57.7437 101.5 60.4398 99.8643 62.4932 98.6182C64.5466 97.3721 66.4708 96.2058 66.7695 96.0274C67.0397 95.865 68.7395 94.8344 70.6982 93.6475L71.3457 93.2549C73.5653 91.91 76.1391 90.3482 77.0664 89.7842C77.9937 89.2203 79.1319 88.5314 79.5957 88.253C80.0594 87.9746 81.9568 86.8256 83.8115 85.7012C85.6658 84.5771 87.4131 83.5124 87.6953 83.335L88.207 83.0118L88.2129 30.045C83.7893 27.3523 79.3121 24.6295 75.2598 22.1651L73.4531 21.0665C68.9488 18.3284 63.6096 15.0851 61.5898 13.8594C59.5702 12.635 57.2385 11.2253 56.4111 10.7276C55.5827 10.2288 54.7573 9.72076 54.5752 9.59772C54.3934 9.47604 54.2028 9.37933 54.1533 9.38287Z" fill="white"/>
<path d="M50.9023 18.8965C50.9517 18.8977 50.9932 35.8443 50.9932 94.2197L50.6621 94.043C50.4802 93.9454 44.7484 90.5112 25.5205 78.9609L25.4492 34.3838L30.3623 31.3818C33.0647 29.7309 36.4942 27.6388 37.9854 26.7324C39.4752 25.8261 41.2112 24.7687 41.8398 24.3818C42.4685 23.9962 43.3635 23.4512 43.8271 23.1729C44.2913 22.8942 45.9432 21.893 47.5 20.9473C49.0569 20.0027 50.4382 19.1545 50.5713 19.0625C50.7035 18.9711 50.8527 18.8968 50.9023 18.8965ZM57.1953 18.8975C57.2278 18.8975 58.0275 19.3651 58.9717 19.9375C59.9159 20.51 61.4196 21.425 62.3145 21.9697C63.2093 22.5157 64.5642 23.341 65.3252 23.8037C66.0864 24.2677 67.4692 25.1072 68.3965 25.6699C69.3239 26.2327 71.8168 27.7503 73.9365 29.041C76.0562 30.3329 78.8904 32.0627 82.6758 34.3838L82.668 51.7979H75.9238L75.8633 38.1289L74.6592 37.3867C73.9968 36.9782 72.6959 36.1831 71.7686 35.6191C70.8412 35.0563 68.7407 33.7739 67.1016 32.7725C65.4624 31.7698 64.0662 30.9492 64 30.9492C63.9207 30.9715 63.8799 39.5879 63.8799 56.5586C63.8799 70.6445 63.9079 82.168 63.9404 82.168C63.9916 82.1567 66.717 80.5346 75.9307 74.9971L75.9238 64.9346L69.9619 64.874L69.9014 58.3057H82.668L82.6074 78.9629L70.2031 86.4131C63.382 90.5096 57.6512 93.9411 57.1357 94.2197V56.5586C57.1357 35.8792 57.1629 18.9524 57.1953 18.8975ZM44.0977 30.96C44.0146 30.966 42.3211 31.9689 40.334 33.1885C38.3469 34.4068 36.0704 35.7961 35.2754 36.2734C34.4805 36.7519 33.4634 37.3765 33.0166 37.6621L32.2041 38.1797L32.1953 74.998C41.4238 80.5438 44.143 82.1614 44.1875 82.168C44.2212 82.168 44.248 70.6433 44.248 56.5586C44.248 36.1626 44.2178 30.9601 44.0977 30.96Z" fill="white"/>
</svg>
