<svg width="109" height="114" viewBox="0 0 109 114" fill="none" xmlns="http://www.w3.org/2000/svg">
<path d="M13.5061 30.6128C10.9618 27.1109 8.87543 23.9643 8.82454 23.6598C8.82454 23.1523 17.7297 23 51.7218 23C80.7271 23 95.2298 23.203 96.6037 23.5583C97.7232 23.8628 99.5043 24.7256 100.573 25.4361C101.743 26.2481 103.015 27.8214 103.779 29.344C104.593 31.0695 105 32.7444 105 37.2105L61.95 37.3628C38.2878 37.4135 18.7474 37.3628 18.5439 37.2105C18.3403 37.0583 16.0504 34.1147 13.5061 30.6128Z" fill="white"/>
<path d="M9.48607 51.3195C6.89086 47.7162 4.8554 44.5695 5.00806 44.3158C5.2116 43.9605 16.5084 43.8083 37.321 43.8083C67.4967 43.8083 69.3795 43.859 69.3795 44.7218C69.3795 45.1786 68.7179 48.1222 67.8529 51.1673C67.0387 54.2124 66.3263 56.9023 66.3263 57.156C66.3263 57.359 68.8197 57.4605 71.8729 57.4098C76.6053 57.2575 77.674 57.1053 78.8952 56.1917C80.0656 55.3289 80.5745 54.1617 83.3732 43.8083H92.9399C98.1812 43.8083 102.557 43.9605 102.608 44.1635C102.71 44.4173 101.845 48.1222 100.675 52.4361C99.5043 56.75 98.0794 61.2162 97.5197 62.3327C96.9599 63.4492 95.2807 65.4286 93.8559 66.7481C92.431 68.1184 90.192 69.6917 88.869 70.3007C86.5791 71.4173 85.6631 71.468 62.5098 71.7726L60.0672 80.7556C58.7442 85.6786 57.3702 89.891 57.014 90.094C56.6578 90.297 52.4343 90.5 47.6509 90.5C41.0866 90.5 38.7967 90.3477 38.5422 89.891C38.3896 89.5357 40.018 82.5827 42.1552 74.5132C44.2924 66.3929 46.1243 59.3891 46.277 58.9323C46.4805 58.0695 45.4119 58.0188 14.2694 57.765L9.48607 51.3195Z" fill="white"/>
<path d="M25.9719 73.3967C22.4099 68.5752 19.6111 64.3628 19.7638 64.1091C19.9673 63.8046 23.6311 63.6016 29.1778 63.6016C36.1492 63.6016 38.3373 63.7538 38.3373 64.2106C38.3373 64.5658 37.3196 68.626 36.0474 73.2444C34.7753 77.8628 33.554 81.8215 33.2487 82.126C32.9943 82.4305 32.6889 82.532 32.5872 82.3798C32.4854 82.2275 29.4831 78.1673 25.9719 73.3967Z" fill="white"/>
</svg>
