<svg width="109" height="114" viewBox="0 0 109 114" fill="none" xmlns="http://www.w3.org/2000/svg">
<g clip-path="url(#clip0_2005_686)">
<path d="M70.5811 57.1709L68.2158 58.2646L68.9727 58.5918C69.3888 58.7715 69.9209 58.9928 70.5811 59.252V71.9297L70.0615 71.8428C69.7758 71.7955 68.8598 71.6643 68.0273 71.5508C67.1948 71.4373 66.2787 71.3072 65.4727 71.1729L65.5674 61.8066L66.2295 61.8691C66.6495 61.9108 66.8214 61.8675 66.7021 61.7559C66.5979 61.6574 65.5763 61.1877 64.4316 60.7109C63.287 60.2361 62.1155 59.7974 61.3096 59.6309V70.6055L60.79 70.5176C60.5044 70.4703 59.5883 70.3401 58.7559 70.2266C57.9234 70.113 57.0072 69.983 56.2012 69.8486V59.252C56.2012 53.4346 56.2216 48.669 56.248 48.6484C56.2745 48.6447 59.2321 48.2287 62.8232 47.7217C66.4141 47.2165 69.627 46.794 70.5811 46.7637V57.1709ZM65.4717 50.9268C64.0793 50.976 63.1634 51.04 62.5391 51.1006L61.4043 51.2109L61.3096 55.8467C62.9951 56.3991 63.9317 56.7395 64.4785 56.959L65.4717 57.3604V50.9268Z" fill="white"/>
<path d="M39.6237 46.8203C39.8431 46.8733 43.0638 47.3258 53.5367 48.7393L53.5543 69.7549L51.1412 70.0898C49.8154 70.2749 48.6669 70.4241 48.5856 70.4209C48.508 70.419 48.4639 68.4384 48.5377 61.6191H49.0406C49.3166 61.6191 49.6083 61.555 49.6881 61.4775C49.7657 61.4 49.7107 61.335 49.5631 61.3369C49.4145 61.3384 48.2304 60.9543 46.9293 60.4834C45.6299 60.0124 44.5006 59.6292 44.4225 59.6309C44.3449 59.6328 44.2809 62.2078 44.2828 71.0801L41.8697 71.415C40.5441 71.6001 39.3956 71.7493 39.3141 71.7461C39.2365 71.7442 39.1827 66.1131 39.1979 59.2334L39.2242 46.7246L39.6237 46.8203ZM44.3463 53.2979L44.3746 55.71C47.0141 56.849 47.9302 57.2223 48.1119 57.2715C48.4166 57.3547 48.443 57.1256 48.443 54.335V51.3076C46.7783 51.1601 45.8493 51.0653 45.3063 51.001L44.318 50.8838L44.3463 53.2979Z" fill="white"/>
<path d="M82.4982 45.1564L84.5341 44.8499C85.6543 44.6815 86.8047 44.5339 87.6107 44.4941L87.6183 56.8876L86.4754 57.4553C85.8472 57.7675 85.3326 58.0665 85.3326 58.1175C85.3326 58.1705 85.8472 58.4676 87.6183 59.3474L87.6145 66.8687C87.6126 71.0049 87.5672 74.3899 87.5161 74.3899C87.465 74.3899 86.5909 74.2613 85.5767 74.1061C84.5625 73.9491 83.4556 73.7788 82.5019 73.6331L82.5966 62.3748L83.2115 62.4222C83.5502 62.4486 83.8264 62.4278 83.8264 62.3748C83.8264 62.3238 82.6344 61.6842 81.1775 60.9557C79.7205 60.2273 78.4849 59.6312 78.4338 59.6312C78.3828 59.6312 78.3392 62.6549 78.3392 73.0654L77.8189 72.9784C77.5332 72.9311 76.6174 72.8005 75.7849 72.687C74.9523 72.5735 74.0365 72.4429 73.2305 72.3086L73.3251 46.3087L75.6902 45.9776C76.9901 45.794 78.1198 45.6427 78.1973 45.637C78.2749 45.6332 78.3374 47.7789 78.3317 55.1847L80.1803 55.9983C81.1964 56.4468 82.1349 56.8517 82.2654 56.8971C82.4509 56.9633 82.5019 55.7183 82.4982 45.1564Z" fill="white"/>
<path d="M22.2847 74.2043C22.2071 74.2024 22.1446 67.5155 22.1465 59.3434L22.1522 44.4863L22.5723 44.579C22.805 44.6301 23.6754 44.7607 24.5079 44.8704C25.3405 44.9802 26.2979 45.1107 27.2515 45.2508V55.0899L31.4029 57.0766L31.4142 45.8184L31.84 45.8241C32.0746 45.8279 33.1171 45.9546 34.1578 46.1041C35.1985 46.2555 36.1559 46.3804 36.2865 46.3823C36.4738 46.386 36.523 49.0975 36.5249 72.2137L34.1124 72.5486C32.7841 72.7341 31.6337 72.8835 31.5561 72.8798C31.4786 72.8779 31.435 70.4711 31.5088 62.1854H32.1238C32.4625 62.1854 32.7387 62.1211 32.7387 62.0435C32.7387 61.9659 32.6536 61.9016 32.5495 61.9016C32.4454 61.9016 31.3177 61.4266 30.0424 60.8477C28.7671 60.2668 27.6186 59.7559 27.488 59.7124C27.3007 59.648 27.2515 61.105 27.2534 73.5382L24.8409 73.8731C23.5127 74.0586 22.3622 74.208 22.2847 74.2043Z" fill="white"/>
<path d="M47.8327 33.804C47.5205 33.1796 47.125 32.5173 46.9547 32.3319C46.6614 32.0121 46.6841 31.9951 47.354 32.0008C47.7437 32.0046 48.6804 32.1446 49.4353 32.313C50.1903 32.4814 51.3615 32.8712 52.037 33.1777C52.7144 33.4842 53.7778 34.103 54.4022 34.5514C55.0266 34.9998 55.967 35.8248 56.4911 36.383C57.0171 36.9412 57.8402 37.9516 58.3227 38.6289C58.8033 39.3063 59.5412 40.54 59.9613 41.3725C60.3813 42.2051 60.9414 43.5258 61.2044 44.3054C61.5734 45.3933 61.6302 45.7566 61.4504 45.8626C61.3198 45.9402 61.0436 46.0007 60.8355 45.9988C60.5346 45.9969 60.1391 45.346 58.9074 42.8333C57.8402 40.6535 56.9868 39.1985 56.1581 38.1559C55.4977 37.3234 54.6614 36.4341 54.3019 36.1805C53.687 35.7472 53.7002 35.7756 54.5062 36.6536C54.9793 37.1682 55.7134 38.0991 56.1354 38.7236C56.5592 39.348 57.2574 40.5608 57.6888 41.4199C58.1183 42.2789 58.7257 43.6185 59.0379 44.4C59.3501 45.1795 59.6075 45.8834 59.6075 45.961C59.6093 46.0386 58.5668 46.2543 57.2896 46.4397C55.0096 46.7708 54.9168 46.7708 51.8478 46.3754C50.1316 46.154 48.6198 45.9402 48.4892 45.8967C48.3114 45.838 48.3776 45.3839 48.7504 44.0688C49.1534 42.6535 49.2537 41.8834 49.2707 40.048C49.2896 38.1483 49.2196 37.5466 48.8469 36.3584C48.6028 35.5788 48.1449 34.4284 47.8327 33.804Z" fill="white"/>
<path d="M108.662 35.6195C108.895 35.6081 108.965 35.8661 108.987 41.9056L108.997 50.0775C107.711 50.192 106.687 50.2778 105.865 50.349C105.01 50.4218 103.878 50.5206 102.367 50.6449L102.371 43.3607C102.284 43.3638 102.199 43.3686 102.116 43.3724C102.093 43.3655 102.068 43.3625 102.04 43.3626C101.977 43.3626 101.805 43.3783 101.56 43.4046C101.024 43.4428 100.612 43.4926 100.29 43.5472C100.112 43.5766 99.8631 43.6109 99.585 43.6468C99.4568 43.6639 99.3293 43.6784 99.2041 43.6947C98.8501 43.7372 98.4794 43.7789 98.1611 43.8089L96.8838 43.9281L96.8916 52.5374C99.2836 53.7628 101.153 54.7418 102.622 55.5286C104.236 56.4116 106.308 57.5839 109.003 59.1595L108.997 70.7484C108.993 81.6924 108.974 82.3325 108.662 82.2474C108.478 82.1959 106.712 81.8595 104.736 81.4984C102.759 81.1389 98.8857 80.4538 96.127 79.9808C93.3704 79.5078 90.9223 79.0758 90.2617 78.932V63.2279L93.3359 63.3372C95.0275 63.3978 96.5169 63.4832 96.6475 63.5267C96.8272 63.5874 96.8953 64.8404 96.9785 73.9183L99.249 74.2357C100.498 74.4116 101.711 74.5615 102.371 74.5804L102.367 63.5111L103.313 63.6058C103.832 63.6586 104.257 63.6798 104.262 63.6536C104.264 63.6272 103.646 63.2336 102.892 62.7777C102.137 62.3198 100.541 61.3957 99.3438 60.724C98.146 60.0503 95.6143 58.6785 90.2617 55.848V47.4281C90.2617 39.5665 90.2844 39.0028 90.5928 38.929C90.7751 38.8854 92.6271 38.5388 94.708 38.1605C96.7894 37.782 100.706 37.0573 103.412 36.554C106.116 36.0492 108.477 35.6277 108.662 35.6195Z" fill="white"/>
<path d="M0.145508 35.6035C0.223085 35.6035 4.24586 36.3263 9.08594 37.21C13.9241 38.0955 18.076 38.8612 18.7363 39.0088V45.2529C18.7363 51.1001 18.7151 51.4912 18.4053 51.418C18.2236 51.3726 17.0515 51.285 15.8027 51.2207C14.554 51.1564 13.2125 51.0659 12.1133 50.9297L12.1172 44.0234L9.6084 43.6904C8.22903 43.5069 6.99286 43.3575 6.8623 43.3594C6.68105 43.3631 6.62598 44.3841 6.62598 52.2539L8.66016 53.4629C9.77832 54.127 11.9712 55.3907 13.5322 56.2705C15.0932 57.1522 16.9062 58.163 18.751 59.1602L18.7363 78.9326L18.3105 79.0234C18.0759 79.0726 14.9458 79.6276 11.3564 80.2539C7.76531 80.8802 3.74469 81.5838 0.00976562 82.2441L0.00195312 64.0801L2.13086 63.9375C3.30387 63.8599 4.7928 63.7978 6.62598 63.7959V74.5811L6.62695 74.5801V74.5811L6.62891 74.5801L7.05176 74.5674C7.14896 74.565 7.41397 74.5357 7.94141 74.4697C8.48946 74.4077 9.11469 74.3267 9.74902 74.2373L12.0195 73.9189L12.1143 63.418L14.1016 63.3232C11.3164 61.8871 9.27261 60.7857 7.7627 59.9531C7.72461 59.9321 7.68656 59.9094 7.64746 59.8877C6.22862 59.0791 3.87987 57.7013 0 55.376L0.00195312 45.4893C0.0038448 40.0569 0.0680368 35.6125 0.145508 35.6035Z" fill="white"/>
</g>
<defs>
<clipPath id="clip0_2005_686">
<rect width="109" height="114" fill="white"/>
</clipPath>
</defs>
</svg>
