<svg width="109" height="114" viewBox="0 0 109 114" fill="none" xmlns="http://www.w3.org/2000/svg">
<path fill-rule="evenodd" clip-rule="evenodd" d="M53.2081 7C56.9617 7 61.8336 7.15972 63.9503 7.35938C66.1067 7.59897 69.5013 8.03806 71.4581 8.39746C73.4149 8.71693 76.8496 9.47608 79.046 10.0352C81.2423 10.5543 84.3971 11.433 86.0343 11.9521C87.6715 12.4713 89.5085 13.2697 90.1075 13.709C90.7464 14.1882 91.4648 15.0271 91.7843 15.666C92.1437 16.3451 92.543 19.3799 92.8624 23.7324C93.2617 29.2832 93.2618 32.478 92.9024 39.3066C92.6229 44.0188 92.0645 50.2088 91.6651 53.084C91.2259 55.9592 90.4272 60.4318 89.8282 63.0674C89.2691 65.703 88.071 70.0158 87.1925 72.6514C86.3139 75.287 84.5965 79.5203 83.3985 82.0361C82.2005 84.5519 80.1638 88.1456 78.9259 90.0225C77.6879 91.8994 75.0125 95.0943 73.0558 97.1709C70.9793 99.3273 67.984 101.882 65.9474 103.24C63.6312 104.798 61.5146 105.876 59.5978 106.436C57.2418 107.154 55.9636 107.274 52.8888 107.114C49.5346 106.994 48.7361 106.794 46.1007 105.517C44.4634 104.718 41.3882 102.721 39.3116 101.084C37.2351 99.4467 34.4791 96.8915 33.2013 95.374C31.9234 93.8565 29.8474 91.1005 28.6095 89.2236C27.3716 87.3468 25.4943 83.9528 24.4161 81.6367C23.298 79.3205 21.6607 75.0873 20.7023 72.252C19.7838 69.4166 18.5456 64.9042 18.0265 62.2686C17.4674 59.633 16.7492 55.52 16.3897 53.084C16.0703 50.648 15.5512 46.0951 15.3116 42.9004C15.0321 39.4262 14.9117 33.5563 15.0714 28.3252C15.1912 23.4936 15.4714 18.6617 15.711 17.543C15.9906 16.1053 16.5097 15.1861 17.548 14.2676C18.5862 13.3094 20.1439 12.5909 23.4181 11.5527C25.894 10.7541 30.0872 9.67527 32.7228 9.11621C35.3584 8.59708 39.4715 7.87816 41.9073 7.59863C44.3433 7.27918 49.4145 7.03995 53.2081 7ZM56.2833 8.79688C52.3299 8.71701 48.2963 8.71701 47.298 8.79688C46.2994 8.87678 43.7843 9.15692 41.7081 9.39648C39.6317 9.63608 35.9576 10.2748 33.5216 10.7939C31.0859 11.313 28.4102 11.9117 27.5314 12.1514C26.6529 12.391 24.4964 13.0697 22.7394 13.5889C20.7427 14.2278 19.1449 15.0271 18.506 15.666C17.7872 16.4647 17.4283 17.3432 17.2286 18.9404C17.1088 20.1384 16.8688 23.4928 16.7091 26.3281C16.5893 29.2033 16.6687 35.0337 16.9083 39.3066C17.1479 43.5796 17.7072 49.5302 18.1065 52.4854C18.5458 55.4405 19.3444 59.953 19.9034 62.4688C20.4625 64.9846 21.4608 68.6986 22.0997 70.6553C22.7386 72.612 23.8173 75.6863 24.4962 77.4434C25.215 79.2005 26.5327 81.9965 27.4112 83.6338C28.3297 85.271 29.927 87.9858 31.045 89.623C32.1232 91.2603 34.839 94.4159 37.0753 96.6123C39.5511 99.0482 42.2667 101.284 44.1036 102.402C45.7409 103.361 47.8178 104.439 48.6964 104.719C49.575 105.038 51.4514 105.358 52.8888 105.478C54.6457 105.637 56.3232 105.477 58.0802 105.038C59.5177 104.679 62.0337 103.561 63.671 102.562C65.3083 101.604 68.1042 99.487 69.8214 97.8896C71.5385 96.2923 74.3336 93.2177 75.9708 91.0215C77.8477 88.5056 79.8841 85.1105 81.4415 81.8359C82.8392 79.0006 84.5165 75.0075 85.1954 73.0508C85.8742 71.0942 86.8725 67.6603 87.3917 65.4639C87.9507 63.2676 88.7493 59.5935 89.1886 57.2773C89.5879 54.9612 90.1874 51.1274 90.4669 48.6914C90.8263 45.8162 91.0265 39.7858 91.0265 31.1201C91.0265 19.3398 90.9457 17.8221 90.3067 16.6641C89.9473 15.9453 89.3086 15.1869 88.9093 14.9873C88.5498 14.7876 86.8727 14.188 85.2355 13.6289C83.5982 13.0698 81.242 12.3517 80.044 12.0322C78.846 11.7128 76.4899 11.1533 74.8526 10.7939C73.2154 10.4346 69.9812 9.87514 67.6651 9.55566C65.349 9.19626 60.2368 8.87674 56.2833 8.79688Z" fill="white"/>
<path d="M39.3113 12.1522L42.6258 11.7928H42.5859C44.4229 11.6331 47.6176 11.4334 53.4879 11.3535L53.2083 17.0241C53.0087 20.1789 52.8889 40.7848 52.8889 103.002L51.012 102.682C49.9338 102.523 48.0169 101.764 46.6991 101.045C45.3813 100.286 43.7839 99.1682 43.1849 98.5292C42.5859 97.9302 42.0668 97.2513 42.1067 97.0117C42.1067 96.7721 41.947 95.1748 41.7074 93.4177C41.5077 91.6606 41.0684 85.8302 40.709 80.4392C40.3895 75.0481 39.9902 65.7036 39.8305 59.6735C39.5509 48.9313 39.5909 48.6518 40.4295 47.294C40.8688 46.5353 42.1466 45.0178 45.2615 41.903L47.1783 42.9812C48.2565 43.5802 49.2549 44.0993 49.4945 44.0993C49.7341 44.0993 47.6975 41.903 45.0219 39.2274C42.3463 36.5119 39.9503 33.8363 39.7107 33.2373C39.4711 32.5584 39.3113 28.1258 39.3113 12.1522Z" fill="white"/>
<path d="M55.2849 102.602L55.205 56.998L55.1252 11.3535H58.2001C59.9172 11.3535 63.4314 11.6331 65.9872 11.9525C68.5829 12.272 71.5779 12.7512 72.6961 12.9908C73.7743 13.1905 75.9307 13.6697 77.4881 14.0291C79.0456 14.3885 80.4033 14.7878 80.5631 14.9076C80.6829 15.0274 81.0423 18.1023 81.2819 21.7363C81.5614 25.3703 81.9208 28.6848 82.0805 29.1241C82.2403 29.5634 82.4799 27.8862 82.6396 25.1307C82.7594 22.4951 82.9192 19.3004 82.999 18.0225C83.039 16.7845 83.2386 15.7462 83.4782 15.7462C83.6779 15.7462 84.7561 16.1056 85.8743 16.505C87.5914 17.1439 87.9109 17.4634 88.1505 18.6215C88.3502 19.3403 88.5898 23.2538 88.7096 27.3271C88.8693 31.8396 88.7894 37.2706 88.5099 41.3039C88.2304 44.9379 87.6713 50.4089 87.232 53.4838C86.7927 56.5587 85.9142 61.231 85.2753 63.8666C84.5964 66.5022 83.3984 70.5356 82.5997 72.8517C81.801 75.1679 80.1238 79.0015 78.8858 81.4375C77.6878 83.8735 75.771 87.0682 74.6928 88.6256C73.5746 90.1431 71.6977 92.4593 70.4997 93.6972C69.3017 94.9751 68.2634 95.9735 68.1835 95.9335C68.1436 95.8537 68.3433 93.5774 68.7027 90.822C69.0222 88.0665 69.5413 82.3161 69.8608 78.0431C70.2202 73.7702 70.6595 65.5438 70.8991 59.7933C71.0987 54.0029 71.4581 48.8914 71.6578 48.4122C71.8575 47.893 73.375 46.1359 75.0522 44.4987C76.7294 42.8614 78.0872 41.1841 78.0872 40.8247C78.0872 40.4254 76.7294 38.7082 75.0122 37.031C73.335 35.3139 71.7377 33.5568 71.4581 33.1175C71.1786 32.6782 70.7793 30.5617 70.6195 28.3654C70.4598 26.2089 70.2202 24.4119 70.1004 24.332C69.9806 24.2522 69.7809 25.9693 69.5812 28.1657C69.4215 30.3221 69.102 32.5185 68.8225 33.0376C68.5829 33.5168 66.1869 36.1125 63.5512 38.828C60.8756 41.5435 58.6393 43.8597 58.5195 43.9795C58.3997 44.0993 59.3182 43.7 62.7126 42.0228L68.4631 47.893L68.503 57.8765C68.503 63.3874 68.3433 71.1745 68.1037 75.2478C67.904 79.321 67.5446 85.0715 67.305 88.0266C67.0654 90.9817 66.706 94.3761 66.5063 95.5342C66.1869 97.2114 65.8274 97.8503 64.5496 98.9286C63.7109 99.6074 62.0337 100.686 60.8756 101.325C59.6776 101.924 57.9605 102.443 55.2849 102.602Z" fill="white"/>
<path d="M30.9651 13.9892C32.4028 13.6697 34.2797 13.2304 35.1582 13.0307C36.0368 12.8311 36.8754 12.6314 37.0351 12.6314C37.1948 12.5915 37.3146 15.307 37.3146 18.6614C37.3146 22.0159 37.1549 26.8479 36.7556 34.1158L33.9602 36.9112C31.2048 39.6667 31.1249 39.7066 30.3661 38.9878C29.9269 38.5485 29.0084 37.9096 27.1714 36.7515L28.5292 38.5485C29.2879 39.5069 31.3645 41.863 33.2014 43.7399C34.9985 45.5769 36.5559 47.5736 36.6757 48.1326C36.8354 48.6518 37.115 54.6019 37.3546 61.3108C37.5942 67.9798 38.0334 76.7253 38.3529 80.6788C38.6724 84.5923 39.1516 89.1847 39.3513 90.8619C39.5909 92.4992 39.8305 94.3761 39.9503 95.055C40.1499 96.2131 40.1499 96.2131 38.1133 94.2563C36.9952 93.1382 35.2381 91.0616 34.1998 89.6639C33.1216 88.2263 31.644 85.99 30.8453 84.6722C30.0467 83.3144 28.4892 80.1197 27.3711 77.4841C26.213 74.8484 24.6955 70.6154 23.9767 68.0996C23.2579 65.5438 22.3394 61.83 21.9401 59.8333C21.5008 57.7966 21.3011 56.0396 21.4609 55.9198C21.6206 55.7999 23.4176 56.359 29.1681 58.5554L29.6473 61.4306C29.8869 62.9881 30.7255 66.9415 31.4444 70.1762C32.1632 73.4108 32.8021 76.0065 32.842 75.9666C32.9219 75.8867 32.6823 72.8118 32.3628 69.0979C32.0434 65.3442 31.7239 61.0313 31.5642 56.7184L20.6223 52.3257L20.1031 47.933C19.7837 45.1376 19.584 38.9478 19.584 31.1607C19.584 22.8545 19.7437 18.5017 20.0233 17.9825C20.3161 17.4501 21.7803 16.7446 24.416 15.866C26.5724 15.1872 29.5275 14.3486 30.9651 13.9892Z" fill="white"/>
</svg>
