<svg width="109" height="114" viewBox="0 0 109 114" fill="none" xmlns="http://www.w3.org/2000/svg">
<path fill-rule="evenodd" clip-rule="evenodd" d="M50.4961 7.03179C50.7021 7.18633 54.7196 12.4922 59.5097 18.9314C64.2483 25.3191 68.1628 30.5734 68.2658 30.5734C68.3173 30.5734 67.3902 26.916 66.154 22.4343C64.6603 16.9739 64.0938 14.1922 64.4543 13.8316C64.7633 13.471 69.3474 19.2405 91.5466 49.1698L88.7138 57.8755L90.671 60.5027C92.0102 62.4087 93.4009 63.5935 95.5641 64.6238C97.1608 65.448 98.5 66.2722 98.5 66.5298C98.5 66.7358 98.1395 68.1782 97.6759 69.7236C97.2638 71.269 96.4397 74.1023 95.8732 76.0598C94.9461 79.3051 94.74 79.6142 92.3192 81.0566C90.3105 82.2929 89.5379 83.1171 88.8683 84.9201C88.3017 86.3109 87.6322 87.2382 87.1686 87.2382C86.7565 87.2382 86.19 87.0321 85.8809 86.8261C85.5719 86.62 84.7478 85.1776 83.9752 83.6322C83.1511 81.9838 81.1939 79.4597 79.3396 77.6567C77.5369 75.9052 74.8071 73.8962 73.2619 73.072C71.7167 72.2993 68.7808 71.3205 66.8236 70.9084C64.8664 70.4963 61.6215 70.2388 59.6642 70.3418C56.7799 70.4448 56.0588 70.3418 55.5437 69.6206C55.0802 68.8994 55.1832 68.5388 56.0073 67.9722C56.5738 67.5601 57.5009 66.8904 58.0675 66.4268C59.0461 65.7056 58.8916 65.6541 56.0073 65.6541C53.535 65.6541 52.7109 65.3965 50.8566 63.439L53.0714 61.6875C54.3076 60.7088 55.2347 59.4725 55.2347 58.9058C55.2347 58.2876 54.8741 57.8755 54.3591 57.8755C53.844 57.8755 52.6594 58.3392 51.7837 58.9058C50.8566 59.4725 49.569 60.9148 48.9509 62.1511C48.0753 63.7996 47.7663 65.1904 47.7663 68.1782C47.7663 71.372 48.0238 72.5569 49.1054 74.6174C50.3931 77.09 50.4961 77.1931 52.4533 77.0385C54.3591 76.884 54.6681 77.09 57.9645 80.4899C61.2609 83.9928 61.4669 84.1474 62.8576 83.5292C64.0938 83.0141 64.6088 83.1686 67.5962 84.9716C69.4504 86.0534 72.2318 88.1654 73.777 89.6078C75.3221 91.0502 77.5884 93.5743 78.8246 95.1712C80.0092 96.7682 80.8848 98.2621 80.7303 98.5711C80.5758 98.8802 79.0306 100.117 77.2794 101.404C75.4767 102.692 73.8285 103.722 73.5194 103.722C73.2104 103.722 71.9227 102.126 70.5836 100.22C69.2444 98.3136 66.9266 95.5318 62.7031 91.3593L55.7497 93.2137C49.981 94.7076 48.6934 94.9137 48.1783 94.347C47.8178 93.9864 47.7147 93.4198 47.9208 93.1622C48.1268 92.8531 49.6205 91.7714 51.2687 90.6896C52.8654 89.6593 54.2045 88.629 54.2045 88.423C54.153 88.1654 53.535 87.0836 51.3717 83.9928L45.1909 84.0959C40.6069 84.1474 38.9072 84.0443 38.6496 83.5292C38.4436 83.1686 38.2376 82.705 38.2376 82.4989C38.2376 82.2414 39.2677 81.6747 40.5554 81.2111C41.843 80.696 42.8216 80.0778 42.6671 79.7687C42.5126 79.4597 41.8945 77.6052 41.2765 75.6477C40.4008 72.9174 40.1948 71.2175 40.4008 68.6934C40.5554 66.5813 41.1219 64.2632 43.3882 59.4209L41.5855 60.8633C40.6069 61.636 39.0102 63.439 37.98 64.8298C36.9499 66.2722 35.6623 68.8994 35.0957 70.7539C34.4776 72.8659 34.1171 75.5446 34.1171 77.9658C34.1171 80.0778 34.4776 83.1171 34.8897 84.6625C35.3017 86.2079 36.2803 88.7836 37.0529 90.329C37.8255 91.9774 39.9373 94.7076 42.049 96.8197C44.9849 99.756 46.6331 100.941 50.4961 102.744C54.3591 104.598 55.2347 105.216 55.1317 106.041C54.9771 106.968 54.6166 107.071 51.3717 106.968C49.0024 106.916 46.4271 106.453 43.9033 105.577C41.7915 104.856 38.7526 103.465 37.2075 102.538C35.6623 101.662 32.5719 99.0863 30.4086 96.9227C27.1637 93.6774 25.9791 91.9774 24.0733 88.1654C22.8372 85.5382 21.498 81.8293 20.4679 76.4719L19.2317 77.6052C18.5622 78.2233 17.4805 79.9233 16.8109 81.3141C16.1414 82.7565 15.5748 84.508 15.5748 85.3322C15.5748 86.3625 15.3173 86.723 14.5447 86.723C13.7206 86.723 13.257 86.0019 12.4329 83.5292C11.7118 81.3657 11.2483 78.4294 11.0937 74.6174C10.8877 70.2903 10.9907 67.9722 11.7118 64.8298C12.2269 62.5633 13.566 58.8543 14.6992 56.5877C16.2959 53.4454 17.8411 51.4364 21.189 48.088C24.1248 45.2032 26.7517 43.0912 32.3143 40.2579L28.1938 40.5155C25.9276 40.7216 23.4553 40.9791 22.6827 41.1337C21.7212 41.3054 21.2405 41.1852 21.2405 40.7731C21.189 40.4125 22.6827 38.7125 24.4339 37.0126C26.2366 35.3127 29.0694 33.2006 30.7692 32.2734C32.4689 31.3461 35.2502 30.1613 36.9499 29.5431C38.6496 28.9765 41.8945 28.2553 44.1608 27.9462C46.7876 27.6372 49.466 27.6372 51.6292 27.8947C53.4835 28.2038 55.0286 28.3583 55.1317 28.3068C55.2347 28.3068 53.9985 23.6706 52.4533 18.1072C50.8566 12.4922 49.7235 7.64995 49.878 7.39238C50.0325 7.0833 50.3416 6.92876 50.4961 7.03179ZM75.2706 53.6514C75.5797 54.3211 77.5884 55.6605 79.9577 56.8453L84.0782 58.9058C77.846 50.1485 75.8887 47.5728 75.7342 47.5728C75.5282 47.5728 75.2191 48.6546 75.0646 50.0455C74.8586 51.4879 74.9101 52.9302 75.2706 53.6514Z" fill="white"/>
</svg>
