<svg width="1812" height="2000" viewBox="0 0 1812 2000" fill="none" xmlns="http://www.w3.org/2000/svg">
<path fill-rule="evenodd" clip-rule="evenodd" d="M636.6 1.3C636.4 2 636.3 14.4 636.3 29L636.5 55.5L687 56V184H746V56L796.5 55.5L796.8 0C653.3 0 636.9 0.3 636.6 1.3ZM814 184H873V118H927V184H986V0H927V62H873V0H814V184ZM1015 184H1130.5C1150.2 147.2 1156 136.2 1156 135.7C1156 135.3 1137.5 135 1115 135H1074V113L1118.3 112.5C1128.4 95.4 1134.1 85.8 1137.5 80C1141 74.2 1143.6 69.2 1143.4 68.7C1143.2 68.3 1127.5 68 1108.5 68H1074V49L1128.1 48.5C1147.4 12.8 1152.9 1.9 1153 1.2C1153 0.3 1138.6 0 1084 0H1015V184ZM0 1959C191.8 1959 248 1958.6 248.7 1958.2C249.4 1957.8 252 1949 254.5 1938.5C257 1928 260.9 1912.1 263.1 1903C265.3 1893.9 268.7 1880 270.6 1872C272.5 1864 274.3 1856.7 274.5 1855.7C275 1854.1 270.4 1854 189.5 1854H104V147C506.7 147 517 146.9 516.5 145.2C516.3 144.3 510.7 121.9 504 95.5C497.4 69.1 491.8 46.5 491.5 45.2L491 43H0V1959ZM1320.6 44.2C1320.3 44.9 1314.7 67.3 1308.1 94C1301.4 120.7 1295.8 143.5 1295.5 144.7L1295 147H1708V1854C1575.5 1854 1537 1854.1 1537 1854.2C1537 1854.4 1539.6 1865.5 1542.9 1879C1546.1 1892.5 1551.5 1914.7 1554.8 1928.5C1558.2 1942.2 1561.2 1954.4 1561.6 1955.5C1562 1956.6 1562.8 1957.8 1563.4 1958.2C1564 1958.6 1619.5 1959 1686.8 1959C1754 1959 1809.7 1958.8 1810.5 1958.5C1811.8 1958.1 1812 1850.7 1812 1000.5V43C1370.9 43 1320.9 43.3 1320.6 44.2ZM533.4 1812.9C530.7 1813.3 525.5 1814.4 521.9 1815.4C518.4 1816.4 512.1 1819 508 1821.2C503.9 1823.4 498.5 1826.9 496 1829C493.5 1831.1 489.8 1835.2 487.8 1838.1C485.8 1841.1 483.2 1846.4 482 1850C480.1 1855.5 479.8 1858.2 480.1 1868C480.5 1879 480.7 1880 484.2 1887C486.9 1892.6 489.7 1896.2 494.9 1901.2C500.5 1906.6 504.4 1909.2 513.3 1913.4C519.4 1916.4 530.1 1921 537 1923.5C543.9 1926.1 552.7 1929.7 556.5 1931.5C560.4 1933.3 564.7 1936.2 566.3 1937.9C568 1939.9 569 1942.2 569 1944.2C569.1 1946 568.2 1948.7 567 1950.2C565.9 1951.8 563.8 1953.6 562.3 1954.4C560.7 1955.1 557.7 1956.1 555.5 1956.5C553.2 1956.9 548.9 1956.6 545.5 1955.9C540.5 1954.9 538.7 1953.9 534.9 1950.1C531.9 1947.1 529.8 1943.9 529 1941C528.3 1938.5 527.4 1936.2 527.1 1935.7C526.8 1935.3 516.8 1935.6 505 1936.5C493.2 1937.3 481.8 1938.2 479.8 1938.5C476.8 1938.9 476 1939.4 476 1941C476 1942.1 476.5 1945.4 477.1 1948.2C477.7 1951.1 480 1957.3 482.3 1962C485.5 1968.8 487.9 1972.1 494.4 1978.6C501 1985.2 504.2 1987.5 512 1991.3C517.2 1993.9 525.1 1996.9 529.5 1998C535.8 1999.6 540.7 2000 552.5 2000C564 2000 569.4 1999.5 575.8 1998C580.3 1996.9 587.3 1994.4 591.3 1992.5C595.2 1990.7 600.8 1987.2 603.5 1984.9C606.3 1982.6 609.8 1979.1 611.4 1977.1C613 1975.1 615.9 1970.1 617.9 1966L621.5 1958.5C621.4 1932.1 621.2 1929.9 619.1 1925.5C617.9 1922.7 615.2 1918.3 613.2 1915.6C611.2 1912.9 606.8 1908.5 603.5 1905.9C600.2 1903.3 594.6 1899.8 591 1898.2C587.4 1896.6 579.1 1893.3 572.5 1891C565.9 1888.7 556 1885 550.5 1882.8C545 1880.7 539.6 1878.1 538.5 1877.2C537.4 1876.3 535.7 1874.4 534.7 1873C533.8 1871.6 533 1869.1 533 1867.5C532.9 1865.8 533.8 1863.3 535 1861.7C536.1 1860.2 538.4 1858.3 540 1857.5C541.7 1856.7 545.5 1856 548.5 1856C551.7 1856 555.5 1856.7 557.7 1857.7C559.7 1858.7 562.6 1861 564.2 1862.7C565.7 1864.5 567.6 1868.1 568.3 1870.6L569.5 1875.2C581.9 1874.4 593.3 1873.6 602.8 1872.9L620 1871.5C620 1866.8 619.1 1862.3 617.9 1858.5C616.8 1854.6 613.9 1848.3 611.5 1844.5C609.2 1840.6 604.1 1834.6 600.3 1831C596.1 1827.1 590.4 1823 585.9 1820.8C581.8 1818.7 575.4 1816.1 571.5 1814.9C566.4 1813.4 560.9 1812.8 551.5 1812.5C544.4 1812.3 536.2 1812.5 533.4 1812.9ZM887 1812.6C885.6 1812.9 881.4 1813.8 877.5 1814.7C873.7 1815.6 868.3 1817.2 865.5 1818.2C862.8 1819.3 857.4 1822 853.5 1824.2C849.7 1826.5 844 1830.4 841 1832.9C838 1835.4 834.5 1838.6 833.1 1840C831.7 1841.4 828.6 1845 826.1 1848C823.5 1851 819.4 1857.5 816.9 1862.5C814.3 1867.4 811.5 1873.7 810.7 1876.5C809.8 1879.2 808.3 1885.5 807.4 1890.5C806.2 1896.9 805.9 1902.6 806.3 1910C806.5 1915.8 807.8 1924.8 809.1 1930C810.4 1935.7 813.2 1943.1 815.9 1948.5C818.5 1953.4 822.6 1960.2 825.1 1963.5C827.6 1966.8 832.9 1972.4 836.7 1976C840.6 1979.6 847.3 1984.6 851.6 1987.3C856 1989.9 864.2 1993.7 870 1995.8C880.1 1999.3 881 1999.5 896.5 1999.8C911.2 2000.2 913.3 2000 922.3 1997.6C927.6 1996.2 935.7 1993.2 940.3 1990.9C944.8 1988.6 952.1 1984 956.4 1980.6C960.7 1977.3 966.6 1971.7 969.4 1968.3C972.2 1964.9 976.6 1958.6 979.2 1954.3C981.9 1950 985.3 1942.7 987 1938C988.6 1933.3 990.5 1926.1 991.1 1922C991.7 1917.9 992.2 1910.4 992.2 1905.5C992.2 1900.5 991.7 1893.6 991 1890C990.4 1886.4 989 1880.6 987.8 1877C986.6 1873.4 984.5 1868 983.1 1865C981.6 1862 978.6 1856.8 976.5 1853.5C974.3 1850.2 969.6 1844.4 966 1840.6C962.4 1836.8 956.8 1831.8 953.5 1829.5C950.2 1827.1 944.4 1823.6 940.5 1821.7C936.7 1819.7 929.5 1817 924.5 1815.5C917.3 1813.4 912.9 1812.8 902.5 1812.5C895.4 1812.3 888.4 1812.3 887 1812.6ZM892 1860.2C895 1859.7 900 1859.5 903 1859.8C906 1860 910.8 1861.1 913.5 1862.1C916.3 1863.1 920.5 1865.4 923 1867.3C925.5 1869.2 928.7 1872.2 930.1 1874.1C931.5 1876 933.9 1879.7 935.3 1882.5C936.8 1885.2 938.6 1890.8 939.5 1894.7C940.3 1898.7 941 1903.8 941 1906C941 1908.2 940.3 1913.5 939.4 1917.7C938.5 1922 936.5 1928 935 1931C933.5 1934 930 1938.7 927.4 1941.4C924.5 1944.4 919.8 1947.6 916 1949.4C910.1 1952.2 908.6 1952.5 899.5 1952.5C889.9 1952.5 889 1952.3 882 1948.9C877.1 1946.5 873.1 1943.7 870.7 1940.9C868.6 1938.5 865.6 1934.2 864 1931.5C862.4 1928.7 860.4 1923.8 859.6 1920.5C858.7 1917.2 858 1910.7 858 1906C858 1901.1 858.7 1895.2 859.6 1892C860.5 1889 862.4 1884.2 863.8 1881.5C865.2 1878.7 868.2 1874.5 870.5 1872C872.8 1869.5 877.4 1866.1 880.6 1864.3C883.9 1862.5 889 1860.7 892 1860.2ZM1399.5 1812.6C1397.8 1812.9 1393.5 1813.7 1389.8 1814.5C1386 1815.3 1380.6 1816.9 1377.8 1818C1374.9 1819 1369.7 1821.7 1366.3 1824C1362.8 1826.2 1358.3 1829.7 1356.3 1831.7C1354.3 1833.8 1351.4 1837.5 1349.8 1840C1348.2 1842.5 1346 1847.4 1344.9 1851C1343.6 1855.4 1343 1860.3 1343 1866.2C1343 1872.4 1343.6 1876.9 1345.1 1881.2C1346.2 1884.7 1348.6 1889.7 1350.3 1892.4C1352.1 1895.1 1356.2 1899.8 1359.5 1902.7C1363.4 1906.3 1369.3 1910 1376.5 1913.5C1382.6 1916.4 1393.7 1921.1 1401.3 1923.9C1408.8 1926.7 1417.6 1930.3 1420.8 1932C1423.9 1933.6 1427.2 1935.5 1428.1 1936.2C1429 1936.9 1430.2 1938.5 1430.8 1939.7C1431.5 1941 1432 1943.6 1432 1945.5C1432 1948 1431.2 1949.8 1429.3 1951.8C1427.5 1953.5 1424.4 1955.1 1421 1955.9C1417.6 1956.7 1413.8 1957 1411 1956.5C1408.5 1956.1 1404.8 1954.9 1402.8 1953.9C1400.7 1952.9 1397.6 1950.1 1395.9 1947.7C1394.2 1945.4 1392.3 1941.6 1391.7 1939.2C1391 1936.6 1389.9 1935 1389 1935C1388.2 1935 1378.5 1935.7 1367.5 1936.5C1356.5 1937.3 1345.6 1938.2 1343.3 1938.5L1339 1939C1339.9 1945.6 1340.8 1949.7 1341.7 1952.5C1342.5 1955.2 1344.9 1960.6 1346.8 1964.5C1349.3 1969.3 1352.8 1973.9 1358 1979C1363.9 1984.8 1367.7 1987.6 1375 1991.2C1380.2 1993.8 1388.1 1996.9 1392.5 1998C1398.8 1999.6 1403.7 2000 1415.8 2000C1427.7 2000 1432.8 1999.6 1439.3 1998C1443.8 1996.8 1451.3 1994 1455.9 1991.7C1461.5 1988.9 1466.3 1985.5 1470.4 1981.5C1473.8 1978.2 1477.9 1972.8 1479.7 1969.5C1481.5 1966.2 1483.7 1960.1 1484.6 1956C1485.7 1950.6 1486 1946.4 1485.5 1941C1485.1 1936.9 1484 1930.8 1483 1927.5C1481.8 1923.7 1479.3 1919.3 1476.3 1915.6C1473.7 1912.3 1468.8 1907.6 1465.5 1905.1C1462.2 1902.5 1455 1898.6 1449.5 1896.3C1444 1894 1433.2 1889.9 1425.5 1887.2C1417.8 1884.6 1409 1881 1406 1879.4C1402.9 1877.8 1399.6 1875 1398.3 1873C1397 1871.1 1396 1868.6 1396 1867.5C1396 1866.4 1396.8 1864.1 1397.8 1862.5C1398.8 1860.8 1401.3 1858.7 1403.3 1857.7C1405.4 1856.8 1409.3 1856 1412.3 1856C1415.7 1856 1418.9 1856.7 1421.5 1858.1C1423.7 1859.3 1426.5 1861.4 1427.7 1862.9C1428.9 1864.3 1430.5 1867.7 1431.2 1870.4L1432.5 1875.3C1448.8 1874.2 1460.3 1873.3 1468.5 1872.7L1483.5 1871.5C1483.1 1866.1 1482.1 1861.6 1481 1858C1479.9 1854.4 1477.4 1848.6 1475.3 1845.2C1473.2 1841.7 1468.8 1836 1465.4 1832.7C1462 1829.2 1455.8 1824.5 1451.4 1822C1447.1 1819.5 1439.9 1816.5 1435.5 1815.2C1429.5 1813.4 1424.4 1812.7 1415 1812.5C1408.1 1812.3 1401.2 1812.4 1399.5 1812.6ZM241.6 332.3C241.3 333.1 241.3 409.7 241.4 502.6C241.6 624.6 242 674.1 242.9 681C243.5 686.2 245 695.9 246.1 702.5C247.2 709.1 249.4 719.7 251 726C252.6 732.3 255.3 741.8 257 747C258.7 752.2 262.1 761.7 264.7 768C267.2 774.3 272.9 786.5 277.3 795C281.7 803.5 286.1 811.6 287 813C288 814.4 290.9 818.9 293.6 823C296.2 827.1 301.1 834.1 304.4 838.5C307.6 842.9 313.6 850.4 317.7 855.2L325 864H241V967H560V864.5C541.8 863.3 531.1 862 524.5 860.9C517.9 859.8 509.1 858 505 856.8C500.9 855.7 495 854 492 853C489 852 484.5 850.4 482 849.5C479.5 848.5 474.1 846.2 470 844.3C465.9 842.4 458 838.3 452.5 835.2C447 832.1 437.2 825.6 430.8 820.8C424.3 816 414.4 807.4 408.7 801.7C403 796.1 395.7 788.1 392.4 784C389.1 779.9 383.6 772.4 380.3 767.5C377 762.5 372.5 755.1 370.4 751C368.2 746.9 364.8 739.9 362.8 735.5C360.8 731.1 357.6 722.8 355.7 717C353.8 711.2 352 705.3 351.6 703.7L351 701H774V967H877C877 634.2 876.9 626.9 875 611.5C873.9 602.7 872.1 591 870.9 585.5C869.8 580 867.5 570.8 866 565C864.4 559.2 861.7 550.4 860 545.5C858.2 540.5 855.2 532.7 853.3 528C851.4 523.3 847.1 514.1 843.8 507.5C840.5 500.9 835.9 492.3 833.7 488.5C831.4 484.6 826.7 477.2 823.1 472C819.6 466.8 812.8 457.6 808.1 451.5C803.4 445.5 794.5 435.4 788.5 429.1C782.5 422.9 773 413.8 767.5 409.1C762 404.3 754.1 398 750 394.9C745.9 391.9 738.5 386.7 733.5 383.3C728.5 380 719.5 374.6 713.5 371.2C707.5 367.8 696.7 362.4 689.5 359.2C682.4 355.9 670.4 351.2 663 348.7C655.6 346.1 644.1 342.7 637.5 341C630.9 339.3 618.8 336.8 610.5 335.5C602.3 334.2 588.8 332.6 580.5 332C572.3 331.5 552.6 331 536.8 331H508V435C567.1 435 580.2 435.4 588.3 436.5C594.4 437.3 604.7 439.3 611 440.9C617.3 442.5 626.3 445.2 631 446.8C635.7 448.4 644.2 451.9 650 454.7C655.8 457.4 663.7 461.5 667.5 463.7C671.4 466 678.8 470.9 684 474.6C689.2 478.4 694.9 482.6 696.5 484C698.2 485.4 704.1 491 709.8 496.5C715.5 502 724.1 511.5 728.8 517.7C733.6 523.8 740.3 533.5 743.7 539.2C747.1 544.8 752.3 554.9 755.3 561.5C758.3 568.1 761.9 577.5 763.4 582.5C764.9 587.4 766.6 592.8 767.1 594.5C767.6 596.1 768 597.6 768 597.7C768 597.9 672.8 598 556.5 598H345L344.5 331.5C251 331 241.9 331.2 241.6 332.3ZM935 967H1038L1037.9 883.5C1046.9 891.2 1050.2 894.1 1051 894.9C1051.8 895.7 1056.8 899.5 1062 903.5C1067.2 907.4 1074.7 912.6 1078.5 915.1C1082.3 917.6 1090.2 922.4 1096 925.7C1101.8 929 1110.6 933.6 1115.5 936C1120.5 938.3 1128.3 941.8 1133 943.7C1137.7 945.6 1146.7 948.9 1153 951C1159.3 953.1 1169 956 1174.5 957.4C1180 958.7 1189.5 960.8 1195.5 961.9C1201.6 963 1212.9 964.6 1220.8 965.5C1228.6 966.3 1242.8 967 1252.3 967C1261.7 967 1276 966.3 1284 965.5C1292 964.7 1300.1 963.7 1302 963.4C1303.9 963.1 1310.7 961.7 1317 960.4C1323.3 959.1 1331.7 957.2 1335.5 956.1C1339.3 955.1 1346.3 953 1351 951.5C1355.7 950 1364.2 946.9 1370 944.7C1375.8 942.4 1387.7 937 1396.5 932.5C1405.3 928 1413.8 923.5 1415.5 922.4C1417.2 921.2 1421.9 918.2 1426 915.5C1430.1 912.8 1438.5 907 1444.5 902.4C1450.6 897.9 1458.7 891.3 1462.5 887.9C1466.3 884.4 1473.1 878 1477.5 873.6C1481.9 869.1 1487.8 863 1490.5 860C1493.2 857 1498.1 851.1 1501.3 847C1504.6 842.9 1509.8 835.9 1513 831.5C1516.1 827.1 1521.5 818.8 1525 813C1528.5 807.2 1534 797.1 1537.3 790.5C1540.6 783.9 1545.2 773.8 1547.5 768C1549.8 762.2 1553.6 751.9 1555.8 745C1558 738.1 1561 727.3 1562.4 721C1563.8 714.7 1565.6 705.7 1566.4 701C1567.2 696.3 1568.4 687.1 1569.1 680.5C1569.8 673.9 1570.4 659.3 1570.3 648C1570.3 635.8 1569.6 621.8 1568.6 613.5C1567.7 605.8 1566 594.8 1564.9 589C1563.7 583.2 1561.5 573.5 1559.8 567.5C1558.2 561.4 1555.7 553.1 1554.3 549C1552.9 544.9 1550 537 1547.8 531.5C1545.6 526 1541.2 516.1 1538 509.5C1534.8 502.9 1529.1 492.5 1525.5 486.5C1521.9 480.4 1515.3 470.5 1510.9 464.5C1506.6 458.4 1499.6 449.4 1495.5 444.5L1488 435.5L1570.5 434.5V331.5H1252.5V434.5C1264.1 434.9 1272 435.5 1277.5 436.1C1283 436.7 1291.8 438 1297 439.2C1302.2 440.3 1308.8 441.8 1311.5 442.7C1314.3 443.5 1319.2 445.1 1322.5 446.2C1325.8 447.4 1331.2 449.4 1334.5 450.8C1337.8 452.1 1344.6 455.2 1349.5 457.7C1354.5 460.2 1362.1 464.5 1366.5 467.3C1370.9 470.1 1377.2 474.4 1380.5 476.8C1383.8 479.1 1389.7 483.9 1393.5 487.3C1397.3 490.7 1403.9 497 1408 501.4C1412.1 505.7 1417.9 512.2 1420.8 515.9C1423.7 519.5 1428.5 526.1 1431.5 530.5C1434.4 534.9 1439.8 544.1 1443.4 551C1446.9 557.9 1451.8 568.7 1454.1 575C1456.4 581.3 1459.5 591.4 1461 597.5C1462.6 603.5 1464.6 613.9 1465.5 620.5C1466.9 630 1467.1 637 1466.7 654.5C1466.3 671.5 1465.7 679 1464 687.5C1462.8 693.5 1460.7 702.5 1459.3 707.5C1458 712.4 1455.4 720.3 1453.6 725C1451.8 729.7 1448 738.2 1445.2 744C1442.5 749.8 1436.9 759.4 1432.9 765.5C1429 771.5 1423 779.9 1419.7 784C1416.3 788.1 1408.9 796.2 1403 802C1397.2 807.8 1388 815.9 1382.5 820C1377 824.1 1368.9 829.6 1364.5 832.4C1360.1 835.1 1352.2 839.4 1347 841.9C1341.8 844.5 1333.5 848.1 1328.5 849.9C1323.6 851.7 1318.4 853.5 1317 854C1315.6 854.5 1311.1 855.8 1307 856.9C1302.9 858 1293.9 859.9 1287 861.1C1276.5 863 1270.9 863.4 1252.5 863.4C1234.1 863.4 1228.5 863 1218 861.1C1211.1 859.9 1202.1 858 1198 856.8C1193.9 855.7 1186 853.2 1180.5 851.3C1175 849.3 1166.5 845.9 1161.5 843.6C1156.6 841.2 1147.8 836.5 1142 833C1136.2 829.5 1127.9 824 1123.5 820.6C1119.1 817.3 1113.9 813.2 1112 811.5C1110.1 809.9 1104.1 804 1098.7 798.5C1093.3 793 1085.8 784.4 1082 779.5C1078.3 774.5 1072.9 766.7 1070 762C1067.1 757.3 1062.4 748.8 1059.6 743C1056.8 737.2 1053.8 730.6 1052.9 728.5C1052 726.3 1049.6 719.3 1047.6 713C1045.6 706.7 1042.7 695.4 1041.2 688L1038.5 674.5L1038 331H935V967ZM241.5 1667.5H344.5L345.5 1322.5C349.1 1305.4 350.8 1298 351.7 1295C352.5 1292 354.4 1285.7 356 1281C357.5 1276.3 360.7 1268.2 363 1263C365.3 1257.8 368.8 1250.6 370.7 1247C372.7 1243.4 377 1236.4 380.3 1231.5C383.6 1226.5 388.8 1219.3 391.9 1215.5C394.9 1211.6 402 1204 407.5 1198.4C413 1192.9 420.7 1185.9 424.5 1182.9C428.4 1179.8 435.6 1174.6 440.5 1171.2C445.5 1167.9 454.2 1162.7 460 1159.6C465.8 1156.6 475.9 1152 482.5 1149.5C489.1 1147 497.9 1144.1 502 1143C506.1 1141.9 514 1140.1 519.5 1139C525 1137.9 536 1136.4 544 1135.8C555 1134.9 562.3 1134.9 574 1135.8C582.5 1136.4 594.9 1138.1 601.5 1139.4C608.1 1140.8 616 1142.6 619 1143.5C622 1144.4 628.3 1146.5 633 1148.2C637.7 1149.9 646.5 1153.7 652.5 1156.6C658.6 1159.5 667.6 1164.4 672.5 1167.5C677.5 1170.6 684.7 1175.6 688.5 1178.5C692.4 1181.4 699.6 1187.5 704.5 1192.1C709.5 1196.7 717.3 1204.7 721.9 1210C726.5 1215.2 733.2 1224 736.9 1229.5C740.6 1235 745.7 1243.3 748.2 1248C750.8 1252.7 754.7 1261 757.1 1266.5C759.4 1272 763 1282.1 765 1289C767.1 1295.9 769.8 1307.3 771.1 1314.5C773 1325.5 773.4 1331 773.4 1350C773.4 1370.1 773.1 1374 770.7 1387C769.3 1395 766.4 1406.7 764.5 1413C762.5 1419.3 758.9 1429 756.5 1434.5C754.1 1440 750.2 1448.1 747.8 1452.5C745.3 1456.9 741.3 1463.6 738.8 1467.5C736.3 1471.3 731.4 1478.1 728 1482.5C724.6 1486.9 718.1 1494.3 713.6 1498.8C709.2 1503.4 701.9 1510.2 697.5 1513.9C693.1 1517.7 684.5 1524 678.5 1528.1C672.4 1532.2 662.5 1538 656.5 1541.1C650.4 1544.2 640.6 1548.6 634.5 1550.8C628.5 1553.1 619.2 1556 614 1557.4C608.8 1558.8 600.2 1560.6 595 1561.6C589.8 1562.5 579.7 1563.5 572.5 1563.9L559.5 1564.5L559 1668H877V1565C813.5 1565 794.8 1564.7 794.5 1564.2C794.3 1563.8 795 1562.6 796.2 1561.5C797.3 1560.4 802.1 1554.8 806.8 1549C811.4 1543.2 819.4 1532.2 824.5 1524.5C829.6 1516.8 836.2 1506 839.2 1500.5C842.1 1495 846.9 1485.3 849.7 1479C852.5 1472.7 856.2 1463.7 857.9 1459C859.5 1454.3 862 1446.9 863.4 1442.5C864.8 1438.1 866.6 1431.8 867.4 1428.5C868.2 1425.2 869.9 1418 871 1412.5C872.1 1407 874 1395.1 875 1386C876.3 1375.1 877 1363 877 1350.5C877 1339.9 876.3 1325.1 875.4 1317C874.6 1309 872.7 1296.6 871.4 1289.5C870 1282.3 867.9 1273.1 866.8 1269C865.7 1264.9 863.3 1257 861.5 1251.5C859.7 1246 856.4 1237 854.2 1231.5C852.1 1226 848.4 1217.4 846 1212.5C843.7 1207.5 839 1198.8 835.7 1193C832.4 1187.2 826.9 1178.4 823.6 1173.5C820.3 1168.5 815.4 1161.6 812.6 1158C809.8 1154.4 805.1 1148.6 802.2 1145C799.2 1141.4 793.1 1134.7 788.5 1130C784 1125.3 777.9 1119.2 774.9 1116.5C771.9 1113.7 766.6 1109 763.1 1106C759.6 1103 752.2 1097.2 746.6 1093.2C741 1089.1 732 1083 726.5 1079.6C721 1076.1 710.7 1070.3 703.5 1066.7C696.4 1063.1 688.9 1059.5 687 1058.7C685.1 1057.8 680.8 1056 677.5 1054.7C674.2 1053.3 665.4 1050.2 658 1047.7C650.6 1045.2 639.3 1042 633 1040.5C626.7 1039.1 614.3 1036.7 605.5 1035.3C591.1 1033 586.5 1032.7 560 1032.6C533.9 1032.6 528.8 1032.8 515.5 1034.9C507.3 1036.1 495.8 1038.3 490 1039.6C484.2 1040.9 477.7 1042.5 475.5 1043C473.3 1043.6 466.6 1045.7 460.5 1047.7C454.5 1049.7 445.7 1052.8 441 1054.8C436.3 1056.7 428.2 1060.3 423 1062.7C417.8 1065.1 409.5 1069.5 404.5 1072.3C399.6 1075.1 391.7 1079.9 387 1082.9C382.3 1085.8 375.1 1090.8 371 1093.9C366.9 1097 359.3 1103 354.3 1107.2L345 1115L344.5 1032.5L241 1032L241.5 1667.5ZM1227.1 1032.6C1224.6 1032.8 1217.4 1033.7 1211.1 1034.5C1204.7 1035.4 1196.2 1036.7 1192.1 1037.6C1187.9 1038.4 1179.4 1040.4 1173.1 1042C1166.7 1043.6 1157.1 1046.4 1151.6 1048.3C1146.1 1050.2 1138 1053.1 1133.6 1054.9C1129.2 1056.7 1119.7 1061 1112.6 1064.5C1105.4 1067.9 1093.9 1074.3 1087.1 1078.6C1080.2 1082.9 1070.2 1089.6 1065 1093.4C1059.7 1097.3 1052.5 1102.9 1049 1105.9C1045.4 1109 1039.2 1114.6 1035.2 1118.4C1031.1 1122.3 1025 1128.4 1021.5 1131.9C1018.1 1135.5 1012.5 1141.8 1009.1 1145.9C1005.7 1150.1 1001.9 1154.6 1000.8 1155.9C999.6 1157.3 995 1163.8 990.5 1170.4C986.1 1177 979.7 1187.2 976.4 1192.9C973 1198.7 968.5 1207.3 966.3 1211.9C964 1216.6 960.5 1224.5 958.5 1229.4C956.4 1234.4 953.5 1242.3 951.9 1246.9C950.3 1251.6 947.7 1260.2 946.1 1265.9C944.5 1271.7 942.3 1280.9 941.2 1286.4C940 1291.9 938.4 1301.6 937.4 1307.9C936.2 1316.8 935.7 1328.9 935.4 1360.2L935.1 1400.9C1342.7 1400.9 1461.1 1401.3 1461.1 1401.7C1461.1 1402.1 1460.2 1405.4 1459.2 1408.9C1458.2 1412.5 1455.6 1419.9 1453.6 1425.4C1451.5 1430.9 1447.1 1440.8 1443.7 1447.4C1440.3 1454 1435.7 1462.1 1433.6 1465.4C1431.4 1468.7 1426.9 1475 1423.7 1479.4C1420.4 1483.8 1417.4 1487.7 1417.1 1487.9C1416.7 1488.2 1413.3 1491.8 1409.5 1496C1405.7 1500.1 1398.7 1506.9 1394.1 1511C1389.4 1515.2 1382.4 1520.8 1378.6 1523.6C1374.7 1526.4 1369.8 1529.8 1367.6 1531.2C1365.4 1532.5 1359.7 1535.8 1355.1 1538.4C1350.4 1541 1342.3 1544.9 1337.1 1547.1C1331.8 1549.3 1325.1 1552 1322.1 1553C1319 1553.9 1313.4 1555.7 1309.6 1556.8C1305.7 1557.9 1297.4 1559.8 1291.1 1561C1284.7 1562.2 1273.6 1563.4 1266.4 1563.8C1259.1 1564.1 1246.9 1564.1 1239.4 1563.8C1231.8 1563.4 1221.5 1562.4 1216.6 1561.5C1211.6 1560.5 1203.3 1558.7 1198.1 1557.3C1192.8 1555.9 1183.6 1553 1177.6 1550.7C1171.5 1548.5 1162.5 1544.7 1157.6 1542.2C1152.6 1539.7 1144.5 1535.2 1139.6 1532.1C1134.6 1529.1 1126.7 1523.7 1122.1 1520.1C1117.4 1516.5 1109.3 1509.5 1104.2 1504.5C1099 1499.5 1091.4 1491.4 1087.3 1486.4C1083.2 1481.5 1077 1473.2 1073.5 1467.9C1070 1462.7 1064.8 1453.7 1061.8 1447.9C1058.8 1442.2 1055.4 1435.1 1054.2 1432.2L1052.1 1426.9H935.1V1667.9H1038.1L1038 1583.4C1044.6 1589.7 1049.9 1594.2 1054.1 1597.5C1058.2 1600.8 1065.4 1606.3 1070.1 1609.6C1074.7 1612.8 1082.7 1618.1 1087.8 1621.2C1092.9 1624.4 1102.8 1629.8 1109.8 1633.4C1116.8 1636.9 1127.5 1641.8 1133.6 1644.3C1139.6 1646.7 1148.8 1650.1 1154.1 1651.8C1159.3 1653.4 1167.8 1655.9 1173.1 1657.3C1178.3 1658.7 1187.1 1660.7 1192.6 1661.8C1198.1 1662.9 1208.9 1664.6 1216.6 1665.5C1226.3 1666.7 1237.6 1667.3 1253.6 1667.2C1269.2 1667.2 1280.6 1666.7 1289.1 1665.6C1295.9 1664.6 1306.5 1663 1312.6 1661.9C1318.6 1660.7 1327.8 1658.7 1333.1 1657.3C1338.3 1655.9 1348 1653 1354.6 1650.7C1361.2 1648.5 1371.3 1644.6 1377.1 1642.2C1382.8 1639.8 1391.6 1635.7 1396.6 1633.1C1401.5 1630.6 1408.9 1626.5 1413.1 1624.1C1417.2 1621.7 1423.7 1617.7 1427.6 1615.1C1431.4 1612.6 1438.8 1607.3 1444.1 1603.3C1449.3 1599.4 1455.6 1594.5 1458.1 1592.3C1460.5 1590.2 1467.7 1583.5 1473.9 1577.5C1480.2 1571.4 1489.9 1561 1495.4 1554.4C1501 1547.8 1506.8 1540.9 1508.2 1538.9C1509.6 1537 1513.2 1531.8 1516.2 1527.4C1519.2 1523 1524.6 1514.3 1528.2 1507.9C1531.9 1501.6 1536.4 1493.3 1538.3 1489.4C1540.2 1485.6 1544 1477.3 1546.6 1470.9C1549.2 1464.6 1552.9 1454.7 1554.7 1448.9C1556.6 1443.2 1559.4 1433.3 1561 1426.9C1562.6 1420.6 1564.9 1410.3 1566 1403.9C1567.1 1397.6 1568.5 1387 1569.2 1380.4C1570 1373.2 1570.5 1354.5 1570.5 1333.4L1570.6 1298.4L1044.3 1297.4C1048.1 1284.3 1050.6 1276.8 1052.3 1272.4C1054 1268 1058.2 1259 1061.6 1252.4C1064.9 1245.8 1070.5 1236.2 1074 1230.9C1077.5 1225.7 1082.8 1218.3 1085.9 1214.5C1089 1210.7 1095.6 1203.5 1100.6 1198.5C1105.5 1193.5 1112.9 1186.7 1117.1 1183.3C1121.2 1180 1128.8 1174.4 1134.1 1170.9C1139.3 1167.4 1148.5 1162 1154.6 1158.9C1160.6 1155.8 1170.5 1151.3 1176.6 1149.1C1182.6 1146.8 1190.9 1144 1195.1 1142.9C1199.2 1141.7 1206.8 1139.9 1212.1 1138.9C1217.3 1137.9 1226.3 1136.6 1232.1 1136C1238.7 1135.3 1283.6 1134.9 1354.8 1134.9H1467.1L1467.6 1272.4H1570.6L1571 1031.9C1307.9 1032.2 1229.5 1032.4 1227.1 1032.6ZM326.1 1996.9L439.3 1996.4C456.1 1963.9 461 1953.9 461 1953.2C461.1 1952.2 452.1 1951.9 419.6 1951.9H378.1V1925.9C423.4 1926 425.7 1925.8 427.1 1924.2C428 1923.2 431.1 1917.9 434 1912.4C437 1906.9 440.7 1900 442.3 1896.9C444 1893.9 446.1 1890.1 447.2 1888.4C448.2 1886.8 448.7 1885.1 448.3 1884.7C447.9 1884.2 431.9 1883.9 412.8 1883.9H378.1V1859.9L436.6 1860L459.1 1815.9H326.1V1996.9ZM644.1 1906.4V1996.9H696.1V1944.9C721.2 1944.9 731.5 1944.5 735.1 1943.9C738.6 1943.3 744.5 1941.9 748.1 1940.7C751.6 1939.6 757.5 1936.9 761.1 1934.8C764.6 1932.7 769.7 1928.8 772.4 1926.2C775 1923.6 778.8 1919 780.8 1915.9C782.8 1912.9 785.5 1907.7 786.8 1904.4C788.1 1901.1 789.6 1894.4 790.3 1889.4C791.2 1882.7 791.2 1878.2 790.3 1871.4C789.6 1865.8 788 1859.6 786.1 1854.9C784.4 1850.8 781.8 1845.6 780.3 1843.4C778.8 1841.2 775.2 1837.1 772.3 1834.2C769.4 1831.3 764 1827.3 760.3 1825.2C756.6 1823.2 750.2 1820.4 746.1 1819L738.6 1816.5L644.2 1815.8L644.1 1906.4ZM694.3 1858.7L708.4 1859.2C720.1 1859.5 723.3 1859.9 727 1861.7C730 1863.1 732.6 1865.4 734.8 1868.6C737.6 1872.8 738.1 1874.3 738 1879.7C738 1883.2 737.5 1887.2 736.9 1888.7C736.4 1890.2 734.7 1892.8 733.2 1894.4C731.7 1895.9 728.7 1898.1 726.5 1899.1C723.2 1900.6 720 1900.9 694 1901L694.1 1879.9L694.3 1858.7ZM1016.1 1906.4V1996.9H1067.1L1067.6 1939.4H1082.4L1115.1 1996.9C1158.5 1996.9 1171.3 1996.6 1171.5 1996.2C1171.8 1995.8 1171 1993.8 1169.9 1991.9C1168.7 1990 1163.5 1981.2 1158.3 1972.4C1153.1 1963.6 1145.3 1950.3 1140.9 1942.9C1136.6 1935.5 1133 1929.2 1133.1 1928.9C1133.1 1928.6 1135.4 1927.1 1138.2 1925.4C1141 1923.8 1146.3 1919.3 1149.9 1915.4C1153.6 1911.5 1157.8 1906.1 1159.2 1903.4C1160.7 1900.7 1162.7 1895.5 1163.6 1891.9C1164.6 1888.3 1165.3 1881.8 1165.3 1877.4C1165.3 1873 1164.6 1866.3 1163.6 1862.4C1162.7 1858.6 1160.6 1852.5 1158.9 1848.9C1156.7 1844.4 1153.5 1840.2 1148.2 1834.9C1143.5 1830.3 1138.1 1826 1134.1 1824C1130.5 1822.1 1124.9 1819.6 1121.6 1818.5C1115.9 1816.6 1112.5 1816.5 1065.9 1816.2L1016.2 1815.8L1016.1 1906.4ZM1066.3 1857.7L1081.9 1858.2C1092.8 1858.5 1098.6 1859.1 1101 1860.1C1103 1861 1106 1863.3 1107.8 1865.3C1109.6 1867.3 1111.5 1870.6 1112 1872.7C1112.6 1874.8 1113 1877.4 1113 1878.5C1113 1879.6 1112.4 1882.2 1111.8 1884.3C1111.1 1886.5 1109.3 1889.7 1107.8 1891.6C1105.9 1894 1103.5 1895.4 1099.8 1896.5C1096.2 1897.5 1090 1898 1066 1898L1066.2 1877.8L1066.3 1857.7ZM1178.2 1840.2L1178.5 1864.5L1229 1865V1997H1281V1865H1331V1816H1178L1178.2 1840.2Z" fill="white"/>
</svg>
