<svg width="109" height="114" viewBox="0 0 109 114" fill="none" xmlns="http://www.w3.org/2000/svg">
<path fill-rule="evenodd" clip-rule="evenodd" d="M28.746 7.20199C28.9547 7.56641 28.4851 9.02407 27.8067 10.4297C26.6587 12.6682 26.5021 13.4491 26.763 16.1562C26.9718 18.0304 27.598 20.1127 28.3285 21.3622C29.0069 22.5075 30.5202 24.2254 31.616 25.1625C32.7119 26.0996 35.7385 27.9217 38.3476 29.1711C40.9567 30.4205 44.1921 31.7741 45.601 32.1385C47.0099 32.5029 48.3145 33.0755 48.5232 33.3358C48.732 33.5961 49.0451 35.0538 49.2016 36.4594C49.4104 38.1253 50.0365 39.7912 50.9758 41.0927C51.7586 42.238 52.8544 43.3833 53.3241 43.6957C54.0546 44.1642 54.4721 44.008 55.5679 42.9668C56.2985 42.238 57.3943 40.7283 57.9161 39.583C58.4902 38.4377 58.9598 36.6677 58.9076 35.6785C58.9076 34.6894 59.2207 33.5961 59.586 33.2838C59.9513 32.9714 61.9342 32.1905 63.9172 31.5138C65.9001 30.8891 69.1876 29.4834 71.2227 28.4423C73.2057 27.4011 75.9192 25.5269 77.2238 24.2254C78.7371 22.7678 79.9373 20.9457 80.5113 19.2798C80.9809 17.8221 81.3984 15.8439 81.3984 14.8547C81.3984 13.8656 80.8244 11.7312 80.0938 10.1694C79.3633 8.6076 78.8936 7.20199 79.0502 7.04581C79.2067 6.88963 79.9373 7.14993 80.72 7.56641C81.5028 7.98288 83.4335 9.54467 84.999 11.0023C86.6167 12.46 88.5996 14.9589 89.4345 16.4686C90.6869 18.7071 91 19.9045 91 22.4034C90.9478 24.6419 90.6347 26.2037 89.7476 27.8696C89.1214 29.1711 88.0256 30.9411 87.3994 31.7741C86.2514 33.3358 86.2514 33.44 86.721 42.7066C87.0863 49.4222 87.0863 54.1596 86.6688 59.3656C86.3036 63.3742 85.6774 68.3198 85.2077 70.2981C84.7903 72.2763 83.7988 75.452 83.0682 77.3261C82.3377 79.2002 81.0853 81.7512 80.3025 83.0526C79.4676 84.3541 74.8755 90.2368 70.0747 96.1716C65.2739 102.106 60.9949 106.948 60.6296 107C60.3166 107 60.0035 106.844 60.0035 106.584C60.0556 106.375 58.8032 104.97 57.2899 103.46C55.7766 101.95 54.2633 100.701 53.8981 100.753C53.5328 100.753 52.0717 101.95 50.6106 103.356C49.2016 104.761 48.0014 106.167 48.0014 106.479C48.0014 106.792 47.6883 106.948 47.2709 106.844C46.8534 106.792 42.7831 102.158 38.2432 96.5881C33.7033 91.0177 29.1634 85.2391 28.172 83.8335C27.2327 82.3759 25.8759 79.877 25.1975 78.2111C24.5192 76.5973 23.5277 73.3175 22.9537 70.9228C22.3797 68.5801 21.7013 64.5715 21.4404 61.9686C21.1273 59.1053 21.1273 57.127 21.4404 56.8667C21.7013 56.6585 22.745 57.5956 23.7886 58.9491C24.7801 60.3547 27.0761 62.9577 28.9025 64.8318C31.616 67.6951 32.2422 68.6842 32.764 71.079C33.1293 72.6407 34.173 75.2958 35.1123 76.9617C35.9994 78.5755 39.026 82.6362 46.6968 92.0069L46.8534 86.5927C46.9056 83.6774 46.749 80.3976 46.4359 79.4085C46.175 78.4193 45.3401 76.6493 44.6095 75.504C43.879 74.3587 42.1569 72.7449 40.8524 71.8599C39.4956 70.9748 37.5649 69.361 36.5734 68.1636C35.5297 67.0183 34.4339 65.0401 34.0686 63.7386C33.7555 62.4891 33.3381 59.8862 33.1815 57.9079C32.9206 55.0446 33.025 54.4199 33.6512 54.4199C34.0686 54.4199 34.5383 54.8364 34.6948 55.3049C34.7992 55.8255 35.7906 57.1791 36.8865 58.3244C37.9823 59.4697 40.2262 61.0835 41.896 61.8644C43.5137 62.6453 45.3401 63.27 45.9141 63.27C46.8534 63.27 46.9578 62.9056 46.9578 60.4068C46.9578 58.6888 46.4881 56.3461 45.8097 54.5241C45.1835 52.9102 44.0355 50.8799 43.305 50.0469C42.5744 49.214 40.5915 47.6001 38.8694 46.4548C37.1474 45.2575 33.3902 42.5504 30.5202 40.4159C27.6501 38.2294 23.9973 35.1579 22.4319 33.5961C20.8142 32.0344 18.9356 29.5355 18.2572 28.1299C17.318 26.2037 16.9527 24.694 17.0049 22.4034C17.0049 20.2169 17.3701 18.603 18.1529 17.0412C18.7791 15.8439 20.0836 13.9697 21.0229 12.9285C21.91 11.8873 23.9452 10.0132 25.5106 8.81583C27.4936 7.25405 28.4851 6.73346 28.746 7.20199ZM70.6487 45.5698C68.0918 47.1837 65.2217 49.4222 64.2824 50.5675C63.3432 51.6608 62.2473 53.7432 61.8298 55.2008C61.4124 56.6064 61.0471 58.9491 60.9427 60.4068C60.7862 62.6453 60.9427 63.0097 61.8298 63.1659C62.4039 63.27 64.2824 62.6453 66.0045 61.8124C67.9352 60.8753 70.0225 59.3135 71.3793 57.7517C72.5795 56.3461 73.6232 55.0446 73.571 54.7843C73.571 54.5761 73.9362 54.4199 74.3537 54.4199C74.7712 54.4199 75.1365 54.5761 75.1365 54.7843C75.1365 55.0446 74.8755 57.127 74.6146 59.4697C74.3015 61.8644 73.6232 64.6756 73.1013 65.7168C72.5273 66.8101 71.3271 68.4239 70.3356 69.3089C69.3964 70.194 67.6743 71.5475 66.5263 72.3284C65.3783 73.1093 63.9172 74.4628 63.3431 75.3999C62.717 76.337 61.9342 78.0029 61.6211 79.1482C61.2558 80.3456 61.0471 83.4691 61.1515 86.6447L61.308 92.0069C65.3261 86.9571 67.7787 83.9377 69.2398 82.0635C70.7531 80.1894 72.5795 77.5864 73.2579 76.2849C73.9884 74.9834 75.0321 71.7557 75.6583 69.1007C76.2323 66.4977 76.9628 61.448 77.2759 57.9079C77.589 54.4199 77.6412 49.4222 77.4847 46.8713C77.2759 44.2683 76.9628 41.8736 76.7541 41.5092C76.4932 40.9886 76.2845 41.0406 75.867 41.7174C75.5539 42.186 73.2057 43.9039 70.6487 45.5698Z" fill="white"/>
</svg>
