<svg width="109" height="114" viewBox="0 0 109 114" fill="none" xmlns="http://www.w3.org/2000/svg">
<path d="M50.0487 99.5001C47.71 95.4678 44.7261 90.1453 43.5164 87.7259L41.1777 83.3711L46.0971 84.0969C48.7583 84.4195 52.6293 84.7421 54.6454 84.8227C56.6615 84.8227 60.5325 84.5001 68.355 83.613L63.4357 92.3227C60.6938 97.0807 57.7099 102.323 56.7422 103.936C55.8551 105.629 54.8874 107 54.6454 107C54.4035 107 52.3067 103.613 50.0487 99.5001Z" fill="white"/>
<path d="M38.033 68.0492C39.7265 64.8234 41.9039 61.0331 42.791 59.5815L44.4845 56.9202L49.1619 64.017C51.7426 67.8879 54.1619 71.1137 54.6458 71.1137C55.1297 71.1137 57.6297 67.8073 64.9683 56.5977L66.5006 59.4202C67.3877 60.9525 69.5651 64.8234 71.2586 68.0492C73.5167 72.1621 75.2909 74.3395 77.6296 75.7911C80.4521 77.5653 80.936 78.3718 81.5005 81.7588C81.8231 83.8556 82.065 87.3233 82.065 89.4201C82.065 91.5975 81.7424 93.291 81.2586 93.291C80.7747 93.291 80.1295 91.9201 79.7263 90.2265C79.3231 88.6136 78.6779 85.7911 78.2747 84.0169C77.7909 81.7588 76.9844 80.4685 75.6134 79.904C74.0812 79.1782 71.5006 79.2588 64.3232 80.3072C55.6942 81.5975 54.4039 81.5975 45.3716 80.3072C39.4039 79.5008 34.8878 79.2588 33.6781 79.7427C31.9846 80.3072 31.5007 81.1943 30.533 85.7911C29.8878 88.8556 29.3233 91.7588 29.162 92.2427C29.0007 92.8072 28.5169 93.291 28.033 93.291C27.5491 93.291 27.2266 91.1943 27.2266 88.6136C27.2266 86.1137 27.5491 82.6459 27.8717 80.9524C28.2749 78.4524 29.162 77.404 31.662 75.7911C34.0007 74.3395 35.7749 72.1621 38.033 68.0492Z" fill="white"/>
<path d="M89.4827 59.419C89.9666 57.8867 90.5311 56.3545 90.6924 56.0319C90.8537 55.6287 91.3376 55.3867 91.8214 55.3867C92.3053 55.3867 92.386 57.4028 92.0634 60.4673C91.8214 63.2093 91.5795 65.4673 91.4989 65.548C91.4182 65.548 89.1602 66.9189 86.4989 68.5318C83.8376 70.1447 81.4183 71.5157 81.0957 71.5157C80.6925 71.5157 81.0957 70.3867 81.9021 69.0157C82.6279 67.6447 84.4828 65.548 85.9344 64.3383C87.386 63.2093 88.9989 60.9512 89.4827 59.419Z" fill="white"/>
<path d="M17.7903 65.5482C17.7097 65.4676 17.3871 63.1289 17.1452 60.3063C16.8226 56.516 16.9032 55.2257 17.629 55.4676C18.1936 55.6289 19.0806 57.3225 19.6452 59.2579C20.371 61.2741 21.7419 63.3708 23.2742 64.4999C24.5645 65.4676 26.4193 67.4837 27.3064 68.9353C28.1129 70.3063 28.8387 71.6772 28.8387 71.9192C28.8387 72.1611 26.4193 70.7902 23.4355 68.9353C20.371 67.0805 17.871 65.5482 17.7903 65.5482Z" fill="white"/>
<path d="M46.4188 53.1291C46.3381 52.7259 48.0317 49.8227 50.1284 46.6775C52.2252 43.4517 54.322 40.8711 54.7252 40.8711C55.1284 40.8711 57.0639 43.5324 59.08 46.6775C61.0961 49.9033 62.709 52.8065 62.709 53.1291C62.709 53.5323 61.0155 56.3549 58.8381 59.4194C56.7413 62.5645 54.8865 65.1452 54.6446 65.1452C54.4026 65.1452 52.5478 62.5645 50.3704 59.4194C48.2736 56.3549 46.4994 53.4517 46.4188 53.1291Z" fill="white"/>
<path d="M66.6602 52.5643L74.4827 29.8225C80.4504 12.1613 82.5472 7 83.5149 7C84.3214 7 86.3375 8.6129 88.1923 10.4677C89.9665 12.4032 92.2246 15.9516 93.2729 18.6935C94.6439 22.1612 95.2084 25.2257 95.2084 29.5805C95.2084 32.887 94.8052 37.0805 94.3213 38.8547C93.8375 40.6289 90.1278 47.8869 86.0149 54.9837C81.9827 62.0804 78.273 68.532 77.7085 69.3384C76.9827 70.5481 76.0956 69.4997 66.6602 52.5643Z" fill="white"/>
<path d="M15.9355 18.6935C17.0645 15.8709 19.2419 12.4032 21.1774 10.4677C23.0322 8.53225 25.129 7 25.8548 7C26.9032 7 28.1935 9.90321 31.1773 18.8548C33.3548 25.4677 36.8225 35.7095 42.6289 52.5643L37.7096 61.4352C34.9676 66.3546 32.7096 70.3868 32.6289 70.4675C32.5483 70.6287 29.2419 65.1449 25.2903 58.3707C21.3387 51.6772 17.1451 44.0966 16.0161 41.6773C14.3226 38.0482 14 36.0321 14 30.387C14.0806 25.1451 14.5645 22.4032 15.9355 18.6935Z" fill="white"/>
</svg>
