<svg width="109" height="114" viewBox="0 0 109 114" fill="none" xmlns="http://www.w3.org/2000/svg">
<path fill-rule="evenodd" clip-rule="evenodd" d="M54.8013 7C54.8458 7 55.5348 8.99987 57.791 15.8883L67.3494 15.9439L63.5705 18.6548C61.4921 20.1436 59.7472 21.3991 59.7027 21.4324C59.6583 21.4657 60.2695 23.4989 61.0698 25.9432C61.87 28.3875 62.5035 30.3985 62.4702 30.4207C62.4257 30.4318 60.9475 29.4097 59.1803 28.1431C57.4021 26.8654 55.6904 25.6432 54.7902 24.9877L50.978 27.7209C48.8885 29.2208 47.1435 30.4429 47.0879 30.4429C47.0435 30.4318 47.6659 28.4209 49.9221 21.4991L47.6326 19.8547C46.3766 18.9548 44.6539 17.7326 43.8203 17.1327C42.9868 16.5438 42.2977 16.0216 42.2977 15.9772C42.2866 15.9217 44.4205 15.8883 51.7893 15.8772L53.1675 11.6886C53.9233 9.38874 54.579 7.38886 54.6346 7.25554C54.6902 7.1111 54.7568 7 54.8013 7ZM16.0012 31.454C16.179 31.4429 16.6013 31.4873 16.9125 31.554C17.2349 31.6095 17.735 31.7762 18.024 31.9206C18.3129 32.054 18.7909 32.3873 19.0909 32.665C19.4244 32.965 19.7689 33.4428 19.9912 33.8872C20.3024 34.5427 20.3357 34.6982 20.3357 35.6648C20.3357 36.6314 20.3024 36.787 19.9801 37.4425C19.7467 37.9314 19.4244 38.3535 18.9798 38.7535C18.6019 39.1091 18.0907 39.4424 17.7239 39.5868C17.2682 39.7535 16.8458 39.8201 16.1123 39.8201C15.2009 39.8312 15.0453 39.7979 14.3562 39.4646C13.945 39.2757 13.3893 38.8868 13.1114 38.6091C12.8336 38.3313 12.4779 37.8202 12.3001 37.4758C12.0333 36.8981 12 36.7092 12 35.6648C12 34.5982 12.0333 34.4427 12.3334 33.8316C12.5113 33.465 12.8891 32.9428 13.167 32.6761C13.4449 32.4095 13.8561 32.0984 14.0784 31.9873C14.3118 31.8651 14.7675 31.7095 15.0787 31.6206C15.401 31.5318 15.8122 31.454 16.0012 31.454ZM26.971 88.9947C27.0821 88.9947 27.7601 89.2281 28.4826 89.5058C29.1939 89.7836 30.3609 90.3058 31.0611 90.6724C31.7613 91.0279 32.9394 91.6946 35.0067 92.9834L35.2512 92.239C35.3957 91.8279 35.718 90.928 35.9736 90.2391C36.2404 89.5503 36.4849 89.0281 36.5182 89.0725C36.5627 89.1281 36.6516 89.7391 36.7183 90.4391C36.785 91.1502 36.8739 92.3056 37.0072 94.3388L39.0634 95.7054C40.1971 96.4609 41.6753 97.3942 42.3421 97.7831C43.0201 98.1719 44.0648 98.7163 44.6761 99.0052C45.2874 99.283 46.0432 99.6052 46.3433 99.7163C46.6545 99.8274 46.9546 99.9607 47.0101 100.005C47.0768 100.05 46.7212 100.194 46.2321 100.316C45.7431 100.438 44.9429 100.616 44.4538 100.705C43.9648 100.794 42.9868 100.927 42.2866 100.994C41.5864 101.061 40.097 101.105 36.9517 101.05V101.549C36.9517 101.827 37.0517 102.727 37.1851 103.549C37.3073 104.383 37.4963 105.483 37.6074 105.994C37.7297 106.516 37.7964 106.971 37.7741 106.994C37.7519 107.027 37.5963 106.927 37.4407 106.771C37.2851 106.627 36.9072 106.094 36.5849 105.605C36.2737 105.116 35.7847 104.172 35.4957 103.494C35.2067 102.827 34.8955 101.972 34.7844 101.605C34.6844 101.238 34.5399 100.883 34.4732 100.816C34.3954 100.75 33.8619 100.616 33.2839 100.516C32.706 100.405 32.1281 100.261 32.0058 100.183C31.8835 100.094 31.4612 99.6385 31.0722 99.1497C30.6832 98.6719 30.0941 97.872 29.7718 97.3831C29.4606 96.8942 28.9494 95.9943 28.6382 95.3832C28.3381 94.7722 27.9602 93.9055 27.7935 93.4389C27.6268 92.9834 27.3933 92.239 27.2822 91.7723C27.1599 91.3168 27.0043 90.5058 26.9154 89.9725C26.7709 89.0503 26.7709 88.9947 26.971 88.9947Z" fill="white"/>
<path d="M14.8894 46.0872C14.8005 45.365 14.7227 44.4317 14.7227 43.9984C14.7227 43.4799 14.7671 43.2207 14.856 43.2207C14.9227 43.2207 15.1672 43.6096 15.3784 44.0762C15.6007 44.5428 16.1564 45.5094 16.6343 46.2094C17.1011 46.9205 17.868 47.976 18.3348 48.5537C18.8016 49.1314 19.6018 50.0314 20.102 50.5536C20.6133 51.0758 21.4135 51.8646 21.8803 52.309C22.3471 52.7423 23.314 53.5756 24.0254 54.1422C24.7478 54.7089 25.8148 55.5088 26.3927 55.9088C26.9706 56.3088 28.0487 56.9976 28.7823 57.442C29.5158 57.8864 30.1827 58.2975 30.2605 58.342C30.3605 58.4197 30.2383 58.653 29.8048 59.2419C29.4714 59.6863 28.9045 60.5085 28.5378 61.0529C28.171 61.5973 27.5597 62.575 27.1707 63.2194C26.7817 63.8638 26.126 65.0415 24.9812 67.2747L23.8698 65.7748C23.2585 64.9526 22.3582 63.6749 21.8692 62.9417C21.3801 62.2084 20.5688 60.9085 20.0686 60.053C19.5685 59.1975 18.7905 57.7531 18.3348 56.8309C17.8902 55.9199 17.2456 54.4644 16.9122 53.6089C16.5676 52.7534 16.1231 51.4757 15.9119 50.7758C15.7007 50.0758 15.4229 49.0203 15.2895 48.4426C15.1672 47.8649 14.9894 46.7983 14.8894 46.0872Z" fill="white"/>
<path d="M92.8449 46.3318C93.3117 45.6319 93.8897 44.6653 94.1342 44.1986V44.1875C94.3787 43.7209 94.6344 43.332 94.7122 43.332C94.79 43.332 94.8566 43.4209 94.8566 43.5209C94.8566 43.632 94.8011 44.3209 94.7344 45.0541C94.6788 45.7874 94.4788 47.1096 94.3009 47.9984C94.1231 48.8872 93.7563 50.3094 93.4785 51.1649C93.2006 52.0204 92.7449 53.2981 92.4671 53.998C92.1781 54.698 91.6113 55.9757 91.1889 56.8312C90.7666 57.6867 90.0664 59.0088 89.6329 59.7754C89.1883 60.542 88.2547 62.0086 87.5656 63.053C86.8765 64.0974 85.9429 65.4084 85.4984 65.9861C85.0538 66.5639 84.6315 67.0527 84.5759 67.075C84.5203 67.0972 84.298 66.775 84.098 66.3639C83.8868 65.9417 83.4644 65.164 83.1644 64.6084C82.8532 64.0529 82.2641 63.053 81.8529 62.3864C81.4305 61.7086 80.6636 60.5643 80.1413 59.831C79.3855 58.7644 79.2299 58.4644 79.3299 58.3533C79.4077 58.2644 79.7411 58.0533 80.0746 57.8644C80.408 57.6756 81.4639 57.02 82.4086 56.3868C83.3533 55.7646 84.7871 54.7424 85.5762 54.1091C86.3653 53.4758 87.799 52.187 88.7549 51.2315C89.6996 50.276 90.8221 49.0761 91.2334 48.5539C91.6446 48.0317 92.367 47.0318 92.8449 46.3318Z" fill="white"/>
<path fill-rule="evenodd" clip-rule="evenodd" d="M93.7229 31.5082C94.1008 31.5305 94.6787 31.6527 95.001 31.7638C95.3456 31.8971 95.8457 32.2193 96.2347 32.5748C96.6348 32.9304 97.0238 33.4303 97.235 33.8303C97.5573 34.4525 97.5796 34.5747 97.5796 35.6635C97.5796 36.7079 97.5462 36.8968 97.2795 37.4412C97.1128 37.7745 96.746 38.2967 96.4459 38.5967C96.1569 38.8967 95.6901 39.2522 95.4123 39.3855C95.1344 39.5299 94.5898 39.7077 94.1897 39.7855C93.6117 39.8966 93.3117 39.8966 92.6892 39.7855C92.2669 39.7077 91.689 39.5299 91.4111 39.3855C91.1332 39.2522 90.6664 38.8967 90.3775 38.5967C90.0774 38.2967 89.6995 37.7745 89.5439 37.4412C89.2771 36.8968 89.2438 36.6968 89.2438 35.6635C89.2438 34.5858 89.266 34.4525 89.5772 33.8414C89.7662 33.4859 90.1774 32.9526 90.4997 32.6526C90.8109 32.3526 91.3111 31.9971 91.6112 31.8749C91.9001 31.7416 92.3336 31.5971 92.5781 31.5416C92.8226 31.4971 93.3339 31.4749 93.7229 31.5082ZM81.0748 88.9934C81.2081 88.9934 81.2415 89.0934 81.197 89.5156C81.1748 89.8156 81.0525 90.5267 80.9303 91.1044C80.808 91.6822 80.5302 92.6599 80.319 93.2709C80.1078 93.882 79.6966 94.8597 79.4076 95.4375C79.1075 96.0152 78.5185 97.0151 78.0961 97.6595C77.6627 98.3039 76.9958 99.1595 75.8955 100.293L74.8952 100.493C74.3506 100.593 73.4503 100.759 72.8946 100.848C72.35 100.937 70.8274 101.037 69.5047 101.07C67.9932 101.115 66.6484 101.082 65.837 101.004C65.1368 100.926 63.9587 100.748 63.2251 100.604C62.4916 100.448 61.6914 100.27 61.4469 100.204C61.2023 100.148 61.0579 100.048 61.1134 100.004C61.1801 99.9594 61.5802 99.7816 62.0026 99.6039C62.436 99.4261 63.3585 99.0039 64.0587 98.6484C64.77 98.304 65.7926 97.7484 66.3372 97.4151C66.8929 97.0818 68.7934 95.8374 70.5606 94.6597C72.3389 93.4709 74.3617 92.1599 75.0619 91.7377C75.7732 91.3155 76.8402 90.7267 77.4515 90.4267C78.0628 90.1267 79.0964 89.6823 79.7299 89.4379C80.3746 89.1934 80.9747 88.9934 81.0748 88.9934Z" fill="white"/>
<path d="M54.7131 47.8522C54.702 39.8861 54.7353 33.3309 54.7798 33.2976C54.8353 33.2643 55.0021 33.3309 55.1688 33.4532C55.3244 33.5865 56.7804 34.942 58.4031 36.4752C60.0257 38.0195 62.7376 40.6416 64.4492 42.3304C66.1497 44.008 68.6838 46.5857 70.0731 48.0522C71.4624 49.5188 73.1851 51.3742 73.9075 52.1631C74.6189 52.9519 75.9526 54.5074 76.8751 55.6073C77.7976 56.7072 78.6978 57.796 78.8979 58.0183C79.0868 58.2405 79.2535 58.4738 79.2535 58.5182C79.2647 58.5627 79.6537 59.1293 80.1093 59.7737C80.565 60.4181 81.2875 61.4847 81.7098 62.1624C82.1322 62.8402 82.7879 63.9401 83.1547 64.6067C83.5326 65.2733 83.9771 66.1177 84.155 66.4733C84.3217 66.8177 84.5217 67.0954 84.5773 67.0732C84.6329 67.051 85.0552 66.5622 85.4998 65.9844C85.9444 65.4067 86.878 64.0956 87.5671 63.0513C88.2561 62.0069 89.1898 60.5403 89.6343 59.7737C90.0678 59.0071 90.768 57.6849 91.1903 56.8294C91.6127 55.9739 92.1795 54.6962 92.4685 53.9963C92.7463 53.2963 93.202 52.0186 93.4799 51.1631C93.7577 50.3076 94.1245 48.8855 94.3023 47.9967C94.4802 47.1078 94.6802 45.719 94.7469 44.9191C94.8025 44.108 94.8358 43.397 94.8025 43.3303C94.7691 43.2636 94.8247 43.2414 94.9136 43.2748C95.0025 43.3081 95.1804 43.6414 95.2915 44.0191C95.4027 44.408 95.6138 45.1746 95.7472 45.719C95.8695 46.2634 96.0806 47.3745 96.214 48.1633C96.3696 49.1744 96.4585 50.3965 96.4919 52.2186C96.5363 53.863 96.503 55.3851 96.4252 56.3295C96.3474 57.1516 96.1696 58.5293 96.0251 59.3848C95.8806 60.2403 95.6027 61.5958 95.4138 62.3846C95.2137 63.1735 94.8581 64.4512 94.6135 65.2178C94.369 65.9844 93.8689 67.351 93.5132 68.2732C93.1576 69.1842 92.4685 70.7397 91.9906 71.7174C91.5126 72.6951 90.8458 73.9728 90.5235 74.5505C90.2012 75.1283 89.4898 76.306 87.9894 78.7169L86.7224 79.2947C86.0333 79.6169 84.8885 80.0946 84.1883 80.3613C83.4881 80.6279 82.2322 81.0834 81.4097 81.3612C80.5873 81.639 79.0868 82.1167 78.0754 82.4278L78.0614 82.4319C77.0482 82.7325 75.3362 83.2402 74.241 83.5388C73.1407 83.8388 71.618 84.2499 70.8511 84.4388C70.0842 84.6277 69.4507 84.761 69.4507 84.7499C69.4396 84.7277 69.3173 84.3721 69.184 83.9388C69.0395 83.5055 68.6282 82.4611 68.2726 81.6056C67.9058 80.7501 67.3056 79.4724 66.9389 78.7725C66.561 78.0725 65.9386 76.9393 65.5385 76.2726C65.1383 75.606 64.3048 74.3061 63.6935 73.3839C63.0711 72.4729 62.0597 71.0396 61.4373 70.2175C60.826 69.3953 59.6701 67.9398 58.8699 66.9955C58.0807 66.0511 56.8248 64.6067 54.7353 62.3291L54.7131 47.8522Z" fill="white"/>
<path d="M44.1658 43.3181C46.9555 40.5405 50.4343 37.1296 51.9014 35.7408C53.3685 34.352 54.6022 33.2188 54.6466 33.2188C54.7022 33.2188 54.7466 39.785 54.7911 62.3835L53.7241 63.5501C53.1462 64.1945 52.1903 65.2722 51.6124 65.9389C51.0233 66.6055 50.1564 67.661 49.6674 68.2721C49.1784 68.8831 48.4004 69.8831 47.9336 70.4941C47.4779 71.1052 46.6221 72.3051 46.0441 73.1606C45.4551 74.0161 44.6104 75.3383 44.1547 76.1049C43.699 76.8715 42.9877 78.1159 42.5876 78.8825C42.1874 79.6491 41.5873 80.9268 41.2538 81.7156C40.9204 82.5045 40.5314 83.5266 40.3869 83.971C40.2424 84.4155 40.0757 84.771 40.009 84.771C39.9424 84.771 39.0199 84.5377 37.9529 84.2599C36.8859 83.9822 34.9854 83.46 33.7294 83.1044C32.4735 82.7489 30.4285 82.1267 29.1726 81.7156C27.9166 81.3046 26.0939 80.6601 25.1158 80.2713C24.1378 79.8824 22.9597 79.3936 22.504 79.1825C21.6704 78.8047 21.6704 78.8047 20.8813 77.5937C20.4367 76.9271 19.7254 75.7605 19.2808 74.9938C18.8473 74.2272 18.0916 72.8051 17.6137 71.8274C17.1357 70.8497 16.4467 69.3053 16.0799 68.3832C15.7131 67.4721 15.2352 66.15 15.0129 65.4722C14.7906 64.7834 14.435 63.5279 14.2238 62.6946C14.0126 61.8502 13.7459 60.617 13.6236 59.9393C13.5014 59.2615 13.3235 58.0172 13.2235 57.1617C13.1012 56.1506 13.0234 54.7396 13.0234 53.1619C13.0234 51.8176 13.079 50.2177 13.1568 49.6066C13.2235 48.9955 13.3569 48.0178 13.4569 47.4401C13.5569 46.8623 13.7348 46.0068 13.8459 45.5513C13.9682 45.0958 14.1682 44.3736 14.3127 43.9625C14.4461 43.5514 14.5906 43.2181 14.635 43.2181C14.6906 43.2181 14.7239 43.5625 14.7239 43.9958C14.7239 44.4291 14.8017 45.3624 14.8906 46.0846C14.9907 46.7957 15.1685 47.8623 15.2908 48.44C15.4241 49.0177 15.702 50.0732 15.9132 50.7732C16.1243 51.4731 16.5689 52.7508 16.9135 53.6063C17.2469 54.4618 17.8915 55.9173 18.3361 56.8283C18.7918 57.7505 19.5698 59.1949 20.0699 60.0504C20.5701 60.9059 21.3814 62.2058 21.8704 62.9391C22.3595 63.6724 23.2597 64.95 24.9825 67.2721L25.716 65.8278C26.1272 65.0389 26.783 63.8612 27.172 63.2168C27.561 62.5724 28.1723 61.5947 28.539 61.0503C28.9058 60.5059 29.4727 59.6837 29.8061 59.2504C30.1284 58.806 30.3618 58.4394 30.3062 58.4394C30.2618 58.4394 30.284 58.3949 30.3396 58.3505C30.4063 58.306 31.0287 57.5727 31.7289 56.7172C32.4179 55.8617 33.6516 54.4174 34.4519 53.4952C35.2632 52.5842 36.6303 51.0509 37.5083 50.1066C38.3863 49.1622 41.3761 46.1068 44.1658 43.3181Z" fill="white"/>
</svg>
